G04 PROTEUS GERBER X2 FILE*
%TF.GenerationSoftware,Labcenter,Proteus,8.12-SP0-Build30713*%
%TF.CreationDate,2021-04-15T12:14:11+00:00*%
%TF.FileFunction,Paste,Bot*%
%TF.FilePolarity,Positive*%
%TF.Part,Single*%
%TF.SameCoordinates,{5a193cc5-51b4-4a6d-ad6d-b15ded965af5}*%
%FSLAX26Y26*%
%MOIN*%
G01*
%TA.AperFunction,Material*%
%ADD46R,0.045000X0.057000*%
%ADD47R,0.037000X0.057000*%
%TA.AperFunction,Material*%
%ADD48R,0.025000X0.080000*%
%TA.AperFunction,Material*%
%ADD49R,0.035433X0.083465*%
%TA.AperFunction,Material*%
%ADD50R,0.071000X0.045000*%
%ADD51R,0.120000X0.060000*%
%ADD52R,0.057000X0.037000*%
%ADD53R,0.057000X0.045000*%
%ADD54R,0.040000X0.060000*%
%TA.AperFunction,Profile*%
%ADD71C,0.008000*%
%TD.AperFunction*%
D46*
X+4960535Y+124071D03*
X+5031402Y+124071D03*
X+4822740Y-112150D03*
X+4751874Y-112150D03*
X+4960535Y+5961D03*
X+5031402Y+5961D03*
X+4960535Y-466480D03*
X+5031402Y-466480D03*
X+4960535Y-348370D03*
X+5031402Y-348370D03*
X+5031402Y-230260D03*
X+4960535Y-230260D03*
D47*
X+4822740Y+124071D03*
X+4744000Y+124071D03*
X+4822740Y+5961D03*
X+4744000Y+5961D03*
D48*
X+4712535Y-230260D03*
X+4762535Y-230260D03*
X+4812535Y-230260D03*
X+4862535Y-230260D03*
X+4862535Y-435260D03*
X+4812535Y-435260D03*
X+4762535Y-435260D03*
X+4712535Y-435260D03*
D46*
X+4960535Y-112150D03*
X+5031402Y-112150D03*
X+4291244Y+124071D03*
X+4362110Y+124071D03*
X+4153449Y-112150D03*
X+4082583Y-112150D03*
X+4291244Y+5961D03*
X+4362110Y+5961D03*
X+4291244Y-466480D03*
X+4362110Y-466480D03*
X+4291244Y-348370D03*
X+4362110Y-348370D03*
X+4362110Y-230260D03*
X+4291244Y-230260D03*
D47*
X+4153449Y+124071D03*
X+4074709Y+124071D03*
X+4153449Y+5961D03*
X+4074709Y+5961D03*
D48*
X+4042819Y-230260D03*
X+4092819Y-230260D03*
X+4142819Y-230260D03*
X+4192819Y-230260D03*
X+4192819Y-435260D03*
X+4142819Y-435260D03*
X+4092819Y-435260D03*
X+4042819Y-435260D03*
D46*
X+4291244Y-112150D03*
X+4362110Y-112150D03*
X+3621953Y+124071D03*
X+3692819Y+124071D03*
X+3484157Y-112150D03*
X+3413291Y-112150D03*
X+3621953Y+5961D03*
X+3692819Y+5961D03*
X+3621953Y-466480D03*
X+3692819Y-466480D03*
X+3621953Y-348370D03*
X+3692819Y-348370D03*
X+3692819Y-230260D03*
X+3621953Y-230260D03*
D47*
X+3484157Y+124071D03*
X+3405417Y+124071D03*
X+3484157Y+5961D03*
X+3405417Y+5961D03*
D48*
X+3373528Y-230260D03*
X+3423528Y-230260D03*
X+3473528Y-230260D03*
X+3523528Y-230260D03*
X+3523528Y-435260D03*
X+3473528Y-435260D03*
X+3423528Y-435260D03*
X+3373528Y-435260D03*
D46*
X+3621953Y-112150D03*
X+3692819Y-112150D03*
X+2952661Y+124071D03*
X+3023528Y+124071D03*
X+2814866Y-112150D03*
X+2744000Y-112150D03*
X+2952661Y+5961D03*
X+3023528Y+5961D03*
X+2952661Y-466480D03*
X+3023528Y-466480D03*
X+2952661Y-348370D03*
X+3023528Y-348370D03*
X+3023528Y-230260D03*
X+2952661Y-230260D03*
D47*
X+2814866Y+124071D03*
X+2736126Y+124071D03*
X+2814866Y+5961D03*
X+2736126Y+5961D03*
D48*
X+2704236Y-230260D03*
X+2754236Y-230260D03*
X+2804236Y-230260D03*
X+2854236Y-230260D03*
X+2854236Y-435260D03*
X+2804236Y-435260D03*
X+2754236Y-435260D03*
X+2704236Y-435260D03*
D46*
X+2952661Y-112150D03*
X+3023528Y-112150D03*
X+2283370Y+124071D03*
X+2354236Y+124071D03*
X+2145575Y-112150D03*
X+2074709Y-112150D03*
X+2283370Y+5961D03*
X+2354236Y+5961D03*
X+2283370Y-466480D03*
X+2354236Y-466480D03*
X+2283370Y-348370D03*
X+2354236Y-348370D03*
X+2354236Y-230260D03*
X+2283370Y-230260D03*
D47*
X+2145575Y+124071D03*
X+2066835Y+124071D03*
X+2145575Y+5961D03*
X+2066835Y+5961D03*
D48*
X+2034945Y-230260D03*
X+2084945Y-230260D03*
X+2134945Y-230260D03*
X+2184945Y-230260D03*
X+2184945Y-435260D03*
X+2134945Y-435260D03*
X+2084945Y-435260D03*
X+2034945Y-435260D03*
D46*
X+2283370Y-112150D03*
X+2354236Y-112150D03*
X+1614079Y+124071D03*
X+1684945Y+124071D03*
X+1476283Y-112150D03*
X+1405417Y-112150D03*
X+1614079Y+5961D03*
X+1684945Y+5961D03*
X+1614079Y-466480D03*
X+1684945Y-466480D03*
X+1614079Y-348370D03*
X+1684945Y-348370D03*
X+1684945Y-230260D03*
X+1614079Y-230260D03*
D47*
X+1476283Y+124071D03*
X+1397543Y+124071D03*
X+1476283Y+5961D03*
X+1397543Y+5961D03*
D48*
X+1365654Y-230260D03*
X+1415654Y-230260D03*
X+1465654Y-230260D03*
X+1515654Y-230260D03*
X+1515654Y-435260D03*
X+1465654Y-435260D03*
X+1415654Y-435260D03*
X+1365654Y-435260D03*
D46*
X+1614079Y-112150D03*
X+1684945Y-112150D03*
X+944787Y+124071D03*
X+1015654Y+124071D03*
X+806992Y-112150D03*
X+736126Y-112150D03*
X+944787Y+5961D03*
X+1015654Y+5961D03*
X+944787Y-466480D03*
X+1015654Y-466480D03*
X+944787Y-348370D03*
X+1015654Y-348370D03*
X+1015654Y-230260D03*
X+944787Y-230260D03*
D47*
X+806992Y+124071D03*
X+728252Y+124071D03*
X+806992Y+5961D03*
X+728252Y+5961D03*
D48*
X+696362Y-230260D03*
X+746362Y-230260D03*
X+796362Y-230260D03*
X+846362Y-230260D03*
X+846362Y-435260D03*
X+796362Y-435260D03*
X+746362Y-435260D03*
X+696362Y-435260D03*
D46*
X+944787Y-112150D03*
X+1015654Y-112150D03*
X+275496Y+124071D03*
X+346362Y+124071D03*
X+137701Y-112150D03*
X+66835Y-112150D03*
X+275496Y+5961D03*
X+346362Y+5961D03*
X+275496Y-466480D03*
X+346362Y-466480D03*
X+275496Y-348370D03*
X+346362Y-348370D03*
X+346362Y-230260D03*
X+275496Y-230260D03*
D47*
X+137701Y+124071D03*
X+58961Y+124071D03*
X+137701Y+5961D03*
X+58961Y+5961D03*
D48*
X+27071Y-230260D03*
X+77071Y-230260D03*
X+127071Y-230260D03*
X+177071Y-230260D03*
X+177071Y-435260D03*
X+127071Y-435260D03*
X+77071Y-435260D03*
X+27071Y-435260D03*
D46*
X+275496Y-112150D03*
X+346362Y-112150D03*
D47*
X+4850787Y-590000D03*
X+4929528Y-590000D03*
X+4283370Y-591480D03*
X+4362110Y-591480D03*
X+3614079Y-591480D03*
X+3692819Y-591480D03*
X+2945921Y-585000D03*
X+3024661Y-585000D03*
X+2275496Y-591480D03*
X+2354236Y-591480D03*
X+1606205Y-591480D03*
X+1684945Y-591480D03*
X+936913Y-591480D03*
X+1015654Y-591480D03*
X+267622Y-591480D03*
X+346362Y-591480D03*
D49*
X+2800000Y+1100000D03*
X+2900000Y+1100000D03*
X+3000000Y+1100000D03*
X+3100000Y+1100000D03*
X+3200000Y+1100000D03*
X+3200000Y+720000D03*
X+3100000Y+720000D03*
X+3000000Y+720000D03*
X+2900000Y+720000D03*
X+2800000Y+720000D03*
X+4000000Y+1100000D03*
X+4100000Y+1100000D03*
X+4200000Y+1100000D03*
X+4300000Y+1100000D03*
X+4400000Y+1100000D03*
X+4400000Y+720000D03*
X+4300000Y+720000D03*
X+4200000Y+720000D03*
X+4100000Y+720000D03*
X+4000000Y+720000D03*
D50*
X+3825000Y+755000D03*
X+3825000Y+873110D03*
X+3825000Y+1105000D03*
X+3825000Y+986890D03*
X+5025000Y+755000D03*
X+5025000Y+873110D03*
X+5025000Y+1105000D03*
X+5025000Y+986890D03*
D51*
X+3625000Y+840000D03*
X+3625000Y+755000D03*
X+3625000Y+1020000D03*
X+3625000Y+1105000D03*
X+4825000Y+840000D03*
X+4825000Y+755000D03*
X+4825000Y+1020000D03*
X+4825000Y+1105000D03*
D52*
X+3425000Y+840000D03*
X+3425000Y+761260D03*
X+3425000Y+1020000D03*
X+3425000Y+1098740D03*
X+4625000Y+840000D03*
X+4625000Y+761260D03*
X+4625000Y+1020000D03*
X+4625000Y+1098740D03*
X+4239370Y+503740D03*
X+4239370Y+425000D03*
X+3539370Y+503740D03*
X+3539370Y+425000D03*
X+4764370Y+503740D03*
X+4764370Y+425000D03*
D48*
X-1319000Y-405000D03*
X-1369000Y-405000D03*
X-1419000Y-405000D03*
X-1469000Y-405000D03*
X-1519000Y-405000D03*
X-1569000Y-405000D03*
X-1619000Y-405000D03*
X-1619000Y-200000D03*
X-1569000Y-200000D03*
X-1519000Y-200000D03*
X-1469000Y-200000D03*
X-1419000Y-200000D03*
X-1369000Y-200000D03*
X-1319000Y-200000D03*
X-649709Y-405000D03*
X-699709Y-405000D03*
X-749709Y-405000D03*
X-799709Y-405000D03*
X-849709Y-405000D03*
X-899709Y-405000D03*
X-949709Y-405000D03*
X-949709Y-200000D03*
X-899709Y-200000D03*
X-849709Y-200000D03*
X-799709Y-200000D03*
X-749709Y-200000D03*
X-699709Y-200000D03*
X-649709Y-200000D03*
D53*
X-1319000Y-4134D03*
X-1319000Y-75000D03*
X-649709Y-4134D03*
X-649709Y-75000D03*
D54*
X+1650000Y+800000D03*
X+1526000Y+800000D03*
X+1924000Y+800000D03*
X+1800000Y+800000D03*
D71*
X-2400000Y+300000D02*
X-2400000Y+1199213D01*
X-2400000Y+1200000D02*
X+5250000Y+1200000D01*
X+5250000Y-1400000D01*
X-2400000Y-1400000D01*
X-2400000Y-500000D01*
X-2100197Y+250646D02*
X-2099983Y-450000D01*
X-2400000Y-500000D02*
X-2150000Y-500000D01*
X-2100000Y-450000D02*
X-2100995Y-460223D01*
X-2103857Y-469678D01*
X-2108404Y-478180D01*
X-2114453Y-485547D01*
X-2121820Y-491595D01*
X-2130322Y-496143D01*
X-2139777Y-499005D01*
X-2150000Y-500000D01*
X-2150000Y+300000D02*
X-2139777Y+299005D01*
X-2130322Y+296143D01*
X-2121820Y+291595D01*
X-2114453Y+285547D01*
X-2108404Y+278180D01*
X-2103857Y+269678D01*
X-2100995Y+260223D01*
X-2100000Y+250000D01*
X-2400000Y+300000D02*
X-2150000Y+300000D01*
M02*
