G04 PROTEUS GERBER X2 FILE*
%TF.GenerationSoftware,Labcenter,Proteus,8.12-SP0-Build30713*%
%TF.CreationDate,2021-04-15T12:14:11+00:00*%
%TF.FileFunction,AssemblyDrawing,Top*%
%TF.FilePolarity,Positive*%
%TF.Part,Single*%
%TF.SameCoordinates,{5a193cc5-51b4-4a6d-ad6d-b15ded965af5}*%
%FSLAX26Y26*%
%MOIN*%
G01*
%TA.AperFunction,Material*%
%ADD30C,0.008000*%
%ADD56C,0.028000*%
%ADD57C,0.025975*%
%TA.AperFunction,Profile*%
%ADD71C,0.008000*%
%TA.AperFunction,Material*%
%ADD58C,0.026600*%
%TD.AperFunction*%
D30*
X+4270409Y-925000D02*
X+4778409Y-925000D01*
X+4778409Y+635000D01*
X+4270409Y+635000D01*
X+4270409Y-925000D01*
D56*
X+4468409Y+236000D02*
X+4468409Y+236000D01*
D57*
X+4550384Y-819050D02*
X+4576359Y-819050D01*
X+4602334Y-789828D01*
X+4602334Y-672941D01*
X+4576359Y-643719D01*
X+4446484Y-643719D01*
X+4524409Y-526831D02*
X+4498434Y-556053D01*
X+4472459Y-556053D01*
X+4446484Y-526831D01*
X+4446484Y-439166D01*
X+4472459Y-409944D01*
X+4498434Y-409944D01*
X+4524409Y-439166D01*
X+4524409Y-526831D01*
X+4550384Y-556053D01*
X+4576359Y-556053D01*
X+4602334Y-526831D01*
X+4602334Y-439166D01*
X+4576359Y-409944D01*
X+4550384Y-409944D01*
X+4524409Y-439166D01*
X+4576359Y-351500D02*
X+4472459Y-351500D01*
X+4446484Y-322278D01*
X+4446484Y-205391D01*
X+4472459Y-176169D01*
X+4576359Y-176169D01*
X+4602334Y-205391D01*
X+4602334Y-322278D01*
X+4576359Y-351500D01*
X+4602334Y-351500D02*
X+4446484Y-176169D01*
X+4498434Y-59282D02*
X+4446484Y-839D01*
X+4602334Y-839D01*
D30*
X+3601118Y-925000D02*
X+4109118Y-925000D01*
X+4109118Y+635000D01*
X+3601118Y+635000D01*
X+3601118Y-925000D01*
D56*
X+3799118Y+236000D02*
X+3799118Y+236000D01*
D57*
X+3881093Y-819050D02*
X+3907068Y-819050D01*
X+3933043Y-789828D01*
X+3933043Y-672941D01*
X+3907068Y-643719D01*
X+3777193Y-643719D01*
X+3777193Y-556053D02*
X+3777193Y-409944D01*
X+3803168Y-409944D01*
X+3933043Y-556053D01*
X+3907068Y-351500D02*
X+3803168Y-351500D01*
X+3777193Y-322278D01*
X+3777193Y-205391D01*
X+3803168Y-176169D01*
X+3907068Y-176169D01*
X+3933043Y-205391D01*
X+3933043Y-322278D01*
X+3907068Y-351500D01*
X+3933043Y-351500D02*
X+3777193Y-176169D01*
X+3829143Y-59282D02*
X+3777193Y-839D01*
X+3933043Y-839D01*
D30*
X+2931827Y-925000D02*
X+3439827Y-925000D01*
X+3439827Y+635000D01*
X+2931827Y+635000D01*
X+2931827Y-925000D01*
D56*
X+3129827Y+236000D02*
X+3129827Y+236000D01*
D57*
X+3211802Y-819050D02*
X+3237777Y-819050D01*
X+3263752Y-789828D01*
X+3263752Y-672941D01*
X+3237777Y-643719D01*
X+3107902Y-643719D01*
X+3133877Y-409944D02*
X+3107902Y-439166D01*
X+3107902Y-526831D01*
X+3133877Y-556053D01*
X+3237777Y-556053D01*
X+3263752Y-526831D01*
X+3263752Y-439166D01*
X+3237777Y-409944D01*
X+3211802Y-409944D01*
X+3185827Y-439166D01*
X+3185827Y-556053D01*
X+3237777Y-351500D02*
X+3133877Y-351500D01*
X+3107902Y-322278D01*
X+3107902Y-205391D01*
X+3133877Y-176169D01*
X+3237777Y-176169D01*
X+3263752Y-205391D01*
X+3263752Y-322278D01*
X+3237777Y-351500D01*
X+3263752Y-351500D02*
X+3107902Y-176169D01*
X+3159852Y-59282D02*
X+3107902Y-839D01*
X+3263752Y-839D01*
D30*
X+2262535Y-925000D02*
X+2770535Y-925000D01*
X+2770535Y+635000D01*
X+2262535Y+635000D01*
X+2262535Y-925000D01*
D56*
X+2460535Y+236000D02*
X+2460535Y+236000D01*
D57*
X+2542510Y-819050D02*
X+2568485Y-819050D01*
X+2594460Y-789828D01*
X+2594460Y-672941D01*
X+2568485Y-643719D01*
X+2438610Y-643719D01*
X+2438610Y-409944D02*
X+2438610Y-556053D01*
X+2490560Y-556053D01*
X+2490560Y-439166D01*
X+2516535Y-409944D01*
X+2568485Y-409944D01*
X+2594460Y-439166D01*
X+2594460Y-526831D01*
X+2568485Y-556053D01*
X+2568485Y-351500D02*
X+2464585Y-351500D01*
X+2438610Y-322278D01*
X+2438610Y-205391D01*
X+2464585Y-176169D01*
X+2568485Y-176169D01*
X+2594460Y-205391D01*
X+2594460Y-322278D01*
X+2568485Y-351500D01*
X+2594460Y-351500D02*
X+2438610Y-176169D01*
X+2490560Y-59282D02*
X+2438610Y-839D01*
X+2594460Y-839D01*
D30*
X+1593244Y-925000D02*
X+2101244Y-925000D01*
X+2101244Y+635000D01*
X+1593244Y+635000D01*
X+1593244Y-925000D01*
D56*
X+1791244Y+236000D02*
X+1791244Y+236000D01*
D57*
X+1873219Y-819050D02*
X+1899194Y-819050D01*
X+1925169Y-789828D01*
X+1925169Y-672941D01*
X+1899194Y-643719D01*
X+1769319Y-643719D01*
X+1873219Y-409944D02*
X+1873219Y-585275D01*
X+1769319Y-468388D01*
X+1925169Y-468388D01*
X+1899194Y-351500D02*
X+1795294Y-351500D01*
X+1769319Y-322278D01*
X+1769319Y-205391D01*
X+1795294Y-176169D01*
X+1899194Y-176169D01*
X+1925169Y-205391D01*
X+1925169Y-322278D01*
X+1899194Y-351500D01*
X+1925169Y-351500D02*
X+1769319Y-176169D01*
X+1821269Y-59282D02*
X+1769319Y-839D01*
X+1925169Y-839D01*
D30*
X+923953Y-925000D02*
X+1431953Y-925000D01*
X+1431953Y+635000D01*
X+923953Y+635000D01*
X+923953Y-925000D01*
D56*
X+1121953Y+236000D02*
X+1121953Y+236000D01*
D57*
X+1203928Y-819050D02*
X+1229903Y-819050D01*
X+1255878Y-789828D01*
X+1255878Y-672941D01*
X+1229903Y-643719D01*
X+1100028Y-643719D01*
X+1126003Y-556053D02*
X+1100028Y-526831D01*
X+1100028Y-439166D01*
X+1126003Y-409944D01*
X+1151978Y-409944D01*
X+1177953Y-439166D01*
X+1203928Y-409944D01*
X+1229903Y-409944D01*
X+1255878Y-439166D01*
X+1255878Y-526831D01*
X+1229903Y-556053D01*
X+1177953Y-497610D02*
X+1177953Y-439166D01*
X+1229903Y-351500D02*
X+1126003Y-351500D01*
X+1100028Y-322278D01*
X+1100028Y-205391D01*
X+1126003Y-176169D01*
X+1229903Y-176169D01*
X+1255878Y-205391D01*
X+1255878Y-322278D01*
X+1229903Y-351500D01*
X+1255878Y-351500D02*
X+1100028Y-176169D01*
X+1151978Y-59282D02*
X+1100028Y-839D01*
X+1255878Y-839D01*
D30*
X+254661Y-925000D02*
X+762661Y-925000D01*
X+762661Y+635000D01*
X+254661Y+635000D01*
X+254661Y-925000D01*
D56*
X+452661Y+236000D02*
X+452661Y+236000D01*
D57*
X+534636Y-819050D02*
X+560611Y-819050D01*
X+586586Y-789828D01*
X+586586Y-672941D01*
X+560611Y-643719D01*
X+430736Y-643719D01*
X+456711Y-556053D02*
X+430736Y-526831D01*
X+430736Y-439166D01*
X+456711Y-409944D01*
X+482686Y-409944D01*
X+508661Y-439166D01*
X+508661Y-526831D01*
X+534636Y-556053D01*
X+586586Y-556053D01*
X+586586Y-409944D01*
X+560611Y-351500D02*
X+456711Y-351500D01*
X+430736Y-322278D01*
X+430736Y-205391D01*
X+456711Y-176169D01*
X+560611Y-176169D01*
X+586586Y-205391D01*
X+586586Y-322278D01*
X+560611Y-351500D01*
X+586586Y-351500D02*
X+430736Y-176169D01*
X+482686Y-59282D02*
X+430736Y-839D01*
X+586586Y-839D01*
D30*
X-414630Y-925000D02*
X+93370Y-925000D01*
X+93370Y+635000D01*
X-414630Y+635000D01*
X-414630Y-925000D01*
D56*
X-216630Y+236000D02*
X-216630Y+236000D01*
D57*
X-134655Y-819050D02*
X-108680Y-819050D01*
X-82705Y-789828D01*
X-82705Y-672941D01*
X-108680Y-643719D01*
X-238555Y-643719D01*
X-186605Y-526831D02*
X-238555Y-468388D01*
X-82705Y-468388D01*
X-108680Y-351500D02*
X-212580Y-351500D01*
X-238555Y-322278D01*
X-238555Y-205391D01*
X-212580Y-176169D01*
X-108680Y-176169D01*
X-82705Y-205391D01*
X-82705Y-322278D01*
X-108680Y-351500D01*
X-82705Y-351500D02*
X-238555Y-176169D01*
X-186605Y-59282D02*
X-238555Y-839D01*
X-82705Y-839D01*
D71*
X-2400000Y+300000D02*
X-2400000Y+1199213D01*
X-2400000Y+1200000D02*
X+5250000Y+1200000D01*
X+5250000Y-1400000D01*
X-2400000Y-1400000D01*
X-2400000Y-500000D01*
X-2100197Y+250646D02*
X-2099983Y-450000D01*
X-2400000Y-500000D02*
X-2150000Y-500000D01*
X-2100000Y-450000D02*
X-2100995Y-460223D01*
X-2103857Y-469678D01*
X-2108404Y-478180D01*
X-2114453Y-485547D01*
X-2121820Y-491595D01*
X-2130322Y-496143D01*
X-2139777Y-499005D01*
X-2150000Y-500000D01*
X-2150000Y+300000D02*
X-2139777Y+299005D01*
X-2130322Y+296143D01*
X-2121820Y+291595D01*
X-2114453Y+285547D01*
X-2108404Y+278180D01*
X-2103857Y+269678D01*
X-2100995Y+260223D01*
X-2100000Y+250000D01*
X-2400000Y+300000D02*
X-2150000Y+300000D01*
D30*
X-2054000Y-925000D02*
X-1546000Y-925000D01*
X-1546000Y+635000D01*
X-2054000Y+635000D01*
X-2054000Y-925000D01*
D56*
X-1744000Y+236000D02*
X-1744000Y+236000D01*
D58*
X-1773400Y-590900D02*
X-1746800Y-590900D01*
X-1720200Y-560975D01*
X-1720200Y-441275D01*
X-1746800Y-411350D01*
X-1879800Y-411350D01*
X-1853200Y-321575D02*
X-1879800Y-291650D01*
X-1879800Y-201875D01*
X-1853200Y-171950D01*
X-1826600Y-171950D01*
X-1800000Y-201875D01*
X-1773400Y-171950D01*
X-1746800Y-171950D01*
X-1720200Y-201875D01*
X-1720200Y-291650D01*
X-1746800Y-321575D01*
X-1800000Y-261725D02*
X-1800000Y-201875D01*
D30*
X-1384709Y-925000D02*
X-876709Y-925000D01*
X-876709Y+635000D01*
X-1384709Y+635000D01*
X-1384709Y-925000D01*
D56*
X-1074709Y+236000D02*
X-1074709Y+236000D01*
D58*
X-1104109Y-590900D02*
X-1077509Y-590900D01*
X-1050909Y-560975D01*
X-1050909Y-441275D01*
X-1077509Y-411350D01*
X-1210509Y-411350D01*
X-1104109Y-171950D02*
X-1104109Y-351500D01*
X-1210509Y-231800D01*
X-1050909Y-231800D01*
M02*
