G04 PROTEUS GERBER X2 FILE*
%TF.GenerationSoftware,Labcenter,Proteus,8.12-SP0-Build30713*%
%TF.CreationDate,2021-04-15T12:14:11+00:00*%
%TF.FileFunction,Plated,1,2,PTH*%
%TF.FilePolarity,Positive*%
%TF.Part,Single*%
%TF.SameCoordinates,{5a193cc5-51b4-4a6d-ad6d-b15ded965af5}*%
%FSLAX26Y26*%
%MOIN*%
G01*
%TA.AperFunction,ViaDrill*%
%ADD83C,0.020000*%
%TA.AperFunction,OtherDrill,Unknown*%
%ADD84C,0.126000*%
%TA.AperFunction,ComponentDrill*%
%ADD85C,0.045000*%
%ADD86C,0.126000*%
%TA.AperFunction,ComponentDrill*%
%ADD87C,0.040000*%
%TD.AperFunction*%
D83*
X+4881795Y-112150D03*
X+746362Y-613724D03*
X+1415654Y-613724D03*
X+4212504Y-112150D03*
X+4212504Y+70000D03*
X+3540787Y-112150D03*
X+3540787Y+70000D03*
X+2873921Y-112150D03*
X+2873921Y+70000D03*
X+2204630Y-112150D03*
X+2204630Y+70000D03*
X+1535339Y-112150D03*
X+1535339Y+70000D03*
X+866047Y-112150D03*
X+866047Y+70000D03*
X+196756Y-112150D03*
X+196756Y+70000D03*
X+4092819Y-613724D03*
X+3523528Y-510260D03*
X+2855787Y-510260D03*
X+2184945Y-510260D03*
X+2084945Y-613724D03*
X+2754236Y-613724D03*
X+3423528Y-613724D03*
X+4762535Y-613724D03*
X+4000000Y+890000D03*
X+1684945Y-405000D03*
X+2354236Y-290000D03*
X+3023528Y-405000D03*
X+4881795Y+70000D03*
X+893701Y-230260D03*
X+3566929Y-230260D03*
X+4909370Y-230260D03*
X+77071Y-613724D03*
X+3692819Y-405000D03*
X+3023528Y-290000D03*
X+346362Y-405000D03*
X+1015654Y-407000D03*
X+4362110Y-290000D03*
X+4362110Y-405000D03*
X-320630Y-613724D03*
X-610000Y-613724D03*
X+845787Y-510260D03*
X+1515535Y-510260D03*
X+4192819Y-510260D03*
X-1619000Y-615000D03*
X+222743Y-230260D03*
X+1559661Y-230260D03*
X+2229661Y-230260D03*
X+2899661Y-230260D03*
X+4237426Y-230260D03*
X+4079370Y+218583D03*
X+4141732Y+614173D03*
X-1519000Y+661000D03*
X-1519000Y-330000D03*
X-1100000Y+850000D03*
X-899709Y-270000D03*
X-849709Y-330000D03*
X+1526000Y+720000D03*
X-1190000Y+850000D03*
X+2900000Y+890000D03*
X+2200000Y+605000D03*
X+2334370Y+605000D03*
X+1684945Y-290000D03*
X+2354236Y-405000D03*
X-1657500Y+905000D03*
X-1435000Y+835000D03*
X-771654Y+583346D03*
X+1285000Y+825000D03*
X-448339Y+200000D03*
X-448339Y+830630D03*
X+4935000Y+1105000D03*
X+4940000Y+755000D03*
X-360339Y+125000D03*
X-360339Y+1019661D03*
X-569709Y+914709D03*
X-569709Y+800000D03*
X-664709Y+259709D03*
X-664709Y+905000D03*
X+325000Y+990000D03*
X+950000Y+945000D03*
X+275000Y+990000D03*
X+1050000Y+945000D03*
X+230000Y+725000D03*
X+5159370Y-270000D03*
X+4862535Y-510260D03*
X+5119370Y-480130D03*
X+3664370Y+225000D03*
X+2100000Y+675000D03*
X+4100000Y+1010000D03*
X+1980000Y+800000D03*
X+1715000Y+800000D03*
X+2900000Y+1005000D03*
X-1555000Y+579709D03*
X-1569000Y-270000D03*
X-1500000Y+760000D03*
X-1505000Y+835000D03*
X+4234370Y+230000D03*
X+1935079Y+294291D03*
X+2235000Y+400000D03*
X+3219370Y+290000D03*
X+2130000Y+605000D03*
X+177071Y-510260D03*
X-9134Y+251205D03*
X+592579Y+291791D03*
X+2288500Y+854500D03*
X+1004370Y+292500D03*
X+2050000Y+950000D03*
X+3692819Y-290000D03*
X+346362Y-287000D03*
X+1015654Y-287000D03*
X-497000Y-472000D03*
X-949709Y-505000D03*
X+140000Y+1020000D03*
X+2375000Y+845000D03*
X+2410000Y+905000D03*
X+2490000Y+875000D03*
X+2735000Y+800000D03*
D84*
X-2200000Y-900000D03*
X-2200000Y+500000D03*
X-100000Y+900000D03*
D85*
X+4468409Y+236000D03*
X+4468409Y+127000D03*
X+4468409Y+18000D03*
X+4468409Y-91000D03*
X+4468409Y-200000D03*
X+4468409Y-309000D03*
X+4468409Y-418000D03*
X+4468409Y-527000D03*
X+4580409Y+182000D03*
X+4580409Y+73000D03*
X+4580409Y-36000D03*
X+4580409Y-145000D03*
X+4580409Y-254000D03*
X+4580409Y-363000D03*
X+4580409Y-472000D03*
D86*
X+4524409Y+510000D03*
X+4524409Y-800000D03*
D85*
X+3799118Y+236000D03*
X+3799118Y+127000D03*
X+3799118Y+18000D03*
X+3799118Y-91000D03*
X+3799118Y-200000D03*
X+3799118Y-309000D03*
X+3799118Y-418000D03*
X+3799118Y-527000D03*
X+3911118Y+182000D03*
X+3911118Y+73000D03*
X+3911118Y-36000D03*
X+3911118Y-145000D03*
X+3911118Y-254000D03*
X+3911118Y-363000D03*
X+3911118Y-472000D03*
D86*
X+3855118Y+510000D03*
X+3855118Y-800000D03*
D85*
X+3129827Y+236000D03*
X+3129827Y+127000D03*
X+3129827Y+18000D03*
X+3129827Y-91000D03*
X+3129827Y-200000D03*
X+3129827Y-309000D03*
X+3129827Y-418000D03*
X+3129827Y-527000D03*
X+3241827Y+182000D03*
X+3241827Y+73000D03*
X+3241827Y-36000D03*
X+3241827Y-145000D03*
X+3241827Y-254000D03*
X+3241827Y-363000D03*
X+3241827Y-472000D03*
D86*
X+3185827Y+510000D03*
X+3185827Y-800000D03*
D85*
X+2460535Y+236000D03*
X+2460535Y+127000D03*
X+2460535Y+18000D03*
X+2460535Y-91000D03*
X+2460535Y-200000D03*
X+2460535Y-309000D03*
X+2460535Y-418000D03*
X+2460535Y-527000D03*
X+2572535Y+182000D03*
X+2572535Y+73000D03*
X+2572535Y-36000D03*
X+2572535Y-145000D03*
X+2572535Y-254000D03*
X+2572535Y-363000D03*
X+2572535Y-472000D03*
D86*
X+2516535Y+510000D03*
X+2516535Y-800000D03*
D85*
X+1791244Y+236000D03*
X+1791244Y+127000D03*
X+1791244Y+18000D03*
X+1791244Y-91000D03*
X+1791244Y-200000D03*
X+1791244Y-309000D03*
X+1791244Y-418000D03*
X+1791244Y-527000D03*
X+1903244Y+182000D03*
X+1903244Y+73000D03*
X+1903244Y-36000D03*
X+1903244Y-145000D03*
X+1903244Y-254000D03*
X+1903244Y-363000D03*
X+1903244Y-472000D03*
D86*
X+1847244Y+510000D03*
X+1847244Y-800000D03*
D85*
X+1121953Y+236000D03*
X+1121953Y+127000D03*
X+1121953Y+18000D03*
X+1121953Y-91000D03*
X+1121953Y-200000D03*
X+1121953Y-309000D03*
X+1121953Y-418000D03*
X+1121953Y-527000D03*
X+1233953Y+182000D03*
X+1233953Y+73000D03*
X+1233953Y-36000D03*
X+1233953Y-145000D03*
X+1233953Y-254000D03*
X+1233953Y-363000D03*
X+1233953Y-472000D03*
D86*
X+1177953Y+510000D03*
X+1177953Y-800000D03*
D85*
X+452661Y+236000D03*
X+452661Y+127000D03*
X+452661Y+18000D03*
X+452661Y-91000D03*
X+452661Y-200000D03*
X+452661Y-309000D03*
X+452661Y-418000D03*
X+452661Y-527000D03*
X+564661Y+182000D03*
X+564661Y+73000D03*
X+564661Y-36000D03*
X+564661Y-145000D03*
X+564661Y-254000D03*
X+564661Y-363000D03*
X+564661Y-472000D03*
D86*
X+508661Y+510000D03*
X+508661Y-800000D03*
D85*
X-216630Y+236000D03*
X-216630Y+127000D03*
X-216630Y+18000D03*
X-216630Y-91000D03*
X-216630Y-200000D03*
X-216630Y-309000D03*
X-216630Y-418000D03*
X-216630Y-527000D03*
X-104630Y+182000D03*
X-104630Y+73000D03*
X-104630Y-36000D03*
X-104630Y-145000D03*
X-104630Y-254000D03*
X-104630Y-363000D03*
X-104630Y-472000D03*
D86*
X-160630Y+510000D03*
X-160630Y-800000D03*
D87*
X+600000Y+1000000D03*
X+600000Y+1100000D03*
X+700000Y+1000000D03*
X+700000Y+1100000D03*
X+800000Y+1000000D03*
X+800000Y+1100000D03*
X+900000Y+1000000D03*
X+900000Y+1100000D03*
X+1000000Y+1000000D03*
X+1000000Y+1100000D03*
X+1100000Y+1000000D03*
X+1100000Y+1100000D03*
X+1200000Y+1000000D03*
X+1200000Y+1100000D03*
X+1300000Y+1000000D03*
X+1300000Y+1100000D03*
X+1400000Y+1000000D03*
X+1400000Y+1100000D03*
X+1500000Y+1000000D03*
X+1500000Y+1100000D03*
X+1600000Y+1000000D03*
X+1600000Y+1100000D03*
X+1700000Y+1000000D03*
X+1700000Y+1100000D03*
X+1800000Y+1000000D03*
X+1800000Y+1100000D03*
X+1900000Y+1000000D03*
X+1900000Y+1100000D03*
X+2000000Y+1000000D03*
X+2000000Y+1100000D03*
X+2100000Y+1000000D03*
X+2100000Y+1100000D03*
X+2200000Y+1000000D03*
X+2200000Y+1100000D03*
X+2300000Y+1000000D03*
X+2300000Y+1100000D03*
X+2400000Y+1000000D03*
X+2400000Y+1100000D03*
X+2500000Y+1000000D03*
X+2500000Y+1100000D03*
X-1600000Y+1000000D03*
X-1600000Y+1100000D03*
X-1500000Y+1000000D03*
X-1500000Y+1100000D03*
X-1400000Y+1000000D03*
X-1400000Y+1100000D03*
X-1300000Y+1000000D03*
X-1300000Y+1100000D03*
X-1200000Y+1000000D03*
X-1200000Y+1100000D03*
X-1100000Y+1000000D03*
X-1100000Y+1100000D03*
X-1000000Y+1000000D03*
X-1000000Y+1100000D03*
X-900000Y+1000000D03*
X-900000Y+1100000D03*
D85*
X-1744000Y+236000D03*
X-1744000Y+127000D03*
X-1744000Y+18000D03*
X-1744000Y-91000D03*
X-1744000Y-200000D03*
X-1744000Y-309000D03*
X-1744000Y-418000D03*
X-1744000Y-527000D03*
X-1856000Y+182000D03*
X-1856000Y+73000D03*
X-1856000Y-36000D03*
X-1856000Y-145000D03*
X-1856000Y-254000D03*
X-1856000Y-363000D03*
X-1856000Y-472000D03*
D86*
X-1800000Y+510000D03*
X-1800000Y-800000D03*
D85*
X-1074709Y+236000D03*
X-1074709Y+127000D03*
X-1074709Y+18000D03*
X-1074709Y-91000D03*
X-1074709Y-200000D03*
X-1074709Y-309000D03*
X-1074709Y-418000D03*
X-1074709Y-527000D03*
X-1186709Y+182000D03*
X-1186709Y+73000D03*
X-1186709Y-36000D03*
X-1186709Y-145000D03*
X-1186709Y-254000D03*
X-1186709Y-363000D03*
X-1186709Y-472000D03*
D86*
X-1130709Y+510000D03*
X-1130709Y-800000D03*
D84*
X+4950000Y-1100000D03*
X+4950000Y+500000D03*
D87*
X+4239370Y+600000D03*
X+4239370Y+325000D03*
X+4764370Y+325000D03*
X+4764370Y+600000D03*
D84*
X-100000Y-1100000D03*
X+2850000Y-900000D03*
X+2850000Y+500000D03*
D87*
X+3539370Y+325000D03*
X+3539370Y+600000D03*
M02*
