G04 PROTEUS GERBER X2 FILE*
%TF.GenerationSoftware,Labcenter,Proteus,8.12-SP0-Build30713*%
%TF.CreationDate,2021-04-15T12:14:11+00:00*%
%TF.FileFunction,Legend,Top*%
%TF.FilePolarity,Positive*%
%TF.Part,Single*%
%TF.SameCoordinates,{5a193cc5-51b4-4a6d-ad6d-b15ded965af5}*%
%FSLAX26Y26*%
%MOIN*%
G01*
%TA.AperFunction,Material*%
%ADD30C,0.008000*%
%TA.AperFunction,Profile*%
%ADD71C,0.008000*%
%TA.AperFunction,Material*%
%ADD31C,0.002500*%
%TD.AperFunction*%
D30*
X+4274409Y-890000D02*
X+4276338Y-899839D01*
X+4281636Y-907773D01*
X+4289570Y-913071D01*
X+4299409Y-915000D01*
X+4749409Y-915000D02*
X+4759248Y-913071D01*
X+4767183Y-907773D01*
X+4772480Y-899839D01*
X+4774409Y-890000D01*
X+4369409Y+315000D02*
X+4371338Y+324839D01*
X+4376636Y+332773D01*
X+4384570Y+338071D01*
X+4394409Y+340000D01*
X+4749409Y+625000D02*
X+4759248Y+623071D01*
X+4767183Y+617773D01*
X+4772480Y+609839D01*
X+4774409Y+600000D01*
X+4749409Y+625000D02*
X+4299409Y+625000D01*
X+4679409Y+275000D02*
X+4679409Y-565000D01*
X+4749409Y-915000D02*
X+4299409Y-915000D01*
X+4369409Y-605000D02*
X+4369409Y+315000D01*
X+4369409Y-605000D02*
X+4371338Y-614839D01*
X+4376636Y-622773D01*
X+4384570Y-628071D01*
X+4394409Y-630000D01*
X+4274409Y+600000D02*
X+4274409Y-890000D01*
X+4654409Y-590000D02*
X+4664248Y-588071D01*
X+4672183Y-582773D01*
X+4677480Y-574839D01*
X+4679409Y-565000D01*
X+4654409Y-590000D02*
X+4394409Y-630000D01*
X+4774409Y+600000D02*
X+4774409Y-890000D01*
X+4274409Y+600000D02*
X+4276338Y+609839D01*
X+4281636Y+617773D01*
X+4289570Y+623071D01*
X+4299409Y+625000D01*
X+4654409Y+300000D02*
X+4664248Y+298071D01*
X+4672183Y+292773D01*
X+4677480Y+284839D01*
X+4679409Y+275000D01*
X+4394409Y+340000D02*
X+4654409Y+300000D01*
X+4323244Y+369110D02*
X+4307244Y+384110D01*
X+4355244Y+384110D01*
X+4331244Y-693882D02*
X+4323244Y-701382D01*
X+4315244Y-701382D01*
X+4307244Y-693882D01*
X+4307244Y-671382D01*
X+4315244Y-663882D01*
X+4323244Y-663882D01*
X+4331244Y-671382D01*
X+4331244Y-693882D01*
X+4339244Y-701382D01*
X+4347244Y-701382D01*
X+4355244Y-693882D01*
X+4355244Y-671382D01*
X+4347244Y-663882D01*
X+4339244Y-663882D01*
X+4331244Y-671382D01*
X+4677575Y+379425D02*
X+4685575Y+371925D01*
X+4685575Y+349425D01*
X+4677575Y+341925D01*
X+4669575Y+341925D01*
X+4661575Y+349425D01*
X+4661575Y+371925D01*
X+4669575Y+379425D01*
X+4701575Y+379425D01*
X+4709575Y+371925D01*
X+4709575Y+349425D01*
X+4677575Y-713567D02*
X+4661575Y-698567D01*
X+4709575Y-698567D01*
X+4661575Y-623567D02*
X+4661575Y-661067D01*
X+4677575Y-661067D01*
X+4677575Y-631067D01*
X+4685575Y-623567D01*
X+4701575Y-623567D01*
X+4709575Y-631067D01*
X+4709575Y-653567D01*
X+4701575Y-661067D01*
X+4435685Y+695457D02*
X+4435685Y+689457D01*
X+4441935Y+683457D01*
X+4466935Y+683457D01*
X+4473185Y+689457D01*
X+4473185Y+719457D01*
X+4498185Y+701457D02*
X+4491935Y+707457D01*
X+4491935Y+713457D01*
X+4498185Y+719457D01*
X+4516935Y+719457D01*
X+4523185Y+713457D01*
X+4523185Y+707457D01*
X+4516935Y+701457D01*
X+4498185Y+701457D01*
X+4491935Y+695457D01*
X+4491935Y+689457D01*
X+4498185Y+683457D01*
X+4516935Y+683457D01*
X+4523185Y+689457D01*
X+4523185Y+695457D01*
X+4516935Y+701457D01*
X+4535685Y+689457D02*
X+4535685Y+713457D01*
X+4541935Y+719457D01*
X+4566935Y+719457D01*
X+4573185Y+713457D01*
X+4573185Y+689457D01*
X+4566935Y+683457D01*
X+4541935Y+683457D01*
X+4535685Y+689457D01*
X+4535685Y+683457D02*
X+4573185Y+719457D01*
X+4598185Y+707457D02*
X+4610685Y+719457D01*
X+4610685Y+683457D01*
X+3605118Y-890000D02*
X+3607047Y-899839D01*
X+3612345Y-907773D01*
X+3620279Y-913071D01*
X+3630118Y-915000D01*
X+4080118Y-915000D02*
X+4089957Y-913071D01*
X+4097891Y-907773D01*
X+4103189Y-899839D01*
X+4105118Y-890000D01*
X+3700118Y+315000D02*
X+3702047Y+324839D01*
X+3707345Y+332773D01*
X+3715279Y+338071D01*
X+3725118Y+340000D01*
X+4080118Y+625000D02*
X+4089957Y+623071D01*
X+4097891Y+617773D01*
X+4103189Y+609839D01*
X+4105118Y+600000D01*
X+4080118Y+625000D02*
X+3630118Y+625000D01*
X+4010118Y+275000D02*
X+4010118Y-565000D01*
X+4080118Y-915000D02*
X+3630118Y-915000D01*
X+3700118Y-605000D02*
X+3700118Y+315000D01*
X+3700118Y-605000D02*
X+3702047Y-614839D01*
X+3707345Y-622773D01*
X+3715279Y-628071D01*
X+3725118Y-630000D01*
X+3605118Y+600000D02*
X+3605118Y-890000D01*
X+3985118Y-590000D02*
X+3994957Y-588071D01*
X+4002891Y-582773D01*
X+4008189Y-574839D01*
X+4010118Y-565000D01*
X+3985118Y-590000D02*
X+3725118Y-630000D01*
X+4105118Y+600000D02*
X+4105118Y-890000D01*
X+3605118Y+600000D02*
X+3607047Y+609839D01*
X+3612345Y+617773D01*
X+3620279Y+623071D01*
X+3630118Y+625000D01*
X+3985118Y+300000D02*
X+3994957Y+298071D01*
X+4002891Y+292773D01*
X+4008189Y+284839D01*
X+4010118Y+275000D01*
X+3725118Y+340000D02*
X+3985118Y+300000D01*
X+3653953Y+369110D02*
X+3637953Y+384110D01*
X+3685953Y+384110D01*
X+3661953Y-693882D02*
X+3653953Y-701382D01*
X+3645953Y-701382D01*
X+3637953Y-693882D01*
X+3637953Y-671382D01*
X+3645953Y-663882D01*
X+3653953Y-663882D01*
X+3661953Y-671382D01*
X+3661953Y-693882D01*
X+3669953Y-701382D01*
X+3677953Y-701382D01*
X+3685953Y-693882D01*
X+3685953Y-671382D01*
X+3677953Y-663882D01*
X+3669953Y-663882D01*
X+3661953Y-671382D01*
X+4008283Y+379425D02*
X+4016283Y+371925D01*
X+4016283Y+349425D01*
X+4008283Y+341925D01*
X+4000283Y+341925D01*
X+3992283Y+349425D01*
X+3992283Y+371925D01*
X+4000283Y+379425D01*
X+4032283Y+379425D01*
X+4040283Y+371925D01*
X+4040283Y+349425D01*
X+4008283Y-713567D02*
X+3992283Y-698567D01*
X+4040283Y-698567D01*
X+3992283Y-623567D02*
X+3992283Y-661067D01*
X+4008283Y-661067D01*
X+4008283Y-631067D01*
X+4016283Y-623567D01*
X+4032283Y-623567D01*
X+4040283Y-631067D01*
X+4040283Y-653567D01*
X+4032283Y-661067D01*
X+3766394Y+695457D02*
X+3766394Y+689457D01*
X+3772644Y+683457D01*
X+3797644Y+683457D01*
X+3803894Y+689457D01*
X+3803894Y+719457D01*
X+3822644Y+719457D02*
X+3853894Y+719457D01*
X+3853894Y+713457D01*
X+3822644Y+683457D01*
X+3866394Y+689457D02*
X+3866394Y+713457D01*
X+3872644Y+719457D01*
X+3897644Y+719457D01*
X+3903894Y+713457D01*
X+3903894Y+689457D01*
X+3897644Y+683457D01*
X+3872644Y+683457D01*
X+3866394Y+689457D01*
X+3866394Y+683457D02*
X+3903894Y+719457D01*
X+3928894Y+707457D02*
X+3941394Y+719457D01*
X+3941394Y+683457D01*
X+2935827Y-890000D02*
X+2937756Y-899839D01*
X+2943053Y-907773D01*
X+2950988Y-913071D01*
X+2960827Y-915000D01*
X+3410827Y-915000D02*
X+3420666Y-913071D01*
X+3428600Y-907773D01*
X+3433898Y-899839D01*
X+3435827Y-890000D01*
X+3030827Y+315000D02*
X+3032756Y+324839D01*
X+3038053Y+332773D01*
X+3045988Y+338071D01*
X+3055827Y+340000D01*
X+3410827Y+625000D02*
X+3420666Y+623071D01*
X+3428600Y+617773D01*
X+3433898Y+609839D01*
X+3435827Y+600000D01*
X+3410827Y+625000D02*
X+2960827Y+625000D01*
X+3340827Y+275000D02*
X+3340827Y-565000D01*
X+3410827Y-915000D02*
X+2960827Y-915000D01*
X+3030827Y-605000D02*
X+3030827Y+315000D01*
X+3030827Y-605000D02*
X+3032756Y-614839D01*
X+3038053Y-622773D01*
X+3045988Y-628071D01*
X+3055827Y-630000D01*
X+2935827Y+600000D02*
X+2935827Y-890000D01*
X+3315827Y-590000D02*
X+3325666Y-588071D01*
X+3333600Y-582773D01*
X+3338898Y-574839D01*
X+3340827Y-565000D01*
X+3315827Y-590000D02*
X+3055827Y-630000D01*
X+3435827Y+600000D02*
X+3435827Y-890000D01*
X+2935827Y+600000D02*
X+2937756Y+609839D01*
X+2943053Y+617773D01*
X+2950988Y+623071D01*
X+2960827Y+625000D01*
X+3315827Y+300000D02*
X+3325666Y+298071D01*
X+3333600Y+292773D01*
X+3338898Y+284839D01*
X+3340827Y+275000D01*
X+3055827Y+340000D02*
X+3315827Y+300000D01*
X+2984661Y+369110D02*
X+2968661Y+384110D01*
X+3016661Y+384110D01*
X+2992661Y-693882D02*
X+2984661Y-701382D01*
X+2976661Y-701382D01*
X+2968661Y-693882D01*
X+2968661Y-671382D01*
X+2976661Y-663882D01*
X+2984661Y-663882D01*
X+2992661Y-671382D01*
X+2992661Y-693882D01*
X+3000661Y-701382D01*
X+3008661Y-701382D01*
X+3016661Y-693882D01*
X+3016661Y-671382D01*
X+3008661Y-663882D01*
X+3000661Y-663882D01*
X+2992661Y-671382D01*
X+3338992Y+379425D02*
X+3346992Y+371925D01*
X+3346992Y+349425D01*
X+3338992Y+341925D01*
X+3330992Y+341925D01*
X+3322992Y+349425D01*
X+3322992Y+371925D01*
X+3330992Y+379425D01*
X+3362992Y+379425D01*
X+3370992Y+371925D01*
X+3370992Y+349425D01*
X+3338992Y-713567D02*
X+3322992Y-698567D01*
X+3370992Y-698567D01*
X+3322992Y-623567D02*
X+3322992Y-661067D01*
X+3338992Y-661067D01*
X+3338992Y-631067D01*
X+3346992Y-623567D01*
X+3362992Y-623567D01*
X+3370992Y-631067D01*
X+3370992Y-653567D01*
X+3362992Y-661067D01*
X+3097102Y+695457D02*
X+3097102Y+689457D01*
X+3103352Y+683457D01*
X+3128352Y+683457D01*
X+3134602Y+689457D01*
X+3134602Y+719457D01*
X+3184602Y+713457D02*
X+3178352Y+719457D01*
X+3159602Y+719457D01*
X+3153352Y+713457D01*
X+3153352Y+689457D01*
X+3159602Y+683457D01*
X+3178352Y+683457D01*
X+3184602Y+689457D01*
X+3184602Y+695457D01*
X+3178352Y+701457D01*
X+3153352Y+701457D01*
X+3197102Y+689457D02*
X+3197102Y+713457D01*
X+3203352Y+719457D01*
X+3228352Y+719457D01*
X+3234602Y+713457D01*
X+3234602Y+689457D01*
X+3228352Y+683457D01*
X+3203352Y+683457D01*
X+3197102Y+689457D01*
X+3197102Y+683457D02*
X+3234602Y+719457D01*
X+3259602Y+707457D02*
X+3272102Y+719457D01*
X+3272102Y+683457D01*
X+2266535Y-890000D02*
X+2268464Y-899839D01*
X+2273762Y-907773D01*
X+2281696Y-913071D01*
X+2291535Y-915000D01*
X+2741535Y-915000D02*
X+2751374Y-913071D01*
X+2759309Y-907773D01*
X+2764606Y-899839D01*
X+2766535Y-890000D01*
X+2361535Y+315000D02*
X+2363464Y+324839D01*
X+2368762Y+332773D01*
X+2376696Y+338071D01*
X+2386535Y+340000D01*
X+2741535Y+625000D02*
X+2751374Y+623071D01*
X+2759309Y+617773D01*
X+2764606Y+609839D01*
X+2766535Y+600000D01*
X+2741535Y+625000D02*
X+2291535Y+625000D01*
X+2671535Y+275000D02*
X+2671535Y-565000D01*
X+2741535Y-915000D02*
X+2291535Y-915000D01*
X+2361535Y-605000D02*
X+2361535Y+315000D01*
X+2361535Y-605000D02*
X+2363464Y-614839D01*
X+2368762Y-622773D01*
X+2376696Y-628071D01*
X+2386535Y-630000D01*
X+2266535Y+600000D02*
X+2266535Y-890000D01*
X+2646535Y-590000D02*
X+2656374Y-588071D01*
X+2664309Y-582773D01*
X+2669606Y-574839D01*
X+2671535Y-565000D01*
X+2646535Y-590000D02*
X+2386535Y-630000D01*
X+2766535Y+600000D02*
X+2766535Y-890000D01*
X+2266535Y+600000D02*
X+2268464Y+609839D01*
X+2273762Y+617773D01*
X+2281696Y+623071D01*
X+2291535Y+625000D01*
X+2646535Y+300000D02*
X+2656374Y+298071D01*
X+2664309Y+292773D01*
X+2669606Y+284839D01*
X+2671535Y+275000D01*
X+2386535Y+340000D02*
X+2646535Y+300000D01*
X+2315370Y+369110D02*
X+2299370Y+384110D01*
X+2347370Y+384110D01*
X+2323370Y-693882D02*
X+2315370Y-701382D01*
X+2307370Y-701382D01*
X+2299370Y-693882D01*
X+2299370Y-671382D01*
X+2307370Y-663882D01*
X+2315370Y-663882D01*
X+2323370Y-671382D01*
X+2323370Y-693882D01*
X+2331370Y-701382D01*
X+2339370Y-701382D01*
X+2347370Y-693882D01*
X+2347370Y-671382D01*
X+2339370Y-663882D01*
X+2331370Y-663882D01*
X+2323370Y-671382D01*
X+2669701Y+379425D02*
X+2677701Y+371925D01*
X+2677701Y+349425D01*
X+2669701Y+341925D01*
X+2661701Y+341925D01*
X+2653701Y+349425D01*
X+2653701Y+371925D01*
X+2661701Y+379425D01*
X+2693701Y+379425D01*
X+2701701Y+371925D01*
X+2701701Y+349425D01*
X+2669701Y-713567D02*
X+2653701Y-698567D01*
X+2701701Y-698567D01*
X+2653701Y-623567D02*
X+2653701Y-661067D01*
X+2669701Y-661067D01*
X+2669701Y-631067D01*
X+2677701Y-623567D01*
X+2693701Y-623567D01*
X+2701701Y-631067D01*
X+2701701Y-653567D01*
X+2693701Y-661067D01*
X+2427811Y+695457D02*
X+2427811Y+689457D01*
X+2434061Y+683457D01*
X+2459061Y+683457D01*
X+2465311Y+689457D01*
X+2465311Y+719457D01*
X+2515311Y+719457D02*
X+2484061Y+719457D01*
X+2484061Y+707457D01*
X+2509061Y+707457D01*
X+2515311Y+701457D01*
X+2515311Y+689457D01*
X+2509061Y+683457D01*
X+2490311Y+683457D01*
X+2484061Y+689457D01*
X+2527811Y+689457D02*
X+2527811Y+713457D01*
X+2534061Y+719457D01*
X+2559061Y+719457D01*
X+2565311Y+713457D01*
X+2565311Y+689457D01*
X+2559061Y+683457D01*
X+2534061Y+683457D01*
X+2527811Y+689457D01*
X+2527811Y+683457D02*
X+2565311Y+719457D01*
X+2590311Y+707457D02*
X+2602811Y+719457D01*
X+2602811Y+683457D01*
X+1597244Y-890000D02*
X+1599173Y-899839D01*
X+1604470Y-907773D01*
X+1612405Y-913071D01*
X+1622244Y-915000D01*
X+2072244Y-915000D02*
X+2082083Y-913071D01*
X+2090017Y-907773D01*
X+2095315Y-899839D01*
X+2097244Y-890000D01*
X+1692244Y+315000D02*
X+1694173Y+324839D01*
X+1699470Y+332773D01*
X+1707405Y+338071D01*
X+1717244Y+340000D01*
X+2072244Y+625000D02*
X+2082083Y+623071D01*
X+2090017Y+617773D01*
X+2095315Y+609839D01*
X+2097244Y+600000D01*
X+2072244Y+625000D02*
X+1622244Y+625000D01*
X+2002244Y+275000D02*
X+2002244Y-565000D01*
X+2072244Y-915000D02*
X+1622244Y-915000D01*
X+1692244Y-605000D02*
X+1692244Y+315000D01*
X+1692244Y-605000D02*
X+1694173Y-614839D01*
X+1699470Y-622773D01*
X+1707405Y-628071D01*
X+1717244Y-630000D01*
X+1597244Y+600000D02*
X+1597244Y-890000D01*
X+1977244Y-590000D02*
X+1987083Y-588071D01*
X+1995017Y-582773D01*
X+2000315Y-574839D01*
X+2002244Y-565000D01*
X+1977244Y-590000D02*
X+1717244Y-630000D01*
X+2097244Y+600000D02*
X+2097244Y-890000D01*
X+1597244Y+600000D02*
X+1599173Y+609839D01*
X+1604470Y+617773D01*
X+1612405Y+623071D01*
X+1622244Y+625000D01*
X+1977244Y+300000D02*
X+1987083Y+298071D01*
X+1995017Y+292773D01*
X+2000315Y+284839D01*
X+2002244Y+275000D01*
X+1717244Y+340000D02*
X+1977244Y+300000D01*
X+1646079Y+369110D02*
X+1630079Y+384110D01*
X+1678079Y+384110D01*
X+1654079Y-693882D02*
X+1646079Y-701382D01*
X+1638079Y-701382D01*
X+1630079Y-693882D01*
X+1630079Y-671382D01*
X+1638079Y-663882D01*
X+1646079Y-663882D01*
X+1654079Y-671382D01*
X+1654079Y-693882D01*
X+1662079Y-701382D01*
X+1670079Y-701382D01*
X+1678079Y-693882D01*
X+1678079Y-671382D01*
X+1670079Y-663882D01*
X+1662079Y-663882D01*
X+1654079Y-671382D01*
X+2000409Y+379425D02*
X+2008409Y+371925D01*
X+2008409Y+349425D01*
X+2000409Y+341925D01*
X+1992409Y+341925D01*
X+1984409Y+349425D01*
X+1984409Y+371925D01*
X+1992409Y+379425D01*
X+2024409Y+379425D01*
X+2032409Y+371925D01*
X+2032409Y+349425D01*
X+2000409Y-713567D02*
X+1984409Y-698567D01*
X+2032409Y-698567D01*
X+1984409Y-623567D02*
X+1984409Y-661067D01*
X+2000409Y-661067D01*
X+2000409Y-631067D01*
X+2008409Y-623567D01*
X+2024409Y-623567D01*
X+2032409Y-631067D01*
X+2032409Y-653567D01*
X+2024409Y-661067D01*
X+1758520Y+695457D02*
X+1758520Y+689457D01*
X+1764770Y+683457D01*
X+1789770Y+683457D01*
X+1796020Y+689457D01*
X+1796020Y+719457D01*
X+1846020Y+695457D02*
X+1808520Y+695457D01*
X+1833520Y+719457D01*
X+1833520Y+683457D01*
X+1858520Y+689457D02*
X+1858520Y+713457D01*
X+1864770Y+719457D01*
X+1889770Y+719457D01*
X+1896020Y+713457D01*
X+1896020Y+689457D01*
X+1889770Y+683457D01*
X+1864770Y+683457D01*
X+1858520Y+689457D01*
X+1858520Y+683457D02*
X+1896020Y+719457D01*
X+1921020Y+707457D02*
X+1933520Y+719457D01*
X+1933520Y+683457D01*
X+927953Y-890000D02*
X+929882Y-899839D01*
X+935179Y-907773D01*
X+943114Y-913071D01*
X+952953Y-915000D01*
X+1402953Y-915000D02*
X+1412792Y-913071D01*
X+1420726Y-907773D01*
X+1426024Y-899839D01*
X+1427953Y-890000D01*
X+1022953Y+315000D02*
X+1024882Y+324839D01*
X+1030179Y+332773D01*
X+1038114Y+338071D01*
X+1047953Y+340000D01*
X+1402953Y+625000D02*
X+1412792Y+623071D01*
X+1420726Y+617773D01*
X+1426024Y+609839D01*
X+1427953Y+600000D01*
X+1402953Y+625000D02*
X+952953Y+625000D01*
X+1332953Y+275000D02*
X+1332953Y-565000D01*
X+1402953Y-915000D02*
X+952953Y-915000D01*
X+1022953Y-605000D02*
X+1022953Y+315000D01*
X+1022953Y-605000D02*
X+1024882Y-614839D01*
X+1030179Y-622773D01*
X+1038114Y-628071D01*
X+1047953Y-630000D01*
X+927953Y+600000D02*
X+927953Y-890000D01*
X+1307953Y-590000D02*
X+1317792Y-588071D01*
X+1325726Y-582773D01*
X+1331024Y-574839D01*
X+1332953Y-565000D01*
X+1307953Y-590000D02*
X+1047953Y-630000D01*
X+1427953Y+600000D02*
X+1427953Y-890000D01*
X+927953Y+600000D02*
X+929882Y+609839D01*
X+935179Y+617773D01*
X+943114Y+623071D01*
X+952953Y+625000D01*
X+1307953Y+300000D02*
X+1317792Y+298071D01*
X+1325726Y+292773D01*
X+1331024Y+284839D01*
X+1332953Y+275000D01*
X+1047953Y+340000D02*
X+1307953Y+300000D01*
X+976787Y+369110D02*
X+960787Y+384110D01*
X+1008787Y+384110D01*
X+984787Y-693882D02*
X+976787Y-701382D01*
X+968787Y-701382D01*
X+960787Y-693882D01*
X+960787Y-671382D01*
X+968787Y-663882D01*
X+976787Y-663882D01*
X+984787Y-671382D01*
X+984787Y-693882D01*
X+992787Y-701382D01*
X+1000787Y-701382D01*
X+1008787Y-693882D01*
X+1008787Y-671382D01*
X+1000787Y-663882D01*
X+992787Y-663882D01*
X+984787Y-671382D01*
X+1331118Y+379425D02*
X+1339118Y+371925D01*
X+1339118Y+349425D01*
X+1331118Y+341925D01*
X+1323118Y+341925D01*
X+1315118Y+349425D01*
X+1315118Y+371925D01*
X+1323118Y+379425D01*
X+1355118Y+379425D01*
X+1363118Y+371925D01*
X+1363118Y+349425D01*
X+1331118Y-713567D02*
X+1315118Y-698567D01*
X+1363118Y-698567D01*
X+1315118Y-623567D02*
X+1315118Y-661067D01*
X+1331118Y-661067D01*
X+1331118Y-631067D01*
X+1339118Y-623567D01*
X+1355118Y-623567D01*
X+1363118Y-631067D01*
X+1363118Y-653567D01*
X+1355118Y-661067D01*
X+1089228Y+695457D02*
X+1089228Y+689457D01*
X+1095478Y+683457D01*
X+1120478Y+683457D01*
X+1126728Y+689457D01*
X+1126728Y+719457D01*
X+1145478Y+713457D02*
X+1151728Y+719457D01*
X+1170478Y+719457D01*
X+1176728Y+713457D01*
X+1176728Y+707457D01*
X+1170478Y+701457D01*
X+1176728Y+695457D01*
X+1176728Y+689457D01*
X+1170478Y+683457D01*
X+1151728Y+683457D01*
X+1145478Y+689457D01*
X+1157978Y+701457D02*
X+1170478Y+701457D01*
X+1189228Y+689457D02*
X+1189228Y+713457D01*
X+1195478Y+719457D01*
X+1220478Y+719457D01*
X+1226728Y+713457D01*
X+1226728Y+689457D01*
X+1220478Y+683457D01*
X+1195478Y+683457D01*
X+1189228Y+689457D01*
X+1189228Y+683457D02*
X+1226728Y+719457D01*
X+1251728Y+707457D02*
X+1264228Y+719457D01*
X+1264228Y+683457D01*
X+258661Y-890000D02*
X+260590Y-899839D01*
X+265888Y-907773D01*
X+273822Y-913071D01*
X+283661Y-915000D01*
X+733661Y-915000D02*
X+743500Y-913071D01*
X+751435Y-907773D01*
X+756732Y-899839D01*
X+758661Y-890000D01*
X+353661Y+315000D02*
X+355590Y+324839D01*
X+360888Y+332773D01*
X+368822Y+338071D01*
X+378661Y+340000D01*
X+733661Y+625000D02*
X+743500Y+623071D01*
X+751435Y+617773D01*
X+756732Y+609839D01*
X+758661Y+600000D01*
X+733661Y+625000D02*
X+283661Y+625000D01*
X+663661Y+275000D02*
X+663661Y-565000D01*
X+733661Y-915000D02*
X+283661Y-915000D01*
X+353661Y-605000D02*
X+353661Y+315000D01*
X+353661Y-605000D02*
X+355590Y-614839D01*
X+360888Y-622773D01*
X+368822Y-628071D01*
X+378661Y-630000D01*
X+258661Y+600000D02*
X+258661Y-890000D01*
X+638661Y-590000D02*
X+648500Y-588071D01*
X+656435Y-582773D01*
X+661732Y-574839D01*
X+663661Y-565000D01*
X+638661Y-590000D02*
X+378661Y-630000D01*
X+758661Y+600000D02*
X+758661Y-890000D01*
X+258661Y+600000D02*
X+260590Y+609839D01*
X+265888Y+617773D01*
X+273822Y+623071D01*
X+283661Y+625000D01*
X+638661Y+300000D02*
X+648500Y+298071D01*
X+656435Y+292773D01*
X+661732Y+284839D01*
X+663661Y+275000D01*
X+378661Y+340000D02*
X+638661Y+300000D01*
X+307496Y+369110D02*
X+291496Y+384110D01*
X+339496Y+384110D01*
X+315496Y-693882D02*
X+307496Y-701382D01*
X+299496Y-701382D01*
X+291496Y-693882D01*
X+291496Y-671382D01*
X+299496Y-663882D01*
X+307496Y-663882D01*
X+315496Y-671382D01*
X+315496Y-693882D01*
X+323496Y-701382D01*
X+331496Y-701382D01*
X+339496Y-693882D01*
X+339496Y-671382D01*
X+331496Y-663882D01*
X+323496Y-663882D01*
X+315496Y-671382D01*
X+661827Y+379425D02*
X+669827Y+371925D01*
X+669827Y+349425D01*
X+661827Y+341925D01*
X+653827Y+341925D01*
X+645827Y+349425D01*
X+645827Y+371925D01*
X+653827Y+379425D01*
X+685827Y+379425D01*
X+693827Y+371925D01*
X+693827Y+349425D01*
X+661827Y-713567D02*
X+645827Y-698567D01*
X+693827Y-698567D01*
X+645827Y-623567D02*
X+645827Y-661067D01*
X+661827Y-661067D01*
X+661827Y-631067D01*
X+669827Y-623567D01*
X+685827Y-623567D01*
X+693827Y-631067D01*
X+693827Y-653567D01*
X+685827Y-661067D01*
X+419937Y+695457D02*
X+419937Y+689457D01*
X+426187Y+683457D01*
X+451187Y+683457D01*
X+457437Y+689457D01*
X+457437Y+719457D01*
X+476187Y+713457D02*
X+482437Y+719457D01*
X+501187Y+719457D01*
X+507437Y+713457D01*
X+507437Y+707457D01*
X+501187Y+701457D01*
X+482437Y+701457D01*
X+476187Y+695457D01*
X+476187Y+683457D01*
X+507437Y+683457D01*
X+519937Y+689457D02*
X+519937Y+713457D01*
X+526187Y+719457D01*
X+551187Y+719457D01*
X+557437Y+713457D01*
X+557437Y+689457D01*
X+551187Y+683457D01*
X+526187Y+683457D01*
X+519937Y+689457D01*
X+519937Y+683457D02*
X+557437Y+719457D01*
X+582437Y+707457D02*
X+594937Y+719457D01*
X+594937Y+683457D01*
X-410630Y-890000D02*
X-408701Y-899839D01*
X-403404Y-907773D01*
X-395469Y-913071D01*
X-385630Y-915000D01*
X+64370Y-915000D02*
X+74209Y-913071D01*
X+82143Y-907773D01*
X+87441Y-899839D01*
X+89370Y-890000D01*
X-315630Y+315000D02*
X-313701Y+324839D01*
X-308404Y+332773D01*
X-300469Y+338071D01*
X-290630Y+340000D01*
X+64370Y+625000D02*
X+74209Y+623071D01*
X+82143Y+617773D01*
X+87441Y+609839D01*
X+89370Y+600000D01*
X+64370Y+625000D02*
X-385630Y+625000D01*
X-5630Y+275000D02*
X-5630Y-565000D01*
X+64370Y-915000D02*
X-385630Y-915000D01*
X-315630Y-605000D02*
X-315630Y+315000D01*
X-315630Y-605000D02*
X-313701Y-614839D01*
X-308404Y-622773D01*
X-300469Y-628071D01*
X-290630Y-630000D01*
X-410630Y+600000D02*
X-410630Y-890000D01*
X-30630Y-590000D02*
X-20791Y-588071D01*
X-12857Y-582773D01*
X-7559Y-574839D01*
X-5630Y-565000D01*
X-30630Y-590000D02*
X-290630Y-630000D01*
X+89370Y+600000D02*
X+89370Y-890000D01*
X-410630Y+600000D02*
X-408701Y+609839D01*
X-403404Y+617773D01*
X-395469Y+623071D01*
X-385630Y+625000D01*
X-30630Y+300000D02*
X-20791Y+298071D01*
X-12857Y+292773D01*
X-7559Y+284839D01*
X-5630Y+275000D01*
X-290630Y+340000D02*
X-30630Y+300000D01*
X-361795Y+369110D02*
X-377795Y+384110D01*
X-329795Y+384110D01*
X-353795Y-693882D02*
X-361795Y-701382D01*
X-369795Y-701382D01*
X-377795Y-693882D01*
X-377795Y-671382D01*
X-369795Y-663882D01*
X-361795Y-663882D01*
X-353795Y-671382D01*
X-353795Y-693882D01*
X-345795Y-701382D01*
X-337795Y-701382D01*
X-329795Y-693882D01*
X-329795Y-671382D01*
X-337795Y-663882D01*
X-345795Y-663882D01*
X-353795Y-671382D01*
X-7465Y+379425D02*
X+535Y+371925D01*
X+535Y+349425D01*
X-7465Y+341925D01*
X-15465Y+341925D01*
X-23465Y+349425D01*
X-23465Y+371925D01*
X-15465Y+379425D01*
X+16535Y+379425D01*
X+24535Y+371925D01*
X+24535Y+349425D01*
X-7465Y-713567D02*
X-23465Y-698567D01*
X+24535Y-698567D01*
X-23465Y-623567D02*
X-23465Y-661067D01*
X-7465Y-661067D01*
X-7465Y-631067D01*
X+535Y-623567D01*
X+16535Y-623567D01*
X+24535Y-631067D01*
X+24535Y-653567D01*
X+16535Y-661067D01*
X-249354Y+695457D02*
X-249354Y+689457D01*
X-243104Y+683457D01*
X-218104Y+683457D01*
X-211854Y+689457D01*
X-211854Y+719457D01*
X-186854Y+707457D02*
X-174354Y+719457D01*
X-174354Y+683457D01*
X-149354Y+689457D02*
X-149354Y+713457D01*
X-143104Y+719457D01*
X-118104Y+719457D01*
X-111854Y+713457D01*
X-111854Y+689457D01*
X-118104Y+683457D01*
X-143104Y+683457D01*
X-149354Y+689457D01*
X-149354Y+683457D02*
X-111854Y+719457D01*
X-86854Y+707457D02*
X-74354Y+719457D01*
X-74354Y+683457D01*
D71*
X-2400000Y+300000D02*
X-2400000Y+1199213D01*
X-2400000Y+1200000D02*
X+5250000Y+1200000D01*
X+5250000Y-1400000D01*
X-2400000Y-1400000D01*
X-2400000Y-500000D01*
X-2100197Y+250646D02*
X-2099983Y-450000D01*
X-2400000Y-500000D02*
X-2150000Y-500000D01*
X-2100000Y-450000D02*
X-2100995Y-460223D01*
X-2103857Y-469678D01*
X-2108404Y-478180D01*
X-2114453Y-485547D01*
X-2121820Y-491595D01*
X-2130322Y-496143D01*
X-2139777Y-499005D01*
X-2150000Y-500000D01*
X-2150000Y+300000D02*
X-2139777Y+299005D01*
X-2130322Y+296143D01*
X-2121820Y+291595D01*
X-2114453Y+285547D01*
X-2108404Y+278180D01*
X-2103857Y+269678D01*
X-2100995Y+260223D01*
X-2100000Y+250000D01*
X-2400000Y+300000D02*
X-2150000Y+300000D01*
D30*
X-1550000Y+600000D02*
X-1551929Y+609839D01*
X-1557226Y+617773D01*
X-1565161Y+623071D01*
X-1575000Y+625000D01*
X-2025000Y+625000D02*
X-2034839Y+623071D01*
X-2042773Y+617773D01*
X-2048071Y+609839D01*
X-2050000Y+600000D01*
X-1645000Y+315000D02*
X-1646929Y+324839D01*
X-1652226Y+332773D01*
X-1660161Y+338071D01*
X-1670000Y+340000D01*
X-2025000Y-915000D02*
X-2034839Y-913071D01*
X-2042773Y-907773D01*
X-2048071Y-899839D01*
X-2050000Y-890000D01*
X-2025000Y-915000D02*
X-1575000Y-915000D01*
X-1955000Y+275000D02*
X-1955000Y-565000D01*
X-2025000Y+625000D02*
X-1575000Y+625000D01*
X-1645000Y-605000D02*
X-1645000Y+315000D01*
X-1645000Y-605000D02*
X-1646929Y-614839D01*
X-1652226Y-622773D01*
X-1660161Y-628071D01*
X-1670000Y-630000D01*
X-1550000Y-890000D02*
X-1550000Y+600000D01*
X-1930000Y-590000D02*
X-1939839Y-588071D01*
X-1947773Y-582773D01*
X-1953071Y-574839D01*
X-1955000Y-565000D01*
X-1930000Y-590000D02*
X-1670000Y-630000D01*
X-2050000Y-890000D02*
X-2050000Y+600000D01*
X-1550000Y-890000D02*
X-1551929Y-899839D01*
X-1557226Y-907773D01*
X-1565161Y-913071D01*
X-1575000Y-915000D01*
X-1930000Y+300000D02*
X-1939839Y+298071D01*
X-1947773Y+292773D01*
X-1953071Y+284839D01*
X-1955000Y+275000D01*
X-1670000Y+340000D02*
X-1930000Y+300000D01*
X-1598835Y+398165D02*
X-1582835Y+383165D01*
X-1630835Y+383165D01*
X-1606835Y-664827D02*
X-1598835Y-657327D01*
X-1590835Y-657327D01*
X-1582835Y-664827D01*
X-1582835Y-687327D01*
X-1590835Y-694827D01*
X-1598835Y-694827D01*
X-1606835Y-687327D01*
X-1606835Y-664827D01*
X-1614835Y-657327D01*
X-1622835Y-657327D01*
X-1630835Y-664827D01*
X-1630835Y-687327D01*
X-1622835Y-694827D01*
X-1614835Y-694827D01*
X-1606835Y-687327D01*
X-1953165Y+348480D02*
X-1961165Y+355980D01*
X-1961165Y+378480D01*
X-1953165Y+385980D01*
X-1945165Y+385980D01*
X-1937165Y+378480D01*
X-1937165Y+355980D01*
X-1945165Y+348480D01*
X-1977165Y+348480D01*
X-1985165Y+355980D01*
X-1985165Y+378480D01*
X-1953165Y-625457D02*
X-1937165Y-640457D01*
X-1985165Y-640457D01*
X-1937165Y-715457D02*
X-1937165Y-677957D01*
X-1953165Y-677957D01*
X-1953165Y-707957D01*
X-1961165Y-715457D01*
X-1977165Y-715457D01*
X-1985165Y-707957D01*
X-1985165Y-685457D01*
X-1977165Y-677957D01*
X-1851000Y+699000D02*
X-1851000Y+693000D01*
X-1844750Y+687000D01*
X-1819750Y+687000D01*
X-1813500Y+693000D01*
X-1813500Y+723000D01*
X-1794750Y+717000D02*
X-1788500Y+723000D01*
X-1769750Y+723000D01*
X-1763500Y+717000D01*
X-1763500Y+711000D01*
X-1769750Y+705000D01*
X-1763500Y+699000D01*
X-1763500Y+693000D01*
X-1769750Y+687000D01*
X-1788500Y+687000D01*
X-1794750Y+693000D01*
X-1782250Y+705000D02*
X-1769750Y+705000D01*
X-880709Y+600000D02*
X-882638Y+609839D01*
X-887935Y+617773D01*
X-895870Y+623071D01*
X-905709Y+625000D01*
X-1355709Y+625000D02*
X-1365548Y+623071D01*
X-1373482Y+617773D01*
X-1378780Y+609839D01*
X-1380709Y+600000D01*
X-975709Y+315000D02*
X-977638Y+324839D01*
X-982935Y+332773D01*
X-990870Y+338071D01*
X-1000709Y+340000D01*
X-1355709Y-915000D02*
X-1365548Y-913071D01*
X-1373482Y-907773D01*
X-1378780Y-899839D01*
X-1380709Y-890000D01*
X-1355709Y-915000D02*
X-905709Y-915000D01*
X-1285709Y+275000D02*
X-1285709Y-565000D01*
X-1355709Y+625000D02*
X-905709Y+625000D01*
X-975709Y-605000D02*
X-975709Y+315000D01*
X-975709Y-605000D02*
X-977638Y-614839D01*
X-982935Y-622773D01*
X-990870Y-628071D01*
X-1000709Y-630000D01*
X-880709Y-890000D02*
X-880709Y+600000D01*
X-1260709Y-590000D02*
X-1270548Y-588071D01*
X-1278482Y-582773D01*
X-1283780Y-574839D01*
X-1285709Y-565000D01*
X-1260709Y-590000D02*
X-1000709Y-630000D01*
X-1380709Y-890000D02*
X-1380709Y+600000D01*
X-880709Y-890000D02*
X-882638Y-899839D01*
X-887935Y-907773D01*
X-895870Y-913071D01*
X-905709Y-915000D01*
X-1260709Y+300000D02*
X-1270548Y+298071D01*
X-1278482Y+292773D01*
X-1283780Y+284839D01*
X-1285709Y+275000D01*
X-1000709Y+340000D02*
X-1260709Y+300000D01*
X-929543Y+398165D02*
X-913543Y+383165D01*
X-961543Y+383165D01*
X-937543Y-664827D02*
X-929543Y-657327D01*
X-921543Y-657327D01*
X-913543Y-664827D01*
X-913543Y-687327D01*
X-921543Y-694827D01*
X-929543Y-694827D01*
X-937543Y-687327D01*
X-937543Y-664827D01*
X-945543Y-657327D01*
X-953543Y-657327D01*
X-961543Y-664827D01*
X-961543Y-687327D01*
X-953543Y-694827D01*
X-945543Y-694827D01*
X-937543Y-687327D01*
X-1283874Y+348480D02*
X-1291874Y+355980D01*
X-1291874Y+378480D01*
X-1283874Y+385980D01*
X-1275874Y+385980D01*
X-1267874Y+378480D01*
X-1267874Y+355980D01*
X-1275874Y+348480D01*
X-1307874Y+348480D01*
X-1315874Y+355980D01*
X-1315874Y+378480D01*
X-1283874Y-625457D02*
X-1267874Y-640457D01*
X-1315874Y-640457D01*
X-1267874Y-715457D02*
X-1267874Y-677957D01*
X-1283874Y-677957D01*
X-1283874Y-707957D01*
X-1291874Y-715457D01*
X-1307874Y-715457D01*
X-1315874Y-707957D01*
X-1315874Y-685457D01*
X-1307874Y-677957D01*
X-1186709Y+694000D02*
X-1186709Y+688000D01*
X-1180459Y+682000D01*
X-1155459Y+682000D01*
X-1149209Y+688000D01*
X-1149209Y+718000D01*
X-1099209Y+694000D02*
X-1136709Y+694000D01*
X-1111709Y+718000D01*
X-1111709Y+682000D01*
X-2075000Y+500000D02*
X-2075401Y+509999D01*
X-2078653Y+529999D01*
X-2085435Y+549999D01*
X-2096438Y+569999D01*
X-2113222Y+589970D01*
X-2133222Y+605668D01*
X-2153222Y+615917D01*
X-2173222Y+622098D01*
X-2193222Y+624816D01*
X-2200000Y+625000D01*
X-2325000Y+500000D02*
X-2324599Y+509999D01*
X-2321347Y+529999D01*
X-2314565Y+549999D01*
X-2303562Y+569999D01*
X-2286778Y+589970D01*
X-2266778Y+605668D01*
X-2246778Y+615917D01*
X-2226778Y+622098D01*
X-2206778Y+624816D01*
X-2200000Y+625000D01*
X-2325000Y+500000D02*
X-2324599Y+490001D01*
X-2321347Y+470001D01*
X-2314565Y+450001D01*
X-2303562Y+430001D01*
X-2286778Y+410030D01*
X-2266778Y+394332D01*
X-2246778Y+384083D01*
X-2226778Y+377902D01*
X-2206778Y+375184D01*
X-2200000Y+375000D01*
X-2075000Y+500000D02*
X-2075401Y+490001D01*
X-2078653Y+470001D01*
X-2085435Y+450001D01*
X-2096438Y+430001D01*
X-2113222Y+410030D01*
X-2133222Y+394332D01*
X-2153222Y+384083D01*
X-2173222Y+377902D01*
X-2193222Y+375184D01*
X-2200000Y+375000D01*
X+25000Y+900000D02*
X+24599Y+909999D01*
X+21347Y+929999D01*
X+14565Y+949999D01*
X+3562Y+969999D01*
X-13222Y+989970D01*
X-33222Y+1005668D01*
X-53222Y+1015917D01*
X-73222Y+1022098D01*
X-93222Y+1024816D01*
X-100000Y+1025000D01*
X-225000Y+900000D02*
X-224599Y+909999D01*
X-221347Y+929999D01*
X-214565Y+949999D01*
X-203562Y+969999D01*
X-186778Y+989970D01*
X-166778Y+1005668D01*
X-146778Y+1015917D01*
X-126778Y+1022098D01*
X-106778Y+1024816D01*
X-100000Y+1025000D01*
X-225000Y+900000D02*
X-224599Y+890001D01*
X-221347Y+870001D01*
X-214565Y+850001D01*
X-203562Y+830001D01*
X-186778Y+810030D01*
X-166778Y+794332D01*
X-146778Y+784083D01*
X-126778Y+777902D01*
X-106778Y+775184D01*
X-100000Y+775000D01*
X+25000Y+900000D02*
X+24599Y+890001D01*
X+21347Y+870001D01*
X+14565Y+850001D01*
X+3562Y+830001D01*
X-13222Y+810030D01*
X-33222Y+794332D01*
X-53222Y+784083D01*
X-73222Y+777902D01*
X-93222Y+775184D01*
X-100000Y+775000D01*
X+2975000Y+500000D02*
X+2974599Y+509999D01*
X+2971347Y+529999D01*
X+2964565Y+549999D01*
X+2953562Y+569999D01*
X+2936778Y+589970D01*
X+2916778Y+605668D01*
X+2896778Y+615917D01*
X+2876778Y+622098D01*
X+2856778Y+624816D01*
X+2850000Y+625000D01*
X+2725000Y+500000D02*
X+2725401Y+509999D01*
X+2728653Y+529999D01*
X+2735435Y+549999D01*
X+2746438Y+569999D01*
X+2763222Y+589970D01*
X+2783222Y+605668D01*
X+2803222Y+615917D01*
X+2823222Y+622098D01*
X+2843222Y+624816D01*
X+2850000Y+625000D01*
X+2725000Y+500000D02*
X+2725401Y+490001D01*
X+2728653Y+470001D01*
X+2735435Y+450001D01*
X+2746438Y+430001D01*
X+2763222Y+410030D01*
X+2783222Y+394332D01*
X+2803222Y+384083D01*
X+2823222Y+377902D01*
X+2843222Y+375184D01*
X+2850000Y+375000D01*
X+2975000Y+500000D02*
X+2974599Y+490001D01*
X+2971347Y+470001D01*
X+2964565Y+450001D01*
X+2953562Y+430001D01*
X+2936778Y+410030D01*
X+2916778Y+394332D01*
X+2896778Y+384083D01*
X+2876778Y+377902D01*
X+2856778Y+375184D01*
X+2850000Y+375000D01*
X+5077475Y+500000D02*
X+5077067Y+510189D01*
X+5073756Y+530568D01*
X+5066852Y+550947D01*
X+5055653Y+571326D01*
X+5038572Y+591678D01*
X+5018193Y+607701D01*
X+4997814Y+618168D01*
X+4977435Y+624488D01*
X+4957056Y+627280D01*
X+4950000Y+627475D01*
X+4822525Y+500000D02*
X+4822933Y+510189D01*
X+4826244Y+530568D01*
X+4833148Y+550947D01*
X+4844347Y+571326D01*
X+4861428Y+591678D01*
X+4881807Y+607701D01*
X+4902186Y+618168D01*
X+4922565Y+624488D01*
X+4942944Y+627280D01*
X+4950000Y+627475D01*
X+4822525Y+500000D02*
X+4822933Y+489811D01*
X+4826244Y+469432D01*
X+4833148Y+449053D01*
X+4844347Y+428674D01*
X+4861428Y+408322D01*
X+4881807Y+392299D01*
X+4902186Y+381832D01*
X+4922565Y+375512D01*
X+4942944Y+372720D01*
X+4950000Y+372525D01*
X+5077475Y+500000D02*
X+5077067Y+489811D01*
X+5073756Y+469432D01*
X+5066852Y+449053D01*
X+5055653Y+428674D01*
X+5038572Y+408322D01*
X+5018193Y+392299D01*
X+4997814Y+381832D01*
X+4977435Y+375512D01*
X+4957056Y+372720D01*
X+4950000Y+372525D01*
X+5075000Y-1100000D02*
X+5074599Y-1090001D01*
X+5071347Y-1070001D01*
X+5064565Y-1050001D01*
X+5053562Y-1030001D01*
X+5036778Y-1010030D01*
X+5016778Y-994332D01*
X+4996778Y-984083D01*
X+4976778Y-977902D01*
X+4956778Y-975184D01*
X+4950000Y-975000D01*
X+4825000Y-1100000D02*
X+4825401Y-1090001D01*
X+4828653Y-1070001D01*
X+4835435Y-1050001D01*
X+4846438Y-1030001D01*
X+4863222Y-1010030D01*
X+4883222Y-994332D01*
X+4903222Y-984083D01*
X+4923222Y-977902D01*
X+4943222Y-975184D01*
X+4950000Y-975000D01*
X+4825000Y-1100000D02*
X+4825401Y-1109999D01*
X+4828653Y-1129999D01*
X+4835435Y-1149999D01*
X+4846438Y-1169999D01*
X+4863222Y-1189970D01*
X+4883222Y-1205668D01*
X+4903222Y-1215917D01*
X+4923222Y-1222098D01*
X+4943222Y-1224816D01*
X+4950000Y-1225000D01*
X+5075000Y-1100000D02*
X+5074599Y-1109999D01*
X+5071347Y-1129999D01*
X+5064565Y-1149999D01*
X+5053562Y-1169999D01*
X+5036778Y-1189970D01*
X+5016778Y-1205668D01*
X+4996778Y-1215917D01*
X+4976778Y-1222098D01*
X+4956778Y-1224816D01*
X+4950000Y-1225000D01*
X+25000Y-1100000D02*
X+24599Y-1090001D01*
X+21347Y-1070001D01*
X+14565Y-1050001D01*
X+3562Y-1030001D01*
X-13222Y-1010030D01*
X-33222Y-994332D01*
X-53222Y-984083D01*
X-73222Y-977902D01*
X-93222Y-975184D01*
X-100000Y-975000D01*
X-225000Y-1100000D02*
X-224599Y-1090001D01*
X-221347Y-1070001D01*
X-214565Y-1050001D01*
X-203562Y-1030001D01*
X-186778Y-1010030D01*
X-166778Y-994332D01*
X-146778Y-984083D01*
X-126778Y-977902D01*
X-106778Y-975184D01*
X-100000Y-975000D01*
X-225000Y-1100000D02*
X-224599Y-1109999D01*
X-221347Y-1129999D01*
X-214565Y-1149999D01*
X-203562Y-1169999D01*
X-186778Y-1189970D01*
X-166778Y-1205668D01*
X-146778Y-1215917D01*
X-126778Y-1222098D01*
X-106778Y-1224816D01*
X-100000Y-1225000D01*
X+25000Y-1100000D02*
X+24599Y-1109999D01*
X+21347Y-1129999D01*
X+14565Y-1149999D01*
X+3562Y-1169999D01*
X-13222Y-1189970D01*
X-33222Y-1205668D01*
X-53222Y-1215917D01*
X-73222Y-1222098D01*
X-93222Y-1224816D01*
X-100000Y-1225000D01*
X-2075000Y-900000D02*
X-2075401Y-890001D01*
X-2078653Y-870001D01*
X-2085435Y-850001D01*
X-2096438Y-830001D01*
X-2113222Y-810030D01*
X-2133222Y-794332D01*
X-2153222Y-784083D01*
X-2173222Y-777902D01*
X-2193222Y-775184D01*
X-2200000Y-775000D01*
X-2325000Y-900000D02*
X-2324599Y-890001D01*
X-2321347Y-870001D01*
X-2314565Y-850001D01*
X-2303562Y-830001D01*
X-2286778Y-810030D01*
X-2266778Y-794332D01*
X-2246778Y-784083D01*
X-2226778Y-777902D01*
X-2206778Y-775184D01*
X-2200000Y-775000D01*
X-2325000Y-900000D02*
X-2324599Y-909999D01*
X-2321347Y-929999D01*
X-2314565Y-949999D01*
X-2303562Y-969999D01*
X-2286778Y-989970D01*
X-2266778Y-1005668D01*
X-2246778Y-1015917D01*
X-2226778Y-1022098D01*
X-2206778Y-1024816D01*
X-2200000Y-1025000D01*
X-2075000Y-900000D02*
X-2075401Y-909999D01*
X-2078653Y-929999D01*
X-2085435Y-949999D01*
X-2096438Y-969999D01*
X-2113222Y-989970D01*
X-2133222Y-1005668D01*
X-2153222Y-1015917D01*
X-2173222Y-1022098D01*
X-2193222Y-1024816D01*
X-2200000Y-1025000D01*
X+2975000Y-900000D02*
X+2974599Y-890001D01*
X+2971347Y-870001D01*
X+2964565Y-850001D01*
X+2953562Y-830001D01*
X+2936778Y-810030D01*
X+2916778Y-794332D01*
X+2896778Y-784083D01*
X+2876778Y-777902D01*
X+2856778Y-775184D01*
X+2850000Y-775000D01*
X+2725000Y-900000D02*
X+2725401Y-890001D01*
X+2728653Y-870001D01*
X+2735435Y-850001D01*
X+2746438Y-830001D01*
X+2763222Y-810030D01*
X+2783222Y-794332D01*
X+2803222Y-784083D01*
X+2823222Y-777902D01*
X+2843222Y-775184D01*
X+2850000Y-775000D01*
X+2725000Y-900000D02*
X+2725401Y-909999D01*
X+2728653Y-929999D01*
X+2735435Y-949999D01*
X+2746438Y-969999D01*
X+2763222Y-989970D01*
X+2783222Y-1005668D01*
X+2803222Y-1015917D01*
X+2823222Y-1022098D01*
X+2843222Y-1024816D01*
X+2850000Y-1025000D01*
X+2975000Y-900000D02*
X+2974599Y-909999D01*
X+2971347Y-929999D01*
X+2964565Y-949999D01*
X+2953562Y-969999D01*
X+2936778Y-989970D01*
X+2916778Y-1005668D01*
X+2896778Y-1015917D01*
X+2876778Y-1022098D01*
X+2856778Y-1024816D01*
X+2850000Y-1025000D01*
D31*
X+1847693Y-1266055D02*
X+1871693Y-1266055D01*
X+2035693Y-1266055D02*
X+2055693Y-1266055D01*
X+2263693Y-1266055D02*
X+2283693Y-1266055D01*
X+2705693Y-1266055D02*
X+2727693Y-1266055D01*
X+2889693Y-1266055D02*
X+2905693Y-1266055D01*
X+2975693Y-1266055D02*
X+2989693Y-1266055D01*
X+3037693Y-1266055D02*
X+3055693Y-1266055D01*
X+3103693Y-1266055D02*
X+3119693Y-1266055D01*
X+3185693Y-1266055D02*
X+3203693Y-1266055D01*
X+3495693Y-1266055D02*
X+3511693Y-1266055D01*
X+3541693Y-1266055D02*
X+3559693Y-1266055D01*
X+3683693Y-1266055D02*
X+3703693Y-1266055D01*
X+3785693Y-1266055D02*
X+3803693Y-1266055D01*
X+4057693Y-1266055D02*
X+4075693Y-1266055D01*
X+4123693Y-1266055D02*
X+4139693Y-1266055D01*
X+4247693Y-1266055D02*
X+4261693Y-1266055D01*
X+1841693Y-1264055D02*
X+1877693Y-1264055D01*
X+1917693Y-1264055D02*
X+1929693Y-1264055D01*
X+1979693Y-1264055D02*
X+1995693Y-1264055D01*
X+2027693Y-1264055D02*
X+2061693Y-1264055D01*
X+2101693Y-1264055D02*
X+2113693Y-1264055D01*
X+2169693Y-1264055D02*
X+2183693Y-1264055D01*
X+2199693Y-1264055D02*
X+2211693Y-1264055D01*
X+2255693Y-1264055D02*
X+2289693Y-1264055D01*
X+2373693Y-1264055D02*
X+2385693Y-1264055D01*
X+2435693Y-1264055D02*
X+2449693Y-1264055D01*
X+2469693Y-1264055D02*
X+2481693Y-1264055D01*
X+2537693Y-1264055D02*
X+2551693Y-1264055D01*
X+2565693Y-1264055D02*
X+2577693Y-1264055D01*
X+2647693Y-1264055D02*
X+2659693Y-1264055D01*
X+2697693Y-1264055D02*
X+2733693Y-1264055D01*
X+2805693Y-1264055D02*
X+2865693Y-1264055D01*
X+2885693Y-1264055D02*
X+2911693Y-1264055D01*
X+2925693Y-1264055D02*
X+2937693Y-1264055D01*
X+2951693Y-1264055D02*
X+2963693Y-1264055D01*
X+2971693Y-1264055D02*
X+2993693Y-1264055D01*
X+3033693Y-1264055D02*
X+3061693Y-1264055D01*
X+3099693Y-1264055D02*
X+3125693Y-1264055D01*
X+3139693Y-1264055D02*
X+3151693Y-1264055D01*
X+3181693Y-1264055D02*
X+3207693Y-1264055D01*
X+3231693Y-1264055D02*
X+3243693Y-1264055D01*
X+3273693Y-1264055D02*
X+3287693Y-1264055D01*
X+3335693Y-1264055D02*
X+3405693Y-1264055D01*
X+3413693Y-1264055D02*
X+3429693Y-1264055D01*
X+3463693Y-1264055D02*
X+3477693Y-1264055D01*
X+3491693Y-1264055D02*
X+3511693Y-1264055D01*
X+3535693Y-1264055D02*
X+3565693Y-1264055D01*
X+3597693Y-1264055D02*
X+3609693Y-1264055D01*
X+3639693Y-1264055D02*
X+3651693Y-1264055D01*
X+3677693Y-1264055D02*
X+3709693Y-1264055D01*
X+3737693Y-1264055D02*
X+3749693Y-1264055D01*
X+3781693Y-1264055D02*
X+3807693Y-1264055D01*
X+3841693Y-1264055D02*
X+3853693Y-1264055D01*
X+3883693Y-1264055D02*
X+3895693Y-1264055D01*
X+3951693Y-1264055D02*
X+3999693Y-1264055D01*
X+4053693Y-1264055D02*
X+4079693Y-1264055D01*
X+4119693Y-1264055D02*
X+4145693Y-1264055D01*
X+4159693Y-1264055D02*
X+4171693Y-1264055D01*
X+4187693Y-1264055D02*
X+4199693Y-1264055D01*
X+4241693Y-1264055D02*
X+4265693Y-1264055D01*
X+4273693Y-1264055D02*
X+4285693Y-1264055D01*
X+1837693Y-1262055D02*
X+1881693Y-1262055D01*
X+1917693Y-1262055D02*
X+1929693Y-1262055D01*
X+1979693Y-1262055D02*
X+1993693Y-1262055D01*
X+2023693Y-1262055D02*
X+2065693Y-1262055D01*
X+2101693Y-1262055D02*
X+2113693Y-1262055D01*
X+2167693Y-1262055D02*
X+2181693Y-1262055D01*
X+2199693Y-1262055D02*
X+2211693Y-1262055D01*
X+2251693Y-1262055D02*
X+2293693Y-1262055D01*
X+2373693Y-1262055D02*
X+2385693Y-1262055D01*
X+2435693Y-1262055D02*
X+2449693Y-1262055D01*
X+2469693Y-1262055D02*
X+2481693Y-1262055D01*
X+2535693Y-1262055D02*
X+2549693Y-1262055D01*
X+2565693Y-1262055D02*
X+2577693Y-1262055D01*
X+2647693Y-1262055D02*
X+2659693Y-1262055D01*
X+2693693Y-1262055D02*
X+2737693Y-1262055D01*
X+2805693Y-1262055D02*
X+2865693Y-1262055D01*
X+2881693Y-1262055D02*
X+2915693Y-1262055D01*
X+2923693Y-1262055D02*
X+2935693Y-1262055D01*
X+2951693Y-1262055D02*
X+2963693Y-1262055D01*
X+2969693Y-1262055D02*
X+2997693Y-1262055D01*
X+3029693Y-1262055D02*
X+3063693Y-1262055D01*
X+3095693Y-1262055D02*
X+3129693Y-1262055D01*
X+3137693Y-1262055D02*
X+3149693Y-1262055D01*
X+3177693Y-1262055D02*
X+3211693Y-1262055D01*
X+3231693Y-1262055D02*
X+3243693Y-1262055D01*
X+3271693Y-1262055D02*
X+3285693Y-1262055D01*
X+3335693Y-1262055D02*
X+3405693Y-1262055D01*
X+3415693Y-1262055D02*
X+3429693Y-1262055D01*
X+3461693Y-1262055D02*
X+3475693Y-1262055D01*
X+3489693Y-1262055D02*
X+3511693Y-1262055D01*
X+3531693Y-1262055D02*
X+3569693Y-1262055D01*
X+3597693Y-1262055D02*
X+3609693Y-1262055D01*
X+3639693Y-1262055D02*
X+3651693Y-1262055D01*
X+3675693Y-1262055D02*
X+3711693Y-1262055D01*
X+3737693Y-1262055D02*
X+3749693Y-1262055D01*
X+3777693Y-1262055D02*
X+3811693Y-1262055D01*
X+3841693Y-1262055D02*
X+3853693Y-1262055D01*
X+3883693Y-1262055D02*
X+3895693Y-1262055D01*
X+3951693Y-1262055D02*
X+4007693Y-1262055D01*
X+4049693Y-1262055D02*
X+4083693Y-1262055D01*
X+4115693Y-1262055D02*
X+4149693Y-1262055D01*
X+4157693Y-1262055D02*
X+4169693Y-1262055D01*
X+4187693Y-1262055D02*
X+4199693Y-1262055D01*
X+4239693Y-1262055D02*
X+4267693Y-1262055D01*
X+4273693Y-1262055D02*
X+4285693Y-1262055D01*
X+1833693Y-1260055D02*
X+1885693Y-1260055D01*
X+1917693Y-1260055D02*
X+1929693Y-1260055D01*
X+1977693Y-1260055D02*
X+1991693Y-1260055D01*
X+2019693Y-1260055D02*
X+2069693Y-1260055D01*
X+2101693Y-1260055D02*
X+2113693Y-1260055D01*
X+2165693Y-1260055D02*
X+2179693Y-1260055D01*
X+2199693Y-1260055D02*
X+2211693Y-1260055D01*
X+2247693Y-1260055D02*
X+2297693Y-1260055D01*
X+2373693Y-1260055D02*
X+2385693Y-1260055D01*
X+2433693Y-1260055D02*
X+2449693Y-1260055D01*
X+2469693Y-1260055D02*
X+2481693Y-1260055D01*
X+2533693Y-1260055D02*
X+2547693Y-1260055D01*
X+2565693Y-1260055D02*
X+2577693Y-1260055D01*
X+2647693Y-1260055D02*
X+2659693Y-1260055D01*
X+2691693Y-1260055D02*
X+2739693Y-1260055D01*
X+2805693Y-1260055D02*
X+2865693Y-1260055D01*
X+2879693Y-1260055D02*
X+2917693Y-1260055D01*
X+2921693Y-1260055D02*
X+2935693Y-1260055D01*
X+2951693Y-1260055D02*
X+2963693Y-1260055D01*
X+2967693Y-1260055D02*
X+2999693Y-1260055D01*
X+3027693Y-1260055D02*
X+3065693Y-1260055D01*
X+3093693Y-1260055D02*
X+3131693Y-1260055D01*
X+3135693Y-1260055D02*
X+3149693Y-1260055D01*
X+3175693Y-1260055D02*
X+3213693Y-1260055D01*
X+3231693Y-1260055D02*
X+3243693Y-1260055D01*
X+3271693Y-1260055D02*
X+3283693Y-1260055D01*
X+3335693Y-1260055D02*
X+3405693Y-1260055D01*
X+3417693Y-1260055D02*
X+3431693Y-1260055D01*
X+3459693Y-1260055D02*
X+3473693Y-1260055D01*
X+3489693Y-1260055D02*
X+3509693Y-1260055D01*
X+3529693Y-1260055D02*
X+3571693Y-1260055D01*
X+3597693Y-1260055D02*
X+3609693Y-1260055D01*
X+3639693Y-1260055D02*
X+3651693Y-1260055D01*
X+3673693Y-1260055D02*
X+3715693Y-1260055D01*
X+3737693Y-1260055D02*
X+3749693Y-1260055D01*
X+3775693Y-1260055D02*
X+3813693Y-1260055D01*
X+3841693Y-1260055D02*
X+3853693Y-1260055D01*
X+3883693Y-1260055D02*
X+3895693Y-1260055D01*
X+3951693Y-1260055D02*
X+4011693Y-1260055D01*
X+4047693Y-1260055D02*
X+4085693Y-1260055D01*
X+4113693Y-1260055D02*
X+4151693Y-1260055D01*
X+4155693Y-1260055D02*
X+4169693Y-1260055D01*
X+4187693Y-1260055D02*
X+4199693Y-1260055D01*
X+4237693Y-1260055D02*
X+4269693Y-1260055D01*
X+4273693Y-1260055D02*
X+4285693Y-1260055D01*
X+1831693Y-1258055D02*
X+1887693Y-1258055D01*
X+1917693Y-1258055D02*
X+1929693Y-1258055D01*
X+1975693Y-1258055D02*
X+1989693Y-1258055D01*
X+2017693Y-1258055D02*
X+2071693Y-1258055D01*
X+2101693Y-1258055D02*
X+2113693Y-1258055D01*
X+2165693Y-1258055D02*
X+2179693Y-1258055D01*
X+2199693Y-1258055D02*
X+2211693Y-1258055D01*
X+2245693Y-1258055D02*
X+2299693Y-1258055D01*
X+2373693Y-1258055D02*
X+2385693Y-1258055D01*
X+2431693Y-1258055D02*
X+2449693Y-1258055D01*
X+2469693Y-1258055D02*
X+2481693Y-1258055D01*
X+2533693Y-1258055D02*
X+2547693Y-1258055D01*
X+2565693Y-1258055D02*
X+2577693Y-1258055D01*
X+2647693Y-1258055D02*
X+2659693Y-1258055D01*
X+2687693Y-1258055D02*
X+2743693Y-1258055D01*
X+2805693Y-1258055D02*
X+2865693Y-1258055D01*
X+2879693Y-1258055D02*
X+2919693Y-1258055D01*
X+2921693Y-1258055D02*
X+2935693Y-1258055D01*
X+2951693Y-1258055D02*
X+2963693Y-1258055D01*
X+2965693Y-1258055D02*
X+3001693Y-1258055D01*
X+3025693Y-1258055D02*
X+3067693Y-1258055D01*
X+3093693Y-1258055D02*
X+3133693Y-1258055D01*
X+3135693Y-1258055D02*
X+3149693Y-1258055D01*
X+3173693Y-1258055D02*
X+3215693Y-1258055D01*
X+3231693Y-1258055D02*
X+3243693Y-1258055D01*
X+3269693Y-1258055D02*
X+3283693Y-1258055D01*
X+3335693Y-1258055D02*
X+3405693Y-1258055D01*
X+3419693Y-1258055D02*
X+3433693Y-1258055D01*
X+3457693Y-1258055D02*
X+3473693Y-1258055D01*
X+3487693Y-1258055D02*
X+3509693Y-1258055D01*
X+3527693Y-1258055D02*
X+3573693Y-1258055D01*
X+3597693Y-1258055D02*
X+3609693Y-1258055D01*
X+3639693Y-1258055D02*
X+3651693Y-1258055D01*
X+3671693Y-1258055D02*
X+3717693Y-1258055D01*
X+3737693Y-1258055D02*
X+3749693Y-1258055D01*
X+3773693Y-1258055D02*
X+3815693Y-1258055D01*
X+3841693Y-1258055D02*
X+3853693Y-1258055D01*
X+3883693Y-1258055D02*
X+3895693Y-1258055D01*
X+3951693Y-1258055D02*
X+4013693Y-1258055D01*
X+4045693Y-1258055D02*
X+4087693Y-1258055D01*
X+4113693Y-1258055D02*
X+4153693Y-1258055D01*
X+4155693Y-1258055D02*
X+4169693Y-1258055D01*
X+4187693Y-1258055D02*
X+4199693Y-1258055D01*
X+4235693Y-1258055D02*
X+4271693Y-1258055D01*
X+4273693Y-1258055D02*
X+4285693Y-1258055D01*
X+1829693Y-1256055D02*
X+1889693Y-1256055D01*
X+1917693Y-1256055D02*
X+1929693Y-1256055D01*
X+1973693Y-1256055D02*
X+1989693Y-1256055D01*
X+2015693Y-1256055D02*
X+2073693Y-1256055D01*
X+2101693Y-1256055D02*
X+2113693Y-1256055D01*
X+2163693Y-1256055D02*
X+2177693Y-1256055D01*
X+2199693Y-1256055D02*
X+2211693Y-1256055D01*
X+2243693Y-1256055D02*
X+2301693Y-1256055D01*
X+2373693Y-1256055D02*
X+2385693Y-1256055D01*
X+2431693Y-1256055D02*
X+2449693Y-1256055D01*
X+2469693Y-1256055D02*
X+2481693Y-1256055D01*
X+2531693Y-1256055D02*
X+2545693Y-1256055D01*
X+2565693Y-1256055D02*
X+2577693Y-1256055D01*
X+2647693Y-1256055D02*
X+2659693Y-1256055D01*
X+2685693Y-1256055D02*
X+2745693Y-1256055D01*
X+2805693Y-1256055D02*
X+2865693Y-1256055D01*
X+2877693Y-1256055D02*
X+2933693Y-1256055D01*
X+2951693Y-1256055D02*
X+3003693Y-1256055D01*
X+3025693Y-1256055D02*
X+3069693Y-1256055D01*
X+3091693Y-1256055D02*
X+3147693Y-1256055D01*
X+3171693Y-1256055D02*
X+3217693Y-1256055D01*
X+3231693Y-1256055D02*
X+3243693Y-1256055D01*
X+3267693Y-1256055D02*
X+3281693Y-1256055D01*
X+3335693Y-1256055D02*
X+3405693Y-1256055D01*
X+3419693Y-1256055D02*
X+3433693Y-1256055D01*
X+3457693Y-1256055D02*
X+3471693Y-1256055D01*
X+3487693Y-1256055D02*
X+3509693Y-1256055D01*
X+3525693Y-1256055D02*
X+3575693Y-1256055D01*
X+3597693Y-1256055D02*
X+3609693Y-1256055D01*
X+3639693Y-1256055D02*
X+3651693Y-1256055D01*
X+3669693Y-1256055D02*
X+3717693Y-1256055D01*
X+3737693Y-1256055D02*
X+3749693Y-1256055D01*
X+3771693Y-1256055D02*
X+3817693Y-1256055D01*
X+3841693Y-1256055D02*
X+3853693Y-1256055D01*
X+3883693Y-1256055D02*
X+3895693Y-1256055D01*
X+3951693Y-1256055D02*
X+4015693Y-1256055D01*
X+4043693Y-1256055D02*
X+4089693Y-1256055D01*
X+4111693Y-1256055D02*
X+4167693Y-1256055D01*
X+4187693Y-1256055D02*
X+4199693Y-1256055D01*
X+4233693Y-1256055D02*
X+4285693Y-1256055D01*
X+1827693Y-1254055D02*
X+1849693Y-1254055D01*
X+1869693Y-1254055D02*
X+1891693Y-1254055D01*
X+1917693Y-1254055D02*
X+1929693Y-1254055D01*
X+1973693Y-1254055D02*
X+1987693Y-1254055D01*
X+2013693Y-1254055D02*
X+2037693Y-1254055D01*
X+2053693Y-1254055D02*
X+2075693Y-1254055D01*
X+2101693Y-1254055D02*
X+2113693Y-1254055D01*
X+2161693Y-1254055D02*
X+2175693Y-1254055D01*
X+2199693Y-1254055D02*
X+2211693Y-1254055D01*
X+2241693Y-1254055D02*
X+2265693Y-1254055D01*
X+2281693Y-1254055D02*
X+2303693Y-1254055D01*
X+2373693Y-1254055D02*
X+2385693Y-1254055D01*
X+2429693Y-1254055D02*
X+2449693Y-1254055D01*
X+2469693Y-1254055D02*
X+2481693Y-1254055D01*
X+2529693Y-1254055D02*
X+2543693Y-1254055D01*
X+2565693Y-1254055D02*
X+2577693Y-1254055D01*
X+2647693Y-1254055D02*
X+2659693Y-1254055D01*
X+2685693Y-1254055D02*
X+2707693Y-1254055D01*
X+2725693Y-1254055D02*
X+2745693Y-1254055D01*
X+2805693Y-1254055D02*
X+2865693Y-1254055D01*
X+2877693Y-1254055D02*
X+2893693Y-1254055D01*
X+2907693Y-1254055D02*
X+2933693Y-1254055D01*
X+2951693Y-1254055D02*
X+2975693Y-1254055D01*
X+2987693Y-1254055D02*
X+3005693Y-1254055D01*
X+3023693Y-1254055D02*
X+3041693Y-1254055D01*
X+3053693Y-1254055D02*
X+3069693Y-1254055D01*
X+3091693Y-1254055D02*
X+3107693Y-1254055D01*
X+3121693Y-1254055D02*
X+3147693Y-1254055D01*
X+3169693Y-1254055D02*
X+3187693Y-1254055D01*
X+3201693Y-1254055D02*
X+3219693Y-1254055D01*
X+3231693Y-1254055D02*
X+3243693Y-1254055D01*
X+3267693Y-1254055D02*
X+3281693Y-1254055D01*
X+3335693Y-1254055D02*
X+3405693Y-1254055D01*
X+3421693Y-1254055D02*
X+3435693Y-1254055D01*
X+3455693Y-1254055D02*
X+3469693Y-1254055D01*
X+3487693Y-1254055D02*
X+3501693Y-1254055D01*
X+3523693Y-1254055D02*
X+3543693Y-1254055D01*
X+3557693Y-1254055D02*
X+3577693Y-1254055D01*
X+3597693Y-1254055D02*
X+3609693Y-1254055D01*
X+3639693Y-1254055D02*
X+3651693Y-1254055D01*
X+3667693Y-1254055D02*
X+3687693Y-1254055D01*
X+3701693Y-1254055D02*
X+3719693Y-1254055D01*
X+3737693Y-1254055D02*
X+3749693Y-1254055D01*
X+3769693Y-1254055D02*
X+3787693Y-1254055D01*
X+3801693Y-1254055D02*
X+3819693Y-1254055D01*
X+3841693Y-1254055D02*
X+3853693Y-1254055D01*
X+3883693Y-1254055D02*
X+3895693Y-1254055D01*
X+3951693Y-1254055D02*
X+4017693Y-1254055D01*
X+4041693Y-1254055D02*
X+4059693Y-1254055D01*
X+4073693Y-1254055D02*
X+4091693Y-1254055D01*
X+4111693Y-1254055D02*
X+4127693Y-1254055D01*
X+4141693Y-1254055D02*
X+4167693Y-1254055D01*
X+4187693Y-1254055D02*
X+4199693Y-1254055D01*
X+4231693Y-1254055D02*
X+4249693Y-1254055D01*
X+4261693Y-1254055D02*
X+4285693Y-1254055D01*
X+1827693Y-1252055D02*
X+1845693Y-1252055D01*
X+1875693Y-1252055D02*
X+1891693Y-1252055D01*
X+1917693Y-1252055D02*
X+1929693Y-1252055D01*
X+1971693Y-1252055D02*
X+1985693Y-1252055D01*
X+2011693Y-1252055D02*
X+2031693Y-1252055D01*
X+2059693Y-1252055D02*
X+2077693Y-1252055D01*
X+2101693Y-1252055D02*
X+2113693Y-1252055D01*
X+2161693Y-1252055D02*
X+2175693Y-1252055D01*
X+2199693Y-1252055D02*
X+2211693Y-1252055D01*
X+2239693Y-1252055D02*
X+2259693Y-1252055D01*
X+2287693Y-1252055D02*
X+2305693Y-1252055D01*
X+2373693Y-1252055D02*
X+2385693Y-1252055D01*
X+2427693Y-1252055D02*
X+2449693Y-1252055D01*
X+2469693Y-1252055D02*
X+2481693Y-1252055D01*
X+2529693Y-1252055D02*
X+2543693Y-1252055D01*
X+2565693Y-1252055D02*
X+2577693Y-1252055D01*
X+2647693Y-1252055D02*
X+2659693Y-1252055D01*
X+2683693Y-1252055D02*
X+2701693Y-1252055D01*
X+2731693Y-1252055D02*
X+2747693Y-1252055D01*
X+2805693Y-1252055D02*
X+2817693Y-1252055D01*
X+2875693Y-1252055D02*
X+2889693Y-1252055D01*
X+2913693Y-1252055D02*
X+2933693Y-1252055D01*
X+2951693Y-1252055D02*
X+2971693Y-1252055D01*
X+2991693Y-1252055D02*
X+3005693Y-1252055D01*
X+3023693Y-1252055D02*
X+3037693Y-1252055D01*
X+3057693Y-1252055D02*
X+3071693Y-1252055D01*
X+3089693Y-1252055D02*
X+3103693Y-1252055D01*
X+3127693Y-1252055D02*
X+3147693Y-1252055D01*
X+3167693Y-1252055D02*
X+3183693Y-1252055D01*
X+3205693Y-1252055D02*
X+3219693Y-1252055D01*
X+3231693Y-1252055D02*
X+3243693Y-1252055D01*
X+3265693Y-1252055D02*
X+3279693Y-1252055D01*
X+3335693Y-1252055D02*
X+3347693Y-1252055D01*
X+3423693Y-1252055D02*
X+3437693Y-1252055D01*
X+3453693Y-1252055D02*
X+3469693Y-1252055D01*
X+3487693Y-1252055D02*
X+3499693Y-1252055D01*
X+3521693Y-1252055D02*
X+3539693Y-1252055D01*
X+3561693Y-1252055D02*
X+3577693Y-1252055D01*
X+3597693Y-1252055D02*
X+3609693Y-1252055D01*
X+3639693Y-1252055D02*
X+3651693Y-1252055D01*
X+3667693Y-1252055D02*
X+3683693Y-1252055D01*
X+3705693Y-1252055D02*
X+3719693Y-1252055D01*
X+3737693Y-1252055D02*
X+3749693Y-1252055D01*
X+3767693Y-1252055D02*
X+3783693Y-1252055D01*
X+3805693Y-1252055D02*
X+3821693Y-1252055D01*
X+3841693Y-1252055D02*
X+3853693Y-1252055D01*
X+3883693Y-1252055D02*
X+3895693Y-1252055D01*
X+3951693Y-1252055D02*
X+3963693Y-1252055D01*
X+3999693Y-1252055D02*
X+4019693Y-1252055D01*
X+4039693Y-1252055D02*
X+4055693Y-1252055D01*
X+4077693Y-1252055D02*
X+4093693Y-1252055D01*
X+4109693Y-1252055D02*
X+4123693Y-1252055D01*
X+4147693Y-1252055D02*
X+4167693Y-1252055D01*
X+4187693Y-1252055D02*
X+4199693Y-1252055D01*
X+4231693Y-1252055D02*
X+4245693Y-1252055D01*
X+4265693Y-1252055D02*
X+4285693Y-1252055D01*
X+1825693Y-1250055D02*
X+1841693Y-1250055D01*
X+1877693Y-1250055D02*
X+1893693Y-1250055D01*
X+1917693Y-1250055D02*
X+1929693Y-1250055D01*
X+1969693Y-1250055D02*
X+1983693Y-1250055D01*
X+2011693Y-1250055D02*
X+2027693Y-1250055D01*
X+2061693Y-1250055D02*
X+2079693Y-1250055D01*
X+2101693Y-1250055D02*
X+2113693Y-1250055D01*
X+2159693Y-1250055D02*
X+2173693Y-1250055D01*
X+2199693Y-1250055D02*
X+2211693Y-1250055D01*
X+2239693Y-1250055D02*
X+2255693Y-1250055D01*
X+2289693Y-1250055D02*
X+2307693Y-1250055D01*
X+2373693Y-1250055D02*
X+2385693Y-1250055D01*
X+2427693Y-1250055D02*
X+2449693Y-1250055D01*
X+2469693Y-1250055D02*
X+2481693Y-1250055D01*
X+2527693Y-1250055D02*
X+2541693Y-1250055D01*
X+2565693Y-1250055D02*
X+2577693Y-1250055D01*
X+2647693Y-1250055D02*
X+2659693Y-1250055D01*
X+2681693Y-1250055D02*
X+2699693Y-1250055D01*
X+2733693Y-1250055D02*
X+2749693Y-1250055D01*
X+2805693Y-1250055D02*
X+2817693Y-1250055D01*
X+2875693Y-1250055D02*
X+2889693Y-1250055D01*
X+2915693Y-1250055D02*
X+2933693Y-1250055D01*
X+2951693Y-1250055D02*
X+2969693Y-1250055D01*
X+2993693Y-1250055D02*
X+3007693Y-1250055D01*
X+3023693Y-1250055D02*
X+3037693Y-1250055D01*
X+3059693Y-1250055D02*
X+3071693Y-1250055D01*
X+3089693Y-1250055D02*
X+3103693Y-1250055D01*
X+3129693Y-1250055D02*
X+3147693Y-1250055D01*
X+3167693Y-1250055D02*
X+3181693Y-1250055D01*
X+3207693Y-1250055D02*
X+3221693Y-1250055D01*
X+3231693Y-1250055D02*
X+3243693Y-1250055D01*
X+3263693Y-1250055D02*
X+3277693Y-1250055D01*
X+3335693Y-1250055D02*
X+3347693Y-1250055D01*
X+3423693Y-1250055D02*
X+3439693Y-1250055D01*
X+3453693Y-1250055D02*
X+3467693Y-1250055D01*
X+3487693Y-1250055D02*
X+3499693Y-1250055D01*
X+3521693Y-1250055D02*
X+3537693Y-1250055D01*
X+3565693Y-1250055D02*
X+3579693Y-1250055D01*
X+3597693Y-1250055D02*
X+3609693Y-1250055D01*
X+3639693Y-1250055D02*
X+3651693Y-1250055D01*
X+3667693Y-1250055D02*
X+3681693Y-1250055D01*
X+3707693Y-1250055D02*
X+3721693Y-1250055D01*
X+3737693Y-1250055D02*
X+3749693Y-1250055D01*
X+3767693Y-1250055D02*
X+3781693Y-1250055D01*
X+3807693Y-1250055D02*
X+3821693Y-1250055D01*
X+3841693Y-1250055D02*
X+3853693Y-1250055D01*
X+3883693Y-1250055D02*
X+3895693Y-1250055D01*
X+3951693Y-1250055D02*
X+3963693Y-1250055D01*
X+4005693Y-1250055D02*
X+4019693Y-1250055D01*
X+4039693Y-1250055D02*
X+4053693Y-1250055D01*
X+4079693Y-1250055D02*
X+4093693Y-1250055D01*
X+4109693Y-1250055D02*
X+4123693Y-1250055D01*
X+4149693Y-1250055D02*
X+4167693Y-1250055D01*
X+4187693Y-1250055D02*
X+4199693Y-1250055D01*
X+4229693Y-1250055D02*
X+4243693Y-1250055D01*
X+4267693Y-1250055D02*
X+4285693Y-1250055D01*
X+1825693Y-1248055D02*
X+1839693Y-1248055D01*
X+1879693Y-1248055D02*
X+1893693Y-1248055D01*
X+1917693Y-1248055D02*
X+1929693Y-1248055D01*
X+1969693Y-1248055D02*
X+1983693Y-1248055D01*
X+2009693Y-1248055D02*
X+2025693Y-1248055D01*
X+2063693Y-1248055D02*
X+2079693Y-1248055D01*
X+2101693Y-1248055D02*
X+2113693Y-1248055D01*
X+2159693Y-1248055D02*
X+2173693Y-1248055D01*
X+2199693Y-1248055D02*
X+2211693Y-1248055D01*
X+2237693Y-1248055D02*
X+2253693Y-1248055D01*
X+2291693Y-1248055D02*
X+2307693Y-1248055D01*
X+2373693Y-1248055D02*
X+2385693Y-1248055D01*
X+2425693Y-1248055D02*
X+2449693Y-1248055D01*
X+2469693Y-1248055D02*
X+2481693Y-1248055D01*
X+2527693Y-1248055D02*
X+2541693Y-1248055D01*
X+2565693Y-1248055D02*
X+2577693Y-1248055D01*
X+2647693Y-1248055D02*
X+2659693Y-1248055D01*
X+2681693Y-1248055D02*
X+2695693Y-1248055D01*
X+2735693Y-1248055D02*
X+2749693Y-1248055D01*
X+2805693Y-1248055D02*
X+2817693Y-1248055D01*
X+2875693Y-1248055D02*
X+2887693Y-1248055D01*
X+2917693Y-1248055D02*
X+2933693Y-1248055D01*
X+2951693Y-1248055D02*
X+2967693Y-1248055D01*
X+2995693Y-1248055D02*
X+3007693Y-1248055D01*
X+3021693Y-1248055D02*
X+3035693Y-1248055D01*
X+3059693Y-1248055D02*
X+3071693Y-1248055D01*
X+3089693Y-1248055D02*
X+3101693Y-1248055D01*
X+3131693Y-1248055D02*
X+3147693Y-1248055D01*
X+3165693Y-1248055D02*
X+3179693Y-1248055D01*
X+3207693Y-1248055D02*
X+3221693Y-1248055D01*
X+3231693Y-1248055D02*
X+3243693Y-1248055D01*
X+3263693Y-1248055D02*
X+3277693Y-1248055D01*
X+3335693Y-1248055D02*
X+3347693Y-1248055D01*
X+3425693Y-1248055D02*
X+3439693Y-1248055D01*
X+3451693Y-1248055D02*
X+3465693Y-1248055D01*
X+3487693Y-1248055D02*
X+3499693Y-1248055D01*
X+3519693Y-1248055D02*
X+3535693Y-1248055D01*
X+3567693Y-1248055D02*
X+3579693Y-1248055D01*
X+3597693Y-1248055D02*
X+3609693Y-1248055D01*
X+3639693Y-1248055D02*
X+3651693Y-1248055D01*
X+3665693Y-1248055D02*
X+3679693Y-1248055D01*
X+3709693Y-1248055D02*
X+3721693Y-1248055D01*
X+3737693Y-1248055D02*
X+3749693Y-1248055D01*
X+3765693Y-1248055D02*
X+3779693Y-1248055D01*
X+3809693Y-1248055D02*
X+3823693Y-1248055D01*
X+3841693Y-1248055D02*
X+3853693Y-1248055D01*
X+3883693Y-1248055D02*
X+3895693Y-1248055D01*
X+3951693Y-1248055D02*
X+3963693Y-1248055D01*
X+4007693Y-1248055D02*
X+4021693Y-1248055D01*
X+4037693Y-1248055D02*
X+4051693Y-1248055D01*
X+4081693Y-1248055D02*
X+4095693Y-1248055D01*
X+4109693Y-1248055D02*
X+4121693Y-1248055D01*
X+4151693Y-1248055D02*
X+4167693Y-1248055D01*
X+4187693Y-1248055D02*
X+4199693Y-1248055D01*
X+4229693Y-1248055D02*
X+4241693Y-1248055D01*
X+4269693Y-1248055D02*
X+4285693Y-1248055D01*
X+1823693Y-1246055D02*
X+1837693Y-1246055D01*
X+1881693Y-1246055D02*
X+1895693Y-1246055D01*
X+1917693Y-1246055D02*
X+1929693Y-1246055D01*
X+1967693Y-1246055D02*
X+1981693Y-1246055D01*
X+2007693Y-1246055D02*
X+2023693Y-1246055D01*
X+2065693Y-1246055D02*
X+2081693Y-1246055D01*
X+2101693Y-1246055D02*
X+2113693Y-1246055D01*
X+2157693Y-1246055D02*
X+2171693Y-1246055D01*
X+2199693Y-1246055D02*
X+2211693Y-1246055D01*
X+2235693Y-1246055D02*
X+2251693Y-1246055D01*
X+2293693Y-1246055D02*
X+2309693Y-1246055D01*
X+2373693Y-1246055D02*
X+2385693Y-1246055D01*
X+2423693Y-1246055D02*
X+2449693Y-1246055D01*
X+2469693Y-1246055D02*
X+2481693Y-1246055D01*
X+2525693Y-1246055D02*
X+2539693Y-1246055D01*
X+2565693Y-1246055D02*
X+2577693Y-1246055D01*
X+2647693Y-1246055D02*
X+2659693Y-1246055D01*
X+2679693Y-1246055D02*
X+2693693Y-1246055D01*
X+2737693Y-1246055D02*
X+2749693Y-1246055D01*
X+2805693Y-1246055D02*
X+2817693Y-1246055D01*
X+2875693Y-1246055D02*
X+2887693Y-1246055D01*
X+2919693Y-1246055D02*
X+2933693Y-1246055D01*
X+2951693Y-1246055D02*
X+2967693Y-1246055D01*
X+2995693Y-1246055D02*
X+3009693Y-1246055D01*
X+3021693Y-1246055D02*
X+3035693Y-1246055D01*
X+3059693Y-1246055D02*
X+3073693Y-1246055D01*
X+3089693Y-1246055D02*
X+3101693Y-1246055D01*
X+3133693Y-1246055D02*
X+3147693Y-1246055D01*
X+3165693Y-1246055D02*
X+3179693Y-1246055D01*
X+3209693Y-1246055D02*
X+3221693Y-1246055D01*
X+3231693Y-1246055D02*
X+3243693Y-1246055D01*
X+3261693Y-1246055D02*
X+3275693Y-1246055D01*
X+3335693Y-1246055D02*
X+3347693Y-1246055D01*
X+3427693Y-1246055D02*
X+3441693Y-1246055D01*
X+3449693Y-1246055D02*
X+3465693Y-1246055D01*
X+3487693Y-1246055D02*
X+3499693Y-1246055D01*
X+3519693Y-1246055D02*
X+3533693Y-1246055D01*
X+3567693Y-1246055D02*
X+3581693Y-1246055D01*
X+3597693Y-1246055D02*
X+3609693Y-1246055D01*
X+3639693Y-1246055D02*
X+3651693Y-1246055D01*
X+3665693Y-1246055D02*
X+3677693Y-1246055D01*
X+3709693Y-1246055D02*
X+3721693Y-1246055D01*
X+3737693Y-1246055D02*
X+3749693Y-1246055D01*
X+3765693Y-1246055D02*
X+3779693Y-1246055D01*
X+3809693Y-1246055D02*
X+3823693Y-1246055D01*
X+3841693Y-1246055D02*
X+3853693Y-1246055D01*
X+3883693Y-1246055D02*
X+3895693Y-1246055D01*
X+3951693Y-1246055D02*
X+3963693Y-1246055D01*
X+4009693Y-1246055D02*
X+4021693Y-1246055D01*
X+4037693Y-1246055D02*
X+4051693Y-1246055D01*
X+4081693Y-1246055D02*
X+4095693Y-1246055D01*
X+4109693Y-1246055D02*
X+4121693Y-1246055D01*
X+4153693Y-1246055D02*
X+4167693Y-1246055D01*
X+4187693Y-1246055D02*
X+4199693Y-1246055D01*
X+4227693Y-1246055D02*
X+4241693Y-1246055D01*
X+4269693Y-1246055D02*
X+4285693Y-1246055D01*
X+1823693Y-1244055D02*
X+1837693Y-1244055D01*
X+1881693Y-1244055D02*
X+1895693Y-1244055D01*
X+1917693Y-1244055D02*
X+1929693Y-1244055D01*
X+1965693Y-1244055D02*
X+1979693Y-1244055D01*
X+2007693Y-1244055D02*
X+2021693Y-1244055D01*
X+2067693Y-1244055D02*
X+2081693Y-1244055D01*
X+2101693Y-1244055D02*
X+2113693Y-1244055D01*
X+2155693Y-1244055D02*
X+2169693Y-1244055D01*
X+2199693Y-1244055D02*
X+2211693Y-1244055D01*
X+2235693Y-1244055D02*
X+2249693Y-1244055D01*
X+2295693Y-1244055D02*
X+2309693Y-1244055D01*
X+2373693Y-1244055D02*
X+2385693Y-1244055D01*
X+2423693Y-1244055D02*
X+2435693Y-1244055D01*
X+2437693Y-1244055D02*
X+2449693Y-1244055D01*
X+2469693Y-1244055D02*
X+2481693Y-1244055D01*
X+2523693Y-1244055D02*
X+2537693Y-1244055D01*
X+2565693Y-1244055D02*
X+2577693Y-1244055D01*
X+2647693Y-1244055D02*
X+2659693Y-1244055D01*
X+2679693Y-1244055D02*
X+2693693Y-1244055D01*
X+2739693Y-1244055D02*
X+2751693Y-1244055D01*
X+2805693Y-1244055D02*
X+2817693Y-1244055D01*
X+2875693Y-1244055D02*
X+2887693Y-1244055D01*
X+2919693Y-1244055D02*
X+2933693Y-1244055D01*
X+2951693Y-1244055D02*
X+2965693Y-1244055D01*
X+2997693Y-1244055D02*
X+3009693Y-1244055D01*
X+3021693Y-1244055D02*
X+3033693Y-1244055D01*
X+3061693Y-1244055D02*
X+3073693Y-1244055D01*
X+3089693Y-1244055D02*
X+3101693Y-1244055D01*
X+3133693Y-1244055D02*
X+3147693Y-1244055D01*
X+3165693Y-1244055D02*
X+3177693Y-1244055D01*
X+3209693Y-1244055D02*
X+3223693Y-1244055D01*
X+3231693Y-1244055D02*
X+3243693Y-1244055D01*
X+3261693Y-1244055D02*
X+3273693Y-1244055D01*
X+3335693Y-1244055D02*
X+3347693Y-1244055D01*
X+3429693Y-1244055D02*
X+3443693Y-1244055D01*
X+3449693Y-1244055D02*
X+3463693Y-1244055D01*
X+3487693Y-1244055D02*
X+3499693Y-1244055D01*
X+3519693Y-1244055D02*
X+3531693Y-1244055D01*
X+3569693Y-1244055D02*
X+3575693Y-1244055D01*
X+3597693Y-1244055D02*
X+3609693Y-1244055D01*
X+3639693Y-1244055D02*
X+3651693Y-1244055D01*
X+3671693Y-1244055D02*
X+3677693Y-1244055D01*
X+3709693Y-1244055D02*
X+3721693Y-1244055D01*
X+3737693Y-1244055D02*
X+3749693Y-1244055D01*
X+3765693Y-1244055D02*
X+3777693Y-1244055D01*
X+3811693Y-1244055D02*
X+3823693Y-1244055D01*
X+3841693Y-1244055D02*
X+3853693Y-1244055D01*
X+3883693Y-1244055D02*
X+3895693Y-1244055D01*
X+3951693Y-1244055D02*
X+3963693Y-1244055D01*
X+4009693Y-1244055D02*
X+4023693Y-1244055D01*
X+4037693Y-1244055D02*
X+4049693Y-1244055D01*
X+4083693Y-1244055D02*
X+4095693Y-1244055D01*
X+4109693Y-1244055D02*
X+4121693Y-1244055D01*
X+4153693Y-1244055D02*
X+4167693Y-1244055D01*
X+4187693Y-1244055D02*
X+4199693Y-1244055D01*
X+4227693Y-1244055D02*
X+4239693Y-1244055D01*
X+4271693Y-1244055D02*
X+4285693Y-1244055D01*
X+1823693Y-1242055D02*
X+1835693Y-1242055D01*
X+1883693Y-1242055D02*
X+1895693Y-1242055D01*
X+1917693Y-1242055D02*
X+1929693Y-1242055D01*
X+1963693Y-1242055D02*
X+1977693Y-1242055D01*
X+2005693Y-1242055D02*
X+2019693Y-1242055D01*
X+2069693Y-1242055D02*
X+2083693Y-1242055D01*
X+2101693Y-1242055D02*
X+2113693Y-1242055D01*
X+2155693Y-1242055D02*
X+2169693Y-1242055D01*
X+2199693Y-1242055D02*
X+2211693Y-1242055D01*
X+2233693Y-1242055D02*
X+2247693Y-1242055D01*
X+2297693Y-1242055D02*
X+2311693Y-1242055D01*
X+2373693Y-1242055D02*
X+2385693Y-1242055D01*
X+2421693Y-1242055D02*
X+2435693Y-1242055D01*
X+2437693Y-1242055D02*
X+2449693Y-1242055D01*
X+2469693Y-1242055D02*
X+2481693Y-1242055D01*
X+2523693Y-1242055D02*
X+2537693Y-1242055D01*
X+2565693Y-1242055D02*
X+2577693Y-1242055D01*
X+2647693Y-1242055D02*
X+2659693Y-1242055D01*
X+2679693Y-1242055D02*
X+2691693Y-1242055D01*
X+2739693Y-1242055D02*
X+2751693Y-1242055D01*
X+2805693Y-1242055D02*
X+2817693Y-1242055D01*
X+2875693Y-1242055D02*
X+2889693Y-1242055D01*
X+2921693Y-1242055D02*
X+2933693Y-1242055D01*
X+2951693Y-1242055D02*
X+2965693Y-1242055D01*
X+2997693Y-1242055D02*
X+3009693Y-1242055D01*
X+3021693Y-1242055D02*
X+3033693Y-1242055D01*
X+3061693Y-1242055D02*
X+3073693Y-1242055D01*
X+3089693Y-1242055D02*
X+3103693Y-1242055D01*
X+3135693Y-1242055D02*
X+3147693Y-1242055D01*
X+3165693Y-1242055D02*
X+3177693Y-1242055D01*
X+3211693Y-1242055D02*
X+3223693Y-1242055D01*
X+3231693Y-1242055D02*
X+3243693Y-1242055D01*
X+3259693Y-1242055D02*
X+3273693Y-1242055D01*
X+3335693Y-1242055D02*
X+3347693Y-1242055D01*
X+3429693Y-1242055D02*
X+3443693Y-1242055D01*
X+3447693Y-1242055D02*
X+3461693Y-1242055D01*
X+3487693Y-1242055D02*
X+3499693Y-1242055D01*
X+3519693Y-1242055D02*
X+3531693Y-1242055D01*
X+3597693Y-1242055D02*
X+3609693Y-1242055D01*
X+3639693Y-1242055D02*
X+3651693Y-1242055D01*
X+3707693Y-1242055D02*
X+3721693Y-1242055D01*
X+3737693Y-1242055D02*
X+3749693Y-1242055D01*
X+3765693Y-1242055D02*
X+3777693Y-1242055D01*
X+3811693Y-1242055D02*
X+3823693Y-1242055D01*
X+3841693Y-1242055D02*
X+3853693Y-1242055D01*
X+3883693Y-1242055D02*
X+3895693Y-1242055D01*
X+3951693Y-1242055D02*
X+3963693Y-1242055D01*
X+4011693Y-1242055D02*
X+4023693Y-1242055D01*
X+4037693Y-1242055D02*
X+4049693Y-1242055D01*
X+4083693Y-1242055D02*
X+4095693Y-1242055D01*
X+4109693Y-1242055D02*
X+4123693Y-1242055D01*
X+4155693Y-1242055D02*
X+4167693Y-1242055D01*
X+4187693Y-1242055D02*
X+4199693Y-1242055D01*
X+4227693Y-1242055D02*
X+4239693Y-1242055D01*
X+4271693Y-1242055D02*
X+4285693Y-1242055D01*
X+1823693Y-1240055D02*
X+1835693Y-1240055D01*
X+1883693Y-1240055D02*
X+1895693Y-1240055D01*
X+1917693Y-1240055D02*
X+1929693Y-1240055D01*
X+1963693Y-1240055D02*
X+1977693Y-1240055D01*
X+2005693Y-1240055D02*
X+2017693Y-1240055D01*
X+2069693Y-1240055D02*
X+2083693Y-1240055D01*
X+2101693Y-1240055D02*
X+2113693Y-1240055D01*
X+2153693Y-1240055D02*
X+2167693Y-1240055D01*
X+2199693Y-1240055D02*
X+2211693Y-1240055D01*
X+2233693Y-1240055D02*
X+2245693Y-1240055D01*
X+2297693Y-1240055D02*
X+2311693Y-1240055D01*
X+2373693Y-1240055D02*
X+2385693Y-1240055D01*
X+2419693Y-1240055D02*
X+2433693Y-1240055D01*
X+2437693Y-1240055D02*
X+2449693Y-1240055D01*
X+2469693Y-1240055D02*
X+2481693Y-1240055D01*
X+2521693Y-1240055D02*
X+2535693Y-1240055D01*
X+2565693Y-1240055D02*
X+2577693Y-1240055D01*
X+2647693Y-1240055D02*
X+2659693Y-1240055D01*
X+2677693Y-1240055D02*
X+2691693Y-1240055D01*
X+2739693Y-1240055D02*
X+2751693Y-1240055D01*
X+2805693Y-1240055D02*
X+2817693Y-1240055D01*
X+2877693Y-1240055D02*
X+2891693Y-1240055D01*
X+2921693Y-1240055D02*
X+2933693Y-1240055D01*
X+2951693Y-1240055D02*
X+2963693Y-1240055D01*
X+2997693Y-1240055D02*
X+3011693Y-1240055D01*
X+3021693Y-1240055D02*
X+3033693Y-1240055D01*
X+3061693Y-1240055D02*
X+3073693Y-1240055D01*
X+3091693Y-1240055D02*
X+3105693Y-1240055D01*
X+3135693Y-1240055D02*
X+3147693Y-1240055D01*
X+3163693Y-1240055D02*
X+3175693Y-1240055D01*
X+3211693Y-1240055D02*
X+3217693Y-1240055D01*
X+3231693Y-1240055D02*
X+3243693Y-1240055D01*
X+3257693Y-1240055D02*
X+3271693Y-1240055D01*
X+3335693Y-1240055D02*
X+3347693Y-1240055D01*
X+3431693Y-1240055D02*
X+3459693Y-1240055D01*
X+3487693Y-1240055D02*
X+3499693Y-1240055D01*
X+3517693Y-1240055D02*
X+3531693Y-1240055D01*
X+3597693Y-1240055D02*
X+3609693Y-1240055D01*
X+3639693Y-1240055D02*
X+3651693Y-1240055D01*
X+3705693Y-1240055D02*
X+3721693Y-1240055D01*
X+3737693Y-1240055D02*
X+3749693Y-1240055D01*
X+3763693Y-1240055D02*
X+3777693Y-1240055D01*
X+3811693Y-1240055D02*
X+3825693Y-1240055D01*
X+3841693Y-1240055D02*
X+3853693Y-1240055D01*
X+3883693Y-1240055D02*
X+3895693Y-1240055D01*
X+3951693Y-1240055D02*
X+3963693Y-1240055D01*
X+4011693Y-1240055D02*
X+4023693Y-1240055D01*
X+4035693Y-1240055D02*
X+4049693Y-1240055D01*
X+4083693Y-1240055D02*
X+4097693Y-1240055D01*
X+4111693Y-1240055D02*
X+4125693Y-1240055D01*
X+4155693Y-1240055D02*
X+4167693Y-1240055D01*
X+4187693Y-1240055D02*
X+4199693Y-1240055D01*
X+4225693Y-1240055D02*
X+4239693Y-1240055D01*
X+4273693Y-1240055D02*
X+4285693Y-1240055D01*
X+1821693Y-1238055D02*
X+1835693Y-1238055D01*
X+1883693Y-1238055D02*
X+1897693Y-1238055D01*
X+1917693Y-1238055D02*
X+1929693Y-1238055D01*
X+1961693Y-1238055D02*
X+1975693Y-1238055D01*
X+2005693Y-1238055D02*
X+2017693Y-1238055D01*
X+2071693Y-1238055D02*
X+2083693Y-1238055D01*
X+2101693Y-1238055D02*
X+2113693Y-1238055D01*
X+2151693Y-1238055D02*
X+2167693Y-1238055D01*
X+2199693Y-1238055D02*
X+2211693Y-1238055D01*
X+2233693Y-1238055D02*
X+2245693Y-1238055D01*
X+2299693Y-1238055D02*
X+2311693Y-1238055D01*
X+2373693Y-1238055D02*
X+2385693Y-1238055D01*
X+2419693Y-1238055D02*
X+2431693Y-1238055D01*
X+2437693Y-1238055D02*
X+2449693Y-1238055D01*
X+2469693Y-1238055D02*
X+2481693Y-1238055D01*
X+2519693Y-1238055D02*
X+2535693Y-1238055D01*
X+2565693Y-1238055D02*
X+2577693Y-1238055D01*
X+2647693Y-1238055D02*
X+2659693Y-1238055D01*
X+2677693Y-1238055D02*
X+2689693Y-1238055D01*
X+2739693Y-1238055D02*
X+2751693Y-1238055D01*
X+2805693Y-1238055D02*
X+2817693Y-1238055D01*
X+2877693Y-1238055D02*
X+2895693Y-1238055D01*
X+2921693Y-1238055D02*
X+2933693Y-1238055D01*
X+2951693Y-1238055D02*
X+2963693Y-1238055D01*
X+2999693Y-1238055D02*
X+3011693Y-1238055D01*
X+3025693Y-1238055D02*
X+3033693Y-1238055D01*
X+3061693Y-1238055D02*
X+3073693Y-1238055D01*
X+3091693Y-1238055D02*
X+3109693Y-1238055D01*
X+3135693Y-1238055D02*
X+3147693Y-1238055D01*
X+3163693Y-1238055D02*
X+3175693Y-1238055D01*
X+3231693Y-1238055D02*
X+3243693Y-1238055D01*
X+3257693Y-1238055D02*
X+3271693Y-1238055D01*
X+3335693Y-1238055D02*
X+3347693Y-1238055D01*
X+3433693Y-1238055D02*
X+3459693Y-1238055D01*
X+3487693Y-1238055D02*
X+3499693Y-1238055D01*
X+3517693Y-1238055D02*
X+3529693Y-1238055D01*
X+3597693Y-1238055D02*
X+3609693Y-1238055D01*
X+3639693Y-1238055D02*
X+3651693Y-1238055D01*
X+3699693Y-1238055D02*
X+3721693Y-1238055D01*
X+3737693Y-1238055D02*
X+3749693Y-1238055D01*
X+3763693Y-1238055D02*
X+3775693Y-1238055D01*
X+3813693Y-1238055D02*
X+3825693Y-1238055D01*
X+3841693Y-1238055D02*
X+3853693Y-1238055D01*
X+3883693Y-1238055D02*
X+3895693Y-1238055D01*
X+3951693Y-1238055D02*
X+3963693Y-1238055D01*
X+4011693Y-1238055D02*
X+4023693Y-1238055D01*
X+4035693Y-1238055D02*
X+4047693Y-1238055D01*
X+4085693Y-1238055D02*
X+4097693Y-1238055D01*
X+4111693Y-1238055D02*
X+4129693Y-1238055D01*
X+4155693Y-1238055D02*
X+4167693Y-1238055D01*
X+4187693Y-1238055D02*
X+4199693Y-1238055D01*
X+4225693Y-1238055D02*
X+4237693Y-1238055D01*
X+4273693Y-1238055D02*
X+4285693Y-1238055D01*
X+1821693Y-1236055D02*
X+1833693Y-1236055D01*
X+1885693Y-1236055D02*
X+1897693Y-1236055D01*
X+1917693Y-1236055D02*
X+1929693Y-1236055D01*
X+1959693Y-1236055D02*
X+1973693Y-1236055D01*
X+2003693Y-1236055D02*
X+2017693Y-1236055D01*
X+2071693Y-1236055D02*
X+2085693Y-1236055D01*
X+2101693Y-1236055D02*
X+2113693Y-1236055D01*
X+2151693Y-1236055D02*
X+2165693Y-1236055D01*
X+2199693Y-1236055D02*
X+2211693Y-1236055D01*
X+2231693Y-1236055D02*
X+2245693Y-1236055D01*
X+2299693Y-1236055D02*
X+2313693Y-1236055D01*
X+2323693Y-1236055D02*
X+2359693Y-1236055D01*
X+2373693Y-1236055D02*
X+2385693Y-1236055D01*
X+2417693Y-1236055D02*
X+2431693Y-1236055D01*
X+2437693Y-1236055D02*
X+2449693Y-1236055D01*
X+2469693Y-1236055D02*
X+2481693Y-1236055D01*
X+2519693Y-1236055D02*
X+2533693Y-1236055D01*
X+2565693Y-1236055D02*
X+2577693Y-1236055D01*
X+2647693Y-1236055D02*
X+2659693Y-1236055D01*
X+2677693Y-1236055D02*
X+2689693Y-1236055D01*
X+2739693Y-1236055D02*
X+2751693Y-1236055D01*
X+2805693Y-1236055D02*
X+2817693Y-1236055D01*
X+2879693Y-1236055D02*
X+2907693Y-1236055D01*
X+2921693Y-1236055D02*
X+2933693Y-1236055D01*
X+2951693Y-1236055D02*
X+2963693Y-1236055D01*
X+2999693Y-1236055D02*
X+3011693Y-1236055D01*
X+3061693Y-1236055D02*
X+3073693Y-1236055D01*
X+3093693Y-1236055D02*
X+3121693Y-1236055D01*
X+3135693Y-1236055D02*
X+3147693Y-1236055D01*
X+3163693Y-1236055D02*
X+3175693Y-1236055D01*
X+3231693Y-1236055D02*
X+3245693Y-1236055D01*
X+3255693Y-1236055D02*
X+3269693Y-1236055D01*
X+3335693Y-1236055D02*
X+3347693Y-1236055D01*
X+3433693Y-1236055D02*
X+3457693Y-1236055D01*
X+3487693Y-1236055D02*
X+3499693Y-1236055D01*
X+3517693Y-1236055D02*
X+3529693Y-1236055D01*
X+3597693Y-1236055D02*
X+3609693Y-1236055D01*
X+3639693Y-1236055D02*
X+3651693Y-1236055D01*
X+3691693Y-1236055D02*
X+3719693Y-1236055D01*
X+3737693Y-1236055D02*
X+3749693Y-1236055D01*
X+3763693Y-1236055D02*
X+3775693Y-1236055D01*
X+3813693Y-1236055D02*
X+3825693Y-1236055D01*
X+3841693Y-1236055D02*
X+3853693Y-1236055D01*
X+3883693Y-1236055D02*
X+3895693Y-1236055D01*
X+3951693Y-1236055D02*
X+3963693Y-1236055D01*
X+4011693Y-1236055D02*
X+4023693Y-1236055D01*
X+4035693Y-1236055D02*
X+4047693Y-1236055D01*
X+4085693Y-1236055D02*
X+4097693Y-1236055D01*
X+4113693Y-1236055D02*
X+4141693Y-1236055D01*
X+4155693Y-1236055D02*
X+4167693Y-1236055D01*
X+4187693Y-1236055D02*
X+4199693Y-1236055D01*
X+4225693Y-1236055D02*
X+4237693Y-1236055D01*
X+4273693Y-1236055D02*
X+4285693Y-1236055D01*
X+1821693Y-1234055D02*
X+1833693Y-1234055D01*
X+1885693Y-1234055D02*
X+1897693Y-1234055D01*
X+1917693Y-1234055D02*
X+1929693Y-1234055D01*
X+1957693Y-1234055D02*
X+1973693Y-1234055D01*
X+2003693Y-1234055D02*
X+2015693Y-1234055D01*
X+2073693Y-1234055D02*
X+2085693Y-1234055D01*
X+2101693Y-1234055D02*
X+2113693Y-1234055D01*
X+2149693Y-1234055D02*
X+2163693Y-1234055D01*
X+2199693Y-1234055D02*
X+2211693Y-1234055D01*
X+2231693Y-1234055D02*
X+2243693Y-1234055D01*
X+2301693Y-1234055D02*
X+2313693Y-1234055D01*
X+2323693Y-1234055D02*
X+2359693Y-1234055D01*
X+2373693Y-1234055D02*
X+2385693Y-1234055D01*
X+2415693Y-1234055D02*
X+2429693Y-1234055D01*
X+2437693Y-1234055D02*
X+2449693Y-1234055D01*
X+2469693Y-1234055D02*
X+2481693Y-1234055D01*
X+2517693Y-1234055D02*
X+2531693Y-1234055D01*
X+2565693Y-1234055D02*
X+2577693Y-1234055D01*
X+2647693Y-1234055D02*
X+2659693Y-1234055D01*
X+2677693Y-1234055D02*
X+2689693Y-1234055D01*
X+2739693Y-1234055D02*
X+2751693Y-1234055D01*
X+2805693Y-1234055D02*
X+2817693Y-1234055D01*
X+2879693Y-1234055D02*
X+2917693Y-1234055D01*
X+2921693Y-1234055D02*
X+2933693Y-1234055D01*
X+2951693Y-1234055D02*
X+2963693Y-1234055D01*
X+2999693Y-1234055D02*
X+3011693Y-1234055D01*
X+3061693Y-1234055D02*
X+3073693Y-1234055D01*
X+3093693Y-1234055D02*
X+3131693Y-1234055D01*
X+3135693Y-1234055D02*
X+3147693Y-1234055D01*
X+3163693Y-1234055D02*
X+3175693Y-1234055D01*
X+3231693Y-1234055D02*
X+3247693Y-1234055D01*
X+3255693Y-1234055D02*
X+3267693Y-1234055D01*
X+3335693Y-1234055D02*
X+3347693Y-1234055D01*
X+3435693Y-1234055D02*
X+3455693Y-1234055D01*
X+3487693Y-1234055D02*
X+3499693Y-1234055D01*
X+3517693Y-1234055D02*
X+3529693Y-1234055D01*
X+3597693Y-1234055D02*
X+3609693Y-1234055D01*
X+3639693Y-1234055D02*
X+3651693Y-1234055D01*
X+3685693Y-1234055D02*
X+3719693Y-1234055D01*
X+3737693Y-1234055D02*
X+3749693Y-1234055D01*
X+3763693Y-1234055D02*
X+3775693Y-1234055D01*
X+3813693Y-1234055D02*
X+3825693Y-1234055D01*
X+3841693Y-1234055D02*
X+3853693Y-1234055D01*
X+3883693Y-1234055D02*
X+3895693Y-1234055D01*
X+3951693Y-1234055D02*
X+3963693Y-1234055D01*
X+4011693Y-1234055D02*
X+4023693Y-1234055D01*
X+4035693Y-1234055D02*
X+4047693Y-1234055D01*
X+4085693Y-1234055D02*
X+4097693Y-1234055D01*
X+4113693Y-1234055D02*
X+4151693Y-1234055D01*
X+4155693Y-1234055D02*
X+4167693Y-1234055D01*
X+4187693Y-1234055D02*
X+4199693Y-1234055D01*
X+4225693Y-1234055D02*
X+4237693Y-1234055D01*
X+4273693Y-1234055D02*
X+4285693Y-1234055D01*
X+1821693Y-1232055D02*
X+1833693Y-1232055D01*
X+1885693Y-1232055D02*
X+1897693Y-1232055D01*
X+1917693Y-1232055D02*
X+1929693Y-1232055D01*
X+1957693Y-1232055D02*
X+1971693Y-1232055D01*
X+2003693Y-1232055D02*
X+2015693Y-1232055D01*
X+2073693Y-1232055D02*
X+2077693Y-1232055D01*
X+2101693Y-1232055D02*
X+2113693Y-1232055D01*
X+2147693Y-1232055D02*
X+2161693Y-1232055D01*
X+2199693Y-1232055D02*
X+2211693Y-1232055D01*
X+2231693Y-1232055D02*
X+2243693Y-1232055D01*
X+2301693Y-1232055D02*
X+2305693Y-1232055D01*
X+2323693Y-1232055D02*
X+2359693Y-1232055D01*
X+2373693Y-1232055D02*
X+2385693Y-1232055D01*
X+2415693Y-1232055D02*
X+2427693Y-1232055D01*
X+2437693Y-1232055D02*
X+2449693Y-1232055D01*
X+2469693Y-1232055D02*
X+2481693Y-1232055D01*
X+2515693Y-1232055D02*
X+2529693Y-1232055D01*
X+2565693Y-1232055D02*
X+2577693Y-1232055D01*
X+2647693Y-1232055D02*
X+2659693Y-1232055D01*
X+2737693Y-1232055D02*
X+2751693Y-1232055D01*
X+2805693Y-1232055D02*
X+2817693Y-1232055D01*
X+2881693Y-1232055D02*
X+2933693Y-1232055D01*
X+2951693Y-1232055D02*
X+2963693Y-1232055D01*
X+2999693Y-1232055D02*
X+3011693Y-1232055D01*
X+3061693Y-1232055D02*
X+3073693Y-1232055D01*
X+3095693Y-1232055D02*
X+3147693Y-1232055D01*
X+3163693Y-1232055D02*
X+3175693Y-1232055D01*
X+3231693Y-1232055D02*
X+3249693Y-1232055D01*
X+3253693Y-1232055D02*
X+3267693Y-1232055D01*
X+3335693Y-1232055D02*
X+3347693Y-1232055D01*
X+3437693Y-1232055D02*
X+3455693Y-1232055D01*
X+3487693Y-1232055D02*
X+3499693Y-1232055D01*
X+3517693Y-1232055D02*
X+3581693Y-1232055D01*
X+3597693Y-1232055D02*
X+3609693Y-1232055D01*
X+3639693Y-1232055D02*
X+3651693Y-1232055D01*
X+3681693Y-1232055D02*
X+3717693Y-1232055D01*
X+3737693Y-1232055D02*
X+3749693Y-1232055D01*
X+3763693Y-1232055D02*
X+3775693Y-1232055D01*
X+3813693Y-1232055D02*
X+3825693Y-1232055D01*
X+3841693Y-1232055D02*
X+3853693Y-1232055D01*
X+3883693Y-1232055D02*
X+3895693Y-1232055D01*
X+3951693Y-1232055D02*
X+3963693Y-1232055D01*
X+4011693Y-1232055D02*
X+4023693Y-1232055D01*
X+4035693Y-1232055D02*
X+4047693Y-1232055D01*
X+4085693Y-1232055D02*
X+4097693Y-1232055D01*
X+4115693Y-1232055D02*
X+4167693Y-1232055D01*
X+4187693Y-1232055D02*
X+4199693Y-1232055D01*
X+4225693Y-1232055D02*
X+4237693Y-1232055D01*
X+4273693Y-1232055D02*
X+4285693Y-1232055D01*
X+1821693Y-1230055D02*
X+1833693Y-1230055D01*
X+1885693Y-1230055D02*
X+1897693Y-1230055D01*
X+1917693Y-1230055D02*
X+1931693Y-1230055D01*
X+1955693Y-1230055D02*
X+1969693Y-1230055D01*
X+2003693Y-1230055D02*
X+2015693Y-1230055D01*
X+2101693Y-1230055D02*
X+2113693Y-1230055D01*
X+2145693Y-1230055D02*
X+2159693Y-1230055D01*
X+2199693Y-1230055D02*
X+2211693Y-1230055D01*
X+2231693Y-1230055D02*
X+2243693Y-1230055D01*
X+2323693Y-1230055D02*
X+2359693Y-1230055D01*
X+2373693Y-1230055D02*
X+2385693Y-1230055D01*
X+2413693Y-1230055D02*
X+2427693Y-1230055D01*
X+2437693Y-1230055D02*
X+2449693Y-1230055D01*
X+2469693Y-1230055D02*
X+2481693Y-1230055D01*
X+2513693Y-1230055D02*
X+2527693Y-1230055D01*
X+2565693Y-1230055D02*
X+2577693Y-1230055D01*
X+2647693Y-1230055D02*
X+2659693Y-1230055D01*
X+2737693Y-1230055D02*
X+2749693Y-1230055D01*
X+2805693Y-1230055D02*
X+2817693Y-1230055D01*
X+2885693Y-1230055D02*
X+2933693Y-1230055D01*
X+2951693Y-1230055D02*
X+2963693Y-1230055D01*
X+2999693Y-1230055D02*
X+3011693Y-1230055D01*
X+3061693Y-1230055D02*
X+3073693Y-1230055D01*
X+3099693Y-1230055D02*
X+3147693Y-1230055D01*
X+3163693Y-1230055D02*
X+3175693Y-1230055D01*
X+3231693Y-1230055D02*
X+3265693Y-1230055D01*
X+3335693Y-1230055D02*
X+3347693Y-1230055D01*
X+3439693Y-1230055D02*
X+3453693Y-1230055D01*
X+3487693Y-1230055D02*
X+3499693Y-1230055D01*
X+3517693Y-1230055D02*
X+3581693Y-1230055D01*
X+3597693Y-1230055D02*
X+3609693Y-1230055D01*
X+3639693Y-1230055D02*
X+3651693Y-1230055D01*
X+3677693Y-1230055D02*
X+3715693Y-1230055D01*
X+3737693Y-1230055D02*
X+3749693Y-1230055D01*
X+3763693Y-1230055D02*
X+3775693Y-1230055D01*
X+3813693Y-1230055D02*
X+3825693Y-1230055D01*
X+3841693Y-1230055D02*
X+3853693Y-1230055D01*
X+3883693Y-1230055D02*
X+3895693Y-1230055D01*
X+3951693Y-1230055D02*
X+3963693Y-1230055D01*
X+4009693Y-1230055D02*
X+4023693Y-1230055D01*
X+4035693Y-1230055D02*
X+4047693Y-1230055D01*
X+4085693Y-1230055D02*
X+4097693Y-1230055D01*
X+4119693Y-1230055D02*
X+4167693Y-1230055D01*
X+4187693Y-1230055D02*
X+4199693Y-1230055D01*
X+4225693Y-1230055D02*
X+4237693Y-1230055D01*
X+4273693Y-1230055D02*
X+4285693Y-1230055D01*
X+1821693Y-1228055D02*
X+1833693Y-1228055D01*
X+1885693Y-1228055D02*
X+1897693Y-1228055D01*
X+1917693Y-1228055D02*
X+1933693Y-1228055D01*
X+1953693Y-1228055D02*
X+1967693Y-1228055D01*
X+2001693Y-1228055D02*
X+2015693Y-1228055D01*
X+2101693Y-1228055D02*
X+2113693Y-1228055D01*
X+2143693Y-1228055D02*
X+2159693Y-1228055D01*
X+2199693Y-1228055D02*
X+2211693Y-1228055D01*
X+2229693Y-1228055D02*
X+2243693Y-1228055D01*
X+2323693Y-1228055D02*
X+2359693Y-1228055D01*
X+2373693Y-1228055D02*
X+2385693Y-1228055D01*
X+2411693Y-1228055D02*
X+2425693Y-1228055D01*
X+2437693Y-1228055D02*
X+2449693Y-1228055D01*
X+2469693Y-1228055D02*
X+2481693Y-1228055D01*
X+2511693Y-1228055D02*
X+2527693Y-1228055D01*
X+2565693Y-1228055D02*
X+2577693Y-1228055D01*
X+2647693Y-1228055D02*
X+2659693Y-1228055D01*
X+2733693Y-1228055D02*
X+2749693Y-1228055D01*
X+2805693Y-1228055D02*
X+2817693Y-1228055D01*
X+2887693Y-1228055D02*
X+2933693Y-1228055D01*
X+2951693Y-1228055D02*
X+2963693Y-1228055D01*
X+2999693Y-1228055D02*
X+3011693Y-1228055D01*
X+3061693Y-1228055D02*
X+3073693Y-1228055D01*
X+3101693Y-1228055D02*
X+3147693Y-1228055D01*
X+3163693Y-1228055D02*
X+3175693Y-1228055D01*
X+3231693Y-1228055D02*
X+3265693Y-1228055D01*
X+3335693Y-1228055D02*
X+3347693Y-1228055D01*
X+3437693Y-1228055D02*
X+3453693Y-1228055D01*
X+3487693Y-1228055D02*
X+3499693Y-1228055D01*
X+3517693Y-1228055D02*
X+3581693Y-1228055D01*
X+3597693Y-1228055D02*
X+3609693Y-1228055D01*
X+3639693Y-1228055D02*
X+3651693Y-1228055D01*
X+3673693Y-1228055D02*
X+3711693Y-1228055D01*
X+3737693Y-1228055D02*
X+3749693Y-1228055D01*
X+3763693Y-1228055D02*
X+3775693Y-1228055D01*
X+3813693Y-1228055D02*
X+3825693Y-1228055D01*
X+3841693Y-1228055D02*
X+3853693Y-1228055D01*
X+3883693Y-1228055D02*
X+3895693Y-1228055D01*
X+3951693Y-1228055D02*
X+3963693Y-1228055D01*
X+4009693Y-1228055D02*
X+4021693Y-1228055D01*
X+4035693Y-1228055D02*
X+4047693Y-1228055D01*
X+4085693Y-1228055D02*
X+4097693Y-1228055D01*
X+4121693Y-1228055D02*
X+4167693Y-1228055D01*
X+4187693Y-1228055D02*
X+4199693Y-1228055D01*
X+4225693Y-1228055D02*
X+4237693Y-1228055D01*
X+4273693Y-1228055D02*
X+4285693Y-1228055D01*
X+1821693Y-1226055D02*
X+1833693Y-1226055D01*
X+1885693Y-1226055D02*
X+1897693Y-1226055D01*
X+1917693Y-1226055D02*
X+1935693Y-1226055D01*
X+1951693Y-1226055D02*
X+1967693Y-1226055D01*
X+2001693Y-1226055D02*
X+2013693Y-1226055D01*
X+2101693Y-1226055D02*
X+2113693Y-1226055D01*
X+2141693Y-1226055D02*
X+2157693Y-1226055D01*
X+2199693Y-1226055D02*
X+2211693Y-1226055D01*
X+2229693Y-1226055D02*
X+2241693Y-1226055D01*
X+2323693Y-1226055D02*
X+2359693Y-1226055D01*
X+2373693Y-1226055D02*
X+2385693Y-1226055D01*
X+2411693Y-1226055D02*
X+2423693Y-1226055D01*
X+2437693Y-1226055D02*
X+2449693Y-1226055D01*
X+2469693Y-1226055D02*
X+2481693Y-1226055D01*
X+2509693Y-1226055D02*
X+2525693Y-1226055D01*
X+2565693Y-1226055D02*
X+2577693Y-1226055D01*
X+2647693Y-1226055D02*
X+2659693Y-1226055D01*
X+2731693Y-1226055D02*
X+2749693Y-1226055D01*
X+2805693Y-1226055D02*
X+2817693Y-1226055D01*
X+2895693Y-1226055D02*
X+2933693Y-1226055D01*
X+2951693Y-1226055D02*
X+2963693Y-1226055D01*
X+2999693Y-1226055D02*
X+3011693Y-1226055D01*
X+3061693Y-1226055D02*
X+3073693Y-1226055D01*
X+3109693Y-1226055D02*
X+3147693Y-1226055D01*
X+3163693Y-1226055D02*
X+3175693Y-1226055D01*
X+3231693Y-1226055D02*
X+3263693Y-1226055D01*
X+3335693Y-1226055D02*
X+3347693Y-1226055D01*
X+3437693Y-1226055D02*
X+3455693Y-1226055D01*
X+3487693Y-1226055D02*
X+3499693Y-1226055D01*
X+3517693Y-1226055D02*
X+3581693Y-1226055D01*
X+3597693Y-1226055D02*
X+3609693Y-1226055D01*
X+3639693Y-1226055D02*
X+3651693Y-1226055D01*
X+3671693Y-1226055D02*
X+3707693Y-1226055D01*
X+3737693Y-1226055D02*
X+3749693Y-1226055D01*
X+3763693Y-1226055D02*
X+3775693Y-1226055D01*
X+3813693Y-1226055D02*
X+3825693Y-1226055D01*
X+3841693Y-1226055D02*
X+3853693Y-1226055D01*
X+3883693Y-1226055D02*
X+3895693Y-1226055D01*
X+3951693Y-1226055D02*
X+3963693Y-1226055D01*
X+4007693Y-1226055D02*
X+4021693Y-1226055D01*
X+4035693Y-1226055D02*
X+4047693Y-1226055D01*
X+4085693Y-1226055D02*
X+4097693Y-1226055D01*
X+4129693Y-1226055D02*
X+4167693Y-1226055D01*
X+4187693Y-1226055D02*
X+4199693Y-1226055D01*
X+4225693Y-1226055D02*
X+4237693Y-1226055D01*
X+4273693Y-1226055D02*
X+4285693Y-1226055D01*
X+1821693Y-1224055D02*
X+1833693Y-1224055D01*
X+1885693Y-1224055D02*
X+1897693Y-1224055D01*
X+1917693Y-1224055D02*
X+1937693Y-1224055D01*
X+1951693Y-1224055D02*
X+1965693Y-1224055D01*
X+2001693Y-1224055D02*
X+2013693Y-1224055D01*
X+2101693Y-1224055D02*
X+2113693Y-1224055D01*
X+2137693Y-1224055D02*
X+2155693Y-1224055D01*
X+2199693Y-1224055D02*
X+2211693Y-1224055D01*
X+2229693Y-1224055D02*
X+2241693Y-1224055D01*
X+2373693Y-1224055D02*
X+2385693Y-1224055D01*
X+2409693Y-1224055D02*
X+2423693Y-1224055D01*
X+2437693Y-1224055D02*
X+2449693Y-1224055D01*
X+2469693Y-1224055D02*
X+2481693Y-1224055D01*
X+2505693Y-1224055D02*
X+2523693Y-1224055D01*
X+2565693Y-1224055D02*
X+2577693Y-1224055D01*
X+2647693Y-1224055D02*
X+2659693Y-1224055D01*
X+2725693Y-1224055D02*
X+2747693Y-1224055D01*
X+2805693Y-1224055D02*
X+2817693Y-1224055D01*
X+2909693Y-1224055D02*
X+2933693Y-1224055D01*
X+2951693Y-1224055D02*
X+2963693Y-1224055D01*
X+2999693Y-1224055D02*
X+3011693Y-1224055D01*
X+3061693Y-1224055D02*
X+3073693Y-1224055D01*
X+3123693Y-1224055D02*
X+3147693Y-1224055D01*
X+3163693Y-1224055D02*
X+3175693Y-1224055D01*
X+3231693Y-1224055D02*
X+3261693Y-1224055D01*
X+3335693Y-1224055D02*
X+3347693Y-1224055D01*
X+3435693Y-1224055D02*
X+3457693Y-1224055D01*
X+3487693Y-1224055D02*
X+3499693Y-1224055D01*
X+3517693Y-1224055D02*
X+3581693Y-1224055D01*
X+3597693Y-1224055D02*
X+3609693Y-1224055D01*
X+3639693Y-1224055D02*
X+3651693Y-1224055D01*
X+3669693Y-1224055D02*
X+3701693Y-1224055D01*
X+3737693Y-1224055D02*
X+3749693Y-1224055D01*
X+3763693Y-1224055D02*
X+3775693Y-1224055D01*
X+3813693Y-1224055D02*
X+3825693Y-1224055D01*
X+3841693Y-1224055D02*
X+3853693Y-1224055D01*
X+3883693Y-1224055D02*
X+3895693Y-1224055D01*
X+3951693Y-1224055D02*
X+3963693Y-1224055D01*
X+4003693Y-1224055D02*
X+4019693Y-1224055D01*
X+4035693Y-1224055D02*
X+4047693Y-1224055D01*
X+4085693Y-1224055D02*
X+4097693Y-1224055D01*
X+4143693Y-1224055D02*
X+4167693Y-1224055D01*
X+4187693Y-1224055D02*
X+4199693Y-1224055D01*
X+4225693Y-1224055D02*
X+4237693Y-1224055D01*
X+4273693Y-1224055D02*
X+4285693Y-1224055D01*
X+1821693Y-1222055D02*
X+1833693Y-1222055D01*
X+1885693Y-1222055D02*
X+1897693Y-1222055D01*
X+1917693Y-1222055D02*
X+1939693Y-1222055D01*
X+1949693Y-1222055D02*
X+1963693Y-1222055D01*
X+2001693Y-1222055D02*
X+2013693Y-1222055D01*
X+2101693Y-1222055D02*
X+2151693Y-1222055D01*
X+2199693Y-1222055D02*
X+2211693Y-1222055D01*
X+2229693Y-1222055D02*
X+2241693Y-1222055D01*
X+2373693Y-1222055D02*
X+2385693Y-1222055D01*
X+2407693Y-1222055D02*
X+2421693Y-1222055D01*
X+2437693Y-1222055D02*
X+2449693Y-1222055D01*
X+2469693Y-1222055D02*
X+2519693Y-1222055D01*
X+2565693Y-1222055D02*
X+2577693Y-1222055D01*
X+2647693Y-1222055D02*
X+2659693Y-1222055D01*
X+2717693Y-1222055D02*
X+2745693Y-1222055D01*
X+2805693Y-1222055D02*
X+2817693Y-1222055D01*
X+2917693Y-1222055D02*
X+2933693Y-1222055D01*
X+2951693Y-1222055D02*
X+2963693Y-1222055D01*
X+2999693Y-1222055D02*
X+3011693Y-1222055D01*
X+3061693Y-1222055D02*
X+3073693Y-1222055D01*
X+3131693Y-1222055D02*
X+3147693Y-1222055D01*
X+3163693Y-1222055D02*
X+3175693Y-1222055D01*
X+3231693Y-1222055D02*
X+3261693Y-1222055D01*
X+3335693Y-1222055D02*
X+3347693Y-1222055D01*
X+3433693Y-1222055D02*
X+3459693Y-1222055D01*
X+3487693Y-1222055D02*
X+3499693Y-1222055D01*
X+3517693Y-1222055D02*
X+3581693Y-1222055D01*
X+3597693Y-1222055D02*
X+3609693Y-1222055D01*
X+3639693Y-1222055D02*
X+3651693Y-1222055D01*
X+3669693Y-1222055D02*
X+3695693Y-1222055D01*
X+3737693Y-1222055D02*
X+3749693Y-1222055D01*
X+3763693Y-1222055D02*
X+3775693Y-1222055D01*
X+3813693Y-1222055D02*
X+3825693Y-1222055D01*
X+3841693Y-1222055D02*
X+3853693Y-1222055D01*
X+3883693Y-1222055D02*
X+3895693Y-1222055D01*
X+3951693Y-1222055D02*
X+3963693Y-1222055D01*
X+3999693Y-1222055D02*
X+4019693Y-1222055D01*
X+4035693Y-1222055D02*
X+4047693Y-1222055D01*
X+4085693Y-1222055D02*
X+4097693Y-1222055D01*
X+4151693Y-1222055D02*
X+4167693Y-1222055D01*
X+4187693Y-1222055D02*
X+4199693Y-1222055D01*
X+4225693Y-1222055D02*
X+4237693Y-1222055D01*
X+4273693Y-1222055D02*
X+4285693Y-1222055D01*
X+1821693Y-1220055D02*
X+1833693Y-1220055D01*
X+1885693Y-1220055D02*
X+1897693Y-1220055D01*
X+1917693Y-1220055D02*
X+1941693Y-1220055D01*
X+1947693Y-1220055D02*
X+1961693Y-1220055D01*
X+2001693Y-1220055D02*
X+2013693Y-1220055D01*
X+2101693Y-1220055D02*
X+2155693Y-1220055D01*
X+2199693Y-1220055D02*
X+2211693Y-1220055D01*
X+2229693Y-1220055D02*
X+2241693Y-1220055D01*
X+2373693Y-1220055D02*
X+2385693Y-1220055D01*
X+2407693Y-1220055D02*
X+2419693Y-1220055D01*
X+2437693Y-1220055D02*
X+2449693Y-1220055D01*
X+2469693Y-1220055D02*
X+2523693Y-1220055D01*
X+2565693Y-1220055D02*
X+2621693Y-1220055D01*
X+2647693Y-1220055D02*
X+2659693Y-1220055D01*
X+2709693Y-1220055D02*
X+2743693Y-1220055D01*
X+2805693Y-1220055D02*
X+2817693Y-1220055D01*
X+2921693Y-1220055D02*
X+2933693Y-1220055D01*
X+2951693Y-1220055D02*
X+2965693Y-1220055D01*
X+2997693Y-1220055D02*
X+3011693Y-1220055D01*
X+3061693Y-1220055D02*
X+3073693Y-1220055D01*
X+3135693Y-1220055D02*
X+3147693Y-1220055D01*
X+3163693Y-1220055D02*
X+3175693Y-1220055D01*
X+3231693Y-1220055D02*
X+3243693Y-1220055D01*
X+3245693Y-1220055D02*
X+3261693Y-1220055D01*
X+3335693Y-1220055D02*
X+3399693Y-1220055D01*
X+3433693Y-1220055D02*
X+3459693Y-1220055D01*
X+3487693Y-1220055D02*
X+3499693Y-1220055D01*
X+3517693Y-1220055D02*
X+3529693Y-1220055D01*
X+3569693Y-1220055D02*
X+3581693Y-1220055D01*
X+3597693Y-1220055D02*
X+3609693Y-1220055D01*
X+3639693Y-1220055D02*
X+3651693Y-1220055D01*
X+3667693Y-1220055D02*
X+3687693Y-1220055D01*
X+3737693Y-1220055D02*
X+3749693Y-1220055D01*
X+3763693Y-1220055D02*
X+3777693Y-1220055D01*
X+3811693Y-1220055D02*
X+3825693Y-1220055D01*
X+3841693Y-1220055D02*
X+3853693Y-1220055D01*
X+3883693Y-1220055D02*
X+3895693Y-1220055D01*
X+3951693Y-1220055D02*
X+4017693Y-1220055D01*
X+4035693Y-1220055D02*
X+4049693Y-1220055D01*
X+4083693Y-1220055D02*
X+4097693Y-1220055D01*
X+4155693Y-1220055D02*
X+4167693Y-1220055D01*
X+4187693Y-1220055D02*
X+4199693Y-1220055D01*
X+4225693Y-1220055D02*
X+4237693Y-1220055D01*
X+4271693Y-1220055D02*
X+4285693Y-1220055D01*
X+1821693Y-1218055D02*
X+1833693Y-1218055D01*
X+1885693Y-1218055D02*
X+1897693Y-1218055D01*
X+1917693Y-1218055D02*
X+1943693Y-1218055D01*
X+1945693Y-1218055D02*
X+1961693Y-1218055D01*
X+2001693Y-1218055D02*
X+2013693Y-1218055D01*
X+2101693Y-1218055D02*
X+2161693Y-1218055D01*
X+2199693Y-1218055D02*
X+2211693Y-1218055D01*
X+2229693Y-1218055D02*
X+2241693Y-1218055D01*
X+2373693Y-1218055D02*
X+2385693Y-1218055D01*
X+2405693Y-1218055D02*
X+2419693Y-1218055D01*
X+2437693Y-1218055D02*
X+2449693Y-1218055D01*
X+2469693Y-1218055D02*
X+2529693Y-1218055D01*
X+2565693Y-1218055D02*
X+2621693Y-1218055D01*
X+2647693Y-1218055D02*
X+2659693Y-1218055D01*
X+2703693Y-1218055D02*
X+2741693Y-1218055D01*
X+2805693Y-1218055D02*
X+2817693Y-1218055D01*
X+2921693Y-1218055D02*
X+2933693Y-1218055D01*
X+2951693Y-1218055D02*
X+2965693Y-1218055D01*
X+2997693Y-1218055D02*
X+3009693Y-1218055D01*
X+3061693Y-1218055D02*
X+3073693Y-1218055D01*
X+3135693Y-1218055D02*
X+3147693Y-1218055D01*
X+3165693Y-1218055D02*
X+3177693Y-1218055D01*
X+3231693Y-1218055D02*
X+3243693Y-1218055D01*
X+3247693Y-1218055D02*
X+3263693Y-1218055D01*
X+3335693Y-1218055D02*
X+3399693Y-1218055D01*
X+3431693Y-1218055D02*
X+3445693Y-1218055D01*
X+3447693Y-1218055D02*
X+3461693Y-1218055D01*
X+3487693Y-1218055D02*
X+3499693Y-1218055D01*
X+3519693Y-1218055D02*
X+3529693Y-1218055D01*
X+3569693Y-1218055D02*
X+3579693Y-1218055D01*
X+3597693Y-1218055D02*
X+3609693Y-1218055D01*
X+3639693Y-1218055D02*
X+3651693Y-1218055D01*
X+3667693Y-1218055D02*
X+3683693Y-1218055D01*
X+3737693Y-1218055D02*
X+3749693Y-1218055D01*
X+3765693Y-1218055D02*
X+3777693Y-1218055D01*
X+3811693Y-1218055D02*
X+3823693Y-1218055D01*
X+3841693Y-1218055D02*
X+3853693Y-1218055D01*
X+3883693Y-1218055D02*
X+3895693Y-1218055D01*
X+3951693Y-1218055D02*
X+4015693Y-1218055D01*
X+4037693Y-1218055D02*
X+4049693Y-1218055D01*
X+4083693Y-1218055D02*
X+4095693Y-1218055D01*
X+4155693Y-1218055D02*
X+4167693Y-1218055D01*
X+4187693Y-1218055D02*
X+4199693Y-1218055D01*
X+4227693Y-1218055D02*
X+4239693Y-1218055D01*
X+4271693Y-1218055D02*
X+4285693Y-1218055D01*
X+1821693Y-1216055D02*
X+1833693Y-1216055D01*
X+1885693Y-1216055D02*
X+1897693Y-1216055D01*
X+1917693Y-1216055D02*
X+1959693Y-1216055D01*
X+2001693Y-1216055D02*
X+2013693Y-1216055D01*
X+2101693Y-1216055D02*
X+2165693Y-1216055D01*
X+2199693Y-1216055D02*
X+2211693Y-1216055D01*
X+2229693Y-1216055D02*
X+2241693Y-1216055D01*
X+2373693Y-1216055D02*
X+2385693Y-1216055D01*
X+2403693Y-1216055D02*
X+2417693Y-1216055D01*
X+2437693Y-1216055D02*
X+2449693Y-1216055D01*
X+2469693Y-1216055D02*
X+2533693Y-1216055D01*
X+2565693Y-1216055D02*
X+2621693Y-1216055D01*
X+2647693Y-1216055D02*
X+2659693Y-1216055D01*
X+2697693Y-1216055D02*
X+2739693Y-1216055D01*
X+2805693Y-1216055D02*
X+2817693Y-1216055D01*
X+2883693Y-1216055D02*
X+2889693Y-1216055D01*
X+2921693Y-1216055D02*
X+2933693Y-1216055D01*
X+2951693Y-1216055D02*
X+2965693Y-1216055D01*
X+2997693Y-1216055D02*
X+3009693Y-1216055D01*
X+3061693Y-1216055D02*
X+3073693Y-1216055D01*
X+3097693Y-1216055D02*
X+3103693Y-1216055D01*
X+3135693Y-1216055D02*
X+3147693Y-1216055D01*
X+3165693Y-1216055D02*
X+3177693Y-1216055D01*
X+3209693Y-1216055D02*
X+3215693Y-1216055D01*
X+3231693Y-1216055D02*
X+3243693Y-1216055D01*
X+3249693Y-1216055D02*
X+3265693Y-1216055D01*
X+3335693Y-1216055D02*
X+3399693Y-1216055D01*
X+3429693Y-1216055D02*
X+3443693Y-1216055D01*
X+3449693Y-1216055D02*
X+3463693Y-1216055D01*
X+3487693Y-1216055D02*
X+3499693Y-1216055D01*
X+3519693Y-1216055D02*
X+3531693Y-1216055D01*
X+3567693Y-1216055D02*
X+3579693Y-1216055D01*
X+3597693Y-1216055D02*
X+3611693Y-1216055D01*
X+3639693Y-1216055D02*
X+3651693Y-1216055D01*
X+3667693Y-1216055D02*
X+3681693Y-1216055D01*
X+3737693Y-1216055D02*
X+3749693Y-1216055D01*
X+3765693Y-1216055D02*
X+3777693Y-1216055D01*
X+3811693Y-1216055D02*
X+3823693Y-1216055D01*
X+3841693Y-1216055D02*
X+3855693Y-1216055D01*
X+3883693Y-1216055D02*
X+3895693Y-1216055D01*
X+3951693Y-1216055D02*
X+4013693Y-1216055D01*
X+4037693Y-1216055D02*
X+4049693Y-1216055D01*
X+4083693Y-1216055D02*
X+4095693Y-1216055D01*
X+4117693Y-1216055D02*
X+4123693Y-1216055D01*
X+4155693Y-1216055D02*
X+4167693Y-1216055D01*
X+4187693Y-1216055D02*
X+4201693Y-1216055D01*
X+4227693Y-1216055D02*
X+4239693Y-1216055D01*
X+4271693Y-1216055D02*
X+4285693Y-1216055D01*
X+1821693Y-1214055D02*
X+1833693Y-1214055D01*
X+1885693Y-1214055D02*
X+1897693Y-1214055D01*
X+1917693Y-1214055D02*
X+1929693Y-1214055D01*
X+1931693Y-1214055D02*
X+1957693Y-1214055D01*
X+2001693Y-1214055D02*
X+2013693Y-1214055D01*
X+2101693Y-1214055D02*
X+2169693Y-1214055D01*
X+2199693Y-1214055D02*
X+2211693Y-1214055D01*
X+2229693Y-1214055D02*
X+2241693Y-1214055D01*
X+2373693Y-1214055D02*
X+2385693Y-1214055D01*
X+2403693Y-1214055D02*
X+2415693Y-1214055D01*
X+2437693Y-1214055D02*
X+2449693Y-1214055D01*
X+2469693Y-1214055D02*
X+2537693Y-1214055D01*
X+2565693Y-1214055D02*
X+2621693Y-1214055D01*
X+2647693Y-1214055D02*
X+2659693Y-1214055D01*
X+2693693Y-1214055D02*
X+2735693Y-1214055D01*
X+2805693Y-1214055D02*
X+2817693Y-1214055D01*
X+2877693Y-1214055D02*
X+2889693Y-1214055D01*
X+2921693Y-1214055D02*
X+2933693Y-1214055D01*
X+2951693Y-1214055D02*
X+2967693Y-1214055D01*
X+2995693Y-1214055D02*
X+3009693Y-1214055D01*
X+3061693Y-1214055D02*
X+3073693Y-1214055D01*
X+3091693Y-1214055D02*
X+3103693Y-1214055D01*
X+3135693Y-1214055D02*
X+3147693Y-1214055D01*
X+3165693Y-1214055D02*
X+3179693Y-1214055D01*
X+3207693Y-1214055D02*
X+3221693Y-1214055D01*
X+3231693Y-1214055D02*
X+3243693Y-1214055D01*
X+3251693Y-1214055D02*
X+3267693Y-1214055D01*
X+3335693Y-1214055D02*
X+3399693Y-1214055D01*
X+3427693Y-1214055D02*
X+3443693Y-1214055D01*
X+3449693Y-1214055D02*
X+3463693Y-1214055D01*
X+3487693Y-1214055D02*
X+3499693Y-1214055D01*
X+3519693Y-1214055D02*
X+3531693Y-1214055D01*
X+3567693Y-1214055D02*
X+3579693Y-1214055D01*
X+3597693Y-1214055D02*
X+3611693Y-1214055D01*
X+3639693Y-1214055D02*
X+3651693Y-1214055D01*
X+3667693Y-1214055D02*
X+3679693Y-1214055D01*
X+3705693Y-1214055D02*
X+3711693Y-1214055D01*
X+3737693Y-1214055D02*
X+3749693Y-1214055D01*
X+3765693Y-1214055D02*
X+3779693Y-1214055D01*
X+3809693Y-1214055D02*
X+3823693Y-1214055D01*
X+3841693Y-1214055D02*
X+3855693Y-1214055D01*
X+3883693Y-1214055D02*
X+3895693Y-1214055D01*
X+3951693Y-1214055D02*
X+4009693Y-1214055D01*
X+4037693Y-1214055D02*
X+4051693Y-1214055D01*
X+4081693Y-1214055D02*
X+4095693Y-1214055D01*
X+4111693Y-1214055D02*
X+4123693Y-1214055D01*
X+4155693Y-1214055D02*
X+4167693Y-1214055D01*
X+4187693Y-1214055D02*
X+4201693Y-1214055D01*
X+4227693Y-1214055D02*
X+4241693Y-1214055D01*
X+4269693Y-1214055D02*
X+4285693Y-1214055D01*
X+1821693Y-1212055D02*
X+1833693Y-1212055D01*
X+1885693Y-1212055D02*
X+1897693Y-1212055D01*
X+1917693Y-1212055D02*
X+1929693Y-1212055D01*
X+1933693Y-1212055D02*
X+1955693Y-1212055D01*
X+2001693Y-1212055D02*
X+2013693Y-1212055D01*
X+2101693Y-1212055D02*
X+2171693Y-1212055D01*
X+2199693Y-1212055D02*
X+2211693Y-1212055D01*
X+2229693Y-1212055D02*
X+2241693Y-1212055D01*
X+2373693Y-1212055D02*
X+2385693Y-1212055D01*
X+2401693Y-1212055D02*
X+2415693Y-1212055D01*
X+2437693Y-1212055D02*
X+2449693Y-1212055D01*
X+2469693Y-1212055D02*
X+2539693Y-1212055D01*
X+2565693Y-1212055D02*
X+2621693Y-1212055D01*
X+2647693Y-1212055D02*
X+2659693Y-1212055D01*
X+2689693Y-1212055D02*
X+2729693Y-1212055D01*
X+2805693Y-1212055D02*
X+2817693Y-1212055D01*
X+2877693Y-1212055D02*
X+2891693Y-1212055D01*
X+2921693Y-1212055D02*
X+2933693Y-1212055D01*
X+2951693Y-1212055D02*
X+2967693Y-1212055D01*
X+2995693Y-1212055D02*
X+3009693Y-1212055D01*
X+3061693Y-1212055D02*
X+3073693Y-1212055D01*
X+3091693Y-1212055D02*
X+3105693Y-1212055D01*
X+3135693Y-1212055D02*
X+3147693Y-1212055D01*
X+3165693Y-1212055D02*
X+3179693Y-1212055D01*
X+3207693Y-1212055D02*
X+3221693Y-1212055D01*
X+3231693Y-1212055D02*
X+3243693Y-1212055D01*
X+3253693Y-1212055D02*
X+3269693Y-1212055D01*
X+3335693Y-1212055D02*
X+3399693Y-1212055D01*
X+3427693Y-1212055D02*
X+3441693Y-1212055D01*
X+3451693Y-1212055D02*
X+3465693Y-1212055D01*
X+3487693Y-1212055D02*
X+3499693Y-1212055D01*
X+3521693Y-1212055D02*
X+3533693Y-1212055D01*
X+3565693Y-1212055D02*
X+3577693Y-1212055D01*
X+3597693Y-1212055D02*
X+3613693Y-1212055D01*
X+3637693Y-1212055D02*
X+3651693Y-1212055D01*
X+3667693Y-1212055D02*
X+3679693Y-1212055D01*
X+3705693Y-1212055D02*
X+3717693Y-1212055D01*
X+3737693Y-1212055D02*
X+3749693Y-1212055D01*
X+3765693Y-1212055D02*
X+3779693Y-1212055D01*
X+3809693Y-1212055D02*
X+3823693Y-1212055D01*
X+3841693Y-1212055D02*
X+3857693Y-1212055D01*
X+3881693Y-1212055D02*
X+3895693Y-1212055D01*
X+3951693Y-1212055D02*
X+4007693Y-1212055D01*
X+4037693Y-1212055D02*
X+4051693Y-1212055D01*
X+4081693Y-1212055D02*
X+4095693Y-1212055D01*
X+4111693Y-1212055D02*
X+4125693Y-1212055D01*
X+4155693Y-1212055D02*
X+4167693Y-1212055D01*
X+4187693Y-1212055D02*
X+4201693Y-1212055D01*
X+4227693Y-1212055D02*
X+4241693Y-1212055D01*
X+4269693Y-1212055D02*
X+4285693Y-1212055D01*
X+1821693Y-1210055D02*
X+1833693Y-1210055D01*
X+1885693Y-1210055D02*
X+1897693Y-1210055D01*
X+1917693Y-1210055D02*
X+1929693Y-1210055D01*
X+1935693Y-1210055D02*
X+1955693Y-1210055D01*
X+2001693Y-1210055D02*
X+2013693Y-1210055D01*
X+2101693Y-1210055D02*
X+2113693Y-1210055D01*
X+2151693Y-1210055D02*
X+2173693Y-1210055D01*
X+2199693Y-1210055D02*
X+2211693Y-1210055D01*
X+2229693Y-1210055D02*
X+2241693Y-1210055D01*
X+2373693Y-1210055D02*
X+2385693Y-1210055D01*
X+2399693Y-1210055D02*
X+2413693Y-1210055D01*
X+2437693Y-1210055D02*
X+2449693Y-1210055D01*
X+2469693Y-1210055D02*
X+2481693Y-1210055D01*
X+2519693Y-1210055D02*
X+2541693Y-1210055D01*
X+2565693Y-1210055D02*
X+2621693Y-1210055D01*
X+2647693Y-1210055D02*
X+2659693Y-1210055D01*
X+2687693Y-1210055D02*
X+2721693Y-1210055D01*
X+2805693Y-1210055D02*
X+2817693Y-1210055D01*
X+2879693Y-1210055D02*
X+2893693Y-1210055D01*
X+2919693Y-1210055D02*
X+2933693Y-1210055D01*
X+2951693Y-1210055D02*
X+2969693Y-1210055D01*
X+2993693Y-1210055D02*
X+3007693Y-1210055D01*
X+3061693Y-1210055D02*
X+3073693Y-1210055D01*
X+3093693Y-1210055D02*
X+3107693Y-1210055D01*
X+3133693Y-1210055D02*
X+3147693Y-1210055D01*
X+3167693Y-1210055D02*
X+3181693Y-1210055D01*
X+3205693Y-1210055D02*
X+3219693Y-1210055D01*
X+3231693Y-1210055D02*
X+3243693Y-1210055D01*
X+3255693Y-1210055D02*
X+3271693Y-1210055D01*
X+3335693Y-1210055D02*
X+3399693Y-1210055D01*
X+3425693Y-1210055D02*
X+3439693Y-1210055D01*
X+3453693Y-1210055D02*
X+3467693Y-1210055D01*
X+3487693Y-1210055D02*
X+3499693Y-1210055D01*
X+3521693Y-1210055D02*
X+3535693Y-1210055D01*
X+3563693Y-1210055D02*
X+3577693Y-1210055D01*
X+3597693Y-1210055D02*
X+3613693Y-1210055D01*
X+3637693Y-1210055D02*
X+3651693Y-1210055D01*
X+3667693Y-1210055D02*
X+3679693Y-1210055D01*
X+3703693Y-1210055D02*
X+3717693Y-1210055D01*
X+3737693Y-1210055D02*
X+3749693Y-1210055D01*
X+3767693Y-1210055D02*
X+3781693Y-1210055D01*
X+3807693Y-1210055D02*
X+3821693Y-1210055D01*
X+3841693Y-1210055D02*
X+3857693Y-1210055D01*
X+3881693Y-1210055D02*
X+3895693Y-1210055D01*
X+3951693Y-1210055D02*
X+4011693Y-1210055D01*
X+4039693Y-1210055D02*
X+4053693Y-1210055D01*
X+4079693Y-1210055D02*
X+4093693Y-1210055D01*
X+4113693Y-1210055D02*
X+4127693Y-1210055D01*
X+4153693Y-1210055D02*
X+4167693Y-1210055D01*
X+4187693Y-1210055D02*
X+4203693Y-1210055D01*
X+4229693Y-1210055D02*
X+4243693Y-1210055D01*
X+4267693Y-1210055D02*
X+4285693Y-1210055D01*
X+1821693Y-1208055D02*
X+1833693Y-1208055D01*
X+1885693Y-1208055D02*
X+1897693Y-1208055D01*
X+1917693Y-1208055D02*
X+1929693Y-1208055D01*
X+1937693Y-1208055D02*
X+1953693Y-1208055D01*
X+2001693Y-1208055D02*
X+2013693Y-1208055D01*
X+2101693Y-1208055D02*
X+2113693Y-1208055D01*
X+2157693Y-1208055D02*
X+2173693Y-1208055D01*
X+2199693Y-1208055D02*
X+2211693Y-1208055D01*
X+2229693Y-1208055D02*
X+2241693Y-1208055D01*
X+2373693Y-1208055D02*
X+2385693Y-1208055D01*
X+2399693Y-1208055D02*
X+2411693Y-1208055D01*
X+2437693Y-1208055D02*
X+2449693Y-1208055D01*
X+2469693Y-1208055D02*
X+2481693Y-1208055D01*
X+2525693Y-1208055D02*
X+2541693Y-1208055D01*
X+2565693Y-1208055D02*
X+2577693Y-1208055D01*
X+2647693Y-1208055D02*
X+2659693Y-1208055D01*
X+2685693Y-1208055D02*
X+2713693Y-1208055D01*
X+2805693Y-1208055D02*
X+2817693Y-1208055D01*
X+2879693Y-1208055D02*
X+2893693Y-1208055D01*
X+2917693Y-1208055D02*
X+2933693Y-1208055D01*
X+2951693Y-1208055D02*
X+2971693Y-1208055D01*
X+2991693Y-1208055D02*
X+3007693Y-1208055D01*
X+3061693Y-1208055D02*
X+3073693Y-1208055D01*
X+3093693Y-1208055D02*
X+3107693Y-1208055D01*
X+3131693Y-1208055D02*
X+3147693Y-1208055D01*
X+3167693Y-1208055D02*
X+3183693Y-1208055D01*
X+3203693Y-1208055D02*
X+3219693Y-1208055D01*
X+3231693Y-1208055D02*
X+3243693Y-1208055D01*
X+3257693Y-1208055D02*
X+3273693Y-1208055D01*
X+3335693Y-1208055D02*
X+3347693Y-1208055D01*
X+3423693Y-1208055D02*
X+3439693Y-1208055D01*
X+3453693Y-1208055D02*
X+3469693Y-1208055D01*
X+3487693Y-1208055D02*
X+3499693Y-1208055D01*
X+3523693Y-1208055D02*
X+3537693Y-1208055D01*
X+3561693Y-1208055D02*
X+3577693Y-1208055D01*
X+3597693Y-1208055D02*
X+3617693Y-1208055D01*
X+3635693Y-1208055D02*
X+3649693Y-1208055D01*
X+3667693Y-1208055D02*
X+3681693Y-1208055D01*
X+3701693Y-1208055D02*
X+3715693Y-1208055D01*
X+3737693Y-1208055D02*
X+3749693Y-1208055D01*
X+3767693Y-1208055D02*
X+3783693Y-1208055D01*
X+3803693Y-1208055D02*
X+3821693Y-1208055D01*
X+3841693Y-1208055D02*
X+3861693Y-1208055D01*
X+3879693Y-1208055D02*
X+3893693Y-1208055D01*
X+3951693Y-1208055D02*
X+3963693Y-1208055D01*
X+3997693Y-1208055D02*
X+4013693Y-1208055D01*
X+4039693Y-1208055D02*
X+4055693Y-1208055D01*
X+4075693Y-1208055D02*
X+4093693Y-1208055D01*
X+4113693Y-1208055D02*
X+4127693Y-1208055D01*
X+4151693Y-1208055D02*
X+4167693Y-1208055D01*
X+4187693Y-1208055D02*
X+4205693Y-1208055D01*
X+4229693Y-1208055D02*
X+4245693Y-1208055D01*
X+4265693Y-1208055D02*
X+4285693Y-1208055D01*
X+1821693Y-1206055D02*
X+1833693Y-1206055D01*
X+1885693Y-1206055D02*
X+1897693Y-1206055D01*
X+1917693Y-1206055D02*
X+1929693Y-1206055D01*
X+1939693Y-1206055D02*
X+1955693Y-1206055D01*
X+2001693Y-1206055D02*
X+2013693Y-1206055D01*
X+2101693Y-1206055D02*
X+2113693Y-1206055D01*
X+2161693Y-1206055D02*
X+2175693Y-1206055D01*
X+2199693Y-1206055D02*
X+2211693Y-1206055D01*
X+2229693Y-1206055D02*
X+2241693Y-1206055D01*
X+2373693Y-1206055D02*
X+2385693Y-1206055D01*
X+2397693Y-1206055D02*
X+2411693Y-1206055D01*
X+2437693Y-1206055D02*
X+2449693Y-1206055D01*
X+2469693Y-1206055D02*
X+2481693Y-1206055D01*
X+2529693Y-1206055D02*
X+2543693Y-1206055D01*
X+2565693Y-1206055D02*
X+2577693Y-1206055D01*
X+2647693Y-1206055D02*
X+2659693Y-1206055D01*
X+2685693Y-1206055D02*
X+2705693Y-1206055D01*
X+2805693Y-1206055D02*
X+2817693Y-1206055D01*
X+2879693Y-1206055D02*
X+2897693Y-1206055D01*
X+2913693Y-1206055D02*
X+2931693Y-1206055D01*
X+2951693Y-1206055D02*
X+2975693Y-1206055D01*
X+2987693Y-1206055D02*
X+3005693Y-1206055D01*
X+3061693Y-1206055D02*
X+3073693Y-1206055D01*
X+3093693Y-1206055D02*
X+3111693Y-1206055D01*
X+3127693Y-1206055D02*
X+3145693Y-1206055D01*
X+3169693Y-1206055D02*
X+3187693Y-1206055D01*
X+3199693Y-1206055D02*
X+3217693Y-1206055D01*
X+3231693Y-1206055D02*
X+3243693Y-1206055D01*
X+3259693Y-1206055D02*
X+3275693Y-1206055D01*
X+3335693Y-1206055D02*
X+3347693Y-1206055D01*
X+3423693Y-1206055D02*
X+3437693Y-1206055D01*
X+3455693Y-1206055D02*
X+3469693Y-1206055D01*
X+3479693Y-1206055D02*
X+3509693Y-1206055D01*
X+3523693Y-1206055D02*
X+3541693Y-1206055D01*
X+3557693Y-1206055D02*
X+3575693Y-1206055D01*
X+3597693Y-1206055D02*
X+3619693Y-1206055D01*
X+3631693Y-1206055D02*
X+3649693Y-1206055D01*
X+3669693Y-1206055D02*
X+3685693Y-1206055D01*
X+3699693Y-1206055D02*
X+3715693Y-1206055D01*
X+3737693Y-1206055D02*
X+3749693Y-1206055D01*
X+3769693Y-1206055D02*
X+3787693Y-1206055D01*
X+3801693Y-1206055D02*
X+3819693Y-1206055D01*
X+3841693Y-1206055D02*
X+3863693Y-1206055D01*
X+3875693Y-1206055D02*
X+3893693Y-1206055D01*
X+3951693Y-1206055D02*
X+3963693Y-1206055D01*
X+4001693Y-1206055D02*
X+4015693Y-1206055D01*
X+4041693Y-1206055D02*
X+4059693Y-1206055D01*
X+4073693Y-1206055D02*
X+4091693Y-1206055D01*
X+4113693Y-1206055D02*
X+4131693Y-1206055D01*
X+4147693Y-1206055D02*
X+4165693Y-1206055D01*
X+4187693Y-1206055D02*
X+4207693Y-1206055D01*
X+4215693Y-1206055D02*
X+4219693Y-1206055D01*
X+4231693Y-1206055D02*
X+4249693Y-1206055D01*
X+4261693Y-1206055D02*
X+4285693Y-1206055D01*
X+1821693Y-1204055D02*
X+1833693Y-1204055D01*
X+1885693Y-1204055D02*
X+1897693Y-1204055D01*
X+1917693Y-1204055D02*
X+1929693Y-1204055D01*
X+1941693Y-1204055D02*
X+1957693Y-1204055D01*
X+2003693Y-1204055D02*
X+2015693Y-1204055D01*
X+2101693Y-1204055D02*
X+2113693Y-1204055D01*
X+2163693Y-1204055D02*
X+2175693Y-1204055D01*
X+2199693Y-1204055D02*
X+2211693Y-1204055D01*
X+2231693Y-1204055D02*
X+2243693Y-1204055D01*
X+2373693Y-1204055D02*
X+2385693Y-1204055D01*
X+2395693Y-1204055D02*
X+2409693Y-1204055D01*
X+2437693Y-1204055D02*
X+2449693Y-1204055D01*
X+2469693Y-1204055D02*
X+2481693Y-1204055D01*
X+2531693Y-1204055D02*
X+2543693Y-1204055D01*
X+2565693Y-1204055D02*
X+2577693Y-1204055D01*
X+2647693Y-1204055D02*
X+2659693Y-1204055D01*
X+2683693Y-1204055D02*
X+2701693Y-1204055D01*
X+2805693Y-1204055D02*
X+2817693Y-1204055D01*
X+2881693Y-1204055D02*
X+2931693Y-1204055D01*
X+2951693Y-1204055D02*
X+3003693Y-1204055D01*
X+3061693Y-1204055D02*
X+3073693Y-1204055D01*
X+3095693Y-1204055D02*
X+3145693Y-1204055D01*
X+3171693Y-1204055D02*
X+3217693Y-1204055D01*
X+3231693Y-1204055D02*
X+3243693Y-1204055D01*
X+3261693Y-1204055D02*
X+3277693Y-1204055D01*
X+3335693Y-1204055D02*
X+3347693Y-1204055D01*
X+3421693Y-1204055D02*
X+3435693Y-1204055D01*
X+3457693Y-1204055D02*
X+3471693Y-1204055D01*
X+3479693Y-1204055D02*
X+3509693Y-1204055D01*
X+3525693Y-1204055D02*
X+3573693Y-1204055D01*
X+3597693Y-1204055D02*
X+3649693Y-1204055D01*
X+3669693Y-1204055D02*
X+3715693Y-1204055D01*
X+3737693Y-1204055D02*
X+3749693Y-1204055D01*
X+3771693Y-1204055D02*
X+3817693Y-1204055D01*
X+3841693Y-1204055D02*
X+3893693Y-1204055D01*
X+3951693Y-1204055D02*
X+3963693Y-1204055D01*
X+4003693Y-1204055D02*
X+4017693Y-1204055D01*
X+4043693Y-1204055D02*
X+4089693Y-1204055D01*
X+4115693Y-1204055D02*
X+4165693Y-1204055D01*
X+4187693Y-1204055D02*
X+4221693Y-1204055D01*
X+4233693Y-1204055D02*
X+4285693Y-1204055D01*
X+1821693Y-1202055D02*
X+1833693Y-1202055D01*
X+1885693Y-1202055D02*
X+1897693Y-1202055D01*
X+1917693Y-1202055D02*
X+1929693Y-1202055D01*
X+1943693Y-1202055D02*
X+1959693Y-1202055D01*
X+2003693Y-1202055D02*
X+2015693Y-1202055D01*
X+2101693Y-1202055D02*
X+2113693Y-1202055D01*
X+2163693Y-1202055D02*
X+2177693Y-1202055D01*
X+2199693Y-1202055D02*
X+2211693Y-1202055D01*
X+2231693Y-1202055D02*
X+2243693Y-1202055D01*
X+2373693Y-1202055D02*
X+2385693Y-1202055D01*
X+2395693Y-1202055D02*
X+2407693Y-1202055D01*
X+2437693Y-1202055D02*
X+2449693Y-1202055D01*
X+2469693Y-1202055D02*
X+2481693Y-1202055D01*
X+2531693Y-1202055D02*
X+2545693Y-1202055D01*
X+2565693Y-1202055D02*
X+2577693Y-1202055D01*
X+2647693Y-1202055D02*
X+2659693Y-1202055D01*
X+2683693Y-1202055D02*
X+2697693Y-1202055D01*
X+2805693Y-1202055D02*
X+2817693Y-1202055D01*
X+2883693Y-1202055D02*
X+2929693Y-1202055D01*
X+2951693Y-1202055D02*
X+2963693Y-1202055D01*
X+2965693Y-1202055D02*
X+3003693Y-1202055D01*
X+3061693Y-1202055D02*
X+3073693Y-1202055D01*
X+3097693Y-1202055D02*
X+3143693Y-1202055D01*
X+3171693Y-1202055D02*
X+3215693Y-1202055D01*
X+3231693Y-1202055D02*
X+3243693Y-1202055D01*
X+3263693Y-1202055D02*
X+3279693Y-1202055D01*
X+3335693Y-1202055D02*
X+3347693Y-1202055D01*
X+3419693Y-1202055D02*
X+3435693Y-1202055D01*
X+3459693Y-1202055D02*
X+3473693Y-1202055D01*
X+3479693Y-1202055D02*
X+3509693Y-1202055D01*
X+3527693Y-1202055D02*
X+3571693Y-1202055D01*
X+3597693Y-1202055D02*
X+3609693Y-1202055D01*
X+3611693Y-1202055D02*
X+3647693Y-1202055D01*
X+3671693Y-1202055D02*
X+3713693Y-1202055D01*
X+3737693Y-1202055D02*
X+3749693Y-1202055D01*
X+3773693Y-1202055D02*
X+3815693Y-1202055D01*
X+3841693Y-1202055D02*
X+3853693Y-1202055D01*
X+3855693Y-1202055D02*
X+3891693Y-1202055D01*
X+3951693Y-1202055D02*
X+3963693Y-1202055D01*
X+4005693Y-1202055D02*
X+4017693Y-1202055D01*
X+4045693Y-1202055D02*
X+4087693Y-1202055D01*
X+4117693Y-1202055D02*
X+4163693Y-1202055D01*
X+4187693Y-1202055D02*
X+4197693Y-1202055D01*
X+4199693Y-1202055D02*
X+4221693Y-1202055D01*
X+4233693Y-1202055D02*
X+4271693Y-1202055D01*
X+4273693Y-1202055D02*
X+4285693Y-1202055D01*
X+1821693Y-1200055D02*
X+1833693Y-1200055D01*
X+1885693Y-1200055D02*
X+1897693Y-1200055D01*
X+1917693Y-1200055D02*
X+1929693Y-1200055D01*
X+1945693Y-1200055D02*
X+1961693Y-1200055D01*
X+2003693Y-1200055D02*
X+2015693Y-1200055D01*
X+2101693Y-1200055D02*
X+2113693Y-1200055D01*
X+2165693Y-1200055D02*
X+2177693Y-1200055D01*
X+2199693Y-1200055D02*
X+2211693Y-1200055D01*
X+2231693Y-1200055D02*
X+2243693Y-1200055D01*
X+2373693Y-1200055D02*
X+2385693Y-1200055D01*
X+2393693Y-1200055D02*
X+2407693Y-1200055D01*
X+2437693Y-1200055D02*
X+2449693Y-1200055D01*
X+2469693Y-1200055D02*
X+2481693Y-1200055D01*
X+2533693Y-1200055D02*
X+2545693Y-1200055D01*
X+2565693Y-1200055D02*
X+2577693Y-1200055D01*
X+2647693Y-1200055D02*
X+2659693Y-1200055D01*
X+2681693Y-1200055D02*
X+2695693Y-1200055D01*
X+2805693Y-1200055D02*
X+2817693Y-1200055D01*
X+2885693Y-1200055D02*
X+2929693Y-1200055D01*
X+2951693Y-1200055D02*
X+2963693Y-1200055D01*
X+2967693Y-1200055D02*
X+3001693Y-1200055D01*
X+3061693Y-1200055D02*
X+3073693Y-1200055D01*
X+3099693Y-1200055D02*
X+3143693Y-1200055D01*
X+3173693Y-1200055D02*
X+3213693Y-1200055D01*
X+3231693Y-1200055D02*
X+3243693Y-1200055D01*
X+3265693Y-1200055D02*
X+3281693Y-1200055D01*
X+3335693Y-1200055D02*
X+3347693Y-1200055D01*
X+3419693Y-1200055D02*
X+3433693Y-1200055D01*
X+3459693Y-1200055D02*
X+3473693Y-1200055D01*
X+3479693Y-1200055D02*
X+3509693Y-1200055D01*
X+3529693Y-1200055D02*
X+3569693Y-1200055D01*
X+3597693Y-1200055D02*
X+3609693Y-1200055D01*
X+3613693Y-1200055D02*
X+3647693Y-1200055D01*
X+3673693Y-1200055D02*
X+3711693Y-1200055D01*
X+3737693Y-1200055D02*
X+3749693Y-1200055D01*
X+3775693Y-1200055D02*
X+3813693Y-1200055D01*
X+3841693Y-1200055D02*
X+3853693Y-1200055D01*
X+3857693Y-1200055D02*
X+3891693Y-1200055D01*
X+3951693Y-1200055D02*
X+3963693Y-1200055D01*
X+4007693Y-1200055D02*
X+4017693Y-1200055D01*
X+4047693Y-1200055D02*
X+4085693Y-1200055D01*
X+4119693Y-1200055D02*
X+4163693Y-1200055D01*
X+4187693Y-1200055D02*
X+4197693Y-1200055D01*
X+4199693Y-1200055D02*
X+4221693Y-1200055D01*
X+4235693Y-1200055D02*
X+4269693Y-1200055D01*
X+4273693Y-1200055D02*
X+4285693Y-1200055D01*
X+1821693Y-1198055D02*
X+1833693Y-1198055D01*
X+1885693Y-1198055D02*
X+1897693Y-1198055D01*
X+1917693Y-1198055D02*
X+1929693Y-1198055D01*
X+1947693Y-1198055D02*
X+1963693Y-1198055D01*
X+2003693Y-1198055D02*
X+2017693Y-1198055D01*
X+2071693Y-1198055D02*
X+2073693Y-1198055D01*
X+2101693Y-1198055D02*
X+2113693Y-1198055D01*
X+2165693Y-1198055D02*
X+2177693Y-1198055D01*
X+2199693Y-1198055D02*
X+2211693Y-1198055D01*
X+2231693Y-1198055D02*
X+2245693Y-1198055D01*
X+2299693Y-1198055D02*
X+2301693Y-1198055D01*
X+2373693Y-1198055D02*
X+2385693Y-1198055D01*
X+2391693Y-1198055D02*
X+2405693Y-1198055D01*
X+2437693Y-1198055D02*
X+2449693Y-1198055D01*
X+2469693Y-1198055D02*
X+2481693Y-1198055D01*
X+2533693Y-1198055D02*
X+2545693Y-1198055D01*
X+2565693Y-1198055D02*
X+2577693Y-1198055D01*
X+2647693Y-1198055D02*
X+2659693Y-1198055D01*
X+2681693Y-1198055D02*
X+2693693Y-1198055D01*
X+2805693Y-1198055D02*
X+2817693Y-1198055D01*
X+2887693Y-1198055D02*
X+2927693Y-1198055D01*
X+2951693Y-1198055D02*
X+2963693Y-1198055D01*
X+2969693Y-1198055D02*
X+2997693Y-1198055D01*
X+3061693Y-1198055D02*
X+3073693Y-1198055D01*
X+3101693Y-1198055D02*
X+3141693Y-1198055D01*
X+3177693Y-1198055D02*
X+3211693Y-1198055D01*
X+3231693Y-1198055D02*
X+3243693Y-1198055D01*
X+3267693Y-1198055D02*
X+3283693Y-1198055D01*
X+3335693Y-1198055D02*
X+3347693Y-1198055D01*
X+3417693Y-1198055D02*
X+3431693Y-1198055D01*
X+3461693Y-1198055D02*
X+3475693Y-1198055D01*
X+3479693Y-1198055D02*
X+3509693Y-1198055D01*
X+3531693Y-1198055D02*
X+3567693Y-1198055D01*
X+3597693Y-1198055D02*
X+3609693Y-1198055D01*
X+3615693Y-1198055D02*
X+3645693Y-1198055D01*
X+3675693Y-1198055D02*
X+3709693Y-1198055D01*
X+3737693Y-1198055D02*
X+3749693Y-1198055D01*
X+3777693Y-1198055D02*
X+3811693Y-1198055D01*
X+3841693Y-1198055D02*
X+3853693Y-1198055D01*
X+3859693Y-1198055D02*
X+3889693Y-1198055D01*
X+3951693Y-1198055D02*
X+3963693Y-1198055D01*
X+4007693Y-1198055D02*
X+4019693Y-1198055D01*
X+4049693Y-1198055D02*
X+4083693Y-1198055D01*
X+4121693Y-1198055D02*
X+4161693Y-1198055D01*
X+4187693Y-1198055D02*
X+4197693Y-1198055D01*
X+4201693Y-1198055D02*
X+4223693Y-1198055D01*
X+4239693Y-1198055D02*
X+4267693Y-1198055D01*
X+4273693Y-1198055D02*
X+4285693Y-1198055D01*
X+1821693Y-1196055D02*
X+1833693Y-1196055D01*
X+1885693Y-1196055D02*
X+1897693Y-1196055D01*
X+1917693Y-1196055D02*
X+1929693Y-1196055D01*
X+1949693Y-1196055D02*
X+1965693Y-1196055D01*
X+2005693Y-1196055D02*
X+2017693Y-1196055D01*
X+2071693Y-1196055D02*
X+2081693Y-1196055D01*
X+2101693Y-1196055D02*
X+2113693Y-1196055D01*
X+2165693Y-1196055D02*
X+2177693Y-1196055D01*
X+2199693Y-1196055D02*
X+2211693Y-1196055D01*
X+2233693Y-1196055D02*
X+2245693Y-1196055D01*
X+2299693Y-1196055D02*
X+2309693Y-1196055D01*
X+2373693Y-1196055D02*
X+2385693Y-1196055D01*
X+2391693Y-1196055D02*
X+2403693Y-1196055D01*
X+2437693Y-1196055D02*
X+2449693Y-1196055D01*
X+2469693Y-1196055D02*
X+2481693Y-1196055D01*
X+2533693Y-1196055D02*
X+2545693Y-1196055D01*
X+2565693Y-1196055D02*
X+2577693Y-1196055D01*
X+2647693Y-1196055D02*
X+2659693Y-1196055D01*
X+2681693Y-1196055D02*
X+2693693Y-1196055D01*
X+2805693Y-1196055D02*
X+2817693Y-1196055D01*
X+2891693Y-1196055D02*
X+2923693Y-1196055D01*
X+2951693Y-1196055D02*
X+2963693Y-1196055D01*
X+2971693Y-1196055D02*
X+2995693Y-1196055D01*
X+3061693Y-1196055D02*
X+3073693Y-1196055D01*
X+3105693Y-1196055D02*
X+3137693Y-1196055D01*
X+3181693Y-1196055D02*
X+3207693Y-1196055D01*
X+3231693Y-1196055D02*
X+3243693Y-1196055D01*
X+3269693Y-1196055D02*
X+3285693Y-1196055D01*
X+3335693Y-1196055D02*
X+3347693Y-1196055D01*
X+3415693Y-1196055D02*
X+3429693Y-1196055D01*
X+3463693Y-1196055D02*
X+3477693Y-1196055D01*
X+3479693Y-1196055D02*
X+3509693Y-1196055D01*
X+3535693Y-1196055D02*
X+3563693Y-1196055D01*
X+3597693Y-1196055D02*
X+3609693Y-1196055D01*
X+3617693Y-1196055D02*
X+3641693Y-1196055D01*
X+3677693Y-1196055D02*
X+3705693Y-1196055D01*
X+3737693Y-1196055D02*
X+3749693Y-1196055D01*
X+3781693Y-1196055D02*
X+3807693Y-1196055D01*
X+3841693Y-1196055D02*
X+3853693Y-1196055D01*
X+3861693Y-1196055D02*
X+3885693Y-1196055D01*
X+3951693Y-1196055D02*
X+3963693Y-1196055D01*
X+4007693Y-1196055D02*
X+4019693Y-1196055D01*
X+4053693Y-1196055D02*
X+4079693Y-1196055D01*
X+4125693Y-1196055D02*
X+4157693Y-1196055D01*
X+4187693Y-1196055D02*
X+4197693Y-1196055D01*
X+4203693Y-1196055D02*
X+4221693Y-1196055D01*
X+4241693Y-1196055D02*
X+4265693Y-1196055D01*
X+4273693Y-1196055D02*
X+4285693Y-1196055D01*
X+1821693Y-1194055D02*
X+1833693Y-1194055D01*
X+1885693Y-1194055D02*
X+1897693Y-1194055D01*
X+1917693Y-1194055D02*
X+1929693Y-1194055D01*
X+1951693Y-1194055D02*
X+1967693Y-1194055D01*
X+2005693Y-1194055D02*
X+2017693Y-1194055D01*
X+2069693Y-1194055D02*
X+2083693Y-1194055D01*
X+2101693Y-1194055D02*
X+2113693Y-1194055D01*
X+2165693Y-1194055D02*
X+2177693Y-1194055D01*
X+2199693Y-1194055D02*
X+2211693Y-1194055D01*
X+2233693Y-1194055D02*
X+2245693Y-1194055D01*
X+2297693Y-1194055D02*
X+2311693Y-1194055D01*
X+2373693Y-1194055D02*
X+2385693Y-1194055D01*
X+2389693Y-1194055D02*
X+2403693Y-1194055D01*
X+2437693Y-1194055D02*
X+2449693Y-1194055D01*
X+2469693Y-1194055D02*
X+2481693Y-1194055D01*
X+2533693Y-1194055D02*
X+2545693Y-1194055D01*
X+2565693Y-1194055D02*
X+2577693Y-1194055D01*
X+2647693Y-1194055D02*
X+2659693Y-1194055D01*
X+2681693Y-1194055D02*
X+2693693Y-1194055D01*
X+2737693Y-1194055D02*
X+2749693Y-1194055D01*
X+2805693Y-1194055D02*
X+2817693Y-1194055D01*
X+2897693Y-1194055D02*
X+2917693Y-1194055D01*
X+2951693Y-1194055D02*
X+2963693Y-1194055D01*
X+2975693Y-1194055D02*
X+2989693Y-1194055D01*
X+3061693Y-1194055D02*
X+3073693Y-1194055D01*
X+3111693Y-1194055D02*
X+3131693Y-1194055D01*
X+3185693Y-1194055D02*
X+3203693Y-1194055D01*
X+3231693Y-1194055D02*
X+3243693Y-1194055D01*
X+3335693Y-1194055D02*
X+3347693Y-1194055D01*
X+3487693Y-1194055D02*
X+3499693Y-1194055D01*
X+3541693Y-1194055D02*
X+3557693Y-1194055D01*
X+3623693Y-1194055D02*
X+3637693Y-1194055D01*
X+3683693Y-1194055D02*
X+3701693Y-1194055D01*
X+3785693Y-1194055D02*
X+3803693Y-1194055D01*
X+3867693Y-1194055D02*
X+3881693Y-1194055D01*
X+3951693Y-1194055D02*
X+3963693Y-1194055D01*
X+4007693Y-1194055D02*
X+4019693Y-1194055D01*
X+4057693Y-1194055D02*
X+4075693Y-1194055D01*
X+4131693Y-1194055D02*
X+4151693Y-1194055D01*
X+4207693Y-1194055D02*
X+4217693Y-1194055D01*
X+4247693Y-1194055D02*
X+4261693Y-1194055D01*
X+4273693Y-1194055D02*
X+4285693Y-1194055D01*
X+1821693Y-1192055D02*
X+1833693Y-1192055D01*
X+1885693Y-1192055D02*
X+1897693Y-1192055D01*
X+1917693Y-1192055D02*
X+1929693Y-1192055D01*
X+1953693Y-1192055D02*
X+1969693Y-1192055D01*
X+2005693Y-1192055D02*
X+2019693Y-1192055D01*
X+2069693Y-1192055D02*
X+2081693Y-1192055D01*
X+2101693Y-1192055D02*
X+2113693Y-1192055D01*
X+2165693Y-1192055D02*
X+2177693Y-1192055D01*
X+2199693Y-1192055D02*
X+2211693Y-1192055D01*
X+2233693Y-1192055D02*
X+2247693Y-1192055D01*
X+2297693Y-1192055D02*
X+2309693Y-1192055D01*
X+2373693Y-1192055D02*
X+2385693Y-1192055D01*
X+2387693Y-1192055D02*
X+2401693Y-1192055D01*
X+2437693Y-1192055D02*
X+2449693Y-1192055D01*
X+2469693Y-1192055D02*
X+2481693Y-1192055D01*
X+2533693Y-1192055D02*
X+2545693Y-1192055D01*
X+2565693Y-1192055D02*
X+2577693Y-1192055D01*
X+2647693Y-1192055D02*
X+2659693Y-1192055D01*
X+2681693Y-1192055D02*
X+2693693Y-1192055D01*
X+2737693Y-1192055D02*
X+2749693Y-1192055D01*
X+2805693Y-1192055D02*
X+2817693Y-1192055D01*
X+2951693Y-1192055D02*
X+2963693Y-1192055D01*
X+3061693Y-1192055D02*
X+3073693Y-1192055D01*
X+3231693Y-1192055D02*
X+3243693Y-1192055D01*
X+3335693Y-1192055D02*
X+3347693Y-1192055D01*
X+3487693Y-1192055D02*
X+3499693Y-1192055D01*
X+3951693Y-1192055D02*
X+3963693Y-1192055D01*
X+4007693Y-1192055D02*
X+4019693Y-1192055D01*
X+4273693Y-1192055D02*
X+4285693Y-1192055D01*
X+1821693Y-1190055D02*
X+1833693Y-1190055D01*
X+1885693Y-1190055D02*
X+1897693Y-1190055D01*
X+1917693Y-1190055D02*
X+1929693Y-1190055D01*
X+1955693Y-1190055D02*
X+1971693Y-1190055D01*
X+2007693Y-1190055D02*
X+2021693Y-1190055D01*
X+2067693Y-1190055D02*
X+2081693Y-1190055D01*
X+2101693Y-1190055D02*
X+2113693Y-1190055D01*
X+2163693Y-1190055D02*
X+2177693Y-1190055D01*
X+2199693Y-1190055D02*
X+2211693Y-1190055D01*
X+2235693Y-1190055D02*
X+2249693Y-1190055D01*
X+2295693Y-1190055D02*
X+2309693Y-1190055D01*
X+2373693Y-1190055D02*
X+2385693Y-1190055D01*
X+2387693Y-1190055D02*
X+2399693Y-1190055D01*
X+2437693Y-1190055D02*
X+2449693Y-1190055D01*
X+2469693Y-1190055D02*
X+2481693Y-1190055D01*
X+2531693Y-1190055D02*
X+2545693Y-1190055D01*
X+2565693Y-1190055D02*
X+2577693Y-1190055D01*
X+2647693Y-1190055D02*
X+2659693Y-1190055D01*
X+2681693Y-1190055D02*
X+2693693Y-1190055D01*
X+2735693Y-1190055D02*
X+2749693Y-1190055D01*
X+2805693Y-1190055D02*
X+2817693Y-1190055D01*
X+2951693Y-1190055D02*
X+2963693Y-1190055D01*
X+3061693Y-1190055D02*
X+3073693Y-1190055D01*
X+3231693Y-1190055D02*
X+3243693Y-1190055D01*
X+3335693Y-1190055D02*
X+3347693Y-1190055D01*
X+3487693Y-1190055D02*
X+3499693Y-1190055D01*
X+3951693Y-1190055D02*
X+3963693Y-1190055D01*
X+4007693Y-1190055D02*
X+4019693Y-1190055D01*
X+4273693Y-1190055D02*
X+4285693Y-1190055D01*
X+1821693Y-1188055D02*
X+1833693Y-1188055D01*
X+1885693Y-1188055D02*
X+1897693Y-1188055D01*
X+1917693Y-1188055D02*
X+1929693Y-1188055D01*
X+1957693Y-1188055D02*
X+1973693Y-1188055D01*
X+2007693Y-1188055D02*
X+2023693Y-1188055D01*
X+2065693Y-1188055D02*
X+2081693Y-1188055D01*
X+2101693Y-1188055D02*
X+2113693Y-1188055D01*
X+2163693Y-1188055D02*
X+2177693Y-1188055D01*
X+2199693Y-1188055D02*
X+2211693Y-1188055D01*
X+2235693Y-1188055D02*
X+2251693Y-1188055D01*
X+2293693Y-1188055D02*
X+2309693Y-1188055D01*
X+2373693Y-1188055D02*
X+2399693Y-1188055D01*
X+2437693Y-1188055D02*
X+2449693Y-1188055D01*
X+2469693Y-1188055D02*
X+2481693Y-1188055D01*
X+2531693Y-1188055D02*
X+2545693Y-1188055D01*
X+2565693Y-1188055D02*
X+2577693Y-1188055D01*
X+2647693Y-1188055D02*
X+2659693Y-1188055D01*
X+2681693Y-1188055D02*
X+2695693Y-1188055D01*
X+2735693Y-1188055D02*
X+2747693Y-1188055D01*
X+2805693Y-1188055D02*
X+2817693Y-1188055D01*
X+2951693Y-1188055D02*
X+2963693Y-1188055D01*
X+3061693Y-1188055D02*
X+3073693Y-1188055D01*
X+3231693Y-1188055D02*
X+3243693Y-1188055D01*
X+3335693Y-1188055D02*
X+3347693Y-1188055D01*
X+3487693Y-1188055D02*
X+3499693Y-1188055D01*
X+3951693Y-1188055D02*
X+3963693Y-1188055D01*
X+4005693Y-1188055D02*
X+4019693Y-1188055D01*
X+4273693Y-1188055D02*
X+4285693Y-1188055D01*
X+1821693Y-1186055D02*
X+1833693Y-1186055D01*
X+1885693Y-1186055D02*
X+1897693Y-1186055D01*
X+1917693Y-1186055D02*
X+1929693Y-1186055D01*
X+1959693Y-1186055D02*
X+1975693Y-1186055D01*
X+2009693Y-1186055D02*
X+2025693Y-1186055D01*
X+2063693Y-1186055D02*
X+2079693Y-1186055D01*
X+2101693Y-1186055D02*
X+2113693Y-1186055D01*
X+2161693Y-1186055D02*
X+2175693Y-1186055D01*
X+2199693Y-1186055D02*
X+2211693Y-1186055D01*
X+2237693Y-1186055D02*
X+2253693Y-1186055D01*
X+2291693Y-1186055D02*
X+2307693Y-1186055D01*
X+2373693Y-1186055D02*
X+2397693Y-1186055D01*
X+2437693Y-1186055D02*
X+2449693Y-1186055D01*
X+2469693Y-1186055D02*
X+2481693Y-1186055D01*
X+2529693Y-1186055D02*
X+2543693Y-1186055D01*
X+2565693Y-1186055D02*
X+2577693Y-1186055D01*
X+2647693Y-1186055D02*
X+2659693Y-1186055D01*
X+2683693Y-1186055D02*
X+2695693Y-1186055D01*
X+2733693Y-1186055D02*
X+2747693Y-1186055D01*
X+2805693Y-1186055D02*
X+2817693Y-1186055D01*
X+2951693Y-1186055D02*
X+2963693Y-1186055D01*
X+3061693Y-1186055D02*
X+3073693Y-1186055D01*
X+3231693Y-1186055D02*
X+3243693Y-1186055D01*
X+3335693Y-1186055D02*
X+3347693Y-1186055D01*
X+3487693Y-1186055D02*
X+3499693Y-1186055D01*
X+3951693Y-1186055D02*
X+3963693Y-1186055D01*
X+4003693Y-1186055D02*
X+4017693Y-1186055D01*
X+4273693Y-1186055D02*
X+4285693Y-1186055D01*
X+1821693Y-1184055D02*
X+1833693Y-1184055D01*
X+1885693Y-1184055D02*
X+1897693Y-1184055D01*
X+1917693Y-1184055D02*
X+1929693Y-1184055D01*
X+1961693Y-1184055D02*
X+1977693Y-1184055D01*
X+2011693Y-1184055D02*
X+2027693Y-1184055D01*
X+2061693Y-1184055D02*
X+2077693Y-1184055D01*
X+2101693Y-1184055D02*
X+2113693Y-1184055D01*
X+2159693Y-1184055D02*
X+2175693Y-1184055D01*
X+2199693Y-1184055D02*
X+2211693Y-1184055D01*
X+2239693Y-1184055D02*
X+2255693Y-1184055D01*
X+2289693Y-1184055D02*
X+2305693Y-1184055D01*
X+2373693Y-1184055D02*
X+2395693Y-1184055D01*
X+2437693Y-1184055D02*
X+2449693Y-1184055D01*
X+2469693Y-1184055D02*
X+2481693Y-1184055D01*
X+2527693Y-1184055D02*
X+2543693Y-1184055D01*
X+2565693Y-1184055D02*
X+2577693Y-1184055D01*
X+2647693Y-1184055D02*
X+2659693Y-1184055D01*
X+2683693Y-1184055D02*
X+2697693Y-1184055D01*
X+2731693Y-1184055D02*
X+2747693Y-1184055D01*
X+2805693Y-1184055D02*
X+2817693Y-1184055D01*
X+2951693Y-1184055D02*
X+2963693Y-1184055D01*
X+3061693Y-1184055D02*
X+3073693Y-1184055D01*
X+3231693Y-1184055D02*
X+3243693Y-1184055D01*
X+3335693Y-1184055D02*
X+3347693Y-1184055D01*
X+3487693Y-1184055D02*
X+3499693Y-1184055D01*
X+3951693Y-1184055D02*
X+3963693Y-1184055D01*
X+4001693Y-1184055D02*
X+4017693Y-1184055D01*
X+4273693Y-1184055D02*
X+4285693Y-1184055D01*
X+1821693Y-1182055D02*
X+1833693Y-1182055D01*
X+1885693Y-1182055D02*
X+1897693Y-1182055D01*
X+1917693Y-1182055D02*
X+1929693Y-1182055D01*
X+1963693Y-1182055D02*
X+1979693Y-1182055D01*
X+2011693Y-1182055D02*
X+2031693Y-1182055D01*
X+2059693Y-1182055D02*
X+2077693Y-1182055D01*
X+2101693Y-1182055D02*
X+2113693Y-1182055D01*
X+2153693Y-1182055D02*
X+2173693Y-1182055D01*
X+2199693Y-1182055D02*
X+2211693Y-1182055D01*
X+2239693Y-1182055D02*
X+2259693Y-1182055D01*
X+2287693Y-1182055D02*
X+2305693Y-1182055D01*
X+2373693Y-1182055D02*
X+2395693Y-1182055D01*
X+2437693Y-1182055D02*
X+2449693Y-1182055D01*
X+2469693Y-1182055D02*
X+2481693Y-1182055D01*
X+2521693Y-1182055D02*
X+2541693Y-1182055D01*
X+2565693Y-1182055D02*
X+2577693Y-1182055D01*
X+2647693Y-1182055D02*
X+2659693Y-1182055D01*
X+2683693Y-1182055D02*
X+2699693Y-1182055D01*
X+2729693Y-1182055D02*
X+2745693Y-1182055D01*
X+2805693Y-1182055D02*
X+2817693Y-1182055D01*
X+2951693Y-1182055D02*
X+2963693Y-1182055D01*
X+3061693Y-1182055D02*
X+3073693Y-1182055D01*
X+3231693Y-1182055D02*
X+3243693Y-1182055D01*
X+3335693Y-1182055D02*
X+3347693Y-1182055D01*
X+3487693Y-1182055D02*
X+3499693Y-1182055D01*
X+3951693Y-1182055D02*
X+3963693Y-1182055D01*
X+3997693Y-1182055D02*
X+4017693Y-1182055D01*
X+4273693Y-1182055D02*
X+4285693Y-1182055D01*
X+1821693Y-1180055D02*
X+1833693Y-1180055D01*
X+1885693Y-1180055D02*
X+1897693Y-1180055D01*
X+1917693Y-1180055D02*
X+1929693Y-1180055D01*
X+1965693Y-1180055D02*
X+1981693Y-1180055D01*
X+2013693Y-1180055D02*
X+2037693Y-1180055D01*
X+2053693Y-1180055D02*
X+2075693Y-1180055D01*
X+2101693Y-1180055D02*
X+2173693Y-1180055D01*
X+2199693Y-1180055D02*
X+2211693Y-1180055D01*
X+2241693Y-1180055D02*
X+2265693Y-1180055D01*
X+2281693Y-1180055D02*
X+2303693Y-1180055D01*
X+2373693Y-1180055D02*
X+2393693Y-1180055D01*
X+2437693Y-1180055D02*
X+2449693Y-1180055D01*
X+2469693Y-1180055D02*
X+2541693Y-1180055D01*
X+2565693Y-1180055D02*
X+2629693Y-1180055D01*
X+2647693Y-1180055D02*
X+2659693Y-1180055D01*
X+2685693Y-1180055D02*
X+2705693Y-1180055D01*
X+2723693Y-1180055D02*
X+2745693Y-1180055D01*
X+2805693Y-1180055D02*
X+2817693Y-1180055D01*
X+2951693Y-1180055D02*
X+2963693Y-1180055D01*
X+3061693Y-1180055D02*
X+3073693Y-1180055D01*
X+3231693Y-1180055D02*
X+3243693Y-1180055D01*
X+3335693Y-1180055D02*
X+3403693Y-1180055D01*
X+3487693Y-1180055D02*
X+3499693Y-1180055D01*
X+3737693Y-1180055D02*
X+3749693Y-1180055D01*
X+3951693Y-1180055D02*
X+4015693Y-1180055D01*
X+4273693Y-1180055D02*
X+4285693Y-1180055D01*
X+1821693Y-1178055D02*
X+1833693Y-1178055D01*
X+1885693Y-1178055D02*
X+1897693Y-1178055D01*
X+1917693Y-1178055D02*
X+1929693Y-1178055D01*
X+1967693Y-1178055D02*
X+1983693Y-1178055D01*
X+2015693Y-1178055D02*
X+2073693Y-1178055D01*
X+2101693Y-1178055D02*
X+2171693Y-1178055D01*
X+2199693Y-1178055D02*
X+2211693Y-1178055D01*
X+2243693Y-1178055D02*
X+2301693Y-1178055D01*
X+2373693Y-1178055D02*
X+2391693Y-1178055D01*
X+2437693Y-1178055D02*
X+2449693Y-1178055D01*
X+2469693Y-1178055D02*
X+2539693Y-1178055D01*
X+2565693Y-1178055D02*
X+2629693Y-1178055D01*
X+2647693Y-1178055D02*
X+2659693Y-1178055D01*
X+2687693Y-1178055D02*
X+2743693Y-1178055D01*
X+2805693Y-1178055D02*
X+2817693Y-1178055D01*
X+2951693Y-1178055D02*
X+2963693Y-1178055D01*
X+3061693Y-1178055D02*
X+3073693Y-1178055D01*
X+3231693Y-1178055D02*
X+3243693Y-1178055D01*
X+3335693Y-1178055D02*
X+3403693Y-1178055D01*
X+3487693Y-1178055D02*
X+3499693Y-1178055D01*
X+3737693Y-1178055D02*
X+3749693Y-1178055D01*
X+3951693Y-1178055D02*
X+4013693Y-1178055D01*
X+4273693Y-1178055D02*
X+4285693Y-1178055D01*
X+1821693Y-1176055D02*
X+1833693Y-1176055D01*
X+1885693Y-1176055D02*
X+1897693Y-1176055D01*
X+1917693Y-1176055D02*
X+1929693Y-1176055D01*
X+1969693Y-1176055D02*
X+1985693Y-1176055D01*
X+2017693Y-1176055D02*
X+2071693Y-1176055D01*
X+2101693Y-1176055D02*
X+2169693Y-1176055D01*
X+2199693Y-1176055D02*
X+2211693Y-1176055D01*
X+2245693Y-1176055D02*
X+2299693Y-1176055D01*
X+2373693Y-1176055D02*
X+2391693Y-1176055D01*
X+2437693Y-1176055D02*
X+2449693Y-1176055D01*
X+2469693Y-1176055D02*
X+2537693Y-1176055D01*
X+2565693Y-1176055D02*
X+2629693Y-1176055D01*
X+2647693Y-1176055D02*
X+2659693Y-1176055D01*
X+2689693Y-1176055D02*
X+2741693Y-1176055D01*
X+2805693Y-1176055D02*
X+2817693Y-1176055D01*
X+2951693Y-1176055D02*
X+2963693Y-1176055D01*
X+3061693Y-1176055D02*
X+3073693Y-1176055D01*
X+3231693Y-1176055D02*
X+3243693Y-1176055D01*
X+3335693Y-1176055D02*
X+3403693Y-1176055D01*
X+3491693Y-1176055D02*
X+3499693Y-1176055D01*
X+3737693Y-1176055D02*
X+3749693Y-1176055D01*
X+3951693Y-1176055D02*
X+4011693Y-1176055D01*
X+4273693Y-1176055D02*
X+4285693Y-1176055D01*
X+1821693Y-1174055D02*
X+1833693Y-1174055D01*
X+1885693Y-1174055D02*
X+1897693Y-1174055D01*
X+1917693Y-1174055D02*
X+1929693Y-1174055D01*
X+1971693Y-1174055D02*
X+1987693Y-1174055D01*
X+2021693Y-1174055D02*
X+2069693Y-1174055D01*
X+2101693Y-1174055D02*
X+2167693Y-1174055D01*
X+2199693Y-1174055D02*
X+2211693Y-1174055D01*
X+2249693Y-1174055D02*
X+2297693Y-1174055D01*
X+2373693Y-1174055D02*
X+2389693Y-1174055D01*
X+2437693Y-1174055D02*
X+2449693Y-1174055D01*
X+2469693Y-1174055D02*
X+2535693Y-1174055D01*
X+2565693Y-1174055D02*
X+2629693Y-1174055D01*
X+2647693Y-1174055D02*
X+2659693Y-1174055D01*
X+2691693Y-1174055D02*
X+2739693Y-1174055D01*
X+2805693Y-1174055D02*
X+2817693Y-1174055D01*
X+2951693Y-1174055D02*
X+2963693Y-1174055D01*
X+3061693Y-1174055D02*
X+3073693Y-1174055D01*
X+3231693Y-1174055D02*
X+3243693Y-1174055D01*
X+3335693Y-1174055D02*
X+3403693Y-1174055D01*
X+3493693Y-1174055D02*
X+3499693Y-1174055D01*
X+3737693Y-1174055D02*
X+3749693Y-1174055D01*
X+3951693Y-1174055D02*
X+4009693Y-1174055D01*
X+4273693Y-1174055D02*
X+4285693Y-1174055D01*
X+1821693Y-1172055D02*
X+1833693Y-1172055D01*
X+1885693Y-1172055D02*
X+1897693Y-1172055D01*
X+1917693Y-1172055D02*
X+1929693Y-1172055D01*
X+1973693Y-1172055D02*
X+1989693Y-1172055D01*
X+2025693Y-1172055D02*
X+2065693Y-1172055D01*
X+2101693Y-1172055D02*
X+2163693Y-1172055D01*
X+2199693Y-1172055D02*
X+2211693Y-1172055D01*
X+2253693Y-1172055D02*
X+2293693Y-1172055D01*
X+2373693Y-1172055D02*
X+2387693Y-1172055D01*
X+2437693Y-1172055D02*
X+2449693Y-1172055D01*
X+2469693Y-1172055D02*
X+2531693Y-1172055D01*
X+2565693Y-1172055D02*
X+2629693Y-1172055D01*
X+2647693Y-1172055D02*
X+2659693Y-1172055D01*
X+2693693Y-1172055D02*
X+2735693Y-1172055D01*
X+2805693Y-1172055D02*
X+2817693Y-1172055D01*
X+2951693Y-1172055D02*
X+2963693Y-1172055D01*
X+3061693Y-1172055D02*
X+3073693Y-1172055D01*
X+3231693Y-1172055D02*
X+3243693Y-1172055D01*
X+3335693Y-1172055D02*
X+3403693Y-1172055D01*
X+3497693Y-1172055D02*
X+3499693Y-1172055D01*
X+3737693Y-1172055D02*
X+3749693Y-1172055D01*
X+3951693Y-1172055D02*
X+4005693Y-1172055D01*
X+4273693Y-1172055D02*
X+4285693Y-1172055D01*
X+1821693Y-1170055D02*
X+1833693Y-1170055D01*
X+1885693Y-1170055D02*
X+1897693Y-1170055D01*
X+1917693Y-1170055D02*
X+1929693Y-1170055D01*
X+1975693Y-1170055D02*
X+1991693Y-1170055D01*
X+2029693Y-1170055D02*
X+2061693Y-1170055D01*
X+2101693Y-1170055D02*
X+2157693Y-1170055D01*
X+2199693Y-1170055D02*
X+2211693Y-1170055D01*
X+2257693Y-1170055D02*
X+2289693Y-1170055D01*
X+2373693Y-1170055D02*
X+2387693Y-1170055D01*
X+2437693Y-1170055D02*
X+2449693Y-1170055D01*
X+2469693Y-1170055D02*
X+2525693Y-1170055D01*
X+2565693Y-1170055D02*
X+2629693Y-1170055D01*
X+2647693Y-1170055D02*
X+2659693Y-1170055D01*
X+2697693Y-1170055D02*
X+2731693Y-1170055D01*
X+2805693Y-1170055D02*
X+2817693Y-1170055D01*
X+2951693Y-1170055D02*
X+2963693Y-1170055D01*
X+3061693Y-1170055D02*
X+3073693Y-1170055D01*
X+3231693Y-1170055D02*
X+3243693Y-1170055D01*
X+3335693Y-1170055D02*
X+3403693Y-1170055D01*
X+3737693Y-1170055D02*
X+3749693Y-1170055D01*
X+3951693Y-1170055D02*
X+3999693Y-1170055D01*
X+4273693Y-1170055D02*
X+4285693Y-1170055D01*
X+2035693Y-1168055D02*
X+2055693Y-1168055D01*
X+2263693Y-1168055D02*
X+2283693Y-1168055D01*
X+2705693Y-1168055D02*
X+2725693Y-1168055D01*
M02*
