G04 PROTEUS GERBER X2 FILE*
%TF.GenerationSoftware,Labcenter,Proteus,8.12-SP0-Build30713*%
%TF.CreationDate,2021-04-15T12:14:11+00:00*%
%TF.FileFunction,AssemblyDrawing,Bot*%
%TF.FilePolarity,Positive*%
%TF.Part,Single*%
%TF.SameCoordinates,{5a193cc5-51b4-4a6d-ad6d-b15ded965af5}*%
%FSLAX26Y26*%
%MOIN*%
G01*
%TA.AperFunction,Material*%
%ADD59C,0.001969*%
%ADD60C,0.022800*%
%ADD61C,0.002148*%
%ADD62C,0.002246*%
%ADD30C,0.008000*%
%ADD63C,0.022500*%
%ADD64C,0.006925*%
%ADD65C,0.032000*%
%ADD66C,0.014000*%
%TA.AperFunction,Profile*%
%ADD71C,0.008000*%
%TA.AperFunction,Material*%
%ADD67C,0.003333*%
%ADD68C,0.031890*%
%ADD69C,0.017358*%
%ADD74C,0.028400*%
%ADD75C,0.004345*%
%ADD76C,0.048000*%
%ADD77C,0.005000*%
%ADD78C,0.002995*%
%ADD79C,0.008898*%
%ADD80C,0.002864*%
%ADD81C,0.024000*%
%ADD82C,0.004060*%
%TD.AperFunction*%
D59*
X+4927071Y+163441D02*
X+5064866Y+163441D01*
X+5064866Y+84701D01*
X+4927071Y+84701D01*
X+4927071Y+163441D01*
X+4995969Y+104386D02*
X+4995969Y+143756D01*
X+5015654Y+124071D02*
X+4976283Y+124071D01*
D60*
X+4960535Y+124071D02*
X+4960535Y+124071D01*
D61*
X+5043056Y+119774D02*
X+5045473Y+117627D01*
X+5052721Y+117627D01*
X+5057554Y+121922D01*
X+5057554Y+126218D01*
X+5052721Y+130514D01*
X+5045473Y+130514D01*
X+5043056Y+128366D01*
X+5033390Y+124070D02*
X+5035807Y+126218D01*
X+5035807Y+128366D01*
X+5033390Y+130514D01*
X+5026142Y+130514D01*
X+5023725Y+128366D01*
X+5023725Y+126218D01*
X+5026142Y+124070D01*
X+5033390Y+124070D01*
X+5035807Y+121922D01*
X+5035807Y+119774D01*
X+5033390Y+117627D01*
X+5026142Y+117627D01*
X+5023725Y+119774D01*
X+5023725Y+121922D01*
X+5026142Y+124070D01*
X+5018893Y+119774D02*
X+5018893Y+128366D01*
X+5016477Y+130514D01*
X+5006812Y+130514D01*
X+5004395Y+128366D01*
X+5004395Y+119774D01*
X+5006812Y+117627D01*
X+5016477Y+117627D01*
X+5018893Y+119774D01*
X+5018893Y+117627D02*
X+5004395Y+130514D01*
X+4994729Y+126218D02*
X+4989897Y+130514D01*
X+4989897Y+117627D01*
D59*
X+4856205Y-151520D02*
X+4718409Y-151520D01*
X+4718409Y-72780D01*
X+4856205Y-72780D01*
X+4856205Y-151520D01*
X+4787307Y-92465D02*
X+4787307Y-131835D01*
X+4767622Y-112150D02*
X+4806992Y-112150D01*
D60*
X+4822740Y-112150D02*
X+4822740Y-112150D01*
D61*
X+4788546Y-116446D02*
X+4790963Y-118593D01*
X+4798211Y-118593D01*
X+4803044Y-114298D01*
X+4803044Y-110002D01*
X+4798211Y-105706D01*
X+4790963Y-105706D01*
X+4788546Y-107854D01*
X+4778880Y-112150D02*
X+4781297Y-110002D01*
X+4781297Y-107854D01*
X+4778880Y-105706D01*
X+4771632Y-105706D01*
X+4769215Y-107854D01*
X+4769215Y-110002D01*
X+4771632Y-112150D01*
X+4778880Y-112150D01*
X+4781297Y-114298D01*
X+4781297Y-116446D01*
X+4778880Y-118593D01*
X+4771632Y-118593D01*
X+4769215Y-116446D01*
X+4769215Y-114298D01*
X+4771632Y-112150D01*
X+4764383Y-116446D02*
X+4764383Y-107854D01*
X+4761967Y-105706D01*
X+4752302Y-105706D01*
X+4749885Y-107854D01*
X+4749885Y-116446D01*
X+4752302Y-118593D01*
X+4761967Y-118593D01*
X+4764383Y-116446D01*
X+4764383Y-118593D02*
X+4749885Y-105706D01*
X+4742636Y-105706D02*
X+4730554Y-105706D01*
X+4730554Y-107854D01*
X+4742636Y-118593D01*
D59*
X+4927071Y+45331D02*
X+5064866Y+45331D01*
X+5064866Y-33409D01*
X+4927071Y-33409D01*
X+4927071Y+45331D01*
X+4995969Y-13724D02*
X+4995969Y+25646D01*
X+5015654Y+5961D02*
X+4976283Y+5961D01*
D60*
X+4960535Y+5961D02*
X+4960535Y+5961D01*
D61*
X+5043056Y+1664D02*
X+5045473Y-483D01*
X+5052721Y-483D01*
X+5057554Y+3812D01*
X+5057554Y+8108D01*
X+5052721Y+12404D01*
X+5045473Y+12404D01*
X+5043056Y+10256D01*
X+5033390Y+5960D02*
X+5035807Y+8108D01*
X+5035807Y+10256D01*
X+5033390Y+12404D01*
X+5026142Y+12404D01*
X+5023725Y+10256D01*
X+5023725Y+8108D01*
X+5026142Y+5960D01*
X+5033390Y+5960D01*
X+5035807Y+3812D01*
X+5035807Y+1664D01*
X+5033390Y-483D01*
X+5026142Y-483D01*
X+5023725Y+1664D01*
X+5023725Y+3812D01*
X+5026142Y+5960D01*
X+5018893Y+1664D02*
X+5018893Y+10256D01*
X+5016477Y+12404D01*
X+5006812Y+12404D01*
X+5004395Y+10256D01*
X+5004395Y+1664D01*
X+5006812Y-483D01*
X+5016477Y-483D01*
X+5018893Y+1664D01*
X+5018893Y-483D02*
X+5004395Y+12404D01*
X+4997146Y+10256D02*
X+4994729Y+12404D01*
X+4987481Y+12404D01*
X+4985064Y+10256D01*
X+4985064Y+8108D01*
X+4987481Y+5960D01*
X+4994729Y+5960D01*
X+4997146Y+3812D01*
X+4997146Y-483D01*
X+4985064Y-483D01*
D59*
X+4927071Y-427110D02*
X+5064866Y-427110D01*
X+5064866Y-505850D01*
X+4927071Y-505850D01*
X+4927071Y-427110D01*
X+4995969Y-486165D02*
X+4995969Y-446795D01*
X+5015654Y-466480D02*
X+4976283Y-466480D01*
D60*
X+4960535Y-466480D02*
X+4960535Y-466480D01*
D61*
X+5043056Y-470777D02*
X+5045473Y-472924D01*
X+5052721Y-472924D01*
X+5057554Y-468629D01*
X+5057554Y-464333D01*
X+5052721Y-460037D01*
X+5045473Y-460037D01*
X+5043056Y-462185D01*
X+5033390Y-466481D02*
X+5035807Y-464333D01*
X+5035807Y-462185D01*
X+5033390Y-460037D01*
X+5026142Y-460037D01*
X+5023725Y-462185D01*
X+5023725Y-464333D01*
X+5026142Y-466481D01*
X+5033390Y-466481D01*
X+5035807Y-468629D01*
X+5035807Y-470777D01*
X+5033390Y-472924D01*
X+5026142Y-472924D01*
X+5023725Y-470777D01*
X+5023725Y-468629D01*
X+5026142Y-466481D01*
X+5018893Y-470777D02*
X+5018893Y-462185D01*
X+5016477Y-460037D01*
X+5006812Y-460037D01*
X+5004395Y-462185D01*
X+5004395Y-470777D01*
X+5006812Y-472924D01*
X+5016477Y-472924D01*
X+5018893Y-470777D01*
X+5018893Y-472924D02*
X+5004395Y-460037D01*
X+4985064Y-462185D02*
X+4987481Y-460037D01*
X+4994729Y-460037D01*
X+4997146Y-462185D01*
X+4997146Y-470777D01*
X+4994729Y-472924D01*
X+4987481Y-472924D01*
X+4985064Y-470777D01*
X+4985064Y-468629D01*
X+4987481Y-466481D01*
X+4997146Y-466481D01*
D59*
X+4927071Y-309000D02*
X+5064866Y-309000D01*
X+5064866Y-387740D01*
X+4927071Y-387740D01*
X+4927071Y-309000D01*
X+4995969Y-368055D02*
X+4995969Y-328685D01*
X+5015654Y-348370D02*
X+4976283Y-348370D01*
D60*
X+4960535Y-348370D02*
X+4960535Y-348370D01*
D61*
X+5043056Y-352666D02*
X+5045473Y-354813D01*
X+5052721Y-354813D01*
X+5057554Y-350518D01*
X+5057554Y-346222D01*
X+5052721Y-341926D01*
X+5045473Y-341926D01*
X+5043056Y-344074D01*
X+5033390Y-348370D02*
X+5035807Y-346222D01*
X+5035807Y-344074D01*
X+5033390Y-341926D01*
X+5026142Y-341926D01*
X+5023725Y-344074D01*
X+5023725Y-346222D01*
X+5026142Y-348370D01*
X+5033390Y-348370D01*
X+5035807Y-350518D01*
X+5035807Y-352666D01*
X+5033390Y-354813D01*
X+5026142Y-354813D01*
X+5023725Y-352666D01*
X+5023725Y-350518D01*
X+5026142Y-348370D01*
X+5018893Y-352666D02*
X+5018893Y-344074D01*
X+5016477Y-341926D01*
X+5006812Y-341926D01*
X+5004395Y-344074D01*
X+5004395Y-352666D01*
X+5006812Y-354813D01*
X+5016477Y-354813D01*
X+5018893Y-352666D01*
X+5018893Y-354813D02*
X+5004395Y-341926D01*
X+4985064Y-341926D02*
X+4997146Y-341926D01*
X+4997146Y-346222D01*
X+4987481Y-346222D01*
X+4985064Y-348370D01*
X+4985064Y-352666D01*
X+4987481Y-354813D01*
X+4994729Y-354813D01*
X+4997146Y-352666D01*
D59*
X+5064866Y-269630D02*
X+4927071Y-269630D01*
X+4927071Y-190890D01*
X+5064866Y-190890D01*
X+5064866Y-269630D01*
X+4995969Y-210575D02*
X+4995969Y-249945D01*
X+4976283Y-230260D02*
X+5015654Y-230260D01*
D60*
X+5031402Y-230260D02*
X+5031402Y-230260D01*
D61*
X+4997208Y-234556D02*
X+4999625Y-236703D01*
X+5006873Y-236703D01*
X+5011706Y-232408D01*
X+5011706Y-228112D01*
X+5006873Y-223816D01*
X+4999625Y-223816D01*
X+4997208Y-225964D01*
X+4987542Y-230260D02*
X+4989959Y-228112D01*
X+4989959Y-225964D01*
X+4987542Y-223816D01*
X+4980294Y-223816D01*
X+4977877Y-225964D01*
X+4977877Y-228112D01*
X+4980294Y-230260D01*
X+4987542Y-230260D01*
X+4989959Y-232408D01*
X+4989959Y-234556D01*
X+4987542Y-236703D01*
X+4980294Y-236703D01*
X+4977877Y-234556D01*
X+4977877Y-232408D01*
X+4980294Y-230260D01*
X+4973045Y-234556D02*
X+4973045Y-225964D01*
X+4970629Y-223816D01*
X+4960964Y-223816D01*
X+4958547Y-225964D01*
X+4958547Y-234556D01*
X+4960964Y-236703D01*
X+4970629Y-236703D01*
X+4973045Y-234556D01*
X+4973045Y-236703D02*
X+4958547Y-223816D01*
X+4939216Y-232408D02*
X+4953714Y-232408D01*
X+4944049Y-223816D01*
X+4944049Y-236703D01*
D59*
X+4852268Y+84701D02*
X+4714472Y+84701D01*
X+4714472Y+163441D01*
X+4852268Y+163441D01*
X+4852268Y+84701D01*
X+4783370Y+143756D02*
X+4783370Y+104386D01*
X+4763685Y+124071D02*
X+4803055Y+124071D01*
D60*
X+4822740Y+124071D02*
X+4822740Y+124071D01*
D62*
X+4802847Y+117332D02*
X+4802847Y+130809D01*
X+4790212Y+130809D01*
X+4787685Y+128563D01*
X+4787685Y+126317D01*
X+4790212Y+124070D01*
X+4802847Y+124070D01*
X+4790212Y+124070D02*
X+4787685Y+121824D01*
X+4787685Y+117332D01*
X+4777576Y+124070D02*
X+4780103Y+126317D01*
X+4780103Y+128563D01*
X+4777576Y+130809D01*
X+4769995Y+130809D01*
X+4767468Y+128563D01*
X+4767468Y+126317D01*
X+4769995Y+124070D01*
X+4777576Y+124070D01*
X+4780103Y+121824D01*
X+4780103Y+119578D01*
X+4777576Y+117332D01*
X+4769995Y+117332D01*
X+4767468Y+119578D01*
X+4767468Y+121824D01*
X+4769995Y+124070D01*
X+4762414Y+119578D02*
X+4762414Y+128563D01*
X+4759887Y+130809D01*
X+4749779Y+130809D01*
X+4747252Y+128563D01*
X+4747252Y+119578D01*
X+4749779Y+117332D01*
X+4759887Y+117332D01*
X+4762414Y+119578D01*
X+4762414Y+117332D02*
X+4747252Y+130809D01*
X+4737143Y+126317D02*
X+4732089Y+130809D01*
X+4732089Y+117332D01*
D59*
X+4852268Y-33409D02*
X+4714472Y-33409D01*
X+4714472Y+45331D01*
X+4852268Y+45331D01*
X+4852268Y-33409D01*
X+4783370Y+25646D02*
X+4783370Y-13724D01*
X+4763685Y+5961D02*
X+4803055Y+5961D01*
D60*
X+4822740Y+5961D02*
X+4822740Y+5961D01*
D62*
X+4802847Y-778D02*
X+4802847Y+12699D01*
X+4790212Y+12699D01*
X+4787685Y+10453D01*
X+4787685Y+8207D01*
X+4790212Y+5960D01*
X+4802847Y+5960D01*
X+4790212Y+5960D02*
X+4787685Y+3714D01*
X+4787685Y-778D01*
X+4777576Y+5960D02*
X+4780103Y+8207D01*
X+4780103Y+10453D01*
X+4777576Y+12699D01*
X+4769995Y+12699D01*
X+4767468Y+10453D01*
X+4767468Y+8207D01*
X+4769995Y+5960D01*
X+4777576Y+5960D01*
X+4780103Y+3714D01*
X+4780103Y+1468D01*
X+4777576Y-778D01*
X+4769995Y-778D01*
X+4767468Y+1468D01*
X+4767468Y+3714D01*
X+4769995Y+5960D01*
X+4762414Y+1468D02*
X+4762414Y+10453D01*
X+4759887Y+12699D01*
X+4749779Y+12699D01*
X+4747252Y+10453D01*
X+4747252Y+1468D01*
X+4749779Y-778D01*
X+4759887Y-778D01*
X+4762414Y+1468D01*
X+4762414Y-778D02*
X+4747252Y+12699D01*
X+4739670Y+10453D02*
X+4737143Y+12699D01*
X+4729562Y+12699D01*
X+4727035Y+10453D01*
X+4727035Y+8207D01*
X+4729562Y+5960D01*
X+4737143Y+5960D01*
X+4739670Y+3714D01*
X+4739670Y-778D01*
X+4727035Y-778D01*
D30*
X+4695535Y-475260D02*
X+4879535Y-475260D01*
X+4879535Y-190260D01*
X+4695535Y-190260D01*
X+4695535Y-475260D01*
D63*
X+4712535Y-230260D02*
X+4712535Y-230260D01*
D64*
X+4780885Y-208110D02*
X+4815510Y-208110D01*
X+4822435Y-215901D01*
X+4822435Y-247063D01*
X+4815510Y-254853D01*
X+4780885Y-254853D01*
X+4801660Y-286016D02*
X+4794735Y-278226D01*
X+4787810Y-278226D01*
X+4780885Y-286016D01*
X+4780885Y-309388D01*
X+4787810Y-317178D01*
X+4794735Y-317178D01*
X+4801660Y-309388D01*
X+4801660Y-286016D01*
X+4808585Y-278226D01*
X+4815510Y-278226D01*
X+4822435Y-286016D01*
X+4822435Y-309388D01*
X+4815510Y-317178D01*
X+4808585Y-317178D01*
X+4801660Y-309388D01*
X+4815510Y-332760D02*
X+4787810Y-332760D01*
X+4780885Y-340551D01*
X+4780885Y-371713D01*
X+4787810Y-379503D01*
X+4815510Y-379503D01*
X+4822435Y-371713D01*
X+4822435Y-340551D01*
X+4815510Y-332760D01*
X+4822435Y-332760D02*
X+4780885Y-379503D01*
X+4794735Y-410665D02*
X+4780885Y-426246D01*
X+4822435Y-426246D01*
D59*
X+4927071Y-72780D02*
X+5064866Y-72780D01*
X+5064866Y-151520D01*
X+4927071Y-151520D01*
X+4927071Y-72780D01*
X+4995969Y-131835D02*
X+4995969Y-92465D01*
X+5015654Y-112150D02*
X+4976283Y-112150D01*
D60*
X+4960535Y-112150D02*
X+4960535Y-112150D01*
D61*
X+5043056Y-116446D02*
X+5045473Y-118593D01*
X+5052721Y-118593D01*
X+5057554Y-114298D01*
X+5057554Y-110002D01*
X+5052721Y-105706D01*
X+5045473Y-105706D01*
X+5043056Y-107854D01*
X+5033390Y-112150D02*
X+5035807Y-110002D01*
X+5035807Y-107854D01*
X+5033390Y-105706D01*
X+5026142Y-105706D01*
X+5023725Y-107854D01*
X+5023725Y-110002D01*
X+5026142Y-112150D01*
X+5033390Y-112150D01*
X+5035807Y-114298D01*
X+5035807Y-116446D01*
X+5033390Y-118593D01*
X+5026142Y-118593D01*
X+5023725Y-116446D01*
X+5023725Y-114298D01*
X+5026142Y-112150D01*
X+5018893Y-116446D02*
X+5018893Y-107854D01*
X+5016477Y-105706D01*
X+5006812Y-105706D01*
X+5004395Y-107854D01*
X+5004395Y-116446D01*
X+5006812Y-118593D01*
X+5016477Y-118593D01*
X+5018893Y-116446D01*
X+5018893Y-118593D02*
X+5004395Y-105706D01*
X+4997146Y-107854D02*
X+4994729Y-105706D01*
X+4987481Y-105706D01*
X+4985064Y-107854D01*
X+4985064Y-110002D01*
X+4987481Y-112150D01*
X+4985064Y-114298D01*
X+4985064Y-116446D01*
X+4987481Y-118593D01*
X+4994729Y-118593D01*
X+4997146Y-116446D01*
X+4992313Y-112150D02*
X+4987481Y-112150D01*
D59*
X+4257780Y+163441D02*
X+4395575Y+163441D01*
X+4395575Y+84701D01*
X+4257780Y+84701D01*
X+4257780Y+163441D01*
X+4326677Y+104386D02*
X+4326677Y+143756D01*
X+4346362Y+124071D02*
X+4306992Y+124071D01*
D60*
X+4291244Y+124071D02*
X+4291244Y+124071D01*
D61*
X+4373765Y+119774D02*
X+4376182Y+117627D01*
X+4383430Y+117627D01*
X+4388263Y+121922D01*
X+4388263Y+126218D01*
X+4383430Y+130514D01*
X+4376182Y+130514D01*
X+4373765Y+128366D01*
X+4366516Y+130514D02*
X+4354434Y+130514D01*
X+4354434Y+128366D01*
X+4366516Y+117627D01*
X+4349602Y+119774D02*
X+4349602Y+128366D01*
X+4347186Y+130514D01*
X+4337521Y+130514D01*
X+4335104Y+128366D01*
X+4335104Y+119774D01*
X+4337521Y+117627D01*
X+4347186Y+117627D01*
X+4349602Y+119774D01*
X+4349602Y+117627D02*
X+4335104Y+130514D01*
X+4325438Y+126218D02*
X+4320606Y+130514D01*
X+4320606Y+117627D01*
D59*
X+4186913Y-151520D02*
X+4049118Y-151520D01*
X+4049118Y-72780D01*
X+4186913Y-72780D01*
X+4186913Y-151520D01*
X+4118016Y-92465D02*
X+4118016Y-131835D01*
X+4098331Y-112150D02*
X+4137701Y-112150D01*
D60*
X+4153449Y-112150D02*
X+4153449Y-112150D01*
D61*
X+4119255Y-116446D02*
X+4121672Y-118593D01*
X+4128920Y-118593D01*
X+4133753Y-114298D01*
X+4133753Y-110002D01*
X+4128920Y-105706D01*
X+4121672Y-105706D01*
X+4119255Y-107854D01*
X+4112006Y-105706D02*
X+4099924Y-105706D01*
X+4099924Y-107854D01*
X+4112006Y-118593D01*
X+4095092Y-116446D02*
X+4095092Y-107854D01*
X+4092676Y-105706D01*
X+4083011Y-105706D01*
X+4080594Y-107854D01*
X+4080594Y-116446D01*
X+4083011Y-118593D01*
X+4092676Y-118593D01*
X+4095092Y-116446D01*
X+4095092Y-118593D02*
X+4080594Y-105706D01*
X+4073345Y-105706D02*
X+4061263Y-105706D01*
X+4061263Y-107854D01*
X+4073345Y-118593D01*
D59*
X+4257780Y+45331D02*
X+4395575Y+45331D01*
X+4395575Y-33409D01*
X+4257780Y-33409D01*
X+4257780Y+45331D01*
X+4326677Y-13724D02*
X+4326677Y+25646D01*
X+4346362Y+5961D02*
X+4306992Y+5961D01*
D60*
X+4291244Y+5961D02*
X+4291244Y+5961D01*
D61*
X+4373765Y+1664D02*
X+4376182Y-483D01*
X+4383430Y-483D01*
X+4388263Y+3812D01*
X+4388263Y+8108D01*
X+4383430Y+12404D01*
X+4376182Y+12404D01*
X+4373765Y+10256D01*
X+4366516Y+12404D02*
X+4354434Y+12404D01*
X+4354434Y+10256D01*
X+4366516Y-483D01*
X+4349602Y+1664D02*
X+4349602Y+10256D01*
X+4347186Y+12404D01*
X+4337521Y+12404D01*
X+4335104Y+10256D01*
X+4335104Y+1664D01*
X+4337521Y-483D01*
X+4347186Y-483D01*
X+4349602Y+1664D01*
X+4349602Y-483D02*
X+4335104Y+12404D01*
X+4327855Y+10256D02*
X+4325438Y+12404D01*
X+4318190Y+12404D01*
X+4315773Y+10256D01*
X+4315773Y+8108D01*
X+4318190Y+5960D01*
X+4325438Y+5960D01*
X+4327855Y+3812D01*
X+4327855Y-483D01*
X+4315773Y-483D01*
D59*
X+4257780Y-427110D02*
X+4395575Y-427110D01*
X+4395575Y-505850D01*
X+4257780Y-505850D01*
X+4257780Y-427110D01*
X+4326677Y-486165D02*
X+4326677Y-446795D01*
X+4346362Y-466480D02*
X+4306992Y-466480D01*
D60*
X+4291244Y-466480D02*
X+4291244Y-466480D01*
D61*
X+4373765Y-470777D02*
X+4376182Y-472924D01*
X+4383430Y-472924D01*
X+4388263Y-468629D01*
X+4388263Y-464333D01*
X+4383430Y-460037D01*
X+4376182Y-460037D01*
X+4373765Y-462185D01*
X+4366516Y-460037D02*
X+4354434Y-460037D01*
X+4354434Y-462185D01*
X+4366516Y-472924D01*
X+4349602Y-470777D02*
X+4349602Y-462185D01*
X+4347186Y-460037D01*
X+4337521Y-460037D01*
X+4335104Y-462185D01*
X+4335104Y-470777D01*
X+4337521Y-472924D01*
X+4347186Y-472924D01*
X+4349602Y-470777D01*
X+4349602Y-472924D02*
X+4335104Y-460037D01*
X+4315773Y-462185D02*
X+4318190Y-460037D01*
X+4325438Y-460037D01*
X+4327855Y-462185D01*
X+4327855Y-470777D01*
X+4325438Y-472924D01*
X+4318190Y-472924D01*
X+4315773Y-470777D01*
X+4315773Y-468629D01*
X+4318190Y-466481D01*
X+4327855Y-466481D01*
D59*
X+4257780Y-309000D02*
X+4395575Y-309000D01*
X+4395575Y-387740D01*
X+4257780Y-387740D01*
X+4257780Y-309000D01*
X+4326677Y-368055D02*
X+4326677Y-328685D01*
X+4346362Y-348370D02*
X+4306992Y-348370D01*
D60*
X+4291244Y-348370D02*
X+4291244Y-348370D01*
D61*
X+4373765Y-352666D02*
X+4376182Y-354813D01*
X+4383430Y-354813D01*
X+4388263Y-350518D01*
X+4388263Y-346222D01*
X+4383430Y-341926D01*
X+4376182Y-341926D01*
X+4373765Y-344074D01*
X+4366516Y-341926D02*
X+4354434Y-341926D01*
X+4354434Y-344074D01*
X+4366516Y-354813D01*
X+4349602Y-352666D02*
X+4349602Y-344074D01*
X+4347186Y-341926D01*
X+4337521Y-341926D01*
X+4335104Y-344074D01*
X+4335104Y-352666D01*
X+4337521Y-354813D01*
X+4347186Y-354813D01*
X+4349602Y-352666D01*
X+4349602Y-354813D02*
X+4335104Y-341926D01*
X+4315773Y-341926D02*
X+4327855Y-341926D01*
X+4327855Y-346222D01*
X+4318190Y-346222D01*
X+4315773Y-348370D01*
X+4315773Y-352666D01*
X+4318190Y-354813D01*
X+4325438Y-354813D01*
X+4327855Y-352666D01*
D59*
X+4395575Y-269630D02*
X+4257780Y-269630D01*
X+4257780Y-190890D01*
X+4395575Y-190890D01*
X+4395575Y-269630D01*
X+4326677Y-210575D02*
X+4326677Y-249945D01*
X+4306992Y-230260D02*
X+4346362Y-230260D01*
D60*
X+4362110Y-230260D02*
X+4362110Y-230260D01*
D61*
X+4327916Y-234556D02*
X+4330333Y-236703D01*
X+4337581Y-236703D01*
X+4342414Y-232408D01*
X+4342414Y-228112D01*
X+4337581Y-223816D01*
X+4330333Y-223816D01*
X+4327916Y-225964D01*
X+4320667Y-223816D02*
X+4308585Y-223816D01*
X+4308585Y-225964D01*
X+4320667Y-236703D01*
X+4303753Y-234556D02*
X+4303753Y-225964D01*
X+4301337Y-223816D01*
X+4291672Y-223816D01*
X+4289255Y-225964D01*
X+4289255Y-234556D01*
X+4291672Y-236703D01*
X+4301337Y-236703D01*
X+4303753Y-234556D01*
X+4303753Y-236703D02*
X+4289255Y-223816D01*
X+4269924Y-232408D02*
X+4284422Y-232408D01*
X+4274757Y-223816D01*
X+4274757Y-236703D01*
D59*
X+4182976Y+84701D02*
X+4045181Y+84701D01*
X+4045181Y+163441D01*
X+4182976Y+163441D01*
X+4182976Y+84701D01*
X+4114079Y+143756D02*
X+4114079Y+104386D01*
X+4094394Y+124071D02*
X+4133764Y+124071D01*
D60*
X+4153449Y+124071D02*
X+4153449Y+124071D01*
D62*
X+4133556Y+117332D02*
X+4133556Y+130809D01*
X+4120921Y+130809D01*
X+4118394Y+128563D01*
X+4118394Y+126317D01*
X+4120921Y+124070D01*
X+4133556Y+124070D01*
X+4120921Y+124070D02*
X+4118394Y+121824D01*
X+4118394Y+117332D01*
X+4110812Y+130809D02*
X+4098177Y+130809D01*
X+4098177Y+128563D01*
X+4110812Y+117332D01*
X+4093123Y+119578D02*
X+4093123Y+128563D01*
X+4090596Y+130809D01*
X+4080488Y+130809D01*
X+4077961Y+128563D01*
X+4077961Y+119578D01*
X+4080488Y+117332D01*
X+4090596Y+117332D01*
X+4093123Y+119578D01*
X+4093123Y+117332D02*
X+4077961Y+130809D01*
X+4067852Y+126317D02*
X+4062798Y+130809D01*
X+4062798Y+117332D01*
D59*
X+4182976Y-33409D02*
X+4045181Y-33409D01*
X+4045181Y+45331D01*
X+4182976Y+45331D01*
X+4182976Y-33409D01*
X+4114079Y+25646D02*
X+4114079Y-13724D01*
X+4094394Y+5961D02*
X+4133764Y+5961D01*
D60*
X+4153449Y+5961D02*
X+4153449Y+5961D01*
D62*
X+4133556Y-778D02*
X+4133556Y+12699D01*
X+4120921Y+12699D01*
X+4118394Y+10453D01*
X+4118394Y+8207D01*
X+4120921Y+5960D01*
X+4133556Y+5960D01*
X+4120921Y+5960D02*
X+4118394Y+3714D01*
X+4118394Y-778D01*
X+4110812Y+12699D02*
X+4098177Y+12699D01*
X+4098177Y+10453D01*
X+4110812Y-778D01*
X+4093123Y+1468D02*
X+4093123Y+10453D01*
X+4090596Y+12699D01*
X+4080488Y+12699D01*
X+4077961Y+10453D01*
X+4077961Y+1468D01*
X+4080488Y-778D01*
X+4090596Y-778D01*
X+4093123Y+1468D01*
X+4093123Y-778D02*
X+4077961Y+12699D01*
X+4070379Y+10453D02*
X+4067852Y+12699D01*
X+4060271Y+12699D01*
X+4057744Y+10453D01*
X+4057744Y+8207D01*
X+4060271Y+5960D01*
X+4067852Y+5960D01*
X+4070379Y+3714D01*
X+4070379Y-778D01*
X+4057744Y-778D01*
D30*
X+4025819Y-475260D02*
X+4209819Y-475260D01*
X+4209819Y-190260D01*
X+4025819Y-190260D01*
X+4025819Y-475260D01*
D63*
X+4042819Y-230260D02*
X+4042819Y-230260D01*
D64*
X+4111169Y-208110D02*
X+4145794Y-208110D01*
X+4152719Y-215901D01*
X+4152719Y-247063D01*
X+4145794Y-254853D01*
X+4111169Y-254853D01*
X+4111169Y-278226D02*
X+4111169Y-317178D01*
X+4118094Y-317178D01*
X+4152719Y-278226D01*
X+4145794Y-332760D02*
X+4118094Y-332760D01*
X+4111169Y-340551D01*
X+4111169Y-371713D01*
X+4118094Y-379503D01*
X+4145794Y-379503D01*
X+4152719Y-371713D01*
X+4152719Y-340551D01*
X+4145794Y-332760D01*
X+4152719Y-332760D02*
X+4111169Y-379503D01*
X+4125019Y-410665D02*
X+4111169Y-426246D01*
X+4152719Y-426246D01*
D59*
X+4257780Y-72780D02*
X+4395575Y-72780D01*
X+4395575Y-151520D01*
X+4257780Y-151520D01*
X+4257780Y-72780D01*
X+4326677Y-131835D02*
X+4326677Y-92465D01*
X+4346362Y-112150D02*
X+4306992Y-112150D01*
D60*
X+4291244Y-112150D02*
X+4291244Y-112150D01*
D61*
X+4373765Y-116446D02*
X+4376182Y-118593D01*
X+4383430Y-118593D01*
X+4388263Y-114298D01*
X+4388263Y-110002D01*
X+4383430Y-105706D01*
X+4376182Y-105706D01*
X+4373765Y-107854D01*
X+4366516Y-105706D02*
X+4354434Y-105706D01*
X+4354434Y-107854D01*
X+4366516Y-118593D01*
X+4349602Y-116446D02*
X+4349602Y-107854D01*
X+4347186Y-105706D01*
X+4337521Y-105706D01*
X+4335104Y-107854D01*
X+4335104Y-116446D01*
X+4337521Y-118593D01*
X+4347186Y-118593D01*
X+4349602Y-116446D01*
X+4349602Y-118593D02*
X+4335104Y-105706D01*
X+4327855Y-107854D02*
X+4325438Y-105706D01*
X+4318190Y-105706D01*
X+4315773Y-107854D01*
X+4315773Y-110002D01*
X+4318190Y-112150D01*
X+4315773Y-114298D01*
X+4315773Y-116446D01*
X+4318190Y-118593D01*
X+4325438Y-118593D01*
X+4327855Y-116446D01*
X+4323022Y-112150D02*
X+4318190Y-112150D01*
D59*
X+3588488Y+163441D02*
X+3726283Y+163441D01*
X+3726283Y+84701D01*
X+3588488Y+84701D01*
X+3588488Y+163441D01*
X+3657386Y+104386D02*
X+3657386Y+143756D01*
X+3677071Y+124071D02*
X+3637701Y+124071D01*
D60*
X+3621953Y+124071D02*
X+3621953Y+124071D01*
D61*
X+3704474Y+119774D02*
X+3706891Y+117627D01*
X+3714139Y+117627D01*
X+3718972Y+121922D01*
X+3718972Y+126218D01*
X+3714139Y+130514D01*
X+3706891Y+130514D01*
X+3704474Y+128366D01*
X+3685143Y+128366D02*
X+3687560Y+130514D01*
X+3694808Y+130514D01*
X+3697225Y+128366D01*
X+3697225Y+119774D01*
X+3694808Y+117627D01*
X+3687560Y+117627D01*
X+3685143Y+119774D01*
X+3685143Y+121922D01*
X+3687560Y+124070D01*
X+3697225Y+124070D01*
X+3680311Y+119774D02*
X+3680311Y+128366D01*
X+3677895Y+130514D01*
X+3668230Y+130514D01*
X+3665813Y+128366D01*
X+3665813Y+119774D01*
X+3668230Y+117627D01*
X+3677895Y+117627D01*
X+3680311Y+119774D01*
X+3680311Y+117627D02*
X+3665813Y+130514D01*
X+3656147Y+126218D02*
X+3651315Y+130514D01*
X+3651315Y+117627D01*
D59*
X+3517622Y-151520D02*
X+3379827Y-151520D01*
X+3379827Y-72780D01*
X+3517622Y-72780D01*
X+3517622Y-151520D01*
X+3448724Y-92465D02*
X+3448724Y-131835D01*
X+3429039Y-112150D02*
X+3468409Y-112150D01*
D60*
X+3484157Y-112150D02*
X+3484157Y-112150D01*
D61*
X+3449963Y-116446D02*
X+3452380Y-118593D01*
X+3459628Y-118593D01*
X+3464461Y-114298D01*
X+3464461Y-110002D01*
X+3459628Y-105706D01*
X+3452380Y-105706D01*
X+3449963Y-107854D01*
X+3430632Y-107854D02*
X+3433049Y-105706D01*
X+3440297Y-105706D01*
X+3442714Y-107854D01*
X+3442714Y-116446D01*
X+3440297Y-118593D01*
X+3433049Y-118593D01*
X+3430632Y-116446D01*
X+3430632Y-114298D01*
X+3433049Y-112150D01*
X+3442714Y-112150D01*
X+3425800Y-116446D02*
X+3425800Y-107854D01*
X+3423384Y-105706D01*
X+3413719Y-105706D01*
X+3411302Y-107854D01*
X+3411302Y-116446D01*
X+3413719Y-118593D01*
X+3423384Y-118593D01*
X+3425800Y-116446D01*
X+3425800Y-118593D02*
X+3411302Y-105706D01*
X+3404053Y-105706D02*
X+3391971Y-105706D01*
X+3391971Y-107854D01*
X+3404053Y-118593D01*
D59*
X+3588488Y+45331D02*
X+3726283Y+45331D01*
X+3726283Y-33409D01*
X+3588488Y-33409D01*
X+3588488Y+45331D01*
X+3657386Y-13724D02*
X+3657386Y+25646D01*
X+3677071Y+5961D02*
X+3637701Y+5961D01*
D60*
X+3621953Y+5961D02*
X+3621953Y+5961D01*
D61*
X+3704474Y+1664D02*
X+3706891Y-483D01*
X+3714139Y-483D01*
X+3718972Y+3812D01*
X+3718972Y+8108D01*
X+3714139Y+12404D01*
X+3706891Y+12404D01*
X+3704474Y+10256D01*
X+3685143Y+10256D02*
X+3687560Y+12404D01*
X+3694808Y+12404D01*
X+3697225Y+10256D01*
X+3697225Y+1664D01*
X+3694808Y-483D01*
X+3687560Y-483D01*
X+3685143Y+1664D01*
X+3685143Y+3812D01*
X+3687560Y+5960D01*
X+3697225Y+5960D01*
X+3680311Y+1664D02*
X+3680311Y+10256D01*
X+3677895Y+12404D01*
X+3668230Y+12404D01*
X+3665813Y+10256D01*
X+3665813Y+1664D01*
X+3668230Y-483D01*
X+3677895Y-483D01*
X+3680311Y+1664D01*
X+3680311Y-483D02*
X+3665813Y+12404D01*
X+3658564Y+10256D02*
X+3656147Y+12404D01*
X+3648899Y+12404D01*
X+3646482Y+10256D01*
X+3646482Y+8108D01*
X+3648899Y+5960D01*
X+3656147Y+5960D01*
X+3658564Y+3812D01*
X+3658564Y-483D01*
X+3646482Y-483D01*
D59*
X+3588488Y-427110D02*
X+3726283Y-427110D01*
X+3726283Y-505850D01*
X+3588488Y-505850D01*
X+3588488Y-427110D01*
X+3657386Y-486165D02*
X+3657386Y-446795D01*
X+3677071Y-466480D02*
X+3637701Y-466480D01*
D60*
X+3621953Y-466480D02*
X+3621953Y-466480D01*
D61*
X+3704474Y-470777D02*
X+3706891Y-472924D01*
X+3714139Y-472924D01*
X+3718972Y-468629D01*
X+3718972Y-464333D01*
X+3714139Y-460037D01*
X+3706891Y-460037D01*
X+3704474Y-462185D01*
X+3685143Y-462185D02*
X+3687560Y-460037D01*
X+3694808Y-460037D01*
X+3697225Y-462185D01*
X+3697225Y-470777D01*
X+3694808Y-472924D01*
X+3687560Y-472924D01*
X+3685143Y-470777D01*
X+3685143Y-468629D01*
X+3687560Y-466481D01*
X+3697225Y-466481D01*
X+3680311Y-470777D02*
X+3680311Y-462185D01*
X+3677895Y-460037D01*
X+3668230Y-460037D01*
X+3665813Y-462185D01*
X+3665813Y-470777D01*
X+3668230Y-472924D01*
X+3677895Y-472924D01*
X+3680311Y-470777D01*
X+3680311Y-472924D02*
X+3665813Y-460037D01*
X+3646482Y-462185D02*
X+3648899Y-460037D01*
X+3656147Y-460037D01*
X+3658564Y-462185D01*
X+3658564Y-470777D01*
X+3656147Y-472924D01*
X+3648899Y-472924D01*
X+3646482Y-470777D01*
X+3646482Y-468629D01*
X+3648899Y-466481D01*
X+3658564Y-466481D01*
D59*
X+3588488Y-309000D02*
X+3726283Y-309000D01*
X+3726283Y-387740D01*
X+3588488Y-387740D01*
X+3588488Y-309000D01*
X+3657386Y-368055D02*
X+3657386Y-328685D01*
X+3677071Y-348370D02*
X+3637701Y-348370D01*
D60*
X+3621953Y-348370D02*
X+3621953Y-348370D01*
D61*
X+3704474Y-352666D02*
X+3706891Y-354813D01*
X+3714139Y-354813D01*
X+3718972Y-350518D01*
X+3718972Y-346222D01*
X+3714139Y-341926D01*
X+3706891Y-341926D01*
X+3704474Y-344074D01*
X+3685143Y-344074D02*
X+3687560Y-341926D01*
X+3694808Y-341926D01*
X+3697225Y-344074D01*
X+3697225Y-352666D01*
X+3694808Y-354813D01*
X+3687560Y-354813D01*
X+3685143Y-352666D01*
X+3685143Y-350518D01*
X+3687560Y-348370D01*
X+3697225Y-348370D01*
X+3680311Y-352666D02*
X+3680311Y-344074D01*
X+3677895Y-341926D01*
X+3668230Y-341926D01*
X+3665813Y-344074D01*
X+3665813Y-352666D01*
X+3668230Y-354813D01*
X+3677895Y-354813D01*
X+3680311Y-352666D01*
X+3680311Y-354813D02*
X+3665813Y-341926D01*
X+3646482Y-341926D02*
X+3658564Y-341926D01*
X+3658564Y-346222D01*
X+3648899Y-346222D01*
X+3646482Y-348370D01*
X+3646482Y-352666D01*
X+3648899Y-354813D01*
X+3656147Y-354813D01*
X+3658564Y-352666D01*
D59*
X+3726283Y-269630D02*
X+3588488Y-269630D01*
X+3588488Y-190890D01*
X+3726283Y-190890D01*
X+3726283Y-269630D01*
X+3657386Y-210575D02*
X+3657386Y-249945D01*
X+3637701Y-230260D02*
X+3677071Y-230260D01*
D60*
X+3692819Y-230260D02*
X+3692819Y-230260D01*
D61*
X+3658625Y-234556D02*
X+3661042Y-236703D01*
X+3668290Y-236703D01*
X+3673123Y-232408D01*
X+3673123Y-228112D01*
X+3668290Y-223816D01*
X+3661042Y-223816D01*
X+3658625Y-225964D01*
X+3639294Y-225964D02*
X+3641711Y-223816D01*
X+3648959Y-223816D01*
X+3651376Y-225964D01*
X+3651376Y-234556D01*
X+3648959Y-236703D01*
X+3641711Y-236703D01*
X+3639294Y-234556D01*
X+3639294Y-232408D01*
X+3641711Y-230260D01*
X+3651376Y-230260D01*
X+3634462Y-234556D02*
X+3634462Y-225964D01*
X+3632046Y-223816D01*
X+3622381Y-223816D01*
X+3619964Y-225964D01*
X+3619964Y-234556D01*
X+3622381Y-236703D01*
X+3632046Y-236703D01*
X+3634462Y-234556D01*
X+3634462Y-236703D02*
X+3619964Y-223816D01*
X+3600633Y-232408D02*
X+3615131Y-232408D01*
X+3605466Y-223816D01*
X+3605466Y-236703D01*
D59*
X+3513685Y+84701D02*
X+3375890Y+84701D01*
X+3375890Y+163441D01*
X+3513685Y+163441D01*
X+3513685Y+84701D01*
X+3444787Y+143756D02*
X+3444787Y+104386D01*
X+3425102Y+124071D02*
X+3464472Y+124071D01*
D60*
X+3484157Y+124071D02*
X+3484157Y+124071D01*
D62*
X+3464265Y+117332D02*
X+3464265Y+130809D01*
X+3451630Y+130809D01*
X+3449103Y+128563D01*
X+3449103Y+126317D01*
X+3451630Y+124070D01*
X+3464265Y+124070D01*
X+3451630Y+124070D02*
X+3449103Y+121824D01*
X+3449103Y+117332D01*
X+3428886Y+128563D02*
X+3431413Y+130809D01*
X+3438994Y+130809D01*
X+3441521Y+128563D01*
X+3441521Y+119578D01*
X+3438994Y+117332D01*
X+3431413Y+117332D01*
X+3428886Y+119578D01*
X+3428886Y+121824D01*
X+3431413Y+124070D01*
X+3441521Y+124070D01*
X+3423832Y+119578D02*
X+3423832Y+128563D01*
X+3421305Y+130809D01*
X+3411197Y+130809D01*
X+3408670Y+128563D01*
X+3408670Y+119578D01*
X+3411197Y+117332D01*
X+3421305Y+117332D01*
X+3423832Y+119578D01*
X+3423832Y+117332D02*
X+3408670Y+130809D01*
X+3398561Y+126317D02*
X+3393507Y+130809D01*
X+3393507Y+117332D01*
D59*
X+3513685Y-33409D02*
X+3375890Y-33409D01*
X+3375890Y+45331D01*
X+3513685Y+45331D01*
X+3513685Y-33409D01*
X+3444787Y+25646D02*
X+3444787Y-13724D01*
X+3425102Y+5961D02*
X+3464472Y+5961D01*
D60*
X+3484157Y+5961D02*
X+3484157Y+5961D01*
D62*
X+3464265Y-778D02*
X+3464265Y+12699D01*
X+3451630Y+12699D01*
X+3449103Y+10453D01*
X+3449103Y+8207D01*
X+3451630Y+5960D01*
X+3464265Y+5960D01*
X+3451630Y+5960D02*
X+3449103Y+3714D01*
X+3449103Y-778D01*
X+3428886Y+10453D02*
X+3431413Y+12699D01*
X+3438994Y+12699D01*
X+3441521Y+10453D01*
X+3441521Y+1468D01*
X+3438994Y-778D01*
X+3431413Y-778D01*
X+3428886Y+1468D01*
X+3428886Y+3714D01*
X+3431413Y+5960D01*
X+3441521Y+5960D01*
X+3423832Y+1468D02*
X+3423832Y+10453D01*
X+3421305Y+12699D01*
X+3411197Y+12699D01*
X+3408670Y+10453D01*
X+3408670Y+1468D01*
X+3411197Y-778D01*
X+3421305Y-778D01*
X+3423832Y+1468D01*
X+3423832Y-778D02*
X+3408670Y+12699D01*
X+3401088Y+10453D02*
X+3398561Y+12699D01*
X+3390980Y+12699D01*
X+3388453Y+10453D01*
X+3388453Y+8207D01*
X+3390980Y+5960D01*
X+3398561Y+5960D01*
X+3401088Y+3714D01*
X+3401088Y-778D01*
X+3388453Y-778D01*
D30*
X+3356528Y-475260D02*
X+3540528Y-475260D01*
X+3540528Y-190260D01*
X+3356528Y-190260D01*
X+3356528Y-475260D01*
D63*
X+3373528Y-230260D02*
X+3373528Y-230260D01*
D64*
X+3441877Y-208110D02*
X+3476502Y-208110D01*
X+3483427Y-215901D01*
X+3483427Y-247063D01*
X+3476502Y-254853D01*
X+3441877Y-254853D01*
X+3448802Y-317178D02*
X+3441877Y-309388D01*
X+3441877Y-286016D01*
X+3448802Y-278226D01*
X+3476502Y-278226D01*
X+3483427Y-286016D01*
X+3483427Y-309388D01*
X+3476502Y-317178D01*
X+3469577Y-317178D01*
X+3462652Y-309388D01*
X+3462652Y-278226D01*
X+3476502Y-332760D02*
X+3448802Y-332760D01*
X+3441877Y-340551D01*
X+3441877Y-371713D01*
X+3448802Y-379503D01*
X+3476502Y-379503D01*
X+3483427Y-371713D01*
X+3483427Y-340551D01*
X+3476502Y-332760D01*
X+3483427Y-332760D02*
X+3441877Y-379503D01*
X+3455727Y-410665D02*
X+3441877Y-426246D01*
X+3483427Y-426246D01*
D59*
X+3588488Y-72780D02*
X+3726283Y-72780D01*
X+3726283Y-151520D01*
X+3588488Y-151520D01*
X+3588488Y-72780D01*
X+3657386Y-131835D02*
X+3657386Y-92465D01*
X+3677071Y-112150D02*
X+3637701Y-112150D01*
D60*
X+3621953Y-112150D02*
X+3621953Y-112150D01*
D61*
X+3704474Y-116446D02*
X+3706891Y-118593D01*
X+3714139Y-118593D01*
X+3718972Y-114298D01*
X+3718972Y-110002D01*
X+3714139Y-105706D01*
X+3706891Y-105706D01*
X+3704474Y-107854D01*
X+3685143Y-107854D02*
X+3687560Y-105706D01*
X+3694808Y-105706D01*
X+3697225Y-107854D01*
X+3697225Y-116446D01*
X+3694808Y-118593D01*
X+3687560Y-118593D01*
X+3685143Y-116446D01*
X+3685143Y-114298D01*
X+3687560Y-112150D01*
X+3697225Y-112150D01*
X+3680311Y-116446D02*
X+3680311Y-107854D01*
X+3677895Y-105706D01*
X+3668230Y-105706D01*
X+3665813Y-107854D01*
X+3665813Y-116446D01*
X+3668230Y-118593D01*
X+3677895Y-118593D01*
X+3680311Y-116446D01*
X+3680311Y-118593D02*
X+3665813Y-105706D01*
X+3658564Y-107854D02*
X+3656147Y-105706D01*
X+3648899Y-105706D01*
X+3646482Y-107854D01*
X+3646482Y-110002D01*
X+3648899Y-112150D01*
X+3646482Y-114298D01*
X+3646482Y-116446D01*
X+3648899Y-118593D01*
X+3656147Y-118593D01*
X+3658564Y-116446D01*
X+3653731Y-112150D02*
X+3648899Y-112150D01*
D59*
X+2919197Y+163441D02*
X+3056992Y+163441D01*
X+3056992Y+84701D01*
X+2919197Y+84701D01*
X+2919197Y+163441D01*
X+2988094Y+104386D02*
X+2988094Y+143756D01*
X+3007780Y+124071D02*
X+2968409Y+124071D01*
D60*
X+2952661Y+124071D02*
X+2952661Y+124071D01*
D61*
X+3035182Y+119774D02*
X+3037599Y+117627D01*
X+3044847Y+117627D01*
X+3049680Y+121922D01*
X+3049680Y+126218D01*
X+3044847Y+130514D01*
X+3037599Y+130514D01*
X+3035182Y+128366D01*
X+3015851Y+130514D02*
X+3027933Y+130514D01*
X+3027933Y+126218D01*
X+3018268Y+126218D01*
X+3015851Y+124070D01*
X+3015851Y+119774D01*
X+3018268Y+117627D01*
X+3025516Y+117627D01*
X+3027933Y+119774D01*
X+3011019Y+119774D02*
X+3011019Y+128366D01*
X+3008603Y+130514D01*
X+2998938Y+130514D01*
X+2996521Y+128366D01*
X+2996521Y+119774D01*
X+2998938Y+117627D01*
X+3008603Y+117627D01*
X+3011019Y+119774D01*
X+3011019Y+117627D02*
X+2996521Y+130514D01*
X+2986855Y+126218D02*
X+2982023Y+130514D01*
X+2982023Y+117627D01*
D59*
X+2848331Y-151520D02*
X+2710535Y-151520D01*
X+2710535Y-72780D01*
X+2848331Y-72780D01*
X+2848331Y-151520D01*
X+2779433Y-92465D02*
X+2779433Y-131835D01*
X+2759748Y-112150D02*
X+2799118Y-112150D01*
D60*
X+2814866Y-112150D02*
X+2814866Y-112150D01*
D61*
X+2780672Y-116446D02*
X+2783089Y-118593D01*
X+2790337Y-118593D01*
X+2795170Y-114298D01*
X+2795170Y-110002D01*
X+2790337Y-105706D01*
X+2783089Y-105706D01*
X+2780672Y-107854D01*
X+2761341Y-105706D02*
X+2773423Y-105706D01*
X+2773423Y-110002D01*
X+2763758Y-110002D01*
X+2761341Y-112150D01*
X+2761341Y-116446D01*
X+2763758Y-118593D01*
X+2771006Y-118593D01*
X+2773423Y-116446D01*
X+2756509Y-116446D02*
X+2756509Y-107854D01*
X+2754093Y-105706D01*
X+2744428Y-105706D01*
X+2742011Y-107854D01*
X+2742011Y-116446D01*
X+2744428Y-118593D01*
X+2754093Y-118593D01*
X+2756509Y-116446D01*
X+2756509Y-118593D02*
X+2742011Y-105706D01*
X+2734762Y-105706D02*
X+2722680Y-105706D01*
X+2722680Y-107854D01*
X+2734762Y-118593D01*
D59*
X+2919197Y+45331D02*
X+3056992Y+45331D01*
X+3056992Y-33409D01*
X+2919197Y-33409D01*
X+2919197Y+45331D01*
X+2988094Y-13724D02*
X+2988094Y+25646D01*
X+3007780Y+5961D02*
X+2968409Y+5961D01*
D60*
X+2952661Y+5961D02*
X+2952661Y+5961D01*
D61*
X+3035182Y+1664D02*
X+3037599Y-483D01*
X+3044847Y-483D01*
X+3049680Y+3812D01*
X+3049680Y+8108D01*
X+3044847Y+12404D01*
X+3037599Y+12404D01*
X+3035182Y+10256D01*
X+3015851Y+12404D02*
X+3027933Y+12404D01*
X+3027933Y+8108D01*
X+3018268Y+8108D01*
X+3015851Y+5960D01*
X+3015851Y+1664D01*
X+3018268Y-483D01*
X+3025516Y-483D01*
X+3027933Y+1664D01*
X+3011019Y+1664D02*
X+3011019Y+10256D01*
X+3008603Y+12404D01*
X+2998938Y+12404D01*
X+2996521Y+10256D01*
X+2996521Y+1664D01*
X+2998938Y-483D01*
X+3008603Y-483D01*
X+3011019Y+1664D01*
X+3011019Y-483D02*
X+2996521Y+12404D01*
X+2989272Y+10256D02*
X+2986855Y+12404D01*
X+2979607Y+12404D01*
X+2977190Y+10256D01*
X+2977190Y+8108D01*
X+2979607Y+5960D01*
X+2986855Y+5960D01*
X+2989272Y+3812D01*
X+2989272Y-483D01*
X+2977190Y-483D01*
D59*
X+2919197Y-427110D02*
X+3056992Y-427110D01*
X+3056992Y-505850D01*
X+2919197Y-505850D01*
X+2919197Y-427110D01*
X+2988094Y-486165D02*
X+2988094Y-446795D01*
X+3007780Y-466480D02*
X+2968409Y-466480D01*
D60*
X+2952661Y-466480D02*
X+2952661Y-466480D01*
D61*
X+3035182Y-470777D02*
X+3037599Y-472924D01*
X+3044847Y-472924D01*
X+3049680Y-468629D01*
X+3049680Y-464333D01*
X+3044847Y-460037D01*
X+3037599Y-460037D01*
X+3035182Y-462185D01*
X+3015851Y-460037D02*
X+3027933Y-460037D01*
X+3027933Y-464333D01*
X+3018268Y-464333D01*
X+3015851Y-466481D01*
X+3015851Y-470777D01*
X+3018268Y-472924D01*
X+3025516Y-472924D01*
X+3027933Y-470777D01*
X+3011019Y-470777D02*
X+3011019Y-462185D01*
X+3008603Y-460037D01*
X+2998938Y-460037D01*
X+2996521Y-462185D01*
X+2996521Y-470777D01*
X+2998938Y-472924D01*
X+3008603Y-472924D01*
X+3011019Y-470777D01*
X+3011019Y-472924D02*
X+2996521Y-460037D01*
X+2977190Y-462185D02*
X+2979607Y-460037D01*
X+2986855Y-460037D01*
X+2989272Y-462185D01*
X+2989272Y-470777D01*
X+2986855Y-472924D01*
X+2979607Y-472924D01*
X+2977190Y-470777D01*
X+2977190Y-468629D01*
X+2979607Y-466481D01*
X+2989272Y-466481D01*
D59*
X+2919197Y-309000D02*
X+3056992Y-309000D01*
X+3056992Y-387740D01*
X+2919197Y-387740D01*
X+2919197Y-309000D01*
X+2988094Y-368055D02*
X+2988094Y-328685D01*
X+3007780Y-348370D02*
X+2968409Y-348370D01*
D60*
X+2952661Y-348370D02*
X+2952661Y-348370D01*
D61*
X+3035182Y-352666D02*
X+3037599Y-354813D01*
X+3044847Y-354813D01*
X+3049680Y-350518D01*
X+3049680Y-346222D01*
X+3044847Y-341926D01*
X+3037599Y-341926D01*
X+3035182Y-344074D01*
X+3015851Y-341926D02*
X+3027933Y-341926D01*
X+3027933Y-346222D01*
X+3018268Y-346222D01*
X+3015851Y-348370D01*
X+3015851Y-352666D01*
X+3018268Y-354813D01*
X+3025516Y-354813D01*
X+3027933Y-352666D01*
X+3011019Y-352666D02*
X+3011019Y-344074D01*
X+3008603Y-341926D01*
X+2998938Y-341926D01*
X+2996521Y-344074D01*
X+2996521Y-352666D01*
X+2998938Y-354813D01*
X+3008603Y-354813D01*
X+3011019Y-352666D01*
X+3011019Y-354813D02*
X+2996521Y-341926D01*
X+2977190Y-341926D02*
X+2989272Y-341926D01*
X+2989272Y-346222D01*
X+2979607Y-346222D01*
X+2977190Y-348370D01*
X+2977190Y-352666D01*
X+2979607Y-354813D01*
X+2986855Y-354813D01*
X+2989272Y-352666D01*
D59*
X+3056992Y-269630D02*
X+2919197Y-269630D01*
X+2919197Y-190890D01*
X+3056992Y-190890D01*
X+3056992Y-269630D01*
X+2988094Y-210575D02*
X+2988094Y-249945D01*
X+2968409Y-230260D02*
X+3007780Y-230260D01*
D60*
X+3023528Y-230260D02*
X+3023528Y-230260D01*
D61*
X+2989333Y-234556D02*
X+2991750Y-236703D01*
X+2998998Y-236703D01*
X+3003831Y-232408D01*
X+3003831Y-228112D01*
X+2998998Y-223816D01*
X+2991750Y-223816D01*
X+2989333Y-225964D01*
X+2970002Y-223816D02*
X+2982084Y-223816D01*
X+2982084Y-228112D01*
X+2972419Y-228112D01*
X+2970002Y-230260D01*
X+2970002Y-234556D01*
X+2972419Y-236703D01*
X+2979667Y-236703D01*
X+2982084Y-234556D01*
X+2965170Y-234556D02*
X+2965170Y-225964D01*
X+2962754Y-223816D01*
X+2953089Y-223816D01*
X+2950672Y-225964D01*
X+2950672Y-234556D01*
X+2953089Y-236703D01*
X+2962754Y-236703D01*
X+2965170Y-234556D01*
X+2965170Y-236703D02*
X+2950672Y-223816D01*
X+2931341Y-232408D02*
X+2945839Y-232408D01*
X+2936174Y-223816D01*
X+2936174Y-236703D01*
D59*
X+2844394Y+84701D02*
X+2706598Y+84701D01*
X+2706598Y+163441D01*
X+2844394Y+163441D01*
X+2844394Y+84701D01*
X+2775496Y+143756D02*
X+2775496Y+104386D01*
X+2755811Y+124071D02*
X+2795181Y+124071D01*
D60*
X+2814866Y+124071D02*
X+2814866Y+124071D01*
D62*
X+2794973Y+117332D02*
X+2794973Y+130809D01*
X+2782338Y+130809D01*
X+2779811Y+128563D01*
X+2779811Y+126317D01*
X+2782338Y+124070D01*
X+2794973Y+124070D01*
X+2782338Y+124070D02*
X+2779811Y+121824D01*
X+2779811Y+117332D01*
X+2759594Y+130809D02*
X+2772229Y+130809D01*
X+2772229Y+126317D01*
X+2762121Y+126317D01*
X+2759594Y+124070D01*
X+2759594Y+119578D01*
X+2762121Y+117332D01*
X+2769702Y+117332D01*
X+2772229Y+119578D01*
X+2754540Y+119578D02*
X+2754540Y+128563D01*
X+2752013Y+130809D01*
X+2741905Y+130809D01*
X+2739378Y+128563D01*
X+2739378Y+119578D01*
X+2741905Y+117332D01*
X+2752013Y+117332D01*
X+2754540Y+119578D01*
X+2754540Y+117332D02*
X+2739378Y+130809D01*
X+2729269Y+126317D02*
X+2724215Y+130809D01*
X+2724215Y+117332D01*
D59*
X+2844394Y-33409D02*
X+2706598Y-33409D01*
X+2706598Y+45331D01*
X+2844394Y+45331D01*
X+2844394Y-33409D01*
X+2775496Y+25646D02*
X+2775496Y-13724D01*
X+2755811Y+5961D02*
X+2795181Y+5961D01*
D60*
X+2814866Y+5961D02*
X+2814866Y+5961D01*
D62*
X+2794973Y-778D02*
X+2794973Y+12699D01*
X+2782338Y+12699D01*
X+2779811Y+10453D01*
X+2779811Y+8207D01*
X+2782338Y+5960D01*
X+2794973Y+5960D01*
X+2782338Y+5960D02*
X+2779811Y+3714D01*
X+2779811Y-778D01*
X+2759594Y+12699D02*
X+2772229Y+12699D01*
X+2772229Y+8207D01*
X+2762121Y+8207D01*
X+2759594Y+5960D01*
X+2759594Y+1468D01*
X+2762121Y-778D01*
X+2769702Y-778D01*
X+2772229Y+1468D01*
X+2754540Y+1468D02*
X+2754540Y+10453D01*
X+2752013Y+12699D01*
X+2741905Y+12699D01*
X+2739378Y+10453D01*
X+2739378Y+1468D01*
X+2741905Y-778D01*
X+2752013Y-778D01*
X+2754540Y+1468D01*
X+2754540Y-778D02*
X+2739378Y+12699D01*
X+2731796Y+10453D02*
X+2729269Y+12699D01*
X+2721688Y+12699D01*
X+2719161Y+10453D01*
X+2719161Y+8207D01*
X+2721688Y+5960D01*
X+2729269Y+5960D01*
X+2731796Y+3714D01*
X+2731796Y-778D01*
X+2719161Y-778D01*
D30*
X+2687236Y-475260D02*
X+2871236Y-475260D01*
X+2871236Y-190260D01*
X+2687236Y-190260D01*
X+2687236Y-475260D01*
D63*
X+2704236Y-230260D02*
X+2704236Y-230260D01*
D64*
X+2772586Y-208110D02*
X+2807211Y-208110D01*
X+2814136Y-215901D01*
X+2814136Y-247063D01*
X+2807211Y-254853D01*
X+2772586Y-254853D01*
X+2772586Y-317178D02*
X+2772586Y-278226D01*
X+2786436Y-278226D01*
X+2786436Y-309388D01*
X+2793361Y-317178D01*
X+2807211Y-317178D01*
X+2814136Y-309388D01*
X+2814136Y-286016D01*
X+2807211Y-278226D01*
X+2807211Y-332760D02*
X+2779511Y-332760D01*
X+2772586Y-340551D01*
X+2772586Y-371713D01*
X+2779511Y-379503D01*
X+2807211Y-379503D01*
X+2814136Y-371713D01*
X+2814136Y-340551D01*
X+2807211Y-332760D01*
X+2814136Y-332760D02*
X+2772586Y-379503D01*
X+2786436Y-410665D02*
X+2772586Y-426246D01*
X+2814136Y-426246D01*
D59*
X+2919197Y-72780D02*
X+3056992Y-72780D01*
X+3056992Y-151520D01*
X+2919197Y-151520D01*
X+2919197Y-72780D01*
X+2988094Y-131835D02*
X+2988094Y-92465D01*
X+3007780Y-112150D02*
X+2968409Y-112150D01*
D60*
X+2952661Y-112150D02*
X+2952661Y-112150D01*
D61*
X+3035182Y-116446D02*
X+3037599Y-118593D01*
X+3044847Y-118593D01*
X+3049680Y-114298D01*
X+3049680Y-110002D01*
X+3044847Y-105706D01*
X+3037599Y-105706D01*
X+3035182Y-107854D01*
X+3015851Y-105706D02*
X+3027933Y-105706D01*
X+3027933Y-110002D01*
X+3018268Y-110002D01*
X+3015851Y-112150D01*
X+3015851Y-116446D01*
X+3018268Y-118593D01*
X+3025516Y-118593D01*
X+3027933Y-116446D01*
X+3011019Y-116446D02*
X+3011019Y-107854D01*
X+3008603Y-105706D01*
X+2998938Y-105706D01*
X+2996521Y-107854D01*
X+2996521Y-116446D01*
X+2998938Y-118593D01*
X+3008603Y-118593D01*
X+3011019Y-116446D01*
X+3011019Y-118593D02*
X+2996521Y-105706D01*
X+2989272Y-107854D02*
X+2986855Y-105706D01*
X+2979607Y-105706D01*
X+2977190Y-107854D01*
X+2977190Y-110002D01*
X+2979607Y-112150D01*
X+2977190Y-114298D01*
X+2977190Y-116446D01*
X+2979607Y-118593D01*
X+2986855Y-118593D01*
X+2989272Y-116446D01*
X+2984439Y-112150D02*
X+2979607Y-112150D01*
D59*
X+2249906Y+163441D02*
X+2387701Y+163441D01*
X+2387701Y+84701D01*
X+2249906Y+84701D01*
X+2249906Y+163441D01*
X+2318803Y+104386D02*
X+2318803Y+143756D01*
X+2338488Y+124071D02*
X+2299118Y+124071D01*
D60*
X+2283370Y+124071D02*
X+2283370Y+124071D01*
D61*
X+2365891Y+119774D02*
X+2368308Y+117627D01*
X+2375556Y+117627D01*
X+2380389Y+121922D01*
X+2380389Y+126218D01*
X+2375556Y+130514D01*
X+2368308Y+130514D01*
X+2365891Y+128366D01*
X+2346560Y+121922D02*
X+2361058Y+121922D01*
X+2351393Y+130514D01*
X+2351393Y+117627D01*
X+2341728Y+119774D02*
X+2341728Y+128366D01*
X+2339312Y+130514D01*
X+2329647Y+130514D01*
X+2327230Y+128366D01*
X+2327230Y+119774D01*
X+2329647Y+117627D01*
X+2339312Y+117627D01*
X+2341728Y+119774D01*
X+2341728Y+117627D02*
X+2327230Y+130514D01*
X+2317564Y+126218D02*
X+2312732Y+130514D01*
X+2312732Y+117627D01*
D59*
X+2179039Y-151520D02*
X+2041244Y-151520D01*
X+2041244Y-72780D01*
X+2179039Y-72780D01*
X+2179039Y-151520D01*
X+2110142Y-92465D02*
X+2110142Y-131835D01*
X+2090457Y-112150D02*
X+2129827Y-112150D01*
D60*
X+2145575Y-112150D02*
X+2145575Y-112150D01*
D61*
X+2111381Y-116446D02*
X+2113798Y-118593D01*
X+2121046Y-118593D01*
X+2125879Y-114298D01*
X+2125879Y-110002D01*
X+2121046Y-105706D01*
X+2113798Y-105706D01*
X+2111381Y-107854D01*
X+2092050Y-114298D02*
X+2106548Y-114298D01*
X+2096883Y-105706D01*
X+2096883Y-118593D01*
X+2087218Y-116446D02*
X+2087218Y-107854D01*
X+2084802Y-105706D01*
X+2075137Y-105706D01*
X+2072720Y-107854D01*
X+2072720Y-116446D01*
X+2075137Y-118593D01*
X+2084802Y-118593D01*
X+2087218Y-116446D01*
X+2087218Y-118593D02*
X+2072720Y-105706D01*
X+2065471Y-105706D02*
X+2053389Y-105706D01*
X+2053389Y-107854D01*
X+2065471Y-118593D01*
D59*
X+2249906Y+45331D02*
X+2387701Y+45331D01*
X+2387701Y-33409D01*
X+2249906Y-33409D01*
X+2249906Y+45331D01*
X+2318803Y-13724D02*
X+2318803Y+25646D01*
X+2338488Y+5961D02*
X+2299118Y+5961D01*
D60*
X+2283370Y+5961D02*
X+2283370Y+5961D01*
D61*
X+2365891Y+1664D02*
X+2368308Y-483D01*
X+2375556Y-483D01*
X+2380389Y+3812D01*
X+2380389Y+8108D01*
X+2375556Y+12404D01*
X+2368308Y+12404D01*
X+2365891Y+10256D01*
X+2346560Y+3812D02*
X+2361058Y+3812D01*
X+2351393Y+12404D01*
X+2351393Y-483D01*
X+2341728Y+1664D02*
X+2341728Y+10256D01*
X+2339312Y+12404D01*
X+2329647Y+12404D01*
X+2327230Y+10256D01*
X+2327230Y+1664D01*
X+2329647Y-483D01*
X+2339312Y-483D01*
X+2341728Y+1664D01*
X+2341728Y-483D02*
X+2327230Y+12404D01*
X+2319981Y+10256D02*
X+2317564Y+12404D01*
X+2310316Y+12404D01*
X+2307899Y+10256D01*
X+2307899Y+8108D01*
X+2310316Y+5960D01*
X+2317564Y+5960D01*
X+2319981Y+3812D01*
X+2319981Y-483D01*
X+2307899Y-483D01*
D59*
X+2249906Y-427110D02*
X+2387701Y-427110D01*
X+2387701Y-505850D01*
X+2249906Y-505850D01*
X+2249906Y-427110D01*
X+2318803Y-486165D02*
X+2318803Y-446795D01*
X+2338488Y-466480D02*
X+2299118Y-466480D01*
D60*
X+2283370Y-466480D02*
X+2283370Y-466480D01*
D61*
X+2365891Y-470777D02*
X+2368308Y-472924D01*
X+2375556Y-472924D01*
X+2380389Y-468629D01*
X+2380389Y-464333D01*
X+2375556Y-460037D01*
X+2368308Y-460037D01*
X+2365891Y-462185D01*
X+2346560Y-468629D02*
X+2361058Y-468629D01*
X+2351393Y-460037D01*
X+2351393Y-472924D01*
X+2341728Y-470777D02*
X+2341728Y-462185D01*
X+2339312Y-460037D01*
X+2329647Y-460037D01*
X+2327230Y-462185D01*
X+2327230Y-470777D01*
X+2329647Y-472924D01*
X+2339312Y-472924D01*
X+2341728Y-470777D01*
X+2341728Y-472924D02*
X+2327230Y-460037D01*
X+2307899Y-462185D02*
X+2310316Y-460037D01*
X+2317564Y-460037D01*
X+2319981Y-462185D01*
X+2319981Y-470777D01*
X+2317564Y-472924D01*
X+2310316Y-472924D01*
X+2307899Y-470777D01*
X+2307899Y-468629D01*
X+2310316Y-466481D01*
X+2319981Y-466481D01*
D59*
X+2249906Y-309000D02*
X+2387701Y-309000D01*
X+2387701Y-387740D01*
X+2249906Y-387740D01*
X+2249906Y-309000D01*
X+2318803Y-368055D02*
X+2318803Y-328685D01*
X+2338488Y-348370D02*
X+2299118Y-348370D01*
D60*
X+2283370Y-348370D02*
X+2283370Y-348370D01*
D61*
X+2365891Y-352666D02*
X+2368308Y-354813D01*
X+2375556Y-354813D01*
X+2380389Y-350518D01*
X+2380389Y-346222D01*
X+2375556Y-341926D01*
X+2368308Y-341926D01*
X+2365891Y-344074D01*
X+2346560Y-350518D02*
X+2361058Y-350518D01*
X+2351393Y-341926D01*
X+2351393Y-354813D01*
X+2341728Y-352666D02*
X+2341728Y-344074D01*
X+2339312Y-341926D01*
X+2329647Y-341926D01*
X+2327230Y-344074D01*
X+2327230Y-352666D01*
X+2329647Y-354813D01*
X+2339312Y-354813D01*
X+2341728Y-352666D01*
X+2341728Y-354813D02*
X+2327230Y-341926D01*
X+2307899Y-341926D02*
X+2319981Y-341926D01*
X+2319981Y-346222D01*
X+2310316Y-346222D01*
X+2307899Y-348370D01*
X+2307899Y-352666D01*
X+2310316Y-354813D01*
X+2317564Y-354813D01*
X+2319981Y-352666D01*
D59*
X+2387701Y-269630D02*
X+2249906Y-269630D01*
X+2249906Y-190890D01*
X+2387701Y-190890D01*
X+2387701Y-269630D01*
X+2318803Y-210575D02*
X+2318803Y-249945D01*
X+2299118Y-230260D02*
X+2338488Y-230260D01*
D60*
X+2354236Y-230260D02*
X+2354236Y-230260D01*
D61*
X+2320042Y-234556D02*
X+2322459Y-236703D01*
X+2329707Y-236703D01*
X+2334540Y-232408D01*
X+2334540Y-228112D01*
X+2329707Y-223816D01*
X+2322459Y-223816D01*
X+2320042Y-225964D01*
X+2300711Y-232408D02*
X+2315209Y-232408D01*
X+2305544Y-223816D01*
X+2305544Y-236703D01*
X+2295879Y-234556D02*
X+2295879Y-225964D01*
X+2293463Y-223816D01*
X+2283798Y-223816D01*
X+2281381Y-225964D01*
X+2281381Y-234556D01*
X+2283798Y-236703D01*
X+2293463Y-236703D01*
X+2295879Y-234556D01*
X+2295879Y-236703D02*
X+2281381Y-223816D01*
X+2262050Y-232408D02*
X+2276548Y-232408D01*
X+2266883Y-223816D01*
X+2266883Y-236703D01*
D59*
X+2175102Y+84701D02*
X+2037307Y+84701D01*
X+2037307Y+163441D01*
X+2175102Y+163441D01*
X+2175102Y+84701D01*
X+2106205Y+143756D02*
X+2106205Y+104386D01*
X+2086520Y+124071D02*
X+2125890Y+124071D01*
D60*
X+2145575Y+124071D02*
X+2145575Y+124071D01*
D62*
X+2125682Y+117332D02*
X+2125682Y+130809D01*
X+2113047Y+130809D01*
X+2110520Y+128563D01*
X+2110520Y+126317D01*
X+2113047Y+124070D01*
X+2125682Y+124070D01*
X+2113047Y+124070D02*
X+2110520Y+121824D01*
X+2110520Y+117332D01*
X+2090303Y+121824D02*
X+2105465Y+121824D01*
X+2095357Y+130809D01*
X+2095357Y+117332D01*
X+2085249Y+119578D02*
X+2085249Y+128563D01*
X+2082722Y+130809D01*
X+2072614Y+130809D01*
X+2070087Y+128563D01*
X+2070087Y+119578D01*
X+2072614Y+117332D01*
X+2082722Y+117332D01*
X+2085249Y+119578D01*
X+2085249Y+117332D02*
X+2070087Y+130809D01*
X+2059978Y+126317D02*
X+2054924Y+130809D01*
X+2054924Y+117332D01*
D59*
X+2175102Y-33409D02*
X+2037307Y-33409D01*
X+2037307Y+45331D01*
X+2175102Y+45331D01*
X+2175102Y-33409D01*
X+2106205Y+25646D02*
X+2106205Y-13724D01*
X+2086520Y+5961D02*
X+2125890Y+5961D01*
D60*
X+2145575Y+5961D02*
X+2145575Y+5961D01*
D62*
X+2125682Y-778D02*
X+2125682Y+12699D01*
X+2113047Y+12699D01*
X+2110520Y+10453D01*
X+2110520Y+8207D01*
X+2113047Y+5960D01*
X+2125682Y+5960D01*
X+2113047Y+5960D02*
X+2110520Y+3714D01*
X+2110520Y-778D01*
X+2090303Y+3714D02*
X+2105465Y+3714D01*
X+2095357Y+12699D01*
X+2095357Y-778D01*
X+2085249Y+1468D02*
X+2085249Y+10453D01*
X+2082722Y+12699D01*
X+2072614Y+12699D01*
X+2070087Y+10453D01*
X+2070087Y+1468D01*
X+2072614Y-778D01*
X+2082722Y-778D01*
X+2085249Y+1468D01*
X+2085249Y-778D02*
X+2070087Y+12699D01*
X+2062505Y+10453D02*
X+2059978Y+12699D01*
X+2052397Y+12699D01*
X+2049870Y+10453D01*
X+2049870Y+8207D01*
X+2052397Y+5960D01*
X+2059978Y+5960D01*
X+2062505Y+3714D01*
X+2062505Y-778D01*
X+2049870Y-778D01*
D30*
X+2017945Y-475260D02*
X+2201945Y-475260D01*
X+2201945Y-190260D01*
X+2017945Y-190260D01*
X+2017945Y-475260D01*
D63*
X+2034945Y-230260D02*
X+2034945Y-230260D01*
D64*
X+2103294Y-208110D02*
X+2137919Y-208110D01*
X+2144844Y-215901D01*
X+2144844Y-247063D01*
X+2137919Y-254853D01*
X+2103294Y-254853D01*
X+2130994Y-317178D02*
X+2130994Y-270435D01*
X+2103294Y-301597D01*
X+2144844Y-301597D01*
X+2137919Y-332760D02*
X+2110219Y-332760D01*
X+2103294Y-340551D01*
X+2103294Y-371713D01*
X+2110219Y-379503D01*
X+2137919Y-379503D01*
X+2144844Y-371713D01*
X+2144844Y-340551D01*
X+2137919Y-332760D01*
X+2144844Y-332760D02*
X+2103294Y-379503D01*
X+2117144Y-410665D02*
X+2103294Y-426246D01*
X+2144844Y-426246D01*
D59*
X+2249906Y-72780D02*
X+2387701Y-72780D01*
X+2387701Y-151520D01*
X+2249906Y-151520D01*
X+2249906Y-72780D01*
X+2318803Y-131835D02*
X+2318803Y-92465D01*
X+2338488Y-112150D02*
X+2299118Y-112150D01*
D60*
X+2283370Y-112150D02*
X+2283370Y-112150D01*
D61*
X+2365891Y-116446D02*
X+2368308Y-118593D01*
X+2375556Y-118593D01*
X+2380389Y-114298D01*
X+2380389Y-110002D01*
X+2375556Y-105706D01*
X+2368308Y-105706D01*
X+2365891Y-107854D01*
X+2346560Y-114298D02*
X+2361058Y-114298D01*
X+2351393Y-105706D01*
X+2351393Y-118593D01*
X+2341728Y-116446D02*
X+2341728Y-107854D01*
X+2339312Y-105706D01*
X+2329647Y-105706D01*
X+2327230Y-107854D01*
X+2327230Y-116446D01*
X+2329647Y-118593D01*
X+2339312Y-118593D01*
X+2341728Y-116446D01*
X+2341728Y-118593D02*
X+2327230Y-105706D01*
X+2319981Y-107854D02*
X+2317564Y-105706D01*
X+2310316Y-105706D01*
X+2307899Y-107854D01*
X+2307899Y-110002D01*
X+2310316Y-112150D01*
X+2307899Y-114298D01*
X+2307899Y-116446D01*
X+2310316Y-118593D01*
X+2317564Y-118593D01*
X+2319981Y-116446D01*
X+2315148Y-112150D02*
X+2310316Y-112150D01*
D59*
X+1580614Y+163441D02*
X+1718409Y+163441D01*
X+1718409Y+84701D01*
X+1580614Y+84701D01*
X+1580614Y+163441D01*
X+1649512Y+104386D02*
X+1649512Y+143756D01*
X+1669197Y+124071D02*
X+1629827Y+124071D01*
D60*
X+1614079Y+124071D02*
X+1614079Y+124071D01*
D61*
X+1696600Y+119774D02*
X+1699017Y+117627D01*
X+1706265Y+117627D01*
X+1711098Y+121922D01*
X+1711098Y+126218D01*
X+1706265Y+130514D01*
X+1699017Y+130514D01*
X+1696600Y+128366D01*
X+1689351Y+128366D02*
X+1686934Y+130514D01*
X+1679686Y+130514D01*
X+1677269Y+128366D01*
X+1677269Y+126218D01*
X+1679686Y+124070D01*
X+1677269Y+121922D01*
X+1677269Y+119774D01*
X+1679686Y+117627D01*
X+1686934Y+117627D01*
X+1689351Y+119774D01*
X+1684518Y+124070D02*
X+1679686Y+124070D01*
X+1672437Y+119774D02*
X+1672437Y+128366D01*
X+1670021Y+130514D01*
X+1660356Y+130514D01*
X+1657939Y+128366D01*
X+1657939Y+119774D01*
X+1660356Y+117627D01*
X+1670021Y+117627D01*
X+1672437Y+119774D01*
X+1672437Y+117627D02*
X+1657939Y+130514D01*
X+1648273Y+126218D02*
X+1643441Y+130514D01*
X+1643441Y+117627D01*
D59*
X+1509748Y-151520D02*
X+1371953Y-151520D01*
X+1371953Y-72780D01*
X+1509748Y-72780D01*
X+1509748Y-151520D01*
X+1440850Y-92465D02*
X+1440850Y-131835D01*
X+1421165Y-112150D02*
X+1460535Y-112150D01*
D60*
X+1476283Y-112150D02*
X+1476283Y-112150D01*
D61*
X+1442089Y-116446D02*
X+1444506Y-118593D01*
X+1451754Y-118593D01*
X+1456587Y-114298D01*
X+1456587Y-110002D01*
X+1451754Y-105706D01*
X+1444506Y-105706D01*
X+1442089Y-107854D01*
X+1434840Y-107854D02*
X+1432423Y-105706D01*
X+1425175Y-105706D01*
X+1422758Y-107854D01*
X+1422758Y-110002D01*
X+1425175Y-112150D01*
X+1422758Y-114298D01*
X+1422758Y-116446D01*
X+1425175Y-118593D01*
X+1432423Y-118593D01*
X+1434840Y-116446D01*
X+1430007Y-112150D02*
X+1425175Y-112150D01*
X+1417926Y-116446D02*
X+1417926Y-107854D01*
X+1415510Y-105706D01*
X+1405845Y-105706D01*
X+1403428Y-107854D01*
X+1403428Y-116446D01*
X+1405845Y-118593D01*
X+1415510Y-118593D01*
X+1417926Y-116446D01*
X+1417926Y-118593D02*
X+1403428Y-105706D01*
X+1396179Y-105706D02*
X+1384097Y-105706D01*
X+1384097Y-107854D01*
X+1396179Y-118593D01*
D59*
X+1580614Y+45331D02*
X+1718409Y+45331D01*
X+1718409Y-33409D01*
X+1580614Y-33409D01*
X+1580614Y+45331D01*
X+1649512Y-13724D02*
X+1649512Y+25646D01*
X+1669197Y+5961D02*
X+1629827Y+5961D01*
D60*
X+1614079Y+5961D02*
X+1614079Y+5961D01*
D61*
X+1696600Y+1664D02*
X+1699017Y-483D01*
X+1706265Y-483D01*
X+1711098Y+3812D01*
X+1711098Y+8108D01*
X+1706265Y+12404D01*
X+1699017Y+12404D01*
X+1696600Y+10256D01*
X+1689351Y+10256D02*
X+1686934Y+12404D01*
X+1679686Y+12404D01*
X+1677269Y+10256D01*
X+1677269Y+8108D01*
X+1679686Y+5960D01*
X+1677269Y+3812D01*
X+1677269Y+1664D01*
X+1679686Y-483D01*
X+1686934Y-483D01*
X+1689351Y+1664D01*
X+1684518Y+5960D02*
X+1679686Y+5960D01*
X+1672437Y+1664D02*
X+1672437Y+10256D01*
X+1670021Y+12404D01*
X+1660356Y+12404D01*
X+1657939Y+10256D01*
X+1657939Y+1664D01*
X+1660356Y-483D01*
X+1670021Y-483D01*
X+1672437Y+1664D01*
X+1672437Y-483D02*
X+1657939Y+12404D01*
X+1650690Y+10256D02*
X+1648273Y+12404D01*
X+1641025Y+12404D01*
X+1638608Y+10256D01*
X+1638608Y+8108D01*
X+1641025Y+5960D01*
X+1648273Y+5960D01*
X+1650690Y+3812D01*
X+1650690Y-483D01*
X+1638608Y-483D01*
D59*
X+1580614Y-427110D02*
X+1718409Y-427110D01*
X+1718409Y-505850D01*
X+1580614Y-505850D01*
X+1580614Y-427110D01*
X+1649512Y-486165D02*
X+1649512Y-446795D01*
X+1669197Y-466480D02*
X+1629827Y-466480D01*
D60*
X+1614079Y-466480D02*
X+1614079Y-466480D01*
D61*
X+1696600Y-470777D02*
X+1699017Y-472924D01*
X+1706265Y-472924D01*
X+1711098Y-468629D01*
X+1711098Y-464333D01*
X+1706265Y-460037D01*
X+1699017Y-460037D01*
X+1696600Y-462185D01*
X+1689351Y-462185D02*
X+1686934Y-460037D01*
X+1679686Y-460037D01*
X+1677269Y-462185D01*
X+1677269Y-464333D01*
X+1679686Y-466481D01*
X+1677269Y-468629D01*
X+1677269Y-470777D01*
X+1679686Y-472924D01*
X+1686934Y-472924D01*
X+1689351Y-470777D01*
X+1684518Y-466481D02*
X+1679686Y-466481D01*
X+1672437Y-470777D02*
X+1672437Y-462185D01*
X+1670021Y-460037D01*
X+1660356Y-460037D01*
X+1657939Y-462185D01*
X+1657939Y-470777D01*
X+1660356Y-472924D01*
X+1670021Y-472924D01*
X+1672437Y-470777D01*
X+1672437Y-472924D02*
X+1657939Y-460037D01*
X+1638608Y-462185D02*
X+1641025Y-460037D01*
X+1648273Y-460037D01*
X+1650690Y-462185D01*
X+1650690Y-470777D01*
X+1648273Y-472924D01*
X+1641025Y-472924D01*
X+1638608Y-470777D01*
X+1638608Y-468629D01*
X+1641025Y-466481D01*
X+1650690Y-466481D01*
D59*
X+1580614Y-309000D02*
X+1718409Y-309000D01*
X+1718409Y-387740D01*
X+1580614Y-387740D01*
X+1580614Y-309000D01*
X+1649512Y-368055D02*
X+1649512Y-328685D01*
X+1669197Y-348370D02*
X+1629827Y-348370D01*
D60*
X+1614079Y-348370D02*
X+1614079Y-348370D01*
D61*
X+1696600Y-352666D02*
X+1699017Y-354813D01*
X+1706265Y-354813D01*
X+1711098Y-350518D01*
X+1711098Y-346222D01*
X+1706265Y-341926D01*
X+1699017Y-341926D01*
X+1696600Y-344074D01*
X+1689351Y-344074D02*
X+1686934Y-341926D01*
X+1679686Y-341926D01*
X+1677269Y-344074D01*
X+1677269Y-346222D01*
X+1679686Y-348370D01*
X+1677269Y-350518D01*
X+1677269Y-352666D01*
X+1679686Y-354813D01*
X+1686934Y-354813D01*
X+1689351Y-352666D01*
X+1684518Y-348370D02*
X+1679686Y-348370D01*
X+1672437Y-352666D02*
X+1672437Y-344074D01*
X+1670021Y-341926D01*
X+1660356Y-341926D01*
X+1657939Y-344074D01*
X+1657939Y-352666D01*
X+1660356Y-354813D01*
X+1670021Y-354813D01*
X+1672437Y-352666D01*
X+1672437Y-354813D02*
X+1657939Y-341926D01*
X+1638608Y-341926D02*
X+1650690Y-341926D01*
X+1650690Y-346222D01*
X+1641025Y-346222D01*
X+1638608Y-348370D01*
X+1638608Y-352666D01*
X+1641025Y-354813D01*
X+1648273Y-354813D01*
X+1650690Y-352666D01*
D59*
X+1718409Y-269630D02*
X+1580614Y-269630D01*
X+1580614Y-190890D01*
X+1718409Y-190890D01*
X+1718409Y-269630D01*
X+1649512Y-210575D02*
X+1649512Y-249945D01*
X+1629827Y-230260D02*
X+1669197Y-230260D01*
D60*
X+1684945Y-230260D02*
X+1684945Y-230260D01*
D61*
X+1650751Y-234556D02*
X+1653168Y-236703D01*
X+1660416Y-236703D01*
X+1665249Y-232408D01*
X+1665249Y-228112D01*
X+1660416Y-223816D01*
X+1653168Y-223816D01*
X+1650751Y-225964D01*
X+1643502Y-225964D02*
X+1641085Y-223816D01*
X+1633837Y-223816D01*
X+1631420Y-225964D01*
X+1631420Y-228112D01*
X+1633837Y-230260D01*
X+1631420Y-232408D01*
X+1631420Y-234556D01*
X+1633837Y-236703D01*
X+1641085Y-236703D01*
X+1643502Y-234556D01*
X+1638669Y-230260D02*
X+1633837Y-230260D01*
X+1626588Y-234556D02*
X+1626588Y-225964D01*
X+1624172Y-223816D01*
X+1614507Y-223816D01*
X+1612090Y-225964D01*
X+1612090Y-234556D01*
X+1614507Y-236703D01*
X+1624172Y-236703D01*
X+1626588Y-234556D01*
X+1626588Y-236703D02*
X+1612090Y-223816D01*
X+1592759Y-232408D02*
X+1607257Y-232408D01*
X+1597592Y-223816D01*
X+1597592Y-236703D01*
D59*
X+1505811Y+84701D02*
X+1368016Y+84701D01*
X+1368016Y+163441D01*
X+1505811Y+163441D01*
X+1505811Y+84701D01*
X+1436913Y+143756D02*
X+1436913Y+104386D01*
X+1417228Y+124071D02*
X+1456598Y+124071D01*
D60*
X+1476283Y+124071D02*
X+1476283Y+124071D01*
D62*
X+1456391Y+117332D02*
X+1456391Y+130809D01*
X+1443756Y+130809D01*
X+1441229Y+128563D01*
X+1441229Y+126317D01*
X+1443756Y+124070D01*
X+1456391Y+124070D01*
X+1443756Y+124070D02*
X+1441229Y+121824D01*
X+1441229Y+117332D01*
X+1433647Y+128563D02*
X+1431120Y+130809D01*
X+1423539Y+130809D01*
X+1421012Y+128563D01*
X+1421012Y+126317D01*
X+1423539Y+124070D01*
X+1421012Y+121824D01*
X+1421012Y+119578D01*
X+1423539Y+117332D01*
X+1431120Y+117332D01*
X+1433647Y+119578D01*
X+1428593Y+124070D02*
X+1423539Y+124070D01*
X+1415958Y+119578D02*
X+1415958Y+128563D01*
X+1413431Y+130809D01*
X+1403323Y+130809D01*
X+1400796Y+128563D01*
X+1400796Y+119578D01*
X+1403323Y+117332D01*
X+1413431Y+117332D01*
X+1415958Y+119578D01*
X+1415958Y+117332D02*
X+1400796Y+130809D01*
X+1390687Y+126317D02*
X+1385633Y+130809D01*
X+1385633Y+117332D01*
D59*
X+1505811Y-33409D02*
X+1368016Y-33409D01*
X+1368016Y+45331D01*
X+1505811Y+45331D01*
X+1505811Y-33409D01*
X+1436913Y+25646D02*
X+1436913Y-13724D01*
X+1417228Y+5961D02*
X+1456598Y+5961D01*
D60*
X+1476283Y+5961D02*
X+1476283Y+5961D01*
D62*
X+1456391Y-778D02*
X+1456391Y+12699D01*
X+1443756Y+12699D01*
X+1441229Y+10453D01*
X+1441229Y+8207D01*
X+1443756Y+5960D01*
X+1456391Y+5960D01*
X+1443756Y+5960D02*
X+1441229Y+3714D01*
X+1441229Y-778D01*
X+1433647Y+10453D02*
X+1431120Y+12699D01*
X+1423539Y+12699D01*
X+1421012Y+10453D01*
X+1421012Y+8207D01*
X+1423539Y+5960D01*
X+1421012Y+3714D01*
X+1421012Y+1468D01*
X+1423539Y-778D01*
X+1431120Y-778D01*
X+1433647Y+1468D01*
X+1428593Y+5960D02*
X+1423539Y+5960D01*
X+1415958Y+1468D02*
X+1415958Y+10453D01*
X+1413431Y+12699D01*
X+1403323Y+12699D01*
X+1400796Y+10453D01*
X+1400796Y+1468D01*
X+1403323Y-778D01*
X+1413431Y-778D01*
X+1415958Y+1468D01*
X+1415958Y-778D02*
X+1400796Y+12699D01*
X+1393214Y+10453D02*
X+1390687Y+12699D01*
X+1383106Y+12699D01*
X+1380579Y+10453D01*
X+1380579Y+8207D01*
X+1383106Y+5960D01*
X+1390687Y+5960D01*
X+1393214Y+3714D01*
X+1393214Y-778D01*
X+1380579Y-778D01*
D30*
X+1348654Y-475260D02*
X+1532654Y-475260D01*
X+1532654Y-190260D01*
X+1348654Y-190260D01*
X+1348654Y-475260D01*
D63*
X+1365654Y-230260D02*
X+1365654Y-230260D01*
D64*
X+1434003Y-208110D02*
X+1468628Y-208110D01*
X+1475553Y-215901D01*
X+1475553Y-247063D01*
X+1468628Y-254853D01*
X+1434003Y-254853D01*
X+1440928Y-278226D02*
X+1434003Y-286016D01*
X+1434003Y-309388D01*
X+1440928Y-317178D01*
X+1447853Y-317178D01*
X+1454778Y-309388D01*
X+1461703Y-317178D01*
X+1468628Y-317178D01*
X+1475553Y-309388D01*
X+1475553Y-286016D01*
X+1468628Y-278226D01*
X+1454778Y-293807D02*
X+1454778Y-309388D01*
X+1468628Y-332760D02*
X+1440928Y-332760D01*
X+1434003Y-340551D01*
X+1434003Y-371713D01*
X+1440928Y-379503D01*
X+1468628Y-379503D01*
X+1475553Y-371713D01*
X+1475553Y-340551D01*
X+1468628Y-332760D01*
X+1475553Y-332760D02*
X+1434003Y-379503D01*
X+1447853Y-410665D02*
X+1434003Y-426246D01*
X+1475553Y-426246D01*
D59*
X+1580614Y-72780D02*
X+1718409Y-72780D01*
X+1718409Y-151520D01*
X+1580614Y-151520D01*
X+1580614Y-72780D01*
X+1649512Y-131835D02*
X+1649512Y-92465D01*
X+1669197Y-112150D02*
X+1629827Y-112150D01*
D60*
X+1614079Y-112150D02*
X+1614079Y-112150D01*
D61*
X+1696600Y-116446D02*
X+1699017Y-118593D01*
X+1706265Y-118593D01*
X+1711098Y-114298D01*
X+1711098Y-110002D01*
X+1706265Y-105706D01*
X+1699017Y-105706D01*
X+1696600Y-107854D01*
X+1689351Y-107854D02*
X+1686934Y-105706D01*
X+1679686Y-105706D01*
X+1677269Y-107854D01*
X+1677269Y-110002D01*
X+1679686Y-112150D01*
X+1677269Y-114298D01*
X+1677269Y-116446D01*
X+1679686Y-118593D01*
X+1686934Y-118593D01*
X+1689351Y-116446D01*
X+1684518Y-112150D02*
X+1679686Y-112150D01*
X+1672437Y-116446D02*
X+1672437Y-107854D01*
X+1670021Y-105706D01*
X+1660356Y-105706D01*
X+1657939Y-107854D01*
X+1657939Y-116446D01*
X+1660356Y-118593D01*
X+1670021Y-118593D01*
X+1672437Y-116446D01*
X+1672437Y-118593D02*
X+1657939Y-105706D01*
X+1650690Y-107854D02*
X+1648273Y-105706D01*
X+1641025Y-105706D01*
X+1638608Y-107854D01*
X+1638608Y-110002D01*
X+1641025Y-112150D01*
X+1638608Y-114298D01*
X+1638608Y-116446D01*
X+1641025Y-118593D01*
X+1648273Y-118593D01*
X+1650690Y-116446D01*
X+1645857Y-112150D02*
X+1641025Y-112150D01*
D59*
X+911323Y+163441D02*
X+1049118Y+163441D01*
X+1049118Y+84701D01*
X+911323Y+84701D01*
X+911323Y+163441D01*
X+980220Y+104386D02*
X+980220Y+143756D01*
X+999906Y+124071D02*
X+960535Y+124071D01*
D60*
X+944787Y+124071D02*
X+944787Y+124071D01*
D61*
X+1027308Y+119774D02*
X+1029725Y+117627D01*
X+1036973Y+117627D01*
X+1041806Y+121922D01*
X+1041806Y+126218D01*
X+1036973Y+130514D01*
X+1029725Y+130514D01*
X+1027308Y+128366D01*
X+1020059Y+128366D02*
X+1017642Y+130514D01*
X+1010394Y+130514D01*
X+1007977Y+128366D01*
X+1007977Y+126218D01*
X+1010394Y+124070D01*
X+1017642Y+124070D01*
X+1020059Y+121922D01*
X+1020059Y+117627D01*
X+1007977Y+117627D01*
X+1003145Y+119774D02*
X+1003145Y+128366D01*
X+1000729Y+130514D01*
X+991064Y+130514D01*
X+988647Y+128366D01*
X+988647Y+119774D01*
X+991064Y+117627D01*
X+1000729Y+117627D01*
X+1003145Y+119774D01*
X+1003145Y+117627D02*
X+988647Y+130514D01*
X+978981Y+126218D02*
X+974149Y+130514D01*
X+974149Y+117627D01*
D59*
X+840457Y-151520D02*
X+702661Y-151520D01*
X+702661Y-72780D01*
X+840457Y-72780D01*
X+840457Y-151520D01*
X+771559Y-92465D02*
X+771559Y-131835D01*
X+751874Y-112150D02*
X+791244Y-112150D01*
D60*
X+806992Y-112150D02*
X+806992Y-112150D01*
D61*
X+772798Y-116446D02*
X+775215Y-118593D01*
X+782463Y-118593D01*
X+787296Y-114298D01*
X+787296Y-110002D01*
X+782463Y-105706D01*
X+775215Y-105706D01*
X+772798Y-107854D01*
X+765549Y-107854D02*
X+763132Y-105706D01*
X+755884Y-105706D01*
X+753467Y-107854D01*
X+753467Y-110002D01*
X+755884Y-112150D01*
X+763132Y-112150D01*
X+765549Y-114298D01*
X+765549Y-118593D01*
X+753467Y-118593D01*
X+748635Y-116446D02*
X+748635Y-107854D01*
X+746219Y-105706D01*
X+736554Y-105706D01*
X+734137Y-107854D01*
X+734137Y-116446D01*
X+736554Y-118593D01*
X+746219Y-118593D01*
X+748635Y-116446D01*
X+748635Y-118593D02*
X+734137Y-105706D01*
X+726888Y-105706D02*
X+714806Y-105706D01*
X+714806Y-107854D01*
X+726888Y-118593D01*
D59*
X+911323Y+45331D02*
X+1049118Y+45331D01*
X+1049118Y-33409D01*
X+911323Y-33409D01*
X+911323Y+45331D01*
X+980220Y-13724D02*
X+980220Y+25646D01*
X+999906Y+5961D02*
X+960535Y+5961D01*
D60*
X+944787Y+5961D02*
X+944787Y+5961D01*
D61*
X+1027308Y+1664D02*
X+1029725Y-483D01*
X+1036973Y-483D01*
X+1041806Y+3812D01*
X+1041806Y+8108D01*
X+1036973Y+12404D01*
X+1029725Y+12404D01*
X+1027308Y+10256D01*
X+1020059Y+10256D02*
X+1017642Y+12404D01*
X+1010394Y+12404D01*
X+1007977Y+10256D01*
X+1007977Y+8108D01*
X+1010394Y+5960D01*
X+1017642Y+5960D01*
X+1020059Y+3812D01*
X+1020059Y-483D01*
X+1007977Y-483D01*
X+1003145Y+1664D02*
X+1003145Y+10256D01*
X+1000729Y+12404D01*
X+991064Y+12404D01*
X+988647Y+10256D01*
X+988647Y+1664D01*
X+991064Y-483D01*
X+1000729Y-483D01*
X+1003145Y+1664D01*
X+1003145Y-483D02*
X+988647Y+12404D01*
X+981398Y+10256D02*
X+978981Y+12404D01*
X+971733Y+12404D01*
X+969316Y+10256D01*
X+969316Y+8108D01*
X+971733Y+5960D01*
X+978981Y+5960D01*
X+981398Y+3812D01*
X+981398Y-483D01*
X+969316Y-483D01*
D59*
X+911323Y-427110D02*
X+1049118Y-427110D01*
X+1049118Y-505850D01*
X+911323Y-505850D01*
X+911323Y-427110D01*
X+980220Y-486165D02*
X+980220Y-446795D01*
X+999906Y-466480D02*
X+960535Y-466480D01*
D60*
X+944787Y-466480D02*
X+944787Y-466480D01*
D61*
X+1027308Y-470777D02*
X+1029725Y-472924D01*
X+1036973Y-472924D01*
X+1041806Y-468629D01*
X+1041806Y-464333D01*
X+1036973Y-460037D01*
X+1029725Y-460037D01*
X+1027308Y-462185D01*
X+1020059Y-462185D02*
X+1017642Y-460037D01*
X+1010394Y-460037D01*
X+1007977Y-462185D01*
X+1007977Y-464333D01*
X+1010394Y-466481D01*
X+1017642Y-466481D01*
X+1020059Y-468629D01*
X+1020059Y-472924D01*
X+1007977Y-472924D01*
X+1003145Y-470777D02*
X+1003145Y-462185D01*
X+1000729Y-460037D01*
X+991064Y-460037D01*
X+988647Y-462185D01*
X+988647Y-470777D01*
X+991064Y-472924D01*
X+1000729Y-472924D01*
X+1003145Y-470777D01*
X+1003145Y-472924D02*
X+988647Y-460037D01*
X+969316Y-462185D02*
X+971733Y-460037D01*
X+978981Y-460037D01*
X+981398Y-462185D01*
X+981398Y-470777D01*
X+978981Y-472924D01*
X+971733Y-472924D01*
X+969316Y-470777D01*
X+969316Y-468629D01*
X+971733Y-466481D01*
X+981398Y-466481D01*
D59*
X+911323Y-309000D02*
X+1049118Y-309000D01*
X+1049118Y-387740D01*
X+911323Y-387740D01*
X+911323Y-309000D01*
X+980220Y-368055D02*
X+980220Y-328685D01*
X+999906Y-348370D02*
X+960535Y-348370D01*
D60*
X+944787Y-348370D02*
X+944787Y-348370D01*
D61*
X+1027308Y-352666D02*
X+1029725Y-354813D01*
X+1036973Y-354813D01*
X+1041806Y-350518D01*
X+1041806Y-346222D01*
X+1036973Y-341926D01*
X+1029725Y-341926D01*
X+1027308Y-344074D01*
X+1020059Y-344074D02*
X+1017642Y-341926D01*
X+1010394Y-341926D01*
X+1007977Y-344074D01*
X+1007977Y-346222D01*
X+1010394Y-348370D01*
X+1017642Y-348370D01*
X+1020059Y-350518D01*
X+1020059Y-354813D01*
X+1007977Y-354813D01*
X+1003145Y-352666D02*
X+1003145Y-344074D01*
X+1000729Y-341926D01*
X+991064Y-341926D01*
X+988647Y-344074D01*
X+988647Y-352666D01*
X+991064Y-354813D01*
X+1000729Y-354813D01*
X+1003145Y-352666D01*
X+1003145Y-354813D02*
X+988647Y-341926D01*
X+969316Y-341926D02*
X+981398Y-341926D01*
X+981398Y-346222D01*
X+971733Y-346222D01*
X+969316Y-348370D01*
X+969316Y-352666D01*
X+971733Y-354813D01*
X+978981Y-354813D01*
X+981398Y-352666D01*
D59*
X+1049118Y-269630D02*
X+911323Y-269630D01*
X+911323Y-190890D01*
X+1049118Y-190890D01*
X+1049118Y-269630D01*
X+980220Y-210575D02*
X+980220Y-249945D01*
X+960535Y-230260D02*
X+999906Y-230260D01*
D60*
X+1015654Y-230260D02*
X+1015654Y-230260D01*
D61*
X+981459Y-234556D02*
X+983876Y-236703D01*
X+991124Y-236703D01*
X+995957Y-232408D01*
X+995957Y-228112D01*
X+991124Y-223816D01*
X+983876Y-223816D01*
X+981459Y-225964D01*
X+974210Y-225964D02*
X+971793Y-223816D01*
X+964545Y-223816D01*
X+962128Y-225964D01*
X+962128Y-228112D01*
X+964545Y-230260D01*
X+971793Y-230260D01*
X+974210Y-232408D01*
X+974210Y-236703D01*
X+962128Y-236703D01*
X+957296Y-234556D02*
X+957296Y-225964D01*
X+954880Y-223816D01*
X+945215Y-223816D01*
X+942798Y-225964D01*
X+942798Y-234556D01*
X+945215Y-236703D01*
X+954880Y-236703D01*
X+957296Y-234556D01*
X+957296Y-236703D02*
X+942798Y-223816D01*
X+923467Y-232408D02*
X+937965Y-232408D01*
X+928300Y-223816D01*
X+928300Y-236703D01*
D59*
X+836520Y+84701D02*
X+698724Y+84701D01*
X+698724Y+163441D01*
X+836520Y+163441D01*
X+836520Y+84701D01*
X+767622Y+143756D02*
X+767622Y+104386D01*
X+747937Y+124071D02*
X+787307Y+124071D01*
D60*
X+806992Y+124071D02*
X+806992Y+124071D01*
D62*
X+787099Y+117332D02*
X+787099Y+130809D01*
X+774464Y+130809D01*
X+771937Y+128563D01*
X+771937Y+126317D01*
X+774464Y+124070D01*
X+787099Y+124070D01*
X+774464Y+124070D02*
X+771937Y+121824D01*
X+771937Y+117332D01*
X+764355Y+128563D02*
X+761828Y+130809D01*
X+754247Y+130809D01*
X+751720Y+128563D01*
X+751720Y+126317D01*
X+754247Y+124070D01*
X+761828Y+124070D01*
X+764355Y+121824D01*
X+764355Y+117332D01*
X+751720Y+117332D01*
X+746666Y+119578D02*
X+746666Y+128563D01*
X+744139Y+130809D01*
X+734031Y+130809D01*
X+731504Y+128563D01*
X+731504Y+119578D01*
X+734031Y+117332D01*
X+744139Y+117332D01*
X+746666Y+119578D01*
X+746666Y+117332D02*
X+731504Y+130809D01*
X+721395Y+126317D02*
X+716341Y+130809D01*
X+716341Y+117332D01*
D59*
X+836520Y-33409D02*
X+698724Y-33409D01*
X+698724Y+45331D01*
X+836520Y+45331D01*
X+836520Y-33409D01*
X+767622Y+25646D02*
X+767622Y-13724D01*
X+747937Y+5961D02*
X+787307Y+5961D01*
D60*
X+806992Y+5961D02*
X+806992Y+5961D01*
D62*
X+787099Y-778D02*
X+787099Y+12699D01*
X+774464Y+12699D01*
X+771937Y+10453D01*
X+771937Y+8207D01*
X+774464Y+5960D01*
X+787099Y+5960D01*
X+774464Y+5960D02*
X+771937Y+3714D01*
X+771937Y-778D01*
X+764355Y+10453D02*
X+761828Y+12699D01*
X+754247Y+12699D01*
X+751720Y+10453D01*
X+751720Y+8207D01*
X+754247Y+5960D01*
X+761828Y+5960D01*
X+764355Y+3714D01*
X+764355Y-778D01*
X+751720Y-778D01*
X+746666Y+1468D02*
X+746666Y+10453D01*
X+744139Y+12699D01*
X+734031Y+12699D01*
X+731504Y+10453D01*
X+731504Y+1468D01*
X+734031Y-778D01*
X+744139Y-778D01*
X+746666Y+1468D01*
X+746666Y-778D02*
X+731504Y+12699D01*
X+723922Y+10453D02*
X+721395Y+12699D01*
X+713814Y+12699D01*
X+711287Y+10453D01*
X+711287Y+8207D01*
X+713814Y+5960D01*
X+721395Y+5960D01*
X+723922Y+3714D01*
X+723922Y-778D01*
X+711287Y-778D01*
D30*
X+679362Y-475260D02*
X+863362Y-475260D01*
X+863362Y-190260D01*
X+679362Y-190260D01*
X+679362Y-475260D01*
D63*
X+696362Y-230260D02*
X+696362Y-230260D01*
D64*
X+764712Y-208110D02*
X+799337Y-208110D01*
X+806262Y-215901D01*
X+806262Y-247063D01*
X+799337Y-254853D01*
X+764712Y-254853D01*
X+771637Y-278226D02*
X+764712Y-286016D01*
X+764712Y-309388D01*
X+771637Y-317178D01*
X+778562Y-317178D01*
X+785487Y-309388D01*
X+785487Y-286016D01*
X+792412Y-278226D01*
X+806262Y-278226D01*
X+806262Y-317178D01*
X+799337Y-332760D02*
X+771637Y-332760D01*
X+764712Y-340551D01*
X+764712Y-371713D01*
X+771637Y-379503D01*
X+799337Y-379503D01*
X+806262Y-371713D01*
X+806262Y-340551D01*
X+799337Y-332760D01*
X+806262Y-332760D02*
X+764712Y-379503D01*
X+778562Y-410665D02*
X+764712Y-426246D01*
X+806262Y-426246D01*
D59*
X+911323Y-72780D02*
X+1049118Y-72780D01*
X+1049118Y-151520D01*
X+911323Y-151520D01*
X+911323Y-72780D01*
X+980220Y-131835D02*
X+980220Y-92465D01*
X+999906Y-112150D02*
X+960535Y-112150D01*
D60*
X+944787Y-112150D02*
X+944787Y-112150D01*
D61*
X+1027308Y-116446D02*
X+1029725Y-118593D01*
X+1036973Y-118593D01*
X+1041806Y-114298D01*
X+1041806Y-110002D01*
X+1036973Y-105706D01*
X+1029725Y-105706D01*
X+1027308Y-107854D01*
X+1020059Y-107854D02*
X+1017642Y-105706D01*
X+1010394Y-105706D01*
X+1007977Y-107854D01*
X+1007977Y-110002D01*
X+1010394Y-112150D01*
X+1017642Y-112150D01*
X+1020059Y-114298D01*
X+1020059Y-118593D01*
X+1007977Y-118593D01*
X+1003145Y-116446D02*
X+1003145Y-107854D01*
X+1000729Y-105706D01*
X+991064Y-105706D01*
X+988647Y-107854D01*
X+988647Y-116446D01*
X+991064Y-118593D01*
X+1000729Y-118593D01*
X+1003145Y-116446D01*
X+1003145Y-118593D02*
X+988647Y-105706D01*
X+981398Y-107854D02*
X+978981Y-105706D01*
X+971733Y-105706D01*
X+969316Y-107854D01*
X+969316Y-110002D01*
X+971733Y-112150D01*
X+969316Y-114298D01*
X+969316Y-116446D01*
X+971733Y-118593D01*
X+978981Y-118593D01*
X+981398Y-116446D01*
X+976565Y-112150D02*
X+971733Y-112150D01*
D59*
X+242031Y+163441D02*
X+379827Y+163441D01*
X+379827Y+84701D01*
X+242031Y+84701D01*
X+242031Y+163441D01*
X+310929Y+104386D02*
X+310929Y+143756D01*
X+330614Y+124071D02*
X+291244Y+124071D01*
D60*
X+275496Y+124071D02*
X+275496Y+124071D01*
D61*
X+358017Y+119774D02*
X+360434Y+117627D01*
X+367682Y+117627D01*
X+372515Y+121922D01*
X+372515Y+126218D01*
X+367682Y+130514D01*
X+360434Y+130514D01*
X+358017Y+128366D01*
X+348351Y+126218D02*
X+343519Y+130514D01*
X+343519Y+117627D01*
X+333854Y+119774D02*
X+333854Y+128366D01*
X+331438Y+130514D01*
X+321773Y+130514D01*
X+319356Y+128366D01*
X+319356Y+119774D01*
X+321773Y+117627D01*
X+331438Y+117627D01*
X+333854Y+119774D01*
X+333854Y+117627D02*
X+319356Y+130514D01*
X+309690Y+126218D02*
X+304858Y+130514D01*
X+304858Y+117627D01*
D59*
X+171165Y-151520D02*
X+33370Y-151520D01*
X+33370Y-72780D01*
X+171165Y-72780D01*
X+171165Y-151520D01*
X+102268Y-92465D02*
X+102268Y-131835D01*
X+82583Y-112150D02*
X+121953Y-112150D01*
D60*
X+137701Y-112150D02*
X+137701Y-112150D01*
D61*
X+103507Y-116446D02*
X+105924Y-118593D01*
X+113172Y-118593D01*
X+118005Y-114298D01*
X+118005Y-110002D01*
X+113172Y-105706D01*
X+105924Y-105706D01*
X+103507Y-107854D01*
X+93841Y-110002D02*
X+89009Y-105706D01*
X+89009Y-118593D01*
X+79344Y-116446D02*
X+79344Y-107854D01*
X+76928Y-105706D01*
X+67263Y-105706D01*
X+64846Y-107854D01*
X+64846Y-116446D01*
X+67263Y-118593D01*
X+76928Y-118593D01*
X+79344Y-116446D01*
X+79344Y-118593D02*
X+64846Y-105706D01*
X+57597Y-105706D02*
X+45515Y-105706D01*
X+45515Y-107854D01*
X+57597Y-118593D01*
D59*
X+242031Y+45331D02*
X+379827Y+45331D01*
X+379827Y-33409D01*
X+242031Y-33409D01*
X+242031Y+45331D01*
X+310929Y-13724D02*
X+310929Y+25646D01*
X+330614Y+5961D02*
X+291244Y+5961D01*
D60*
X+275496Y+5961D02*
X+275496Y+5961D01*
D61*
X+358017Y+1664D02*
X+360434Y-483D01*
X+367682Y-483D01*
X+372515Y+3812D01*
X+372515Y+8108D01*
X+367682Y+12404D01*
X+360434Y+12404D01*
X+358017Y+10256D01*
X+348351Y+8108D02*
X+343519Y+12404D01*
X+343519Y-483D01*
X+333854Y+1664D02*
X+333854Y+10256D01*
X+331438Y+12404D01*
X+321773Y+12404D01*
X+319356Y+10256D01*
X+319356Y+1664D01*
X+321773Y-483D01*
X+331438Y-483D01*
X+333854Y+1664D01*
X+333854Y-483D02*
X+319356Y+12404D01*
X+312107Y+10256D02*
X+309690Y+12404D01*
X+302442Y+12404D01*
X+300025Y+10256D01*
X+300025Y+8108D01*
X+302442Y+5960D01*
X+309690Y+5960D01*
X+312107Y+3812D01*
X+312107Y-483D01*
X+300025Y-483D01*
D59*
X+242031Y-427110D02*
X+379827Y-427110D01*
X+379827Y-505850D01*
X+242031Y-505850D01*
X+242031Y-427110D01*
X+310929Y-486165D02*
X+310929Y-446795D01*
X+330614Y-466480D02*
X+291244Y-466480D01*
D60*
X+275496Y-466480D02*
X+275496Y-466480D01*
D61*
X+358017Y-470777D02*
X+360434Y-472924D01*
X+367682Y-472924D01*
X+372515Y-468629D01*
X+372515Y-464333D01*
X+367682Y-460037D01*
X+360434Y-460037D01*
X+358017Y-462185D01*
X+348351Y-464333D02*
X+343519Y-460037D01*
X+343519Y-472924D01*
X+333854Y-470777D02*
X+333854Y-462185D01*
X+331438Y-460037D01*
X+321773Y-460037D01*
X+319356Y-462185D01*
X+319356Y-470777D01*
X+321773Y-472924D01*
X+331438Y-472924D01*
X+333854Y-470777D01*
X+333854Y-472924D02*
X+319356Y-460037D01*
X+300025Y-462185D02*
X+302442Y-460037D01*
X+309690Y-460037D01*
X+312107Y-462185D01*
X+312107Y-470777D01*
X+309690Y-472924D01*
X+302442Y-472924D01*
X+300025Y-470777D01*
X+300025Y-468629D01*
X+302442Y-466481D01*
X+312107Y-466481D01*
D59*
X+242031Y-309000D02*
X+379827Y-309000D01*
X+379827Y-387740D01*
X+242031Y-387740D01*
X+242031Y-309000D01*
X+310929Y-368055D02*
X+310929Y-328685D01*
X+330614Y-348370D02*
X+291244Y-348370D01*
D60*
X+275496Y-348370D02*
X+275496Y-348370D01*
D61*
X+358017Y-352666D02*
X+360434Y-354813D01*
X+367682Y-354813D01*
X+372515Y-350518D01*
X+372515Y-346222D01*
X+367682Y-341926D01*
X+360434Y-341926D01*
X+358017Y-344074D01*
X+348351Y-346222D02*
X+343519Y-341926D01*
X+343519Y-354813D01*
X+333854Y-352666D02*
X+333854Y-344074D01*
X+331438Y-341926D01*
X+321773Y-341926D01*
X+319356Y-344074D01*
X+319356Y-352666D01*
X+321773Y-354813D01*
X+331438Y-354813D01*
X+333854Y-352666D01*
X+333854Y-354813D02*
X+319356Y-341926D01*
X+300025Y-341926D02*
X+312107Y-341926D01*
X+312107Y-346222D01*
X+302442Y-346222D01*
X+300025Y-348370D01*
X+300025Y-352666D01*
X+302442Y-354813D01*
X+309690Y-354813D01*
X+312107Y-352666D01*
D59*
X+379827Y-269630D02*
X+242031Y-269630D01*
X+242031Y-190890D01*
X+379827Y-190890D01*
X+379827Y-269630D01*
X+310929Y-210575D02*
X+310929Y-249945D01*
X+291244Y-230260D02*
X+330614Y-230260D01*
D60*
X+346362Y-230260D02*
X+346362Y-230260D01*
D61*
X+312168Y-234556D02*
X+314585Y-236703D01*
X+321833Y-236703D01*
X+326666Y-232408D01*
X+326666Y-228112D01*
X+321833Y-223816D01*
X+314585Y-223816D01*
X+312168Y-225964D01*
X+302502Y-228112D02*
X+297670Y-223816D01*
X+297670Y-236703D01*
X+288005Y-234556D02*
X+288005Y-225964D01*
X+285589Y-223816D01*
X+275924Y-223816D01*
X+273507Y-225964D01*
X+273507Y-234556D01*
X+275924Y-236703D01*
X+285589Y-236703D01*
X+288005Y-234556D01*
X+288005Y-236703D02*
X+273507Y-223816D01*
X+254176Y-232408D02*
X+268674Y-232408D01*
X+259009Y-223816D01*
X+259009Y-236703D01*
D59*
X+167228Y+84701D02*
X+29433Y+84701D01*
X+29433Y+163441D01*
X+167228Y+163441D01*
X+167228Y+84701D01*
X+98331Y+143756D02*
X+98331Y+104386D01*
X+78646Y+124071D02*
X+118016Y+124071D01*
D60*
X+137701Y+124071D02*
X+137701Y+124071D01*
D62*
X+117808Y+117332D02*
X+117808Y+130809D01*
X+105173Y+130809D01*
X+102646Y+128563D01*
X+102646Y+126317D01*
X+105173Y+124070D01*
X+117808Y+124070D01*
X+105173Y+124070D02*
X+102646Y+121824D01*
X+102646Y+117332D01*
X+92537Y+126317D02*
X+87483Y+130809D01*
X+87483Y+117332D01*
X+77375Y+119578D02*
X+77375Y+128563D01*
X+74848Y+130809D01*
X+64740Y+130809D01*
X+62213Y+128563D01*
X+62213Y+119578D01*
X+64740Y+117332D01*
X+74848Y+117332D01*
X+77375Y+119578D01*
X+77375Y+117332D02*
X+62213Y+130809D01*
X+52104Y+126317D02*
X+47050Y+130809D01*
X+47050Y+117332D01*
D59*
X+167228Y-33409D02*
X+29433Y-33409D01*
X+29433Y+45331D01*
X+167228Y+45331D01*
X+167228Y-33409D01*
X+98331Y+25646D02*
X+98331Y-13724D01*
X+78646Y+5961D02*
X+118016Y+5961D01*
D60*
X+137701Y+5961D02*
X+137701Y+5961D01*
D62*
X+117808Y-778D02*
X+117808Y+12699D01*
X+105173Y+12699D01*
X+102646Y+10453D01*
X+102646Y+8207D01*
X+105173Y+5960D01*
X+117808Y+5960D01*
X+105173Y+5960D02*
X+102646Y+3714D01*
X+102646Y-778D01*
X+92537Y+8207D02*
X+87483Y+12699D01*
X+87483Y-778D01*
X+77375Y+1468D02*
X+77375Y+10453D01*
X+74848Y+12699D01*
X+64740Y+12699D01*
X+62213Y+10453D01*
X+62213Y+1468D01*
X+64740Y-778D01*
X+74848Y-778D01*
X+77375Y+1468D01*
X+77375Y-778D02*
X+62213Y+12699D01*
X+54631Y+10453D02*
X+52104Y+12699D01*
X+44523Y+12699D01*
X+41996Y+10453D01*
X+41996Y+8207D01*
X+44523Y+5960D01*
X+52104Y+5960D01*
X+54631Y+3714D01*
X+54631Y-778D01*
X+41996Y-778D01*
D30*
X+10071Y-475260D02*
X+194071Y-475260D01*
X+194071Y-190260D01*
X+10071Y-190260D01*
X+10071Y-475260D01*
D63*
X+27071Y-230260D02*
X+27071Y-230260D01*
D64*
X+95420Y-208110D02*
X+130045Y-208110D01*
X+136970Y-215901D01*
X+136970Y-247063D01*
X+130045Y-254853D01*
X+95420Y-254853D01*
X+109270Y-286016D02*
X+95420Y-301597D01*
X+136970Y-301597D01*
X+130045Y-332760D02*
X+102345Y-332760D01*
X+95420Y-340551D01*
X+95420Y-371713D01*
X+102345Y-379503D01*
X+130045Y-379503D01*
X+136970Y-371713D01*
X+136970Y-340551D01*
X+130045Y-332760D01*
X+136970Y-332760D02*
X+95420Y-379503D01*
X+109270Y-410665D02*
X+95420Y-426246D01*
X+136970Y-426246D01*
D59*
X+242031Y-72780D02*
X+379827Y-72780D01*
X+379827Y-151520D01*
X+242031Y-151520D01*
X+242031Y-72780D01*
X+310929Y-131835D02*
X+310929Y-92465D01*
X+330614Y-112150D02*
X+291244Y-112150D01*
D60*
X+275496Y-112150D02*
X+275496Y-112150D01*
D61*
X+358017Y-116446D02*
X+360434Y-118593D01*
X+367682Y-118593D01*
X+372515Y-114298D01*
X+372515Y-110002D01*
X+367682Y-105706D01*
X+360434Y-105706D01*
X+358017Y-107854D01*
X+348351Y-110002D02*
X+343519Y-105706D01*
X+343519Y-118593D01*
X+333854Y-116446D02*
X+333854Y-107854D01*
X+331438Y-105706D01*
X+321773Y-105706D01*
X+319356Y-107854D01*
X+319356Y-116446D01*
X+321773Y-118593D01*
X+331438Y-118593D01*
X+333854Y-116446D01*
X+333854Y-118593D02*
X+319356Y-105706D01*
X+312107Y-107854D02*
X+309690Y-105706D01*
X+302442Y-105706D01*
X+300025Y-107854D01*
X+300025Y-110002D01*
X+302442Y-112150D01*
X+300025Y-114298D01*
X+300025Y-116446D01*
X+302442Y-118593D01*
X+309690Y-118593D01*
X+312107Y-116446D01*
X+307274Y-112150D02*
X+302442Y-112150D01*
D30*
X+546000Y+946000D02*
X+2554000Y+946000D01*
X+2554000Y+1154000D01*
X+546000Y+1154000D01*
X+546000Y+946000D01*
D65*
X+600000Y+1000000D02*
X+600000Y+1000000D01*
D66*
X+1459000Y+1064000D02*
X+1459000Y+1078000D01*
X+1474750Y+1092000D01*
X+1537750Y+1092000D01*
X+1553500Y+1078000D01*
X+1553500Y+1008000D01*
X+1616500Y+1036000D02*
X+1648000Y+1008000D01*
X+1648000Y+1092000D01*
D59*
X+4821260Y-550630D02*
X+4959055Y-550630D01*
X+4959055Y-629370D01*
X+4821260Y-629370D01*
X+4821260Y-550630D01*
X+4890157Y-609685D02*
X+4890157Y-570315D01*
X+4909843Y-590000D02*
X+4870472Y-590000D01*
D60*
X+4850787Y-590000D02*
X+4850787Y-590000D01*
D62*
X+4951546Y-596738D02*
X+4951546Y-583261D01*
X+4938911Y-583261D01*
X+4936384Y-585507D01*
X+4936384Y-587753D01*
X+4938911Y-590000D01*
X+4951546Y-590000D01*
X+4938911Y-590000D02*
X+4936384Y-592246D01*
X+4936384Y-596738D01*
X+4926275Y-590000D02*
X+4928802Y-587753D01*
X+4928802Y-585507D01*
X+4926275Y-583261D01*
X+4918694Y-583261D01*
X+4916167Y-585507D01*
X+4916167Y-587753D01*
X+4918694Y-590000D01*
X+4926275Y-590000D01*
X+4928802Y-592246D01*
X+4928802Y-594492D01*
X+4926275Y-596738D01*
X+4918694Y-596738D01*
X+4916167Y-594492D01*
X+4916167Y-592246D01*
X+4918694Y-590000D01*
X+4911113Y-594492D02*
X+4911113Y-585507D01*
X+4908586Y-583261D01*
X+4898478Y-583261D01*
X+4895951Y-585507D01*
X+4895951Y-594492D01*
X+4898478Y-596738D01*
X+4908586Y-596738D01*
X+4911113Y-594492D01*
X+4911113Y-596738D02*
X+4895951Y-583261D01*
X+4888369Y-585507D02*
X+4885842Y-583261D01*
X+4878261Y-583261D01*
X+4875734Y-585507D01*
X+4875734Y-587753D01*
X+4878261Y-590000D01*
X+4875734Y-592246D01*
X+4875734Y-594492D01*
X+4878261Y-596738D01*
X+4885842Y-596738D01*
X+4888369Y-594492D01*
X+4883315Y-590000D02*
X+4878261Y-590000D01*
D59*
X+4253843Y-552110D02*
X+4391638Y-552110D01*
X+4391638Y-630850D01*
X+4253843Y-630850D01*
X+4253843Y-552110D01*
X+4322740Y-611165D02*
X+4322740Y-571795D01*
X+4342425Y-591480D02*
X+4303055Y-591480D01*
D60*
X+4283370Y-591480D02*
X+4283370Y-591480D01*
D62*
X+4384129Y-598219D02*
X+4384129Y-584742D01*
X+4371494Y-584742D01*
X+4368967Y-586988D01*
X+4368967Y-589234D01*
X+4371494Y-591481D01*
X+4384129Y-591481D01*
X+4371494Y-591481D02*
X+4368967Y-593727D01*
X+4368967Y-598219D01*
X+4361385Y-584742D02*
X+4348750Y-584742D01*
X+4348750Y-586988D01*
X+4361385Y-598219D01*
X+4343696Y-595973D02*
X+4343696Y-586988D01*
X+4341169Y-584742D01*
X+4331061Y-584742D01*
X+4328534Y-586988D01*
X+4328534Y-595973D01*
X+4331061Y-598219D01*
X+4341169Y-598219D01*
X+4343696Y-595973D01*
X+4343696Y-598219D02*
X+4328534Y-584742D01*
X+4320952Y-586988D02*
X+4318425Y-584742D01*
X+4310844Y-584742D01*
X+4308317Y-586988D01*
X+4308317Y-589234D01*
X+4310844Y-591481D01*
X+4308317Y-593727D01*
X+4308317Y-595973D01*
X+4310844Y-598219D01*
X+4318425Y-598219D01*
X+4320952Y-595973D01*
X+4315898Y-591481D02*
X+4310844Y-591481D01*
D59*
X+3584551Y-552110D02*
X+3722346Y-552110D01*
X+3722346Y-630850D01*
X+3584551Y-630850D01*
X+3584551Y-552110D01*
X+3653449Y-611165D02*
X+3653449Y-571795D01*
X+3673134Y-591480D02*
X+3633764Y-591480D01*
D60*
X+3614079Y-591480D02*
X+3614079Y-591480D01*
D62*
X+3714838Y-598219D02*
X+3714838Y-584742D01*
X+3702203Y-584742D01*
X+3699676Y-586988D01*
X+3699676Y-589234D01*
X+3702203Y-591481D01*
X+3714838Y-591481D01*
X+3702203Y-591481D02*
X+3699676Y-593727D01*
X+3699676Y-598219D01*
X+3679459Y-586988D02*
X+3681986Y-584742D01*
X+3689567Y-584742D01*
X+3692094Y-586988D01*
X+3692094Y-595973D01*
X+3689567Y-598219D01*
X+3681986Y-598219D01*
X+3679459Y-595973D01*
X+3679459Y-593727D01*
X+3681986Y-591481D01*
X+3692094Y-591481D01*
X+3674405Y-595973D02*
X+3674405Y-586988D01*
X+3671878Y-584742D01*
X+3661770Y-584742D01*
X+3659243Y-586988D01*
X+3659243Y-595973D01*
X+3661770Y-598219D01*
X+3671878Y-598219D01*
X+3674405Y-595973D01*
X+3674405Y-598219D02*
X+3659243Y-584742D01*
X+3651661Y-586988D02*
X+3649134Y-584742D01*
X+3641553Y-584742D01*
X+3639026Y-586988D01*
X+3639026Y-589234D01*
X+3641553Y-591481D01*
X+3639026Y-593727D01*
X+3639026Y-595973D01*
X+3641553Y-598219D01*
X+3649134Y-598219D01*
X+3651661Y-595973D01*
X+3646607Y-591481D02*
X+3641553Y-591481D01*
D59*
X+2916394Y-545630D02*
X+3054189Y-545630D01*
X+3054189Y-624370D01*
X+2916394Y-624370D01*
X+2916394Y-545630D01*
X+2985291Y-604685D02*
X+2985291Y-565315D01*
X+3004976Y-585000D02*
X+2965606Y-585000D01*
D60*
X+2945921Y-585000D02*
X+2945921Y-585000D01*
D62*
X+3046680Y-591738D02*
X+3046680Y-578261D01*
X+3034045Y-578261D01*
X+3031518Y-580507D01*
X+3031518Y-582753D01*
X+3034045Y-585000D01*
X+3046680Y-585000D01*
X+3034045Y-585000D02*
X+3031518Y-587246D01*
X+3031518Y-591738D01*
X+3011301Y-578261D02*
X+3023936Y-578261D01*
X+3023936Y-582753D01*
X+3013828Y-582753D01*
X+3011301Y-585000D01*
X+3011301Y-589492D01*
X+3013828Y-591738D01*
X+3021409Y-591738D01*
X+3023936Y-589492D01*
X+3006247Y-589492D02*
X+3006247Y-580507D01*
X+3003720Y-578261D01*
X+2993612Y-578261D01*
X+2991085Y-580507D01*
X+2991085Y-589492D01*
X+2993612Y-591738D01*
X+3003720Y-591738D01*
X+3006247Y-589492D01*
X+3006247Y-591738D02*
X+2991085Y-578261D01*
X+2983503Y-580507D02*
X+2980976Y-578261D01*
X+2973395Y-578261D01*
X+2970868Y-580507D01*
X+2970868Y-582753D01*
X+2973395Y-585000D01*
X+2970868Y-587246D01*
X+2970868Y-589492D01*
X+2973395Y-591738D01*
X+2980976Y-591738D01*
X+2983503Y-589492D01*
X+2978449Y-585000D02*
X+2973395Y-585000D01*
D59*
X+2245969Y-552110D02*
X+2383764Y-552110D01*
X+2383764Y-630850D01*
X+2245969Y-630850D01*
X+2245969Y-552110D01*
X+2314866Y-611165D02*
X+2314866Y-571795D01*
X+2334551Y-591480D02*
X+2295181Y-591480D01*
D60*
X+2275496Y-591480D02*
X+2275496Y-591480D01*
D62*
X+2376255Y-598219D02*
X+2376255Y-584742D01*
X+2363620Y-584742D01*
X+2361093Y-586988D01*
X+2361093Y-589234D01*
X+2363620Y-591481D01*
X+2376255Y-591481D01*
X+2363620Y-591481D02*
X+2361093Y-593727D01*
X+2361093Y-598219D01*
X+2340876Y-593727D02*
X+2356038Y-593727D01*
X+2345930Y-584742D01*
X+2345930Y-598219D01*
X+2335822Y-595973D02*
X+2335822Y-586988D01*
X+2333295Y-584742D01*
X+2323187Y-584742D01*
X+2320660Y-586988D01*
X+2320660Y-595973D01*
X+2323187Y-598219D01*
X+2333295Y-598219D01*
X+2335822Y-595973D01*
X+2335822Y-598219D02*
X+2320660Y-584742D01*
X+2313078Y-586988D02*
X+2310551Y-584742D01*
X+2302970Y-584742D01*
X+2300443Y-586988D01*
X+2300443Y-589234D01*
X+2302970Y-591481D01*
X+2300443Y-593727D01*
X+2300443Y-595973D01*
X+2302970Y-598219D01*
X+2310551Y-598219D01*
X+2313078Y-595973D01*
X+2308024Y-591481D02*
X+2302970Y-591481D01*
D59*
X+1576677Y-552110D02*
X+1714472Y-552110D01*
X+1714472Y-630850D01*
X+1576677Y-630850D01*
X+1576677Y-552110D01*
X+1645575Y-611165D02*
X+1645575Y-571795D01*
X+1665260Y-591480D02*
X+1625890Y-591480D01*
D60*
X+1606205Y-591480D02*
X+1606205Y-591480D01*
D62*
X+1706964Y-598219D02*
X+1706964Y-584742D01*
X+1694329Y-584742D01*
X+1691802Y-586988D01*
X+1691802Y-589234D01*
X+1694329Y-591481D01*
X+1706964Y-591481D01*
X+1694329Y-591481D02*
X+1691802Y-593727D01*
X+1691802Y-598219D01*
X+1684220Y-586988D02*
X+1681693Y-584742D01*
X+1674112Y-584742D01*
X+1671585Y-586988D01*
X+1671585Y-589234D01*
X+1674112Y-591481D01*
X+1671585Y-593727D01*
X+1671585Y-595973D01*
X+1674112Y-598219D01*
X+1681693Y-598219D01*
X+1684220Y-595973D01*
X+1679166Y-591481D02*
X+1674112Y-591481D01*
X+1666531Y-595973D02*
X+1666531Y-586988D01*
X+1664004Y-584742D01*
X+1653896Y-584742D01*
X+1651369Y-586988D01*
X+1651369Y-595973D01*
X+1653896Y-598219D01*
X+1664004Y-598219D01*
X+1666531Y-595973D01*
X+1666531Y-598219D02*
X+1651369Y-584742D01*
X+1643787Y-586988D02*
X+1641260Y-584742D01*
X+1633679Y-584742D01*
X+1631152Y-586988D01*
X+1631152Y-589234D01*
X+1633679Y-591481D01*
X+1631152Y-593727D01*
X+1631152Y-595973D01*
X+1633679Y-598219D01*
X+1641260Y-598219D01*
X+1643787Y-595973D01*
X+1638733Y-591481D02*
X+1633679Y-591481D01*
D59*
X+907386Y-552110D02*
X+1045181Y-552110D01*
X+1045181Y-630850D01*
X+907386Y-630850D01*
X+907386Y-552110D01*
X+976283Y-611165D02*
X+976283Y-571795D01*
X+995969Y-591480D02*
X+956598Y-591480D01*
D60*
X+936913Y-591480D02*
X+936913Y-591480D01*
D62*
X+1037672Y-598219D02*
X+1037672Y-584742D01*
X+1025037Y-584742D01*
X+1022510Y-586988D01*
X+1022510Y-589234D01*
X+1025037Y-591481D01*
X+1037672Y-591481D01*
X+1025037Y-591481D02*
X+1022510Y-593727D01*
X+1022510Y-598219D01*
X+1014928Y-586988D02*
X+1012401Y-584742D01*
X+1004820Y-584742D01*
X+1002293Y-586988D01*
X+1002293Y-589234D01*
X+1004820Y-591481D01*
X+1012401Y-591481D01*
X+1014928Y-593727D01*
X+1014928Y-598219D01*
X+1002293Y-598219D01*
X+997239Y-595973D02*
X+997239Y-586988D01*
X+994712Y-584742D01*
X+984604Y-584742D01*
X+982077Y-586988D01*
X+982077Y-595973D01*
X+984604Y-598219D01*
X+994712Y-598219D01*
X+997239Y-595973D01*
X+997239Y-598219D02*
X+982077Y-584742D01*
X+974495Y-586988D02*
X+971968Y-584742D01*
X+964387Y-584742D01*
X+961860Y-586988D01*
X+961860Y-589234D01*
X+964387Y-591481D01*
X+961860Y-593727D01*
X+961860Y-595973D01*
X+964387Y-598219D01*
X+971968Y-598219D01*
X+974495Y-595973D01*
X+969441Y-591481D02*
X+964387Y-591481D01*
D59*
X+238094Y-552110D02*
X+375890Y-552110D01*
X+375890Y-630850D01*
X+238094Y-630850D01*
X+238094Y-552110D01*
X+306992Y-611165D02*
X+306992Y-571795D01*
X+326677Y-591480D02*
X+287307Y-591480D01*
D60*
X+267622Y-591480D02*
X+267622Y-591480D01*
D62*
X+368381Y-598219D02*
X+368381Y-584742D01*
X+355746Y-584742D01*
X+353219Y-586988D01*
X+353219Y-589234D01*
X+355746Y-591481D01*
X+368381Y-591481D01*
X+355746Y-591481D02*
X+353219Y-593727D01*
X+353219Y-598219D01*
X+343110Y-589234D02*
X+338056Y-584742D01*
X+338056Y-598219D01*
X+327948Y-595973D02*
X+327948Y-586988D01*
X+325421Y-584742D01*
X+315313Y-584742D01*
X+312786Y-586988D01*
X+312786Y-595973D01*
X+315313Y-598219D01*
X+325421Y-598219D01*
X+327948Y-595973D01*
X+327948Y-598219D02*
X+312786Y-584742D01*
X+305204Y-586988D02*
X+302677Y-584742D01*
X+295096Y-584742D01*
X+292569Y-586988D01*
X+292569Y-589234D01*
X+295096Y-591481D01*
X+292569Y-593727D01*
X+292569Y-595973D01*
X+295096Y-598219D01*
X+302677Y-598219D01*
X+305204Y-595973D01*
X+300150Y-591481D02*
X+295096Y-591481D01*
D30*
X-1654000Y+946000D02*
X-846000Y+946000D01*
X-846000Y+1154000D01*
X-1654000Y+1154000D01*
X-1654000Y+946000D01*
D65*
X-1600000Y+1000000D02*
X-1600000Y+1000000D01*
D66*
X-1089000Y+1036000D02*
X-1089000Y+1022000D01*
X-1104750Y+1008000D01*
X-1167750Y+1008000D01*
X-1183500Y+1022000D01*
X-1183500Y+1092000D01*
X-1230750Y+1078000D02*
X-1246500Y+1092000D01*
X-1293750Y+1092000D01*
X-1309500Y+1078000D01*
X-1309500Y+1064000D01*
X-1293750Y+1050000D01*
X-1246500Y+1050000D01*
X-1230750Y+1036000D01*
X-1230750Y+1008000D01*
X-1309500Y+1008000D01*
D71*
X-2400000Y+300000D02*
X-2400000Y+1199213D01*
X-2400000Y+1200000D02*
X+5250000Y+1200000D01*
X+5250000Y-1400000D01*
X-2400000Y-1400000D01*
X-2400000Y-500000D01*
X-2100197Y+250646D02*
X-2099983Y-450000D01*
X-2400000Y-500000D02*
X-2150000Y-500000D01*
X-2100000Y-450000D02*
X-2100995Y-460223D01*
X-2103857Y-469678D01*
X-2108404Y-478180D01*
X-2114453Y-485547D01*
X-2121820Y-491595D01*
X-2130322Y-496143D01*
X-2139777Y-499005D01*
X-2150000Y-500000D01*
X-2150000Y+300000D02*
X-2139777Y+299005D01*
X-2130322Y+296143D01*
X-2121820Y+291595D01*
X-2114453Y+285547D01*
X-2108404Y+278180D01*
X-2103857Y+269678D01*
X-2100995Y+260223D01*
X-2100000Y+250000D01*
X-2400000Y+300000D02*
X-2150000Y+300000D01*
D30*
X+4185370Y+546000D02*
X+4293370Y+546000D01*
X+4293370Y+654000D01*
X+4185370Y+654000D01*
X+4185370Y+546000D01*
D67*
X+4269370Y+609999D02*
X+4246870Y+609999D01*
X+4269370Y+590000D01*
X+4246870Y+590000D01*
X+4235620Y+606666D02*
X+4231870Y+609999D01*
X+4220620Y+609999D01*
X+4216870Y+606666D01*
X+4216870Y+603333D01*
X+4220620Y+600000D01*
X+4216870Y+596666D01*
X+4216870Y+593333D01*
X+4220620Y+590000D01*
X+4231870Y+590000D01*
X+4235620Y+593333D01*
X+4228120Y+600000D02*
X+4220620Y+600000D01*
D30*
X+4185370Y+271000D02*
X+4293370Y+271000D01*
X+4293370Y+379000D01*
X+4185370Y+379000D01*
X+4185370Y+271000D01*
D67*
X+4269370Y+334999D02*
X+4246870Y+334999D01*
X+4269370Y+315000D01*
X+4246870Y+315000D01*
X+4216870Y+321666D02*
X+4239370Y+321666D01*
X+4224370Y+334999D01*
X+4224370Y+315000D01*
D30*
X+4710370Y+271000D02*
X+4818370Y+271000D01*
X+4818370Y+379000D01*
X+4710370Y+379000D01*
X+4710370Y+271000D01*
D67*
X+4794370Y+334999D02*
X+4771870Y+334999D01*
X+4794370Y+315000D01*
X+4771870Y+315000D01*
X+4741870Y+331666D02*
X+4745620Y+334999D01*
X+4756870Y+334999D01*
X+4760620Y+331666D01*
X+4760620Y+318333D01*
X+4756870Y+315000D01*
X+4745620Y+315000D01*
X+4741870Y+318333D01*
X+4741870Y+321666D01*
X+4745620Y+325000D01*
X+4760620Y+325000D01*
D30*
X+4710370Y+546000D02*
X+4818370Y+546000D01*
X+4818370Y+654000D01*
X+4710370Y+654000D01*
X+4710370Y+546000D01*
D67*
X+4794370Y+609999D02*
X+4771870Y+609999D01*
X+4794370Y+590000D01*
X+4771870Y+590000D01*
X+4741870Y+609999D02*
X+4760620Y+609999D01*
X+4760620Y+603333D01*
X+4745620Y+603333D01*
X+4741870Y+600000D01*
X+4741870Y+593333D01*
X+4745620Y+590000D01*
X+4756870Y+590000D01*
X+4760620Y+593333D01*
D30*
X+2696063Y+678268D02*
X+3303937Y+678268D01*
X+3303937Y+1141732D01*
X+2696063Y+1141732D01*
X+2696063Y+678268D01*
D68*
X+2800000Y+1100000D02*
X+2800000Y+1100000D01*
D69*
X+3156228Y+933238D02*
X+3156228Y+846445D01*
X+3136700Y+829086D01*
X+3058586Y+829086D01*
X+3039058Y+846445D01*
X+3039058Y+933238D01*
X+2960943Y+898521D02*
X+2921886Y+933238D01*
X+2921886Y+829086D01*
D30*
X+3896063Y+678268D02*
X+4503937Y+678268D01*
X+4503937Y+1141732D01*
X+3896063Y+1141732D01*
X+3896063Y+678268D01*
D68*
X+4000000Y+1100000D02*
X+4000000Y+1100000D01*
D69*
X+4356228Y+933238D02*
X+4356228Y+846445D01*
X+4336700Y+829086D01*
X+4258586Y+829086D01*
X+4239058Y+846445D01*
X+4239058Y+933238D01*
X+4180472Y+915879D02*
X+4160943Y+933238D01*
X+4102358Y+933238D01*
X+4082830Y+915879D01*
X+4082830Y+898521D01*
X+4102358Y+881162D01*
X+4160943Y+881162D01*
X+4180472Y+863803D01*
X+4180472Y+829086D01*
X+4082830Y+829086D01*
D59*
X+3779724Y+721535D02*
X+3779724Y+906575D01*
X+3870276Y+906575D01*
X+3870276Y+721535D01*
X+3779724Y+721535D01*
X+3844685Y+814055D02*
X+3805315Y+814055D01*
X+3825000Y+833740D02*
X+3825000Y+794370D01*
D74*
X+3825000Y+755000D02*
X+3825000Y+755000D01*
D75*
X+3833690Y+848157D02*
X+3838035Y+853045D01*
X+3838035Y+867710D01*
X+3829345Y+877487D01*
X+3820654Y+877487D01*
X+3811964Y+867710D01*
X+3811964Y+853045D01*
X+3816309Y+848157D01*
X+3816309Y+833492D02*
X+3811964Y+828603D01*
X+3811964Y+813938D01*
X+3816309Y+809050D01*
X+3820654Y+809050D01*
X+3825000Y+813938D01*
X+3825000Y+828603D01*
X+3829345Y+833492D01*
X+3838035Y+833492D01*
X+3838035Y+809050D01*
D59*
X+3870276Y+1138465D02*
X+3870276Y+953425D01*
X+3779724Y+953425D01*
X+3779724Y+1138465D01*
X+3870276Y+1138465D01*
X+3805315Y+1045945D02*
X+3844685Y+1045945D01*
X+3825000Y+1026260D02*
X+3825000Y+1065630D01*
D74*
X+3825000Y+1105000D02*
X+3825000Y+1105000D01*
D75*
X+3833690Y+1031398D02*
X+3838035Y+1036286D01*
X+3838035Y+1050951D01*
X+3829345Y+1060728D01*
X+3820654Y+1060728D01*
X+3811964Y+1050951D01*
X+3811964Y+1036286D01*
X+3816309Y+1031398D01*
X+3820654Y+1011844D02*
X+3811964Y+1002067D01*
X+3838035Y+1002067D01*
D59*
X+4979724Y+721535D02*
X+4979724Y+906575D01*
X+5070276Y+906575D01*
X+5070276Y+721535D01*
X+4979724Y+721535D01*
X+5044685Y+814055D02*
X+5005315Y+814055D01*
X+5025000Y+833740D02*
X+5025000Y+794370D01*
D74*
X+5025000Y+755000D02*
X+5025000Y+755000D01*
D75*
X+5033690Y+848157D02*
X+5038035Y+853045D01*
X+5038035Y+867710D01*
X+5029345Y+877487D01*
X+5020654Y+877487D01*
X+5011964Y+867710D01*
X+5011964Y+853045D01*
X+5016309Y+848157D01*
X+5029345Y+809050D02*
X+5029345Y+838380D01*
X+5011964Y+818826D01*
X+5038035Y+818826D01*
D59*
X+5070276Y+1138465D02*
X+5070276Y+953425D01*
X+4979724Y+953425D01*
X+4979724Y+1138465D01*
X+5070276Y+1138465D01*
X+5005315Y+1045945D02*
X+5044685Y+1045945D01*
X+5025000Y+1026260D02*
X+5025000Y+1065630D01*
D74*
X+5025000Y+1105000D02*
X+5025000Y+1105000D01*
D75*
X+5033690Y+1031398D02*
X+5038035Y+1036286D01*
X+5038035Y+1050951D01*
X+5029345Y+1060728D01*
X+5020654Y+1060728D01*
X+5011964Y+1050951D01*
X+5011964Y+1036286D01*
X+5016309Y+1031398D01*
X+5016309Y+1016733D02*
X+5011964Y+1011844D01*
X+5011964Y+997179D01*
X+5016309Y+992291D01*
X+5020654Y+992291D01*
X+5025000Y+997179D01*
X+5029345Y+992291D01*
X+5033690Y+992291D01*
X+5038035Y+997179D01*
X+5038035Y+1011844D01*
X+5033690Y+1016733D01*
X+5025000Y+1006956D02*
X+5025000Y+997179D01*
D30*
X+3546000Y+725000D02*
X+3704000Y+725000D01*
X+3704000Y+870000D01*
X+3546000Y+870000D01*
X+3546000Y+725000D01*
D76*
X+3625000Y+840000D02*
X+3625000Y+840000D01*
D77*
X+3670000Y+785500D02*
X+3670000Y+755500D01*
X+3636250Y+755500D01*
X+3619375Y+780500D02*
X+3613750Y+785500D01*
X+3596875Y+785500D01*
X+3591250Y+780500D01*
X+3591250Y+775500D01*
X+3596875Y+770500D01*
X+3613750Y+770500D01*
X+3619375Y+765500D01*
X+3619375Y+755500D01*
X+3591250Y+755500D01*
D30*
X+3546000Y+990000D02*
X+3704000Y+990000D01*
X+3704000Y+1135000D01*
X+3546000Y+1135000D01*
X+3546000Y+990000D01*
D76*
X+3625000Y+1020000D02*
X+3625000Y+1020000D01*
D77*
X+3670000Y+1104500D02*
X+3670000Y+1074500D01*
X+3636250Y+1074500D01*
X+3613750Y+1094500D02*
X+3602500Y+1104500D01*
X+3602500Y+1074500D01*
D30*
X+4746000Y+725000D02*
X+4904000Y+725000D01*
X+4904000Y+870000D01*
X+4746000Y+870000D01*
X+4746000Y+725000D01*
D76*
X+4825000Y+840000D02*
X+4825000Y+840000D01*
D77*
X+4870000Y+785500D02*
X+4870000Y+755500D01*
X+4836250Y+755500D01*
X+4791250Y+765500D02*
X+4825000Y+765500D01*
X+4802500Y+785500D01*
X+4802500Y+755500D01*
D30*
X+4746000Y+990000D02*
X+4904000Y+990000D01*
X+4904000Y+1135000D01*
X+4746000Y+1135000D01*
X+4746000Y+990000D01*
D76*
X+4825000Y+1020000D02*
X+4825000Y+1020000D01*
D77*
X+4870000Y+1104500D02*
X+4870000Y+1074500D01*
X+4836250Y+1074500D01*
X+4819375Y+1099500D02*
X+4813750Y+1104500D01*
X+4796875Y+1104500D01*
X+4791250Y+1099500D01*
X+4791250Y+1094500D01*
X+4796875Y+1089500D01*
X+4791250Y+1084500D01*
X+4791250Y+1079500D01*
X+4796875Y+1074500D01*
X+4813750Y+1074500D01*
X+4819375Y+1079500D01*
X+4808125Y+1089500D02*
X+4796875Y+1089500D01*
D59*
X+3464370Y+869528D02*
X+3464370Y+731732D01*
X+3385630Y+731732D01*
X+3385630Y+869528D01*
X+3464370Y+869528D01*
X+3405315Y+800630D02*
X+3444685Y+800630D01*
X+3425000Y+780945D02*
X+3425000Y+820315D01*
D60*
X+3425000Y+840000D02*
X+3425000Y+840000D01*
D78*
X+3433985Y+806629D02*
X+3416015Y+806629D01*
X+3416015Y+789782D01*
X+3419010Y+786413D01*
X+3422005Y+786413D01*
X+3425000Y+789782D01*
X+3425000Y+806629D01*
X+3425000Y+789782D02*
X+3427995Y+786413D01*
X+3433985Y+786413D01*
X+3419010Y+776305D02*
X+3416015Y+772935D01*
X+3416015Y+762827D01*
X+3419010Y+759458D01*
X+3422005Y+759458D01*
X+3425000Y+762827D01*
X+3425000Y+772935D01*
X+3427995Y+776305D01*
X+3433985Y+776305D01*
X+3433985Y+759458D01*
D59*
X+3385630Y+990472D02*
X+3385630Y+1128268D01*
X+3464370Y+1128268D01*
X+3464370Y+990472D01*
X+3385630Y+990472D01*
X+3444685Y+1059370D02*
X+3405315Y+1059370D01*
X+3425000Y+1079055D02*
X+3425000Y+1039685D01*
D60*
X+3425000Y+1020000D02*
X+3425000Y+1020000D01*
D78*
X+3433985Y+1107281D02*
X+3416015Y+1107281D01*
X+3416015Y+1090434D01*
X+3419010Y+1087065D01*
X+3422005Y+1087065D01*
X+3425000Y+1090434D01*
X+3425000Y+1107281D01*
X+3425000Y+1090434D02*
X+3427995Y+1087065D01*
X+3433985Y+1087065D01*
X+3422005Y+1073587D02*
X+3416015Y+1066848D01*
X+3433985Y+1066848D01*
D59*
X+4664370Y+869528D02*
X+4664370Y+731732D01*
X+4585630Y+731732D01*
X+4585630Y+869528D01*
X+4664370Y+869528D01*
X+4605315Y+800630D02*
X+4644685Y+800630D01*
X+4625000Y+780945D02*
X+4625000Y+820315D01*
D60*
X+4625000Y+840000D02*
X+4625000Y+840000D01*
D78*
X+4633985Y+806629D02*
X+4616015Y+806629D01*
X+4616015Y+789782D01*
X+4619010Y+786413D01*
X+4622005Y+786413D01*
X+4625000Y+789782D01*
X+4625000Y+806629D01*
X+4625000Y+789782D02*
X+4627995Y+786413D01*
X+4633985Y+786413D01*
X+4619010Y+759458D02*
X+4616015Y+762827D01*
X+4616015Y+772935D01*
X+4619010Y+776305D01*
X+4630990Y+776305D01*
X+4633985Y+772935D01*
X+4633985Y+762827D01*
X+4630990Y+759458D01*
X+4627995Y+759458D01*
X+4625000Y+762827D01*
X+4625000Y+776305D01*
D59*
X+4585630Y+990472D02*
X+4585630Y+1128268D01*
X+4664370Y+1128268D01*
X+4664370Y+990472D01*
X+4585630Y+990472D01*
X+4644685Y+1059370D02*
X+4605315Y+1059370D01*
X+4625000Y+1079055D02*
X+4625000Y+1039685D01*
D60*
X+4625000Y+1020000D02*
X+4625000Y+1020000D01*
D78*
X+4633985Y+1107281D02*
X+4616015Y+1107281D01*
X+4616015Y+1090434D01*
X+4619010Y+1087065D01*
X+4622005Y+1087065D01*
X+4625000Y+1090434D01*
X+4625000Y+1107281D01*
X+4625000Y+1090434D02*
X+4627995Y+1087065D01*
X+4633985Y+1087065D01*
X+4616015Y+1060110D02*
X+4616015Y+1076957D01*
X+4622005Y+1076957D01*
X+4622005Y+1063479D01*
X+4625000Y+1060110D01*
X+4630990Y+1060110D01*
X+4633985Y+1063479D01*
X+4633985Y+1073587D01*
X+4630990Y+1076957D01*
D30*
X+3485370Y+271000D02*
X+3593370Y+271000D01*
X+3593370Y+379000D01*
X+3485370Y+379000D01*
X+3485370Y+271000D01*
D67*
X+3569370Y+334999D02*
X+3546870Y+334999D01*
X+3569370Y+315000D01*
X+3546870Y+315000D01*
X+3535620Y+331666D02*
X+3531870Y+334999D01*
X+3520620Y+334999D01*
X+3516870Y+331666D01*
X+3516870Y+328333D01*
X+3520620Y+325000D01*
X+3531870Y+325000D01*
X+3535620Y+321666D01*
X+3535620Y+315000D01*
X+3516870Y+315000D01*
D30*
X+3485370Y+546000D02*
X+3593370Y+546000D01*
X+3593370Y+654000D01*
X+3485370Y+654000D01*
X+3485370Y+546000D01*
D67*
X+3569370Y+609999D02*
X+3546870Y+609999D01*
X+3569370Y+590000D01*
X+3546870Y+590000D01*
X+3531870Y+603333D02*
X+3524370Y+609999D01*
X+3524370Y+590000D01*
D59*
X+4278740Y+533268D02*
X+4278740Y+395472D01*
X+4200000Y+395472D01*
X+4200000Y+533268D01*
X+4278740Y+533268D01*
X+4219685Y+464370D02*
X+4259055Y+464370D01*
X+4239370Y+444685D02*
X+4239370Y+484055D01*
D60*
X+4239370Y+503740D02*
X+4239370Y+503740D01*
D78*
X+4248355Y+470369D02*
X+4230385Y+470369D01*
X+4230385Y+453522D01*
X+4233380Y+450153D01*
X+4236375Y+450153D01*
X+4239370Y+453522D01*
X+4239370Y+470369D01*
X+4239370Y+453522D02*
X+4242365Y+450153D01*
X+4248355Y+450153D01*
X+4242365Y+423198D02*
X+4242365Y+443414D01*
X+4230385Y+429936D01*
X+4248355Y+429936D01*
D59*
X+3578740Y+533268D02*
X+3578740Y+395472D01*
X+3500000Y+395472D01*
X+3500000Y+533268D01*
X+3578740Y+533268D01*
X+3519685Y+464370D02*
X+3559055Y+464370D01*
X+3539370Y+444685D02*
X+3539370Y+484055D01*
D60*
X+3539370Y+503740D02*
X+3539370Y+503740D01*
D78*
X+3548355Y+470369D02*
X+3530385Y+470369D01*
X+3530385Y+453522D01*
X+3533380Y+450153D01*
X+3536375Y+450153D01*
X+3539370Y+453522D01*
X+3539370Y+470369D01*
X+3539370Y+453522D02*
X+3542365Y+450153D01*
X+3548355Y+450153D01*
X+3533380Y+440045D02*
X+3530385Y+436675D01*
X+3530385Y+426567D01*
X+3533380Y+423198D01*
X+3536375Y+423198D01*
X+3539370Y+426567D01*
X+3542365Y+423198D01*
X+3545360Y+423198D01*
X+3548355Y+426567D01*
X+3548355Y+436675D01*
X+3545360Y+440045D01*
X+3539370Y+433306D02*
X+3539370Y+426567D01*
D59*
X+4803740Y+533268D02*
X+4803740Y+395472D01*
X+4725000Y+395472D01*
X+4725000Y+533268D01*
X+4803740Y+533268D01*
X+4744685Y+464370D02*
X+4784055Y+464370D01*
X+4764370Y+444685D02*
X+4764370Y+484055D01*
D60*
X+4764370Y+503740D02*
X+4764370Y+503740D01*
D78*
X+4773355Y+470369D02*
X+4755385Y+470369D01*
X+4755385Y+453522D01*
X+4758380Y+450153D01*
X+4761375Y+450153D01*
X+4764370Y+453522D01*
X+4764370Y+470369D01*
X+4764370Y+453522D02*
X+4767365Y+450153D01*
X+4773355Y+450153D01*
X+4755385Y+440045D02*
X+4755385Y+423198D01*
X+4758380Y+423198D01*
X+4773355Y+440045D01*
D30*
X-1636000Y-445000D02*
X-1302000Y-445000D01*
X-1302000Y-160000D01*
X-1636000Y-160000D01*
X-1636000Y-445000D01*
D63*
X-1319000Y-405000D02*
X-1319000Y-405000D01*
D79*
X-1403040Y-275805D02*
X-1403040Y-320296D01*
X-1413050Y-329195D01*
X-1453093Y-329195D01*
X-1463103Y-320296D01*
X-1463103Y-275805D01*
X-1493135Y-284703D02*
X-1503146Y-275805D01*
X-1533178Y-275805D01*
X-1543188Y-284703D01*
X-1543188Y-293601D01*
X-1533178Y-302500D01*
X-1543188Y-311398D01*
X-1543188Y-320296D01*
X-1533178Y-329195D01*
X-1503146Y-329195D01*
X-1493135Y-320296D01*
X-1513156Y-302500D02*
X-1533178Y-302500D01*
D30*
X-966709Y-445000D02*
X-632709Y-445000D01*
X-632709Y-160000D01*
X-966709Y-160000D01*
X-966709Y-445000D01*
D63*
X-649709Y-405000D02*
X-649709Y-405000D01*
D79*
X-733749Y-275805D02*
X-733749Y-320296D01*
X-743759Y-329195D01*
X-783802Y-329195D01*
X-793812Y-320296D01*
X-793812Y-275805D01*
X-873897Y-311398D02*
X-813834Y-311398D01*
X-853876Y-275805D01*
X-853876Y-329195D01*
D59*
X-1279630Y+29331D02*
X-1279630Y-108465D01*
X-1358370Y-108465D01*
X-1358370Y+29331D01*
X-1279630Y+29331D01*
X-1338685Y-39567D02*
X-1299315Y-39567D01*
X-1319000Y-59252D02*
X-1319000Y-19882D01*
D60*
X-1319000Y-4134D02*
X-1319000Y-4134D01*
D80*
X-1313272Y-56047D02*
X-1310409Y-52826D01*
X-1310409Y-43160D01*
X-1316136Y-36717D01*
X-1321864Y-36717D01*
X-1327591Y-43160D01*
X-1327591Y-52826D01*
X-1324727Y-56047D01*
X-1327591Y-81821D02*
X-1327591Y-65713D01*
X-1321864Y-65713D01*
X-1321864Y-78600D01*
X-1319000Y-81821D01*
X-1313272Y-81821D01*
X-1310409Y-78600D01*
X-1310409Y-68934D01*
X-1313272Y-65713D01*
D59*
X-610339Y+29331D02*
X-610339Y-108465D01*
X-689079Y-108465D01*
X-689079Y+29331D01*
X-610339Y+29331D01*
X-669394Y-39567D02*
X-630024Y-39567D01*
X-649709Y-59252D02*
X-649709Y-19882D01*
D60*
X-649709Y-4134D02*
X-649709Y-4134D01*
D80*
X-643981Y-56047D02*
X-641118Y-52826D01*
X-641118Y-43160D01*
X-646845Y-36717D01*
X-652573Y-36717D01*
X-658300Y-43160D01*
X-658300Y-52826D01*
X-655436Y-56047D01*
X-655436Y-81821D02*
X-658300Y-78600D01*
X-658300Y-68934D01*
X-655436Y-65713D01*
X-643981Y-65713D01*
X-641118Y-68934D01*
X-641118Y-78600D01*
X-643981Y-81821D01*
X-646845Y-81821D01*
X-649709Y-78600D01*
X-649709Y-65713D01*
D30*
X+1506000Y+767000D02*
X+1670000Y+767000D01*
X+1670000Y+833000D01*
X+1506000Y+833000D01*
X+1506000Y+767000D01*
D81*
X+1650000Y+800000D02*
X+1650000Y+800000D01*
D82*
X+1626809Y+787820D02*
X+1626809Y+812180D01*
X+1599404Y+812180D01*
X+1626809Y+800000D02*
X+1608539Y+800000D01*
X+1590269Y+812180D02*
X+1590269Y+791880D01*
X+1585702Y+787820D01*
X+1567432Y+787820D01*
X+1562864Y+791880D01*
X+1562864Y+812180D01*
X+1544594Y+804060D02*
X+1535459Y+812180D01*
X+1535459Y+787820D01*
D30*
X+1780000Y+767000D02*
X+1944000Y+767000D01*
X+1944000Y+833000D01*
X+1780000Y+833000D01*
X+1780000Y+767000D01*
D81*
X+1924000Y+800000D02*
X+1924000Y+800000D01*
D82*
X+1900809Y+787820D02*
X+1900809Y+812180D01*
X+1873404Y+812180D01*
X+1900809Y+800000D02*
X+1882539Y+800000D01*
X+1864269Y+812180D02*
X+1864269Y+791880D01*
X+1859702Y+787820D01*
X+1841432Y+787820D01*
X+1836864Y+791880D01*
X+1836864Y+812180D01*
X+1823162Y+808120D02*
X+1818594Y+812180D01*
X+1804892Y+812180D01*
X+1800324Y+808120D01*
X+1800324Y+804060D01*
X+1804892Y+800000D01*
X+1818594Y+800000D01*
X+1823162Y+795940D01*
X+1823162Y+787820D01*
X+1800324Y+787820D01*
M02*
