G04 PROTEUS GERBER X2 FILE*
%TF.GenerationSoftware,Labcenter,Proteus,8.12-SP0-Build30713*%
%TF.CreationDate,2021-04-15T12:14:11+00:00*%
%TF.FileFunction,Other,Mechanical 1*%
%TF.FilePolarity,Positive*%
%TF.Part,Single*%
%TF.SameCoordinates,{5a193cc5-51b4-4a6d-ad6d-b15ded965af5}*%
%FSLAX26Y26*%
%MOIN*%
G01*
%TA.AperFunction,NonMaterial*%
%ADD55C,0.008000*%
%TA.AperFunction,Profile*%
%ADD71C,0.008000*%
%TD.AperFunction*%
D55*
X-160630Y-1650000D02*
X-160630Y+690000D01*
X-3500000Y-900000D02*
X+3050000Y-900000D01*
X-2200000Y+1800000D02*
X-2200000Y-1650000D01*
X-3705000Y+500000D02*
X+5140000Y+500000D01*
X-3900000Y+900000D02*
X+200000Y+900000D01*
X-100000Y+2200000D02*
X-100000Y-1300000D01*
X+600000Y+2400000D02*
X+600000Y+900000D01*
X-4100000Y+1000000D02*
X+1100000Y+1000000D01*
X-1600000Y+2000000D02*
X-1600000Y+900000D01*
D71*
X-2400000Y+300000D02*
X-2400000Y+1199213D01*
X-2400000Y+1200000D02*
X+5250000Y+1200000D01*
X+5250000Y-1400000D01*
X-2400000Y-1400000D01*
X-2400000Y-500000D01*
X-2100197Y+250646D02*
X-2099983Y-450000D01*
X-2400000Y-500000D02*
X-2150000Y-500000D01*
X-2100000Y-450000D02*
X-2100995Y-460223D01*
X-2103857Y-469678D01*
X-2108404Y-478180D01*
X-2114453Y-485547D01*
X-2121820Y-491595D01*
X-2130322Y-496143D01*
X-2139777Y-499005D01*
X-2150000Y-500000D01*
X-2150000Y+300000D02*
X-2139777Y+299005D01*
X-2130322Y+296143D01*
X-2121820Y+291595D01*
X-2114453Y+285547D01*
X-2108404Y+278180D01*
X-2103857Y+269678D01*
X-2100995Y+260223D01*
X-2100000Y+250000D01*
X-2400000Y+300000D02*
X-2150000Y+300000D01*
D55*
X+4950000Y+700000D02*
X+4950000Y-2453150D01*
X-3300000Y-1100000D02*
X+5150000Y-1100000D01*
X-3000000Y-1450000D02*
X-3000000Y-2653150D01*
X+3000000Y-1450000D02*
X+3000000Y-2253150D01*
X-3000000Y-1550000D02*
X-2200000Y-1550000D01*
X-3000000Y-1550000D02*
X-2950000Y-1600000D01*
X-3000000Y-1550000D02*
X-2950000Y-1500000D01*
X-2200000Y-1550000D02*
X-2250000Y-1500000D01*
X-2200000Y-1550000D02*
X-2250000Y-1600000D01*
X-2587500Y-1550000D02*
X-2587543Y-1548964D01*
X-2587893Y-1546890D01*
X-2588626Y-1544816D01*
X-2589823Y-1542742D01*
X-2591654Y-1540694D01*
X-2593728Y-1539187D01*
X-2595802Y-1538226D01*
X-2597876Y-1537682D01*
X-2599950Y-1537500D01*
X-2600000Y-1537500D01*
X-2612500Y-1550000D02*
X-2612457Y-1548964D01*
X-2612107Y-1546890D01*
X-2611374Y-1544816D01*
X-2610177Y-1542742D01*
X-2608346Y-1540694D01*
X-2606272Y-1539187D01*
X-2604198Y-1538226D01*
X-2602124Y-1537682D01*
X-2600050Y-1537500D01*
X-2600000Y-1537500D01*
X-2612500Y-1550000D02*
X-2612457Y-1551036D01*
X-2612107Y-1553110D01*
X-2611374Y-1555184D01*
X-2610177Y-1557258D01*
X-2608346Y-1559306D01*
X-2606272Y-1560813D01*
X-2604198Y-1561774D01*
X-2602124Y-1562318D01*
X-2600050Y-1562500D01*
X-2600000Y-1562500D01*
X-2587500Y-1550000D02*
X-2587543Y-1551036D01*
X-2587893Y-1553110D01*
X-2588626Y-1555184D01*
X-2589823Y-1557258D01*
X-2591654Y-1559306D01*
X-2593728Y-1560813D01*
X-2595802Y-1561774D01*
X-2597876Y-1562318D01*
X-2599950Y-1562500D01*
X-2600000Y-1562500D01*
X-2725000Y-1503000D02*
X-2725000Y-1479000D01*
X-2718750Y-1473000D01*
X-2693750Y-1473000D01*
X-2687500Y-1479000D01*
X-2687500Y-1503000D01*
X-2693750Y-1509000D01*
X-2718750Y-1509000D01*
X-2725000Y-1503000D01*
X-2725000Y-1509000D02*
X-2687500Y-1473000D01*
X-2656250Y-1503000D02*
X-2650000Y-1503000D01*
X-2650000Y-1509000D01*
X-2656250Y-1509000D01*
X-2656250Y-1503000D01*
X-2612500Y-1491000D02*
X-2618750Y-1485000D01*
X-2618750Y-1479000D01*
X-2612500Y-1473000D01*
X-2593750Y-1473000D01*
X-2587500Y-1479000D01*
X-2587500Y-1485000D01*
X-2593750Y-1491000D01*
X-2612500Y-1491000D01*
X-2618750Y-1497000D01*
X-2618750Y-1503000D01*
X-2612500Y-1509000D01*
X-2593750Y-1509000D01*
X-2587500Y-1503000D01*
X-2587500Y-1497000D01*
X-2593750Y-1491000D01*
X-2575000Y-1503000D02*
X-2575000Y-1479000D01*
X-2568750Y-1473000D01*
X-2543750Y-1473000D01*
X-2537500Y-1479000D01*
X-2537500Y-1503000D01*
X-2543750Y-1509000D01*
X-2568750Y-1509000D01*
X-2575000Y-1503000D01*
X-2575000Y-1509000D02*
X-2537500Y-1473000D01*
X-2525000Y-1503000D02*
X-2525000Y-1479000D01*
X-2518750Y-1473000D01*
X-2493750Y-1473000D01*
X-2487500Y-1479000D01*
X-2487500Y-1503000D01*
X-2493750Y-1509000D01*
X-2518750Y-1509000D01*
X-2525000Y-1503000D01*
X-2525000Y-1509000D02*
X-2487500Y-1473000D01*
X-3000000Y-2153150D02*
X+3000000Y-2153150D01*
X-3000000Y-2153150D02*
X-2950000Y-2203150D01*
X-3000000Y-2153150D02*
X-2950000Y-2103150D01*
X+3000000Y-2153150D02*
X+2950000Y-2103150D01*
X+3000000Y-2153150D02*
X+2950000Y-2203150D01*
X+12500Y-2153150D02*
X+12457Y-2152114D01*
X+12107Y-2150040D01*
X+11374Y-2147966D01*
X+10177Y-2145892D01*
X+8346Y-2143844D01*
X+6272Y-2142337D01*
X+4198Y-2141376D01*
X+2124Y-2140832D01*
X+50Y-2140650D01*
X+0Y-2140650D01*
X-12500Y-2153150D02*
X-12457Y-2152114D01*
X-12107Y-2150040D01*
X-11374Y-2147966D01*
X-10177Y-2145892D01*
X-8346Y-2143844D01*
X-6272Y-2142337D01*
X-4198Y-2141376D01*
X-2124Y-2140832D01*
X-50Y-2140650D01*
X+0Y-2140650D01*
X-12500Y-2153150D02*
X-12457Y-2154186D01*
X-12107Y-2156260D01*
X-11374Y-2158334D01*
X-10177Y-2160408D01*
X-8346Y-2162456D01*
X-6272Y-2163963D01*
X-4198Y-2164924D01*
X-2124Y-2165468D01*
X-50Y-2165650D01*
X+0Y-2165650D01*
X+12500Y-2153150D02*
X+12457Y-2154186D01*
X+12107Y-2156260D01*
X+11374Y-2158334D01*
X+10177Y-2160408D01*
X+8346Y-2162456D01*
X+6272Y-2163963D01*
X+4198Y-2164924D01*
X+2124Y-2165468D01*
X+50Y-2165650D01*
X+0Y-2165650D01*
X-87500Y-2082150D02*
X-93750Y-2076150D01*
X-112500Y-2076150D01*
X-118750Y-2082150D01*
X-118750Y-2106150D01*
X-112500Y-2112150D01*
X-93750Y-2112150D01*
X-87500Y-2106150D01*
X-87500Y-2100150D01*
X-93750Y-2094150D01*
X-118750Y-2094150D01*
X-56250Y-2106150D02*
X-50000Y-2106150D01*
X-50000Y-2112150D01*
X-56250Y-2112150D01*
X-56250Y-2106150D01*
X-25000Y-2106150D02*
X-25000Y-2082150D01*
X-18750Y-2076150D01*
X+6250Y-2076150D01*
X+12500Y-2082150D01*
X+12500Y-2106150D01*
X+6250Y-2112150D01*
X-18750Y-2112150D01*
X-25000Y-2106150D01*
X-25000Y-2112150D02*
X+12500Y-2076150D01*
X+25000Y-2106150D02*
X+25000Y-2082150D01*
X+31250Y-2076150D01*
X+56250Y-2076150D01*
X+62500Y-2082150D01*
X+62500Y-2106150D01*
X+56250Y-2112150D01*
X+31250Y-2112150D01*
X+25000Y-2106150D01*
X+25000Y-2112150D02*
X+62500Y-2076150D01*
X+75000Y-2106150D02*
X+75000Y-2082150D01*
X+81250Y-2076150D01*
X+106250Y-2076150D01*
X+112500Y-2082150D01*
X+112500Y-2106150D01*
X+106250Y-2112150D01*
X+81250Y-2112150D01*
X+75000Y-2106150D01*
X+75000Y-2112150D02*
X+112500Y-2076150D01*
X-3000000Y-2353150D02*
X+4950000Y-2353150D01*
X-3000000Y-2353150D02*
X-2950000Y-2403150D01*
X-3000000Y-2353150D02*
X-2950000Y-2303150D01*
X+4950000Y-2353150D02*
X+4900000Y-2303150D01*
X+4950000Y-2353150D02*
X+4900000Y-2403150D01*
X+987500Y-2353150D02*
X+987457Y-2352114D01*
X+987107Y-2350040D01*
X+986374Y-2347966D01*
X+985177Y-2345892D01*
X+983346Y-2343844D01*
X+981272Y-2342337D01*
X+979198Y-2341376D01*
X+977124Y-2340832D01*
X+975050Y-2340650D01*
X+975000Y-2340650D01*
X+962500Y-2353150D02*
X+962543Y-2352114D01*
X+962893Y-2350040D01*
X+963626Y-2347966D01*
X+964823Y-2345892D01*
X+966654Y-2343844D01*
X+968728Y-2342337D01*
X+970802Y-2341376D01*
X+972876Y-2340832D01*
X+974950Y-2340650D01*
X+975000Y-2340650D01*
X+962500Y-2353150D02*
X+962543Y-2354186D01*
X+962893Y-2356260D01*
X+963626Y-2358334D01*
X+964823Y-2360408D01*
X+966654Y-2362456D01*
X+968728Y-2363963D01*
X+970802Y-2364924D01*
X+972876Y-2365468D01*
X+974950Y-2365650D01*
X+975000Y-2365650D01*
X+987500Y-2353150D02*
X+987457Y-2354186D01*
X+987107Y-2356260D01*
X+986374Y-2358334D01*
X+985177Y-2360408D01*
X+983346Y-2362456D01*
X+981272Y-2363963D01*
X+979198Y-2364924D01*
X+977124Y-2365468D01*
X+975050Y-2365650D01*
X+975000Y-2365650D01*
X+856250Y-2276150D02*
X+887500Y-2276150D01*
X+887500Y-2282150D01*
X+856250Y-2312150D01*
X+918750Y-2306150D02*
X+925000Y-2306150D01*
X+925000Y-2312150D01*
X+918750Y-2312150D01*
X+918750Y-2306150D01*
X+987500Y-2288150D02*
X+981250Y-2294150D01*
X+962500Y-2294150D01*
X+956250Y-2288150D01*
X+956250Y-2282150D01*
X+962500Y-2276150D01*
X+981250Y-2276150D01*
X+987500Y-2282150D01*
X+987500Y-2306150D01*
X+981250Y-2312150D01*
X+962500Y-2312150D01*
X+1037500Y-2276150D02*
X+1006250Y-2276150D01*
X+1006250Y-2288150D01*
X+1031250Y-2288150D01*
X+1037500Y-2294150D01*
X+1037500Y-2306150D01*
X+1031250Y-2312150D01*
X+1012500Y-2312150D01*
X+1006250Y-2306150D01*
X+1050000Y-2306150D02*
X+1050000Y-2282150D01*
X+1056250Y-2276150D01*
X+1081250Y-2276150D01*
X+1087500Y-2282150D01*
X+1087500Y-2306150D01*
X+1081250Y-2312150D01*
X+1056250Y-2312150D01*
X+1050000Y-2306150D01*
X+1050000Y-2312150D02*
X+1087500Y-2276150D01*
X+5250000Y-1425000D02*
X+5250000Y-2638780D01*
X-3000000Y-2553150D02*
X+5250000Y-2553150D01*
X-3000000Y-2553150D02*
X-2950000Y-2603150D01*
X-3000000Y-2553150D02*
X-2950000Y-2503150D01*
X+5250000Y-2553150D02*
X+5200000Y-2503150D01*
X+5250000Y-2553150D02*
X+5200000Y-2603150D01*
X+1137500Y-2553150D02*
X+1137457Y-2552114D01*
X+1137107Y-2550040D01*
X+1136374Y-2547966D01*
X+1135177Y-2545892D01*
X+1133346Y-2543844D01*
X+1131272Y-2542337D01*
X+1129198Y-2541376D01*
X+1127124Y-2540832D01*
X+1125050Y-2540650D01*
X+1125000Y-2540650D01*
X+1112500Y-2553150D02*
X+1112543Y-2552114D01*
X+1112893Y-2550040D01*
X+1113626Y-2547966D01*
X+1114823Y-2545892D01*
X+1116654Y-2543844D01*
X+1118728Y-2542337D01*
X+1120802Y-2541376D01*
X+1122876Y-2540832D01*
X+1124950Y-2540650D01*
X+1125000Y-2540650D01*
X+1112500Y-2553150D02*
X+1112543Y-2554186D01*
X+1112893Y-2556260D01*
X+1113626Y-2558334D01*
X+1114823Y-2560408D01*
X+1116654Y-2562456D01*
X+1118728Y-2563963D01*
X+1120802Y-2564924D01*
X+1122876Y-2565468D01*
X+1124950Y-2565650D01*
X+1125000Y-2565650D01*
X+1137500Y-2553150D02*
X+1137457Y-2554186D01*
X+1137107Y-2556260D01*
X+1136374Y-2558334D01*
X+1135177Y-2560408D01*
X+1133346Y-2562456D01*
X+1131272Y-2563963D01*
X+1129198Y-2564924D01*
X+1127124Y-2565468D01*
X+1125050Y-2565650D01*
X+1125000Y-2565650D01*
X+1012500Y-2479780D02*
X+1006250Y-2473780D01*
X+1006250Y-2467780D01*
X+1012500Y-2461780D01*
X+1031250Y-2461780D01*
X+1037500Y-2467780D01*
X+1037500Y-2473780D01*
X+1031250Y-2479780D01*
X+1012500Y-2479780D01*
X+1006250Y-2485780D01*
X+1006250Y-2491780D01*
X+1012500Y-2497780D01*
X+1031250Y-2497780D01*
X+1037500Y-2491780D01*
X+1037500Y-2485780D01*
X+1031250Y-2479780D01*
X+1068750Y-2491780D02*
X+1075000Y-2491780D01*
X+1075000Y-2497780D01*
X+1068750Y-2497780D01*
X+1068750Y-2491780D01*
X+1106250Y-2467780D02*
X+1112500Y-2461780D01*
X+1131250Y-2461780D01*
X+1137500Y-2467780D01*
X+1137500Y-2473780D01*
X+1131250Y-2479780D01*
X+1112500Y-2479780D01*
X+1106250Y-2485780D01*
X+1106250Y-2497780D01*
X+1137500Y-2497780D01*
X+1187500Y-2461780D02*
X+1156250Y-2461780D01*
X+1156250Y-2473780D01*
X+1181250Y-2473780D01*
X+1187500Y-2479780D01*
X+1187500Y-2491780D01*
X+1181250Y-2497780D01*
X+1162500Y-2497780D01*
X+1156250Y-2491780D01*
X+1200000Y-2491780D02*
X+1200000Y-2467780D01*
X+1206250Y-2461780D01*
X+1231250Y-2461780D01*
X+1237500Y-2467780D01*
X+1237500Y-2491780D01*
X+1231250Y-2497780D01*
X+1206250Y-2497780D01*
X+1200000Y-2491780D01*
X+1200000Y-2497780D02*
X+1237500Y-2461780D01*
X-3050000Y+1200000D02*
X-4300000Y+1200000D01*
X-3050000Y-1400000D02*
X-4300000Y-1400000D01*
X-3200000Y-1400000D02*
X-3200000Y-1100000D01*
X-3200000Y-1400000D02*
X-3150000Y-1350000D01*
X-3200000Y-1400000D02*
X-3250000Y-1350000D01*
X-3200000Y-1100000D02*
X-3250000Y-1150000D01*
X-3200000Y-1100000D02*
X-3150000Y-1150000D01*
X-3187500Y-1250000D02*
X-3187543Y-1248964D01*
X-3187893Y-1246890D01*
X-3188626Y-1244816D01*
X-3189823Y-1242742D01*
X-3191654Y-1240694D01*
X-3193728Y-1239187D01*
X-3195802Y-1238226D01*
X-3197876Y-1237682D01*
X-3199950Y-1237500D01*
X-3200000Y-1237500D01*
X-3212500Y-1250000D02*
X-3212457Y-1248964D01*
X-3212107Y-1246890D01*
X-3211374Y-1244816D01*
X-3210177Y-1242742D01*
X-3208346Y-1240694D01*
X-3206272Y-1239187D01*
X-3204198Y-1238226D01*
X-3202124Y-1237682D01*
X-3200050Y-1237500D01*
X-3200000Y-1237500D01*
X-3212500Y-1250000D02*
X-3212457Y-1251036D01*
X-3212107Y-1253110D01*
X-3211374Y-1255184D01*
X-3210177Y-1257258D01*
X-3208346Y-1259306D01*
X-3206272Y-1260813D01*
X-3204198Y-1261774D01*
X-3202124Y-1262318D01*
X-3200050Y-1262500D01*
X-3200000Y-1262500D01*
X-3187500Y-1250000D02*
X-3187543Y-1251036D01*
X-3187893Y-1253110D01*
X-3188626Y-1255184D01*
X-3189823Y-1257258D01*
X-3191654Y-1259306D01*
X-3193728Y-1260813D01*
X-3195802Y-1261774D01*
X-3197876Y-1262318D01*
X-3199950Y-1262500D01*
X-3200000Y-1262500D01*
X-3272000Y-1375000D02*
X-3296000Y-1375000D01*
X-3302000Y-1368750D01*
X-3302000Y-1343750D01*
X-3296000Y-1337500D01*
X-3272000Y-1337500D01*
X-3266000Y-1343750D01*
X-3266000Y-1368750D01*
X-3272000Y-1375000D01*
X-3266000Y-1375000D02*
X-3302000Y-1337500D01*
X-3272000Y-1306250D02*
X-3272000Y-1300000D01*
X-3266000Y-1300000D01*
X-3266000Y-1306250D01*
X-3272000Y-1306250D01*
X-3296000Y-1268750D02*
X-3302000Y-1262500D01*
X-3302000Y-1243750D01*
X-3296000Y-1237500D01*
X-3290000Y-1237500D01*
X-3284000Y-1243750D01*
X-3278000Y-1237500D01*
X-3272000Y-1237500D01*
X-3266000Y-1243750D01*
X-3266000Y-1262500D01*
X-3272000Y-1268750D01*
X-3284000Y-1256250D02*
X-3284000Y-1243750D01*
X-3272000Y-1225000D02*
X-3296000Y-1225000D01*
X-3302000Y-1218750D01*
X-3302000Y-1193750D01*
X-3296000Y-1187500D01*
X-3272000Y-1187500D01*
X-3266000Y-1193750D01*
X-3266000Y-1218750D01*
X-3272000Y-1225000D01*
X-3266000Y-1225000D02*
X-3302000Y-1187500D01*
X-3272000Y-1175000D02*
X-3296000Y-1175000D01*
X-3302000Y-1168750D01*
X-3302000Y-1143750D01*
X-3296000Y-1137500D01*
X-3272000Y-1137500D01*
X-3266000Y-1143750D01*
X-3266000Y-1168750D01*
X-3272000Y-1175000D01*
X-3266000Y-1175000D02*
X-3302000Y-1137500D01*
X-3400000Y-1400000D02*
X-3400000Y-900000D01*
X-3400000Y-1400000D02*
X-3350000Y-1350000D01*
X-3400000Y-1400000D02*
X-3450000Y-1350000D01*
X-3400000Y-900000D02*
X-3450000Y-950000D01*
X-3400000Y-900000D02*
X-3350000Y-950000D01*
X-3387500Y-1150000D02*
X-3387543Y-1148964D01*
X-3387893Y-1146890D01*
X-3388626Y-1144816D01*
X-3389823Y-1142742D01*
X-3391654Y-1140694D01*
X-3393728Y-1139187D01*
X-3395802Y-1138226D01*
X-3397876Y-1137682D01*
X-3399950Y-1137500D01*
X-3400000Y-1137500D01*
X-3412500Y-1150000D02*
X-3412457Y-1148964D01*
X-3412107Y-1146890D01*
X-3411374Y-1144816D01*
X-3410177Y-1142742D01*
X-3408346Y-1140694D01*
X-3406272Y-1139187D01*
X-3404198Y-1138226D01*
X-3402124Y-1137682D01*
X-3400050Y-1137500D01*
X-3400000Y-1137500D01*
X-3412500Y-1150000D02*
X-3412457Y-1151036D01*
X-3412107Y-1153110D01*
X-3411374Y-1155184D01*
X-3410177Y-1157258D01*
X-3408346Y-1159306D01*
X-3406272Y-1160813D01*
X-3404198Y-1161774D01*
X-3402124Y-1162318D01*
X-3400050Y-1162500D01*
X-3400000Y-1162500D01*
X-3387500Y-1150000D02*
X-3387543Y-1151036D01*
X-3387893Y-1153110D01*
X-3388626Y-1155184D01*
X-3389823Y-1157258D01*
X-3391654Y-1159306D01*
X-3393728Y-1160813D01*
X-3395802Y-1161774D01*
X-3397876Y-1162318D01*
X-3399950Y-1162500D01*
X-3400000Y-1162500D01*
X-3447000Y-1275000D02*
X-3471000Y-1275000D01*
X-3477000Y-1268750D01*
X-3477000Y-1243750D01*
X-3471000Y-1237500D01*
X-3447000Y-1237500D01*
X-3441000Y-1243750D01*
X-3441000Y-1268750D01*
X-3447000Y-1275000D01*
X-3441000Y-1275000D02*
X-3477000Y-1237500D01*
X-3447000Y-1206250D02*
X-3447000Y-1200000D01*
X-3441000Y-1200000D01*
X-3441000Y-1206250D01*
X-3447000Y-1206250D01*
X-3477000Y-1137500D02*
X-3477000Y-1168750D01*
X-3465000Y-1168750D01*
X-3465000Y-1143750D01*
X-3459000Y-1137500D01*
X-3447000Y-1137500D01*
X-3441000Y-1143750D01*
X-3441000Y-1162500D01*
X-3447000Y-1168750D01*
X-3447000Y-1125000D02*
X-3471000Y-1125000D01*
X-3477000Y-1118750D01*
X-3477000Y-1093750D01*
X-3471000Y-1087500D01*
X-3447000Y-1087500D01*
X-3441000Y-1093750D01*
X-3441000Y-1118750D01*
X-3447000Y-1125000D01*
X-3441000Y-1125000D02*
X-3477000Y-1087500D01*
X-3447000Y-1075000D02*
X-3471000Y-1075000D01*
X-3477000Y-1068750D01*
X-3477000Y-1043750D01*
X-3471000Y-1037500D01*
X-3447000Y-1037500D01*
X-3441000Y-1043750D01*
X-3441000Y-1068750D01*
X-3447000Y-1075000D01*
X-3441000Y-1075000D02*
X-3477000Y-1037500D01*
X-3600000Y-1400000D02*
X-3600000Y+500000D01*
X-3600000Y-1400000D02*
X-3550000Y-1350000D01*
X-3600000Y-1400000D02*
X-3650000Y-1350000D01*
X-3600000Y+500000D02*
X-3650000Y+450000D01*
X-3600000Y+500000D02*
X-3550000Y+450000D01*
X-3587500Y-450000D02*
X-3587543Y-448964D01*
X-3587893Y-446890D01*
X-3588626Y-444816D01*
X-3589823Y-442742D01*
X-3591654Y-440694D01*
X-3593728Y-439187D01*
X-3595802Y-438226D01*
X-3597876Y-437682D01*
X-3599950Y-437500D01*
X-3600000Y-437500D01*
X-3612500Y-450000D02*
X-3612457Y-448964D01*
X-3612107Y-446890D01*
X-3611374Y-444816D01*
X-3610177Y-442742D01*
X-3608346Y-440694D01*
X-3606272Y-439187D01*
X-3604198Y-438226D01*
X-3602124Y-437682D01*
X-3600050Y-437500D01*
X-3600000Y-437500D01*
X-3612500Y-450000D02*
X-3612457Y-451036D01*
X-3612107Y-453110D01*
X-3611374Y-455184D01*
X-3610177Y-457258D01*
X-3608346Y-459306D01*
X-3606272Y-460813D01*
X-3604198Y-461774D01*
X-3602124Y-462318D01*
X-3600050Y-462500D01*
X-3600000Y-462500D01*
X-3587500Y-450000D02*
X-3587543Y-451036D01*
X-3587893Y-453110D01*
X-3588626Y-455184D01*
X-3589823Y-457258D01*
X-3591654Y-459306D01*
X-3593728Y-460813D01*
X-3595802Y-461774D01*
X-3597876Y-462318D01*
X-3599950Y-462500D01*
X-3600000Y-462500D01*
X-3665000Y-562500D02*
X-3677000Y-550000D01*
X-3641000Y-550000D01*
X-3647000Y-506250D02*
X-3647000Y-500000D01*
X-3641000Y-500000D01*
X-3641000Y-506250D01*
X-3647000Y-506250D01*
X-3665000Y-437500D02*
X-3659000Y-443750D01*
X-3659000Y-462500D01*
X-3665000Y-468750D01*
X-3671000Y-468750D01*
X-3677000Y-462500D01*
X-3677000Y-443750D01*
X-3671000Y-437500D01*
X-3647000Y-437500D01*
X-3641000Y-443750D01*
X-3641000Y-462500D01*
X-3647000Y-425000D02*
X-3671000Y-425000D01*
X-3677000Y-418750D01*
X-3677000Y-393750D01*
X-3671000Y-387500D01*
X-3647000Y-387500D01*
X-3641000Y-393750D01*
X-3641000Y-418750D01*
X-3647000Y-425000D01*
X-3641000Y-425000D02*
X-3677000Y-387500D01*
X-3647000Y-375000D02*
X-3671000Y-375000D01*
X-3677000Y-368750D01*
X-3677000Y-343750D01*
X-3671000Y-337500D01*
X-3647000Y-337500D01*
X-3641000Y-343750D01*
X-3641000Y-368750D01*
X-3647000Y-375000D01*
X-3641000Y-375000D02*
X-3677000Y-337500D01*
X-3800000Y-1400000D02*
X-3800000Y+900000D01*
X-3800000Y-1400000D02*
X-3750000Y-1350000D01*
X-3800000Y-1400000D02*
X-3850000Y-1350000D01*
X-3800000Y+900000D02*
X-3850000Y+850000D01*
X-3800000Y+900000D02*
X-3750000Y+850000D01*
X-3787500Y-250000D02*
X-3787543Y-248964D01*
X-3787893Y-246890D01*
X-3788626Y-244816D01*
X-3789823Y-242742D01*
X-3791654Y-240694D01*
X-3793728Y-239187D01*
X-3795802Y-238226D01*
X-3797876Y-237682D01*
X-3799950Y-237500D01*
X-3800000Y-237500D01*
X-3812500Y-250000D02*
X-3812457Y-248964D01*
X-3812107Y-246890D01*
X-3811374Y-244816D01*
X-3810177Y-242742D01*
X-3808346Y-240694D01*
X-3806272Y-239187D01*
X-3804198Y-238226D01*
X-3802124Y-237682D01*
X-3800050Y-237500D01*
X-3800000Y-237500D01*
X-3812500Y-250000D02*
X-3812457Y-251036D01*
X-3812107Y-253110D01*
X-3811374Y-255184D01*
X-3810177Y-257258D01*
X-3808346Y-259306D01*
X-3806272Y-260813D01*
X-3804198Y-261774D01*
X-3802124Y-262318D01*
X-3800050Y-262500D01*
X-3800000Y-262500D01*
X-3787500Y-250000D02*
X-3787543Y-251036D01*
X-3787893Y-253110D01*
X-3788626Y-255184D01*
X-3789823Y-257258D01*
X-3791654Y-259306D01*
X-3793728Y-260813D01*
X-3795802Y-261774D01*
X-3797876Y-262318D01*
X-3799950Y-262500D01*
X-3800000Y-262500D01*
X-3871000Y-368750D02*
X-3877000Y-362500D01*
X-3877000Y-343750D01*
X-3871000Y-337500D01*
X-3865000Y-337500D01*
X-3859000Y-343750D01*
X-3859000Y-362500D01*
X-3853000Y-368750D01*
X-3841000Y-368750D01*
X-3841000Y-337500D01*
X-3847000Y-306250D02*
X-3847000Y-300000D01*
X-3841000Y-300000D01*
X-3841000Y-306250D01*
X-3847000Y-306250D01*
X-3871000Y-268750D02*
X-3877000Y-262500D01*
X-3877000Y-243750D01*
X-3871000Y-237500D01*
X-3865000Y-237500D01*
X-3859000Y-243750D01*
X-3853000Y-237500D01*
X-3847000Y-237500D01*
X-3841000Y-243750D01*
X-3841000Y-262500D01*
X-3847000Y-268750D01*
X-3859000Y-256250D02*
X-3859000Y-243750D01*
X-3847000Y-225000D02*
X-3871000Y-225000D01*
X-3877000Y-218750D01*
X-3877000Y-193750D01*
X-3871000Y-187500D01*
X-3847000Y-187500D01*
X-3841000Y-193750D01*
X-3841000Y-218750D01*
X-3847000Y-225000D01*
X-3841000Y-225000D02*
X-3877000Y-187500D01*
X-3847000Y-175000D02*
X-3871000Y-175000D01*
X-3877000Y-168750D01*
X-3877000Y-143750D01*
X-3871000Y-137500D01*
X-3847000Y-137500D01*
X-3841000Y-143750D01*
X-3841000Y-168750D01*
X-3847000Y-175000D01*
X-3841000Y-175000D02*
X-3877000Y-137500D01*
X-4200000Y-1400000D02*
X-4200000Y+1200000D01*
X-4200000Y-1400000D02*
X-4150000Y-1350000D01*
X-4200000Y-1400000D02*
X-4250000Y-1350000D01*
X-4200000Y+1200000D02*
X-4250000Y+1150000D01*
X-4200000Y+1200000D02*
X-4150000Y+1150000D01*
X-4187500Y-100000D02*
X-4187543Y-98964D01*
X-4187893Y-96890D01*
X-4188626Y-94816D01*
X-4189823Y-92742D01*
X-4191654Y-90694D01*
X-4193728Y-89187D01*
X-4195802Y-88226D01*
X-4197876Y-87682D01*
X-4199950Y-87500D01*
X-4200000Y-87500D01*
X-4212500Y-100000D02*
X-4212457Y-98964D01*
X-4212107Y-96890D01*
X-4211374Y-94816D01*
X-4210177Y-92742D01*
X-4208346Y-90694D01*
X-4206272Y-89187D01*
X-4204198Y-88226D01*
X-4202124Y-87682D01*
X-4200050Y-87500D01*
X-4200000Y-87500D01*
X-4212500Y-100000D02*
X-4212457Y-101036D01*
X-4212107Y-103110D01*
X-4211374Y-105184D01*
X-4210177Y-107258D01*
X-4208346Y-109306D01*
X-4206272Y-110813D01*
X-4204198Y-111774D01*
X-4202124Y-112318D01*
X-4200050Y-112500D01*
X-4200000Y-112500D01*
X-4187500Y-100000D02*
X-4187543Y-101036D01*
X-4187893Y-103110D01*
X-4188626Y-105184D01*
X-4189823Y-107258D01*
X-4191654Y-109306D01*
X-4193728Y-110813D01*
X-4195802Y-111774D01*
X-4197876Y-112318D01*
X-4199950Y-112500D01*
X-4200000Y-112500D01*
X-4246000Y-218750D02*
X-4252000Y-212500D01*
X-4252000Y-193750D01*
X-4246000Y-187500D01*
X-4240000Y-187500D01*
X-4234000Y-193750D01*
X-4234000Y-212500D01*
X-4228000Y-218750D01*
X-4216000Y-218750D01*
X-4216000Y-187500D01*
X-4222000Y-156250D02*
X-4222000Y-150000D01*
X-4216000Y-150000D01*
X-4216000Y-156250D01*
X-4222000Y-156250D01*
X-4246000Y-87500D02*
X-4252000Y-93750D01*
X-4252000Y-112500D01*
X-4246000Y-118750D01*
X-4222000Y-118750D01*
X-4216000Y-112500D01*
X-4216000Y-93750D01*
X-4222000Y-87500D01*
X-4228000Y-87500D01*
X-4234000Y-93750D01*
X-4234000Y-118750D01*
X-4222000Y-75000D02*
X-4246000Y-75000D01*
X-4252000Y-68750D01*
X-4252000Y-43750D01*
X-4246000Y-37500D01*
X-4222000Y-37500D01*
X-4216000Y-43750D01*
X-4216000Y-68750D01*
X-4222000Y-75000D01*
X-4216000Y-75000D02*
X-4252000Y-37500D01*
X-4222000Y-25000D02*
X-4246000Y-25000D01*
X-4252000Y-18750D01*
X-4252000Y+6250D01*
X-4246000Y+12500D01*
X-4222000Y+12500D01*
X-4216000Y+6250D01*
X-4216000Y-18750D01*
X-4222000Y-25000D01*
X-4216000Y-25000D02*
X-4252000Y+12500D01*
X-1800000Y-700000D02*
X-1800000Y-1650000D01*
X-2200000Y-1550000D02*
X-1800000Y-1550000D01*
X-2200000Y-1550000D02*
X-2150000Y-1600000D01*
X-2200000Y-1550000D02*
X-2150000Y-1500000D01*
X-1800000Y-1550000D02*
X-1850000Y-1500000D01*
X-1800000Y-1550000D02*
X-1850000Y-1600000D01*
X-1987500Y-1550000D02*
X-1987543Y-1548964D01*
X-1987893Y-1546890D01*
X-1988626Y-1544816D01*
X-1989823Y-1542742D01*
X-1991654Y-1540694D01*
X-1993728Y-1539187D01*
X-1995802Y-1538226D01*
X-1997876Y-1537682D01*
X-1999950Y-1537500D01*
X-2000000Y-1537500D01*
X-2012500Y-1550000D02*
X-2012457Y-1548964D01*
X-2012107Y-1546890D01*
X-2011374Y-1544816D01*
X-2010177Y-1542742D01*
X-2008346Y-1540694D01*
X-2006272Y-1539187D01*
X-2004198Y-1538226D01*
X-2002124Y-1537682D01*
X-2000050Y-1537500D01*
X-2000000Y-1537500D01*
X-2012500Y-1550000D02*
X-2012457Y-1551036D01*
X-2012107Y-1553110D01*
X-2011374Y-1555184D01*
X-2010177Y-1557258D01*
X-2008346Y-1559306D01*
X-2006272Y-1560813D01*
X-2004198Y-1561774D01*
X-2002124Y-1562318D01*
X-2000050Y-1562500D01*
X-2000000Y-1562500D01*
X-1987500Y-1550000D02*
X-1987543Y-1551036D01*
X-1987893Y-1553110D01*
X-1988626Y-1555184D01*
X-1989823Y-1557258D01*
X-1991654Y-1559306D01*
X-1993728Y-1560813D01*
X-1995802Y-1561774D01*
X-1997876Y-1562318D01*
X-1999950Y-1562500D01*
X-2000000Y-1562500D01*
X-2125000Y-1503000D02*
X-2125000Y-1479000D01*
X-2118750Y-1473000D01*
X-2093750Y-1473000D01*
X-2087500Y-1479000D01*
X-2087500Y-1503000D01*
X-2093750Y-1509000D01*
X-2118750Y-1509000D01*
X-2125000Y-1503000D01*
X-2125000Y-1509000D02*
X-2087500Y-1473000D01*
X-2056250Y-1503000D02*
X-2050000Y-1503000D01*
X-2050000Y-1509000D01*
X-2056250Y-1509000D01*
X-2056250Y-1503000D01*
X-1987500Y-1497000D02*
X-2025000Y-1497000D01*
X-2000000Y-1473000D01*
X-2000000Y-1509000D01*
X-1975000Y-1503000D02*
X-1975000Y-1479000D01*
X-1968750Y-1473000D01*
X-1943750Y-1473000D01*
X-1937500Y-1479000D01*
X-1937500Y-1503000D01*
X-1943750Y-1509000D01*
X-1968750Y-1509000D01*
X-1975000Y-1503000D01*
X-1975000Y-1509000D02*
X-1937500Y-1473000D01*
X-1925000Y-1503000D02*
X-1925000Y-1479000D01*
X-1918750Y-1473000D01*
X-1893750Y-1473000D01*
X-1887500Y-1479000D01*
X-1887500Y-1503000D01*
X-1893750Y-1509000D01*
X-1918750Y-1509000D01*
X-1925000Y-1503000D01*
X-1925000Y-1509000D02*
X-1887500Y-1473000D01*
X-1130709Y-700000D02*
X-1130709Y-1650000D01*
X-1800000Y-1549213D02*
X-1130709Y-1549213D01*
X-1800000Y-1549213D02*
X-1750000Y-1599213D01*
X-1800000Y-1549213D02*
X-1750000Y-1499213D01*
X-1130709Y-1549213D02*
X-1180709Y-1499213D01*
X-1130709Y-1549213D02*
X-1180709Y-1599213D01*
X-1452854Y-1549213D02*
X-1452897Y-1548177D01*
X-1453247Y-1546103D01*
X-1453980Y-1544029D01*
X-1455177Y-1541955D01*
X-1457008Y-1539907D01*
X-1459082Y-1538400D01*
X-1461156Y-1537439D01*
X-1463230Y-1536895D01*
X-1465304Y-1536713D01*
X-1465354Y-1536713D01*
X-1477854Y-1549213D02*
X-1477811Y-1548177D01*
X-1477461Y-1546103D01*
X-1476728Y-1544029D01*
X-1475531Y-1541955D01*
X-1473700Y-1539907D01*
X-1471626Y-1538400D01*
X-1469552Y-1537439D01*
X-1467478Y-1536895D01*
X-1465404Y-1536713D01*
X-1465354Y-1536713D01*
X-1477854Y-1549213D02*
X-1477811Y-1550249D01*
X-1477461Y-1552323D01*
X-1476728Y-1554397D01*
X-1475531Y-1556471D01*
X-1473700Y-1558519D01*
X-1471626Y-1560026D01*
X-1469552Y-1560987D01*
X-1467478Y-1561531D01*
X-1465404Y-1561713D01*
X-1465354Y-1561713D01*
X-1452854Y-1549213D02*
X-1452897Y-1550249D01*
X-1453247Y-1552323D01*
X-1453980Y-1554397D01*
X-1455177Y-1556471D01*
X-1457008Y-1558519D01*
X-1459082Y-1560026D01*
X-1461156Y-1560987D01*
X-1463230Y-1561531D01*
X-1465304Y-1561713D01*
X-1465354Y-1561713D01*
X-1552854Y-1489528D02*
X-1540354Y-1477528D01*
X-1540354Y-1513528D01*
X-1509104Y-1477528D02*
X-1477854Y-1477528D01*
X-1477854Y-1483528D01*
X-1509104Y-1513528D01*
X-1465354Y-1513528D02*
X-1465354Y-1489528D01*
X-1465354Y-1495528D02*
X-1459104Y-1489528D01*
X-1446604Y-1501528D01*
X-1434104Y-1489528D01*
X-1427854Y-1495528D01*
X-1427854Y-1513528D01*
X-1415354Y-1513528D02*
X-1415354Y-1489528D01*
X-1415354Y-1495528D02*
X-1409104Y-1489528D01*
X-1396604Y-1501528D01*
X-1384104Y-1489528D01*
X-1377854Y-1495528D01*
X-1377854Y-1513528D01*
X-3000000Y+1350000D02*
X-3000000Y+2400000D01*
X-3000000Y+1700000D02*
X-2200000Y+1700000D01*
X-3000000Y+1700000D02*
X-2950000Y+1650000D01*
X-3000000Y+1700000D02*
X-2950000Y+1750000D01*
X-2200000Y+1700000D02*
X-2250000Y+1750000D01*
X-2200000Y+1700000D02*
X-2250000Y+1650000D01*
X-2587500Y+1700000D02*
X-2587543Y+1701036D01*
X-2587893Y+1703110D01*
X-2588626Y+1705184D01*
X-2589823Y+1707258D01*
X-2591654Y+1709306D01*
X-2593728Y+1710813D01*
X-2595802Y+1711774D01*
X-2597876Y+1712318D01*
X-2599950Y+1712500D01*
X-2600000Y+1712500D01*
X-2612500Y+1700000D02*
X-2612457Y+1701036D01*
X-2612107Y+1703110D01*
X-2611374Y+1705184D01*
X-2610177Y+1707258D01*
X-2608346Y+1709306D01*
X-2606272Y+1710813D01*
X-2604198Y+1711774D01*
X-2602124Y+1712318D01*
X-2600050Y+1712500D01*
X-2600000Y+1712500D01*
X-2612500Y+1700000D02*
X-2612457Y+1698964D01*
X-2612107Y+1696890D01*
X-2611374Y+1694816D01*
X-2610177Y+1692742D01*
X-2608346Y+1690694D01*
X-2606272Y+1689187D01*
X-2604198Y+1688226D01*
X-2602124Y+1687682D01*
X-2600050Y+1687500D01*
X-2600000Y+1687500D01*
X-2587500Y+1700000D02*
X-2587543Y+1698964D01*
X-2587893Y+1696890D01*
X-2588626Y+1694816D01*
X-2589823Y+1692742D01*
X-2591654Y+1690694D01*
X-2593728Y+1689187D01*
X-2595802Y+1688226D01*
X-2597876Y+1687682D01*
X-2599950Y+1687500D01*
X-2600000Y+1687500D01*
X-2725000Y+1747000D02*
X-2725000Y+1771000D01*
X-2718750Y+1777000D01*
X-2693750Y+1777000D01*
X-2687500Y+1771000D01*
X-2687500Y+1747000D01*
X-2693750Y+1741000D01*
X-2718750Y+1741000D01*
X-2725000Y+1747000D01*
X-2725000Y+1741000D02*
X-2687500Y+1777000D01*
X-2656250Y+1747000D02*
X-2650000Y+1747000D01*
X-2650000Y+1741000D01*
X-2656250Y+1741000D01*
X-2656250Y+1747000D01*
X-2612500Y+1759000D02*
X-2618750Y+1765000D01*
X-2618750Y+1771000D01*
X-2612500Y+1777000D01*
X-2593750Y+1777000D01*
X-2587500Y+1771000D01*
X-2587500Y+1765000D01*
X-2593750Y+1759000D01*
X-2612500Y+1759000D01*
X-2618750Y+1753000D01*
X-2618750Y+1747000D01*
X-2612500Y+1741000D01*
X-2593750Y+1741000D01*
X-2587500Y+1747000D01*
X-2587500Y+1753000D01*
X-2593750Y+1759000D01*
X-2575000Y+1747000D02*
X-2575000Y+1771000D01*
X-2568750Y+1777000D01*
X-2543750Y+1777000D01*
X-2537500Y+1771000D01*
X-2537500Y+1747000D01*
X-2543750Y+1741000D01*
X-2568750Y+1741000D01*
X-2575000Y+1747000D01*
X-2575000Y+1741000D02*
X-2537500Y+1777000D01*
X-2525000Y+1747000D02*
X-2525000Y+1771000D01*
X-2518750Y+1777000D01*
X-2493750Y+1777000D01*
X-2487500Y+1771000D01*
X-2487500Y+1747000D01*
X-2493750Y+1741000D01*
X-2518750Y+1741000D01*
X-2525000Y+1747000D01*
X-2525000Y+1741000D02*
X-2487500Y+1777000D01*
X-3000000Y+1900000D02*
X-1600000Y+1900000D01*
X-3000000Y+1900000D02*
X-2950000Y+1850000D01*
X-3000000Y+1900000D02*
X-2950000Y+1950000D01*
X-1600000Y+1900000D02*
X-1650000Y+1950000D01*
X-1600000Y+1900000D02*
X-1650000Y+1850000D01*
X-2287500Y+1900000D02*
X-2287543Y+1901036D01*
X-2287893Y+1903110D01*
X-2288626Y+1905184D01*
X-2289823Y+1907258D01*
X-2291654Y+1909306D01*
X-2293728Y+1910813D01*
X-2295802Y+1911774D01*
X-2297876Y+1912318D01*
X-2299950Y+1912500D01*
X-2300000Y+1912500D01*
X-2312500Y+1900000D02*
X-2312457Y+1901036D01*
X-2312107Y+1903110D01*
X-2311374Y+1905184D01*
X-2310177Y+1907258D01*
X-2308346Y+1909306D01*
X-2306272Y+1910813D01*
X-2304198Y+1911774D01*
X-2302124Y+1912318D01*
X-2300050Y+1912500D01*
X-2300000Y+1912500D01*
X-2312500Y+1900000D02*
X-2312457Y+1898964D01*
X-2312107Y+1896890D01*
X-2311374Y+1894816D01*
X-2310177Y+1892742D01*
X-2308346Y+1890694D01*
X-2306272Y+1889187D01*
X-2304198Y+1888226D01*
X-2302124Y+1887682D01*
X-2300050Y+1887500D01*
X-2300000Y+1887500D01*
X-2287500Y+1900000D02*
X-2287543Y+1898964D01*
X-2287893Y+1896890D01*
X-2288626Y+1894816D01*
X-2289823Y+1892742D01*
X-2291654Y+1890694D01*
X-2293728Y+1889187D01*
X-2295802Y+1888226D01*
X-2297876Y+1887682D01*
X-2299950Y+1887500D01*
X-2300000Y+1887500D01*
X-2412500Y+1965000D02*
X-2400000Y+1977000D01*
X-2400000Y+1941000D01*
X-2356250Y+1947000D02*
X-2350000Y+1947000D01*
X-2350000Y+1941000D01*
X-2356250Y+1941000D01*
X-2356250Y+1947000D01*
X-2287500Y+1953000D02*
X-2325000Y+1953000D01*
X-2300000Y+1977000D01*
X-2300000Y+1941000D01*
X-2275000Y+1947000D02*
X-2275000Y+1971000D01*
X-2268750Y+1977000D01*
X-2243750Y+1977000D01*
X-2237500Y+1971000D01*
X-2237500Y+1947000D01*
X-2243750Y+1941000D01*
X-2268750Y+1941000D01*
X-2275000Y+1947000D01*
X-2275000Y+1941000D02*
X-2237500Y+1977000D01*
X-2225000Y+1947000D02*
X-2225000Y+1971000D01*
X-2218750Y+1977000D01*
X-2193750Y+1977000D01*
X-2187500Y+1971000D01*
X-2187500Y+1947000D01*
X-2193750Y+1941000D01*
X-2218750Y+1941000D01*
X-2225000Y+1947000D01*
X-2225000Y+1941000D02*
X-2187500Y+1977000D01*
X-3000000Y+2100000D02*
X-100000Y+2100000D01*
X-3000000Y+2100000D02*
X-2950000Y+2050000D01*
X-3000000Y+2100000D02*
X-2950000Y+2150000D01*
X-100000Y+2100000D02*
X-150000Y+2150000D01*
X-100000Y+2100000D02*
X-150000Y+2050000D01*
X-1537500Y+2100000D02*
X-1537543Y+2101036D01*
X-1537893Y+2103110D01*
X-1538626Y+2105184D01*
X-1539823Y+2107258D01*
X-1541654Y+2109306D01*
X-1543728Y+2110813D01*
X-1545802Y+2111774D01*
X-1547876Y+2112318D01*
X-1549950Y+2112500D01*
X-1550000Y+2112500D01*
X-1562500Y+2100000D02*
X-1562457Y+2101036D01*
X-1562107Y+2103110D01*
X-1561374Y+2105184D01*
X-1560177Y+2107258D01*
X-1558346Y+2109306D01*
X-1556272Y+2110813D01*
X-1554198Y+2111774D01*
X-1552124Y+2112318D01*
X-1550050Y+2112500D01*
X-1550000Y+2112500D01*
X-1562500Y+2100000D02*
X-1562457Y+2098964D01*
X-1562107Y+2096890D01*
X-1561374Y+2094816D01*
X-1560177Y+2092742D01*
X-1558346Y+2090694D01*
X-1556272Y+2089187D01*
X-1554198Y+2088226D01*
X-1552124Y+2087682D01*
X-1550050Y+2087500D01*
X-1550000Y+2087500D01*
X-1537500Y+2100000D02*
X-1537543Y+2098964D01*
X-1537893Y+2096890D01*
X-1538626Y+2094816D01*
X-1539823Y+2092742D01*
X-1541654Y+2090694D01*
X-1543728Y+2089187D01*
X-1545802Y+2088226D01*
X-1547876Y+2087682D01*
X-1549950Y+2087500D01*
X-1550000Y+2087500D01*
X-1668750Y+2171000D02*
X-1662500Y+2177000D01*
X-1643750Y+2177000D01*
X-1637500Y+2171000D01*
X-1637500Y+2165000D01*
X-1643750Y+2159000D01*
X-1662500Y+2159000D01*
X-1668750Y+2153000D01*
X-1668750Y+2141000D01*
X-1637500Y+2141000D01*
X-1606250Y+2147000D02*
X-1600000Y+2147000D01*
X-1600000Y+2141000D01*
X-1606250Y+2141000D01*
X-1606250Y+2147000D01*
X-1537500Y+2165000D02*
X-1543750Y+2159000D01*
X-1562500Y+2159000D01*
X-1568750Y+2165000D01*
X-1568750Y+2171000D01*
X-1562500Y+2177000D01*
X-1543750Y+2177000D01*
X-1537500Y+2171000D01*
X-1537500Y+2147000D01*
X-1543750Y+2141000D01*
X-1562500Y+2141000D01*
X-1525000Y+2147000D02*
X-1525000Y+2171000D01*
X-1518750Y+2177000D01*
X-1493750Y+2177000D01*
X-1487500Y+2171000D01*
X-1487500Y+2147000D01*
X-1493750Y+2141000D01*
X-1518750Y+2141000D01*
X-1525000Y+2147000D01*
X-1525000Y+2141000D02*
X-1487500Y+2177000D01*
X-1475000Y+2147000D02*
X-1475000Y+2171000D01*
X-1468750Y+2177000D01*
X-1443750Y+2177000D01*
X-1437500Y+2171000D01*
X-1437500Y+2147000D01*
X-1443750Y+2141000D01*
X-1468750Y+2141000D01*
X-1475000Y+2147000D01*
X-1475000Y+2141000D02*
X-1437500Y+2177000D01*
X-3000000Y+2300000D02*
X+600000Y+2300000D01*
X-3000000Y+2300000D02*
X-2950000Y+2250000D01*
X-3000000Y+2300000D02*
X-2950000Y+2350000D01*
X+600000Y+2300000D02*
X+550000Y+2350000D01*
X+600000Y+2300000D02*
X+550000Y+2250000D01*
X-1187500Y+2300000D02*
X-1187543Y+2301036D01*
X-1187893Y+2303110D01*
X-1188626Y+2305184D01*
X-1189823Y+2307258D01*
X-1191654Y+2309306D01*
X-1193728Y+2310813D01*
X-1195802Y+2311774D01*
X-1197876Y+2312318D01*
X-1199950Y+2312500D01*
X-1200000Y+2312500D01*
X-1212500Y+2300000D02*
X-1212457Y+2301036D01*
X-1212107Y+2303110D01*
X-1211374Y+2305184D01*
X-1210177Y+2307258D01*
X-1208346Y+2309306D01*
X-1206272Y+2310813D01*
X-1204198Y+2311774D01*
X-1202124Y+2312318D01*
X-1200050Y+2312500D01*
X-1200000Y+2312500D01*
X-1212500Y+2300000D02*
X-1212457Y+2298964D01*
X-1212107Y+2296890D01*
X-1211374Y+2294816D01*
X-1210177Y+2292742D01*
X-1208346Y+2290694D01*
X-1206272Y+2289187D01*
X-1204198Y+2288226D01*
X-1202124Y+2287682D01*
X-1200050Y+2287500D01*
X-1200000Y+2287500D01*
X-1187500Y+2300000D02*
X-1187543Y+2298964D01*
X-1187893Y+2296890D01*
X-1188626Y+2294816D01*
X-1189823Y+2292742D01*
X-1191654Y+2290694D01*
X-1193728Y+2289187D01*
X-1195802Y+2288226D01*
X-1197876Y+2287682D01*
X-1199950Y+2287500D01*
X-1200000Y+2287500D01*
X-1318750Y+2371000D02*
X-1312500Y+2377000D01*
X-1293750Y+2377000D01*
X-1287500Y+2371000D01*
X-1287500Y+2365000D01*
X-1293750Y+2359000D01*
X-1287500Y+2353000D01*
X-1287500Y+2347000D01*
X-1293750Y+2341000D01*
X-1312500Y+2341000D01*
X-1318750Y+2347000D01*
X-1306250Y+2359000D02*
X-1293750Y+2359000D01*
X-1256250Y+2347000D02*
X-1250000Y+2347000D01*
X-1250000Y+2341000D01*
X-1256250Y+2341000D01*
X-1256250Y+2347000D01*
X-1187500Y+2371000D02*
X-1193750Y+2377000D01*
X-1212500Y+2377000D01*
X-1218750Y+2371000D01*
X-1218750Y+2347000D01*
X-1212500Y+2341000D01*
X-1193750Y+2341000D01*
X-1187500Y+2347000D01*
X-1187500Y+2353000D01*
X-1193750Y+2359000D01*
X-1218750Y+2359000D01*
X-1175000Y+2347000D02*
X-1175000Y+2371000D01*
X-1168750Y+2377000D01*
X-1143750Y+2377000D01*
X-1137500Y+2371000D01*
X-1137500Y+2347000D01*
X-1143750Y+2341000D01*
X-1168750Y+2341000D01*
X-1175000Y+2347000D01*
X-1175000Y+2341000D02*
X-1137500Y+2377000D01*
X-1125000Y+2347000D02*
X-1125000Y+2371000D01*
X-1118750Y+2377000D01*
X-1093750Y+2377000D01*
X-1087500Y+2371000D01*
X-1087500Y+2347000D01*
X-1093750Y+2341000D01*
X-1118750Y+2341000D01*
X-1125000Y+2347000D01*
X-1125000Y+2341000D02*
X-1087500Y+2377000D01*
X-4000000Y-1400000D02*
X-4000000Y+1000000D01*
X-4000000Y-1400000D02*
X-3950000Y-1350000D01*
X-4000000Y-1400000D02*
X-4050000Y-1350000D01*
X-4000000Y+1000000D02*
X-4050000Y+950000D01*
X-4000000Y+1000000D02*
X-3950000Y+950000D01*
X-3987500Y-200000D02*
X-3987543Y-198964D01*
X-3987893Y-196890D01*
X-3988626Y-194816D01*
X-3989823Y-192742D01*
X-3991654Y-190694D01*
X-3993728Y-189187D01*
X-3995802Y-188226D01*
X-3997876Y-187682D01*
X-3999950Y-187500D01*
X-4000000Y-187500D01*
X-4012500Y-200000D02*
X-4012457Y-198964D01*
X-4012107Y-196890D01*
X-4011374Y-194816D01*
X-4010177Y-192742D01*
X-4008346Y-190694D01*
X-4006272Y-189187D01*
X-4004198Y-188226D01*
X-4002124Y-187682D01*
X-4000050Y-187500D01*
X-4000000Y-187500D01*
X-4012500Y-200000D02*
X-4012457Y-201036D01*
X-4012107Y-203110D01*
X-4011374Y-205184D01*
X-4010177Y-207258D01*
X-4008346Y-209306D01*
X-4006272Y-210813D01*
X-4004198Y-211774D01*
X-4002124Y-212318D01*
X-4000050Y-212500D01*
X-4000000Y-212500D01*
X-3987500Y-200000D02*
X-3987543Y-201036D01*
X-3987893Y-203110D01*
X-3988626Y-205184D01*
X-3989823Y-207258D01*
X-3991654Y-209306D01*
X-3993728Y-210813D01*
X-3995802Y-211774D01*
X-3997876Y-212318D01*
X-3999950Y-212500D01*
X-4000000Y-212500D01*
X-4071000Y-318750D02*
X-4077000Y-312500D01*
X-4077000Y-293750D01*
X-4071000Y-287500D01*
X-4065000Y-287500D01*
X-4059000Y-293750D01*
X-4059000Y-312500D01*
X-4053000Y-318750D01*
X-4041000Y-318750D01*
X-4041000Y-287500D01*
X-4047000Y-256250D02*
X-4047000Y-250000D01*
X-4041000Y-250000D01*
X-4041000Y-256250D01*
X-4047000Y-256250D01*
X-4053000Y-187500D02*
X-4053000Y-225000D01*
X-4077000Y-200000D01*
X-4041000Y-200000D01*
X-4047000Y-175000D02*
X-4071000Y-175000D01*
X-4077000Y-168750D01*
X-4077000Y-143750D01*
X-4071000Y-137500D01*
X-4047000Y-137500D01*
X-4041000Y-143750D01*
X-4041000Y-168750D01*
X-4047000Y-175000D01*
X-4041000Y-175000D02*
X-4077000Y-137500D01*
X-4047000Y-125000D02*
X-4071000Y-125000D01*
X-4077000Y-118750D01*
X-4077000Y-93750D01*
X-4071000Y-87500D01*
X-4047000Y-87500D01*
X-4041000Y-93750D01*
X-4041000Y-118750D01*
X-4047000Y-125000D01*
X-4041000Y-125000D02*
X-4077000Y-87500D01*
X+1150000Y+1904000D02*
X+1150000Y+1976000D01*
X+1190000Y+1976000D01*
X+1210000Y+1952000D01*
X+1210000Y+1928000D01*
X+1190000Y+1904000D01*
X+1150000Y+1904000D01*
X+1260000Y+1952000D02*
X+1260000Y+1904000D01*
X+1260000Y+1976000D02*
X+1260000Y+1976000D01*
X+1310000Y+1904000D02*
X+1310000Y+1952000D01*
X+1310000Y+1940000D02*
X+1320000Y+1952000D01*
X+1340000Y+1928000D01*
X+1360000Y+1952000D01*
X+1370000Y+1940000D01*
X+1370000Y+1904000D01*
X+1440000Y+1952000D02*
X+1400000Y+1952000D01*
X+1390000Y+1940000D01*
X+1400000Y+1928000D01*
X+1440000Y+1928000D01*
X+1450000Y+1916000D01*
X+1440000Y+1904000D01*
X+1390000Y+1904000D01*
X+1560000Y+1952000D02*
X+1600000Y+1952000D01*
X+1610000Y+1940000D01*
X+1610000Y+1904000D01*
X+1560000Y+1904000D01*
X+1550000Y+1916000D01*
X+1560000Y+1928000D01*
X+1610000Y+1928000D01*
X+1630000Y+1904000D02*
X+1630000Y+1952000D01*
X+1630000Y+1940000D02*
X+1640000Y+1952000D01*
X+1680000Y+1952000D01*
X+1690000Y+1940000D01*
X+1710000Y+1928000D02*
X+1770000Y+1928000D01*
X+1770000Y+1940000D01*
X+1760000Y+1952000D01*
X+1720000Y+1952000D01*
X+1710000Y+1940000D01*
X+1710000Y+1916000D01*
X+1720000Y+1904000D01*
X+1760000Y+1904000D01*
X+1900000Y+1952000D02*
X+1900000Y+1904000D01*
X+1900000Y+1976000D02*
X+1900000Y+1976000D01*
X+1950000Y+1904000D02*
X+1950000Y+1952000D01*
X+1950000Y+1940000D02*
X+1960000Y+1952000D01*
X+2000000Y+1952000D01*
X+2010000Y+1940000D01*
X+2010000Y+1904000D01*
X+2140000Y+1952000D02*
X+2140000Y+1904000D01*
X+2140000Y+1976000D02*
X+2140000Y+1976000D01*
X+2190000Y+1904000D02*
X+2190000Y+1952000D01*
X+2190000Y+1940000D02*
X+2200000Y+1952000D01*
X+2240000Y+1952000D01*
X+2250000Y+1940000D01*
X+2250000Y+1904000D01*
X+2330000Y+1940000D02*
X+2320000Y+1952000D01*
X+2280000Y+1952000D01*
X+2270000Y+1940000D01*
X+2270000Y+1916000D01*
X+2280000Y+1904000D01*
X+2320000Y+1904000D01*
X+2330000Y+1916000D01*
X+2410000Y+1904000D02*
X+2410000Y+1940000D01*
X+2400000Y+1952000D01*
X+2360000Y+1952000D01*
X+2350000Y+1940000D01*
X+2350000Y+1976000D02*
X+2350000Y+1904000D01*
X+2430000Y+1928000D02*
X+2490000Y+1928000D01*
X+2490000Y+1940000D01*
X+2480000Y+1952000D01*
X+2440000Y+1952000D01*
X+2430000Y+1940000D01*
X+2430000Y+1916000D01*
X+2440000Y+1904000D01*
X+2480000Y+1904000D01*
X+2560000Y+1952000D02*
X+2520000Y+1952000D01*
X+2510000Y+1940000D01*
X+2520000Y+1928000D01*
X+2560000Y+1928000D01*
X+2570000Y+1916000D01*
X+2560000Y+1904000D01*
X+2510000Y+1904000D01*
X+2670000Y+1952000D02*
X+2670000Y+1916000D01*
X+2680000Y+1904000D01*
X+2720000Y+1904000D01*
X+2730000Y+1916000D01*
X+2730000Y+1904000D02*
X+2730000Y+1952000D01*
X+2750000Y+1904000D02*
X+2750000Y+1952000D01*
X+2750000Y+1940000D02*
X+2760000Y+1952000D01*
X+2800000Y+1952000D01*
X+2810000Y+1940000D01*
X+2810000Y+1904000D01*
X+2860000Y+1976000D02*
X+2860000Y+1904000D01*
X+2910000Y+1928000D02*
X+2970000Y+1928000D01*
X+2970000Y+1940000D01*
X+2960000Y+1952000D01*
X+2920000Y+1952000D01*
X+2910000Y+1940000D01*
X+2910000Y+1916000D01*
X+2920000Y+1904000D01*
X+2960000Y+1904000D01*
X+3040000Y+1952000D02*
X+3000000Y+1952000D01*
X+2990000Y+1940000D01*
X+3000000Y+1928000D01*
X+3040000Y+1928000D01*
X+3050000Y+1916000D01*
X+3040000Y+1904000D01*
X+2990000Y+1904000D01*
X+3120000Y+1952000D02*
X+3080000Y+1952000D01*
X+3070000Y+1940000D01*
X+3080000Y+1928000D01*
X+3120000Y+1928000D01*
X+3130000Y+1916000D01*
X+3120000Y+1904000D01*
X+3070000Y+1904000D01*
X+3230000Y+1940000D02*
X+3240000Y+1952000D01*
X+3280000Y+1952000D01*
X+3290000Y+1940000D01*
X+3290000Y+1916000D01*
X+3280000Y+1904000D01*
X+3240000Y+1904000D01*
X+3230000Y+1916000D01*
X+3230000Y+1940000D01*
X+3320000Y+1976000D02*
X+3320000Y+1916000D01*
X+3330000Y+1904000D01*
X+3360000Y+1904000D01*
X+3370000Y+1916000D01*
X+3310000Y+1952000D02*
X+3360000Y+1952000D01*
X+3450000Y+1904000D02*
X+3450000Y+1940000D01*
X+3440000Y+1952000D01*
X+3400000Y+1952000D01*
X+3390000Y+1940000D01*
X+3390000Y+1976000D02*
X+3390000Y+1904000D01*
X+3470000Y+1928000D02*
X+3530000Y+1928000D01*
X+3530000Y+1940000D01*
X+3520000Y+1952000D01*
X+3480000Y+1952000D01*
X+3470000Y+1940000D01*
X+3470000Y+1916000D01*
X+3480000Y+1904000D01*
X+3520000Y+1904000D01*
X+3550000Y+1904000D02*
X+3550000Y+1952000D01*
X+3550000Y+1940000D02*
X+3560000Y+1952000D01*
X+3600000Y+1952000D01*
X+3610000Y+1940000D01*
X+3630000Y+1952000D02*
X+3630000Y+1916000D01*
X+3640000Y+1904000D01*
X+3660000Y+1928000D01*
X+3680000Y+1904000D01*
X+3690000Y+1916000D01*
X+3690000Y+1952000D01*
X+3740000Y+1952000D02*
X+3740000Y+1904000D01*
X+3740000Y+1976000D02*
X+3740000Y+1976000D01*
X+3840000Y+1952000D02*
X+3800000Y+1952000D01*
X+3790000Y+1940000D01*
X+3800000Y+1928000D01*
X+3840000Y+1928000D01*
X+3850000Y+1916000D01*
X+3840000Y+1904000D01*
X+3790000Y+1904000D01*
X+3870000Y+1928000D02*
X+3930000Y+1928000D01*
X+3930000Y+1940000D01*
X+3920000Y+1952000D01*
X+3880000Y+1952000D01*
X+3870000Y+1940000D01*
X+3870000Y+1916000D01*
X+3880000Y+1904000D01*
X+3920000Y+1904000D01*
X+4080000Y+1952000D02*
X+4040000Y+1952000D01*
X+4030000Y+1940000D01*
X+4040000Y+1928000D01*
X+4080000Y+1928000D01*
X+4090000Y+1916000D01*
X+4080000Y+1904000D01*
X+4030000Y+1904000D01*
X+4120000Y+1976000D02*
X+4120000Y+1916000D01*
X+4130000Y+1904000D01*
X+4160000Y+1904000D01*
X+4170000Y+1916000D01*
X+4110000Y+1952000D02*
X+4160000Y+1952000D01*
X+4200000Y+1952000D02*
X+4240000Y+1952000D01*
X+4250000Y+1940000D01*
X+4250000Y+1904000D01*
X+4200000Y+1904000D01*
X+4190000Y+1916000D01*
X+4200000Y+1928000D01*
X+4250000Y+1928000D01*
X+4280000Y+1976000D02*
X+4280000Y+1916000D01*
X+4290000Y+1904000D01*
X+4320000Y+1904000D01*
X+4330000Y+1916000D01*
X+4270000Y+1952000D02*
X+4320000Y+1952000D01*
X+4350000Y+1928000D02*
X+4410000Y+1928000D01*
X+4410000Y+1940000D01*
X+4400000Y+1952000D01*
X+4360000Y+1952000D01*
X+4350000Y+1940000D01*
X+4350000Y+1916000D01*
X+4360000Y+1904000D01*
X+4400000Y+1904000D01*
X+4490000Y+1940000D02*
X+4480000Y+1952000D01*
X+4440000Y+1952000D01*
X+4430000Y+1940000D01*
X+4430000Y+1916000D01*
X+4440000Y+1904000D01*
X+4480000Y+1904000D01*
X+4490000Y+1916000D01*
X+4490000Y+1904000D02*
X+4490000Y+1976000D01*
X+1150000Y+1679000D02*
X+1150000Y+1751000D01*
X+1210000Y+1751000D01*
X+1150000Y+1715000D02*
X+1190000Y+1715000D01*
X+1260000Y+1727000D02*
X+1260000Y+1679000D01*
X+1260000Y+1751000D02*
X+1260000Y+1751000D01*
X+1310000Y+1727000D02*
X+1370000Y+1679000D01*
X+1310000Y+1679000D02*
X+1370000Y+1727000D01*
X+1420000Y+1727000D02*
X+1420000Y+1679000D01*
X+1420000Y+1751000D02*
X+1420000Y+1751000D01*
X+1470000Y+1679000D02*
X+1470000Y+1727000D01*
X+1470000Y+1715000D02*
X+1480000Y+1727000D01*
X+1520000Y+1727000D01*
X+1530000Y+1715000D01*
X+1530000Y+1679000D01*
X+1610000Y+1715000D02*
X+1600000Y+1727000D01*
X+1560000Y+1727000D01*
X+1550000Y+1715000D01*
X+1550000Y+1703000D01*
X+1560000Y+1691000D01*
X+1600000Y+1691000D01*
X+1610000Y+1703000D01*
X+1610000Y+1727000D02*
X+1610000Y+1679000D01*
X+1600000Y+1667000D01*
X+1550000Y+1667000D01*
X+1770000Y+1679000D02*
X+1770000Y+1715000D01*
X+1760000Y+1727000D01*
X+1720000Y+1727000D01*
X+1710000Y+1715000D01*
X+1710000Y+1751000D02*
X+1710000Y+1679000D01*
X+1790000Y+1715000D02*
X+1800000Y+1727000D01*
X+1840000Y+1727000D01*
X+1850000Y+1715000D01*
X+1850000Y+1691000D01*
X+1840000Y+1679000D01*
X+1800000Y+1679000D01*
X+1790000Y+1691000D01*
X+1790000Y+1715000D01*
X+1900000Y+1751000D02*
X+1900000Y+1679000D01*
X+1950000Y+1703000D02*
X+2010000Y+1703000D01*
X+2010000Y+1715000D01*
X+2000000Y+1727000D01*
X+1960000Y+1727000D01*
X+1950000Y+1715000D01*
X+1950000Y+1691000D01*
X+1960000Y+1679000D01*
X+2000000Y+1679000D01*
X+2080000Y+1727000D02*
X+2040000Y+1727000D01*
X+2030000Y+1715000D01*
X+2040000Y+1703000D01*
X+2080000Y+1703000D01*
X+2090000Y+1691000D01*
X+2080000Y+1679000D01*
X+2030000Y+1679000D01*
X+2200000Y+1727000D02*
X+2240000Y+1727000D01*
X+2250000Y+1715000D01*
X+2250000Y+1679000D01*
X+2200000Y+1679000D01*
X+2190000Y+1691000D01*
X+2200000Y+1703000D01*
X+2250000Y+1703000D01*
X+2270000Y+1679000D02*
X+2270000Y+1727000D01*
X+2270000Y+1715000D02*
X+2280000Y+1727000D01*
X+2320000Y+1727000D01*
X+2330000Y+1715000D01*
X+2350000Y+1703000D02*
X+2410000Y+1703000D01*
X+2410000Y+1715000D01*
X+2400000Y+1727000D01*
X+2360000Y+1727000D01*
X+2350000Y+1715000D01*
X+2350000Y+1691000D01*
X+2360000Y+1679000D01*
X+2400000Y+1679000D01*
X+2520000Y+1739000D02*
X+2530000Y+1751000D01*
X+2560000Y+1751000D01*
X+2570000Y+1739000D01*
X+2570000Y+1727000D01*
X+2560000Y+1715000D01*
X+2570000Y+1703000D01*
X+2570000Y+1691000D01*
X+2560000Y+1679000D01*
X+2530000Y+1679000D01*
X+2520000Y+1691000D01*
X+2540000Y+1715000D02*
X+2560000Y+1715000D01*
X+2620000Y+1691000D02*
X+2630000Y+1691000D01*
X+2630000Y+1679000D01*
X+2620000Y+1679000D01*
X+2620000Y+1691000D01*
X+2680000Y+1739000D02*
X+2690000Y+1751000D01*
X+2720000Y+1751000D01*
X+2730000Y+1739000D01*
X+2730000Y+1727000D01*
X+2720000Y+1715000D01*
X+2690000Y+1715000D01*
X+2680000Y+1703000D01*
X+2680000Y+1679000D01*
X+2730000Y+1679000D01*
X+2750000Y+1679000D02*
X+2750000Y+1727000D01*
X+2750000Y+1715000D02*
X+2760000Y+1727000D01*
X+2780000Y+1703000D01*
X+2800000Y+1727000D01*
X+2810000Y+1715000D01*
X+2810000Y+1679000D01*
X+2830000Y+1679000D02*
X+2830000Y+1727000D01*
X+2830000Y+1715000D02*
X+2840000Y+1727000D01*
X+2860000Y+1703000D01*
X+2880000Y+1727000D01*
X+2890000Y+1715000D01*
X+2890000Y+1679000D01*
X+3050000Y+1715000D02*
X+3040000Y+1727000D01*
X+3000000Y+1727000D01*
X+2990000Y+1715000D01*
X+2990000Y+1691000D01*
X+3000000Y+1679000D01*
X+3040000Y+1679000D01*
X+3050000Y+1691000D01*
X+3050000Y+1679000D02*
X+3050000Y+1751000D01*
X+3100000Y+1727000D02*
X+3100000Y+1679000D01*
X+3100000Y+1751000D02*
X+3100000Y+1751000D01*
X+3160000Y+1727000D02*
X+3200000Y+1727000D01*
X+3210000Y+1715000D01*
X+3210000Y+1679000D01*
X+3160000Y+1679000D01*
X+3150000Y+1691000D01*
X+3160000Y+1703000D01*
X+3210000Y+1703000D01*
X+3260000Y+1691000D02*
X+3270000Y+1691000D01*
X+3270000Y+1679000D01*
X+3260000Y+1679000D01*
X+3260000Y+1691000D01*
X+3390000Y+1679000D02*
X+3390000Y+1751000D01*
X+3440000Y+1751000D01*
X+3450000Y+1739000D01*
X+3450000Y+1727000D01*
X+3440000Y+1715000D01*
X+3390000Y+1715000D01*
X+3480000Y+1727000D02*
X+3520000Y+1727000D01*
X+3530000Y+1715000D01*
X+3530000Y+1679000D01*
X+3480000Y+1679000D01*
X+3470000Y+1691000D01*
X+3480000Y+1703000D01*
X+3530000Y+1703000D01*
X+3610000Y+1715000D02*
X+3600000Y+1727000D01*
X+3560000Y+1727000D01*
X+3550000Y+1715000D01*
X+3550000Y+1691000D01*
X+3560000Y+1679000D01*
X+3600000Y+1679000D01*
X+3610000Y+1691000D01*
X+3610000Y+1679000D02*
X+3610000Y+1751000D01*
X+3680000Y+1727000D02*
X+3640000Y+1727000D01*
X+3630000Y+1715000D01*
X+3640000Y+1703000D01*
X+3680000Y+1703000D01*
X+3690000Y+1691000D01*
X+3680000Y+1679000D01*
X+3630000Y+1679000D01*
X+3800000Y+1727000D02*
X+3840000Y+1727000D01*
X+3850000Y+1715000D01*
X+3850000Y+1679000D01*
X+3800000Y+1679000D01*
X+3790000Y+1691000D01*
X+3800000Y+1703000D01*
X+3850000Y+1703000D01*
X+3870000Y+1679000D02*
X+3870000Y+1727000D01*
X+3870000Y+1715000D02*
X+3880000Y+1727000D01*
X+3920000Y+1727000D01*
X+3930000Y+1715000D01*
X+3950000Y+1703000D02*
X+4010000Y+1703000D01*
X+4010000Y+1715000D01*
X+4000000Y+1727000D01*
X+3960000Y+1727000D01*
X+3950000Y+1715000D01*
X+3950000Y+1691000D01*
X+3960000Y+1679000D01*
X+4000000Y+1679000D01*
X+4110000Y+1691000D02*
X+4110000Y+1739000D01*
X+4120000Y+1751000D01*
X+4160000Y+1751000D01*
X+4170000Y+1739000D01*
X+4170000Y+1691000D01*
X+4160000Y+1679000D01*
X+4120000Y+1679000D01*
X+4110000Y+1691000D01*
X+4110000Y+1679000D02*
X+4170000Y+1751000D01*
X+4220000Y+1691000D02*
X+4230000Y+1691000D01*
X+4230000Y+1679000D01*
X+4220000Y+1679000D01*
X+4220000Y+1691000D01*
X+4280000Y+1739000D02*
X+4290000Y+1751000D01*
X+4320000Y+1751000D01*
X+4330000Y+1739000D01*
X+4330000Y+1727000D01*
X+4320000Y+1715000D01*
X+4290000Y+1715000D01*
X+4280000Y+1703000D01*
X+4280000Y+1679000D01*
X+4330000Y+1679000D01*
X+4410000Y+1751000D02*
X+4360000Y+1751000D01*
X+4360000Y+1727000D01*
X+4400000Y+1727000D01*
X+4410000Y+1715000D01*
X+4410000Y+1691000D01*
X+4400000Y+1679000D01*
X+4370000Y+1679000D01*
X+4360000Y+1691000D01*
X+4430000Y+1691000D02*
X+4430000Y+1739000D01*
X+4440000Y+1751000D01*
X+4480000Y+1751000D01*
X+4490000Y+1739000D01*
X+4490000Y+1691000D01*
X+4480000Y+1679000D01*
X+4440000Y+1679000D01*
X+4430000Y+1691000D01*
X+4430000Y+1679000D02*
X+4490000Y+1751000D01*
X+4650000Y+1715000D02*
X+4640000Y+1727000D01*
X+4600000Y+1727000D01*
X+4590000Y+1715000D01*
X+4590000Y+1691000D01*
X+4600000Y+1679000D01*
X+4640000Y+1679000D01*
X+4650000Y+1691000D01*
X+4650000Y+1679000D02*
X+4650000Y+1751000D01*
X+4700000Y+1727000D02*
X+4700000Y+1679000D01*
X+4700000Y+1751000D02*
X+4700000Y+1751000D01*
X+4760000Y+1727000D02*
X+4800000Y+1727000D01*
X+4810000Y+1715000D01*
X+4810000Y+1679000D01*
X+4760000Y+1679000D01*
X+4750000Y+1691000D01*
X+4760000Y+1703000D01*
X+4810000Y+1703000D01*
X+4860000Y+1691000D02*
X+4870000Y+1691000D01*
X+4870000Y+1679000D01*
X+4860000Y+1679000D01*
X+4860000Y+1691000D01*
X+3856496Y-639370D02*
X+3856496Y-1648425D01*
X+4525787Y-600000D02*
X+4525787Y-1648425D01*
X+3856496Y-1547638D02*
X+4525787Y-1547638D01*
X+3856496Y-1547638D02*
X+3906496Y-1597638D01*
X+3856496Y-1547638D02*
X+3906496Y-1497638D01*
X+4525787Y-1547638D02*
X+4475787Y-1497638D01*
X+4525787Y-1547638D02*
X+4475787Y-1597638D01*
X+4203642Y-1547638D02*
X+4203599Y-1546602D01*
X+4203249Y-1544528D01*
X+4202516Y-1542454D01*
X+4201319Y-1540380D01*
X+4199488Y-1538332D01*
X+4197414Y-1536825D01*
X+4195340Y-1535864D01*
X+4193266Y-1535320D01*
X+4191192Y-1535138D01*
X+4191142Y-1535138D01*
X+4178642Y-1547638D02*
X+4178685Y-1546602D01*
X+4179035Y-1544528D01*
X+4179768Y-1542454D01*
X+4180965Y-1540380D01*
X+4182796Y-1538332D01*
X+4184870Y-1536825D01*
X+4186944Y-1535864D01*
X+4189018Y-1535320D01*
X+4191092Y-1535138D01*
X+4191142Y-1535138D01*
X+4178642Y-1547638D02*
X+4178685Y-1548674D01*
X+4179035Y-1550748D01*
X+4179768Y-1552822D01*
X+4180965Y-1554896D01*
X+4182796Y-1556944D01*
X+4184870Y-1558451D01*
X+4186944Y-1559412D01*
X+4189018Y-1559956D01*
X+4191092Y-1560138D01*
X+4191142Y-1560138D01*
X+4203642Y-1547638D02*
X+4203599Y-1548674D01*
X+4203249Y-1550748D01*
X+4202516Y-1552822D01*
X+4201319Y-1554896D01*
X+4199488Y-1556944D01*
X+4197414Y-1558451D01*
X+4195340Y-1559412D01*
X+4193266Y-1559956D01*
X+4191192Y-1560138D01*
X+4191142Y-1560138D01*
X+3978642Y-1487953D02*
X+3991142Y-1475953D01*
X+3991142Y-1511953D01*
X+4022392Y-1475953D02*
X+4053642Y-1475953D01*
X+4053642Y-1481953D01*
X+4022392Y-1511953D01*
X+4066142Y-1511953D02*
X+4066142Y-1487953D01*
X+4066142Y-1493953D02*
X+4072392Y-1487953D01*
X+4084892Y-1499953D01*
X+4097392Y-1487953D01*
X+4103642Y-1493953D01*
X+4103642Y-1511953D01*
X+4116142Y-1511953D02*
X+4116142Y-1487953D01*
X+4116142Y-1493953D02*
X+4122392Y-1487953D01*
X+4134892Y-1499953D01*
X+4147392Y-1487953D01*
X+4153642Y-1493953D01*
X+4153642Y-1511953D01*
X+4241142Y-1475953D02*
X+4228642Y-1487953D01*
X+4228642Y-1499953D01*
X+4241142Y-1511953D01*
X+4266142Y-1487953D02*
X+4303642Y-1511953D01*
X+4266142Y-1511953D02*
X+4303642Y-1487953D01*
X+4322392Y-1475953D02*
X+4353642Y-1475953D01*
X+4353642Y-1481953D01*
X+4322392Y-1511953D01*
X+4384892Y-1475953D02*
X+4397392Y-1487953D01*
X+4397392Y-1499953D01*
X+4384892Y-1511953D01*
X+900000Y-900000D02*
X+900000Y-1853150D01*
X-3000000Y-1753150D02*
X+900000Y-1753150D01*
X-3000000Y-1753150D02*
X-2950000Y-1803150D01*
X-3000000Y-1753150D02*
X-2950000Y-1703150D01*
X+900000Y-1753150D02*
X+850000Y-1703150D01*
X+900000Y-1753150D02*
X+850000Y-1803150D01*
X-1037500Y-1753150D02*
X-1037543Y-1752114D01*
X-1037893Y-1750040D01*
X-1038626Y-1747966D01*
X-1039823Y-1745892D01*
X-1041654Y-1743844D01*
X-1043728Y-1742337D01*
X-1045802Y-1741376D01*
X-1047876Y-1740832D01*
X-1049950Y-1740650D01*
X-1050000Y-1740650D01*
X-1062500Y-1753150D02*
X-1062457Y-1752114D01*
X-1062107Y-1750040D01*
X-1061374Y-1747966D01*
X-1060177Y-1745892D01*
X-1058346Y-1743844D01*
X-1056272Y-1742337D01*
X-1054198Y-1741376D01*
X-1052124Y-1740832D01*
X-1050050Y-1740650D01*
X-1050000Y-1740650D01*
X-1062500Y-1753150D02*
X-1062457Y-1754186D01*
X-1062107Y-1756260D01*
X-1061374Y-1758334D01*
X-1060177Y-1760408D01*
X-1058346Y-1762456D01*
X-1056272Y-1763963D01*
X-1054198Y-1764924D01*
X-1052124Y-1765468D01*
X-1050050Y-1765650D01*
X-1050000Y-1765650D01*
X-1037500Y-1753150D02*
X-1037543Y-1754186D01*
X-1037893Y-1756260D01*
X-1038626Y-1758334D01*
X-1039823Y-1760408D01*
X-1041654Y-1762456D01*
X-1043728Y-1763963D01*
X-1045802Y-1764924D01*
X-1047876Y-1765468D01*
X-1049950Y-1765650D01*
X-1050000Y-1765650D01*
X-1163750Y-1682150D02*
X-1157500Y-1676150D01*
X-1138750Y-1676150D01*
X-1132500Y-1682150D01*
X-1132500Y-1688150D01*
X-1138750Y-1694150D01*
X-1132500Y-1700150D01*
X-1132500Y-1706150D01*
X-1138750Y-1712150D01*
X-1157500Y-1712150D01*
X-1163750Y-1706150D01*
X-1151250Y-1694150D02*
X-1138750Y-1694150D01*
X-1101250Y-1706150D02*
X-1095000Y-1706150D01*
X-1095000Y-1712150D01*
X-1101250Y-1712150D01*
X-1101250Y-1706150D01*
X-1032500Y-1688150D02*
X-1038750Y-1694150D01*
X-1057500Y-1694150D01*
X-1063750Y-1688150D01*
X-1063750Y-1682150D01*
X-1057500Y-1676150D01*
X-1038750Y-1676150D01*
X-1032500Y-1682150D01*
X-1032500Y-1706150D01*
X-1038750Y-1712150D01*
X-1057500Y-1712150D01*
X-1020000Y-1706150D02*
X-1020000Y-1682150D01*
X-1013750Y-1676150D01*
X-988750Y-1676150D01*
X-982500Y-1682150D01*
X-982500Y-1706150D01*
X-988750Y-1712150D01*
X-1013750Y-1712150D01*
X-1020000Y-1706150D01*
X-1020000Y-1712150D02*
X-982500Y-1676150D01*
X-970000Y-1706150D02*
X-970000Y-1682150D01*
X-963750Y-1676150D01*
X-938750Y-1676150D01*
X-932500Y-1682150D01*
X-932500Y-1706150D01*
X-938750Y-1712150D01*
X-963750Y-1712150D01*
X-970000Y-1706150D01*
X-970000Y-1712150D02*
X-932500Y-1676150D01*
X+3345000Y-2183150D02*
X+3300000Y-2183150D01*
X+3300000Y-2123150D01*
X+3345000Y-2123150D01*
X+3300000Y-2153150D02*
X+3330000Y-2153150D01*
X+3360000Y-2183150D02*
X+3360000Y-2143150D01*
X+3360000Y-2153150D02*
X+3367500Y-2143150D01*
X+3397500Y-2143150D01*
X+3405000Y-2153150D01*
X+3405000Y-2183150D01*
X+3465000Y-2153150D02*
X+3457500Y-2143150D01*
X+3427500Y-2143150D01*
X+3420000Y-2153150D01*
X+3420000Y-2173150D01*
X+3427500Y-2183150D01*
X+3457500Y-2183150D01*
X+3465000Y-2173150D01*
X+3465000Y-2183150D02*
X+3465000Y-2123150D01*
X+3540000Y-2153150D02*
X+3547500Y-2143150D01*
X+3577500Y-2143150D01*
X+3585000Y-2153150D01*
X+3585000Y-2173150D01*
X+3577500Y-2183150D01*
X+3547500Y-2183150D01*
X+3540000Y-2173150D01*
X+3540000Y-2153150D01*
X+3607500Y-2183150D02*
X+3607500Y-2133150D01*
X+3615000Y-2123150D01*
X+3637500Y-2123150D01*
X+3645000Y-2133150D01*
X+3600000Y-2153150D02*
X+3630000Y-2153150D01*
X+3720000Y-2123150D02*
X+3720000Y-2183150D01*
X+3765000Y-2183150D01*
X+3787500Y-2143150D02*
X+3817500Y-2143150D01*
X+3825000Y-2153150D01*
X+3825000Y-2183150D01*
X+3787500Y-2183150D01*
X+3780000Y-2173150D01*
X+3787500Y-2163150D01*
X+3825000Y-2163150D01*
X+3840000Y-2153150D02*
X+3847500Y-2143150D01*
X+3877500Y-2143150D01*
X+3885000Y-2153150D01*
X+3885000Y-2173150D01*
X+3877500Y-2183150D01*
X+3847500Y-2183150D01*
X+3840000Y-2173150D01*
X+3840000Y-2183150D02*
X+3840000Y-2123150D01*
X+3900000Y-2163150D02*
X+3900000Y-2173150D01*
X+3907500Y-2183150D01*
X+3937500Y-2183150D01*
X+3945000Y-2173150D01*
X+3945000Y-2123150D01*
X+3967500Y-2143150D02*
X+3997500Y-2143150D01*
X+4005000Y-2153150D01*
X+4005000Y-2183150D01*
X+3967500Y-2183150D01*
X+3960000Y-2173150D01*
X+3967500Y-2163150D01*
X+4005000Y-2163150D01*
X+4065000Y-2153150D02*
X+4057500Y-2143150D01*
X+4027500Y-2143150D01*
X+4020000Y-2153150D01*
X+4020000Y-2173150D01*
X+4027500Y-2183150D01*
X+4057500Y-2183150D01*
X+4065000Y-2173150D01*
X+4080000Y-2123150D02*
X+4080000Y-2183150D01*
X+4080000Y-2173150D02*
X+4125000Y-2143150D01*
X+4095000Y-2163150D02*
X+4125000Y-2183150D01*
X+4200000Y-2153150D02*
X+4207500Y-2143150D01*
X+4237500Y-2143150D01*
X+4245000Y-2153150D01*
X+4245000Y-2173150D01*
X+4237500Y-2183150D01*
X+4207500Y-2183150D01*
X+4200000Y-2173150D01*
X+4200000Y-2183150D02*
X+4200000Y-2123150D01*
X+4260000Y-2153150D02*
X+4267500Y-2143150D01*
X+4297500Y-2143150D01*
X+4305000Y-2153150D01*
X+4305000Y-2173150D01*
X+4297500Y-2183150D01*
X+4267500Y-2183150D01*
X+4260000Y-2173150D01*
X+4260000Y-2153150D01*
X+4327500Y-2143150D02*
X+4357500Y-2143150D01*
X+4365000Y-2153150D01*
X+4365000Y-2183150D01*
X+4327500Y-2183150D01*
X+4320000Y-2173150D01*
X+4327500Y-2163150D01*
X+4365000Y-2163150D01*
X+4380000Y-2183150D02*
X+4380000Y-2143150D01*
X+4380000Y-2153150D02*
X+4387500Y-2143150D01*
X+4417500Y-2143150D01*
X+4425000Y-2153150D01*
X+4485000Y-2153150D02*
X+4477500Y-2143150D01*
X+4447500Y-2143150D01*
X+4440000Y-2153150D01*
X+4440000Y-2173150D01*
X+4447500Y-2183150D01*
X+4477500Y-2183150D01*
X+4485000Y-2173150D01*
X+4485000Y-2183150D02*
X+4485000Y-2123150D01*
X+3000000Y-2153150D02*
X+3200000Y-2153150D01*
X+3000000Y-2153150D02*
X+3050000Y-2103150D01*
X+3000000Y-2153150D02*
X+3050000Y-2203150D01*
X+2850000Y+700000D02*
X+2850000Y-2053150D01*
X-3000000Y-1953150D02*
X+2850000Y-1953150D01*
X-3000000Y-1953150D02*
X-2950000Y-2003150D01*
X-3000000Y-1953150D02*
X-2950000Y-1903150D01*
X+2850000Y-1953150D02*
X+2800000Y-1903150D01*
X+2850000Y-1953150D02*
X+2800000Y-2003150D01*
X-62500Y-1953150D02*
X-62543Y-1952114D01*
X-62893Y-1950040D01*
X-63626Y-1947966D01*
X-64823Y-1945892D01*
X-66654Y-1943844D01*
X-68728Y-1942337D01*
X-70802Y-1941376D01*
X-72876Y-1940832D01*
X-74950Y-1940650D01*
X-75000Y-1940650D01*
X-87500Y-1953150D02*
X-87457Y-1952114D01*
X-87107Y-1950040D01*
X-86374Y-1947966D01*
X-85177Y-1945892D01*
X-83346Y-1943844D01*
X-81272Y-1942337D01*
X-79198Y-1941376D01*
X-77124Y-1940832D01*
X-75050Y-1940650D01*
X-75000Y-1940650D01*
X-87500Y-1953150D02*
X-87457Y-1954186D01*
X-87107Y-1956260D01*
X-86374Y-1958334D01*
X-85177Y-1960408D01*
X-83346Y-1962456D01*
X-81272Y-1963963D01*
X-79198Y-1964924D01*
X-77124Y-1965468D01*
X-75050Y-1965650D01*
X-75000Y-1965650D01*
X-62500Y-1953150D02*
X-62543Y-1954186D01*
X-62893Y-1956260D01*
X-63626Y-1958334D01*
X-64823Y-1960408D01*
X-66654Y-1962456D01*
X-68728Y-1963963D01*
X-70802Y-1964924D01*
X-72876Y-1965468D01*
X-74950Y-1965650D01*
X-75000Y-1965650D01*
X-162500Y-1876150D02*
X-193750Y-1876150D01*
X-193750Y-1888150D01*
X-168750Y-1888150D01*
X-162500Y-1894150D01*
X-162500Y-1906150D01*
X-168750Y-1912150D01*
X-187500Y-1912150D01*
X-193750Y-1906150D01*
X-131250Y-1906150D02*
X-125000Y-1906150D01*
X-125000Y-1912150D01*
X-131250Y-1912150D01*
X-131250Y-1906150D01*
X-87500Y-1894150D02*
X-93750Y-1888150D01*
X-93750Y-1882150D01*
X-87500Y-1876150D01*
X-68750Y-1876150D01*
X-62500Y-1882150D01*
X-62500Y-1888150D01*
X-68750Y-1894150D01*
X-87500Y-1894150D01*
X-93750Y-1900150D01*
X-93750Y-1906150D01*
X-87500Y-1912150D01*
X-68750Y-1912150D01*
X-62500Y-1906150D01*
X-62500Y-1900150D01*
X-68750Y-1894150D01*
X-12500Y-1876150D02*
X-43750Y-1876150D01*
X-43750Y-1888150D01*
X-18750Y-1888150D01*
X-12500Y-1894150D01*
X-12500Y-1906150D01*
X-18750Y-1912150D01*
X-37500Y-1912150D01*
X-43750Y-1906150D01*
X+0Y-1906150D02*
X+0Y-1882150D01*
X+6250Y-1876150D01*
X+31250Y-1876150D01*
X+37500Y-1882150D01*
X+37500Y-1906150D01*
X+31250Y-1912150D01*
X+6250Y-1912150D01*
X+0Y-1906150D01*
X+0Y-1912150D02*
X+37500Y-1876150D01*
X+5119370Y-750000D02*
X+5059370Y-750000D01*
X+5059370Y-710000D01*
X+5079370Y-690000D01*
X+5099370Y-690000D01*
X+5119370Y-710000D01*
X+5119370Y-750000D01*
X+5079370Y-660000D02*
X+5079370Y-620000D01*
X+5089370Y-610000D01*
X+5119370Y-610000D01*
X+5119370Y-660000D01*
X+5109370Y-670000D01*
X+5099370Y-660000D01*
X+5099370Y-610000D01*
X+5079370Y-590000D02*
X+5109370Y-590000D01*
X+5119370Y-580000D01*
X+5119370Y-540000D01*
X+5109370Y-530000D01*
X+5119370Y-530000D02*
X+5079370Y-530000D01*
X+5089370Y-450000D02*
X+5079370Y-460000D01*
X+5079370Y-500000D01*
X+5089370Y-510000D01*
X+5099370Y-510000D01*
X+5109370Y-500000D01*
X+5109370Y-460000D01*
X+5099370Y-450000D01*
X+5079370Y-450000D02*
X+5119370Y-450000D01*
X+5129370Y-460000D01*
X+5129370Y-510000D01*
X+5119370Y-370000D02*
X+5089370Y-370000D01*
X+5079370Y-380000D01*
X+5079370Y-420000D01*
X+5089370Y-430000D01*
X+5059370Y-430000D02*
X+5119370Y-430000D01*
X+5059370Y-340000D02*
X+5109370Y-340000D01*
X+5119370Y-330000D01*
X+5119370Y-300000D01*
X+5109370Y-290000D01*
X+5079370Y-350000D02*
X+5079370Y-300000D01*
X+5099370Y-270000D02*
X+5099370Y-210000D01*
X+5089370Y-210000D01*
X+5079370Y-220000D01*
X+5079370Y-260000D01*
X+5089370Y-270000D01*
X+5109370Y-270000D01*
X+5119370Y-260000D01*
X+5119370Y-220000D01*
X+5119370Y-190000D02*
X+5079370Y-190000D01*
X+5089370Y-190000D02*
X+5079370Y-180000D01*
X+5079370Y-140000D01*
X+5089370Y-130000D01*
X+5089370Y-110000D02*
X+5079370Y-100000D01*
X+5079370Y-60000D01*
X+5089370Y-50000D01*
X+5109370Y-50000D01*
X+5119370Y-60000D01*
X+5119370Y-100000D01*
X+5109370Y-110000D01*
X+5119370Y-110000D02*
X+5059370Y-110000D01*
X+5089370Y-30000D02*
X+5079370Y-20000D01*
X+5079370Y+20000D01*
X+5089370Y+30000D01*
X+5109370Y+30000D01*
X+5119370Y+20000D01*
X+5119370Y-20000D01*
X+5109370Y-30000D01*
X+5089370Y-30000D01*
X+5079370Y+60000D02*
X+5079370Y+100000D01*
X+5089370Y+110000D01*
X+5119370Y+110000D01*
X+5119370Y+60000D01*
X+5109370Y+50000D01*
X+5099370Y+60000D01*
X+5099370Y+110000D01*
X+5119370Y+130000D02*
X+5079370Y+130000D01*
X+5089370Y+130000D02*
X+5079370Y+140000D01*
X+5079370Y+180000D01*
X+5089370Y+190000D01*
X+5089370Y+270000D02*
X+5079370Y+260000D01*
X+5079370Y+220000D01*
X+5089370Y+210000D01*
X+5109370Y+210000D01*
X+5119370Y+220000D01*
X+5119370Y+260000D01*
X+5109370Y+270000D01*
X+5119370Y+270000D02*
X+5059370Y+270000D01*
X-2400000Y+1350000D02*
X-2400000Y+1600000D01*
X-3000000Y+1500000D02*
X-2400000Y+1500000D01*
X-3000000Y+1500000D02*
X-2950000Y+1450000D01*
X-3000000Y+1500000D02*
X-2950000Y+1550000D01*
X-2400000Y+1500000D02*
X-2450000Y+1550000D01*
X-2400000Y+1500000D02*
X-2450000Y+1450000D01*
X-2687500Y+1500000D02*
X-2687543Y+1501036D01*
X-2687893Y+1503110D01*
X-2688626Y+1505184D01*
X-2689823Y+1507258D01*
X-2691654Y+1509306D01*
X-2693728Y+1510813D01*
X-2695802Y+1511774D01*
X-2697876Y+1512318D01*
X-2699950Y+1512500D01*
X-2700000Y+1512500D01*
X-2712500Y+1500000D02*
X-2712457Y+1501036D01*
X-2712107Y+1503110D01*
X-2711374Y+1505184D01*
X-2710177Y+1507258D01*
X-2708346Y+1509306D01*
X-2706272Y+1510813D01*
X-2704198Y+1511774D01*
X-2702124Y+1512318D01*
X-2700050Y+1512500D01*
X-2700000Y+1512500D01*
X-2712500Y+1500000D02*
X-2712457Y+1498964D01*
X-2712107Y+1496890D01*
X-2711374Y+1494816D01*
X-2710177Y+1492742D01*
X-2708346Y+1490694D01*
X-2706272Y+1489187D01*
X-2704198Y+1488226D01*
X-2702124Y+1487682D01*
X-2700050Y+1487500D01*
X-2700000Y+1487500D01*
X-2687500Y+1500000D02*
X-2687543Y+1498964D01*
X-2687893Y+1496890D01*
X-2688626Y+1494816D01*
X-2689823Y+1492742D01*
X-2691654Y+1490694D01*
X-2693728Y+1489187D01*
X-2695802Y+1488226D01*
X-2697876Y+1487682D01*
X-2699950Y+1487500D01*
X-2700000Y+1487500D01*
X-2825000Y+1547000D02*
X-2825000Y+1571000D01*
X-2818750Y+1577000D01*
X-2793750Y+1577000D01*
X-2787500Y+1571000D01*
X-2787500Y+1547000D01*
X-2793750Y+1541000D01*
X-2818750Y+1541000D01*
X-2825000Y+1547000D01*
X-2825000Y+1541000D02*
X-2787500Y+1577000D01*
X-2756250Y+1547000D02*
X-2750000Y+1547000D01*
X-2750000Y+1541000D01*
X-2756250Y+1541000D01*
X-2756250Y+1547000D01*
X-2687500Y+1571000D02*
X-2693750Y+1577000D01*
X-2712500Y+1577000D01*
X-2718750Y+1571000D01*
X-2718750Y+1547000D01*
X-2712500Y+1541000D01*
X-2693750Y+1541000D01*
X-2687500Y+1547000D01*
X-2687500Y+1553000D01*
X-2693750Y+1559000D01*
X-2718750Y+1559000D01*
X-2675000Y+1547000D02*
X-2675000Y+1571000D01*
X-2668750Y+1577000D01*
X-2643750Y+1577000D01*
X-2637500Y+1571000D01*
X-2637500Y+1547000D01*
X-2643750Y+1541000D01*
X-2668750Y+1541000D01*
X-2675000Y+1547000D01*
X-2675000Y+1541000D02*
X-2637500Y+1577000D01*
X-2625000Y+1547000D02*
X-2625000Y+1571000D01*
X-2618750Y+1577000D01*
X-2593750Y+1577000D01*
X-2587500Y+1571000D01*
X-2587500Y+1547000D01*
X-2593750Y+1541000D01*
X-2618750Y+1541000D01*
X-2625000Y+1547000D01*
X-2625000Y+1541000D02*
X-2587500Y+1577000D01*
X-2450000Y-500000D02*
X-3500000Y-500000D01*
X-2450000Y+300000D02*
X-3500000Y+300000D01*
X-3400000Y-900000D02*
X-3400000Y-500000D01*
X-3400000Y-900000D02*
X-3350000Y-850000D01*
X-3400000Y-900000D02*
X-3450000Y-850000D01*
X-3400000Y-500000D02*
X-3450000Y-550000D01*
X-3400000Y-500000D02*
X-3350000Y-550000D01*
X-3387500Y-700000D02*
X-3387543Y-698964D01*
X-3387893Y-696890D01*
X-3388626Y-694816D01*
X-3389823Y-692742D01*
X-3391654Y-690694D01*
X-3393728Y-689187D01*
X-3395802Y-688226D01*
X-3397876Y-687682D01*
X-3399950Y-687500D01*
X-3400000Y-687500D01*
X-3412500Y-700000D02*
X-3412457Y-698964D01*
X-3412107Y-696890D01*
X-3411374Y-694816D01*
X-3410177Y-692742D01*
X-3408346Y-690694D01*
X-3406272Y-689187D01*
X-3404198Y-688226D01*
X-3402124Y-687682D01*
X-3400050Y-687500D01*
X-3400000Y-687500D01*
X-3412500Y-700000D02*
X-3412457Y-701036D01*
X-3412107Y-703110D01*
X-3411374Y-705184D01*
X-3410177Y-707258D01*
X-3408346Y-709306D01*
X-3406272Y-710813D01*
X-3404198Y-711774D01*
X-3402124Y-712318D01*
X-3400050Y-712500D01*
X-3400000Y-712500D01*
X-3387500Y-700000D02*
X-3387543Y-701036D01*
X-3387893Y-703110D01*
X-3388626Y-705184D01*
X-3389823Y-707258D01*
X-3391654Y-709306D01*
X-3393728Y-710813D01*
X-3395802Y-711774D01*
X-3397876Y-712318D01*
X-3399950Y-712500D01*
X-3400000Y-712500D01*
X-3447000Y-825000D02*
X-3471000Y-825000D01*
X-3477000Y-818750D01*
X-3477000Y-793750D01*
X-3471000Y-787500D01*
X-3447000Y-787500D01*
X-3441000Y-793750D01*
X-3441000Y-818750D01*
X-3447000Y-825000D01*
X-3441000Y-825000D02*
X-3477000Y-787500D01*
X-3447000Y-756250D02*
X-3447000Y-750000D01*
X-3441000Y-750000D01*
X-3441000Y-756250D01*
X-3447000Y-756250D01*
X-3453000Y-687500D02*
X-3453000Y-725000D01*
X-3477000Y-700000D01*
X-3441000Y-700000D01*
X-3447000Y-675000D02*
X-3471000Y-675000D01*
X-3477000Y-668750D01*
X-3477000Y-643750D01*
X-3471000Y-637500D01*
X-3447000Y-637500D01*
X-3441000Y-643750D01*
X-3441000Y-668750D01*
X-3447000Y-675000D01*
X-3441000Y-675000D02*
X-3477000Y-637500D01*
X-3447000Y-625000D02*
X-3471000Y-625000D01*
X-3477000Y-618750D01*
X-3477000Y-593750D01*
X-3471000Y-587500D01*
X-3447000Y-587500D01*
X-3441000Y-593750D01*
X-3441000Y-618750D01*
X-3447000Y-625000D01*
X-3441000Y-625000D02*
X-3477000Y-587500D01*
X-3400000Y-500000D02*
X-3400000Y+300000D01*
X-3400000Y-500000D02*
X-3350000Y-450000D01*
X-3400000Y-500000D02*
X-3450000Y-450000D01*
X-3400000Y+300000D02*
X-3450000Y+250000D01*
X-3400000Y+300000D02*
X-3350000Y+250000D01*
X-3387500Y-100000D02*
X-3387543Y-98964D01*
X-3387893Y-96890D01*
X-3388626Y-94816D01*
X-3389823Y-92742D01*
X-3391654Y-90694D01*
X-3393728Y-89187D01*
X-3395802Y-88226D01*
X-3397876Y-87682D01*
X-3399950Y-87500D01*
X-3400000Y-87500D01*
X-3412500Y-100000D02*
X-3412457Y-98964D01*
X-3412107Y-96890D01*
X-3411374Y-94816D01*
X-3410177Y-92742D01*
X-3408346Y-90694D01*
X-3406272Y-89187D01*
X-3404198Y-88226D01*
X-3402124Y-87682D01*
X-3400050Y-87500D01*
X-3400000Y-87500D01*
X-3412500Y-100000D02*
X-3412457Y-101036D01*
X-3412107Y-103110D01*
X-3411374Y-105184D01*
X-3410177Y-107258D01*
X-3408346Y-109306D01*
X-3406272Y-110813D01*
X-3404198Y-111774D01*
X-3402124Y-112318D01*
X-3400050Y-112500D01*
X-3400000Y-112500D01*
X-3387500Y-100000D02*
X-3387543Y-101036D01*
X-3387893Y-103110D01*
X-3388626Y-105184D01*
X-3389823Y-107258D01*
X-3391654Y-109306D01*
X-3393728Y-110813D01*
X-3395802Y-111774D01*
X-3397876Y-112318D01*
X-3399950Y-112500D01*
X-3400000Y-112500D01*
X-3447000Y-225000D02*
X-3471000Y-225000D01*
X-3477000Y-218750D01*
X-3477000Y-193750D01*
X-3471000Y-187500D01*
X-3447000Y-187500D01*
X-3441000Y-193750D01*
X-3441000Y-218750D01*
X-3447000Y-225000D01*
X-3441000Y-225000D02*
X-3477000Y-187500D01*
X-3447000Y-156250D02*
X-3447000Y-150000D01*
X-3441000Y-150000D01*
X-3441000Y-156250D01*
X-3447000Y-156250D01*
X-3459000Y-112500D02*
X-3465000Y-118750D01*
X-3471000Y-118750D01*
X-3477000Y-112500D01*
X-3477000Y-93750D01*
X-3471000Y-87500D01*
X-3465000Y-87500D01*
X-3459000Y-93750D01*
X-3459000Y-112500D01*
X-3453000Y-118750D01*
X-3447000Y-118750D01*
X-3441000Y-112500D01*
X-3441000Y-93750D01*
X-3447000Y-87500D01*
X-3453000Y-87500D01*
X-3459000Y-93750D01*
X-3447000Y-75000D02*
X-3471000Y-75000D01*
X-3477000Y-68750D01*
X-3477000Y-43750D01*
X-3471000Y-37500D01*
X-3447000Y-37500D01*
X-3441000Y-43750D01*
X-3441000Y-68750D01*
X-3447000Y-75000D01*
X-3441000Y-75000D02*
X-3477000Y-37500D01*
X-3447000Y-25000D02*
X-3471000Y-25000D01*
X-3477000Y-18750D01*
X-3477000Y+6250D01*
X-3471000Y+12500D01*
X-3447000Y+12500D01*
X-3441000Y+6250D01*
X-3441000Y-18750D01*
X-3447000Y-25000D01*
X-3441000Y-25000D02*
X-3477000Y+12500D01*
X-950000Y-800000D02*
X-3300000Y-800000D01*
X-3200000Y-900000D02*
X-3200000Y-800000D01*
X-3200000Y-900000D02*
X-3150000Y-850000D01*
X-3200000Y-900000D02*
X-3250000Y-850000D01*
X-3200000Y-800000D02*
X-3250000Y-850000D01*
X-3200000Y-800000D02*
X-3150000Y-850000D01*
X-3187500Y-850000D02*
X-3187543Y-848964D01*
X-3187893Y-846890D01*
X-3188626Y-844816D01*
X-3189823Y-842742D01*
X-3191654Y-840694D01*
X-3193728Y-839187D01*
X-3195802Y-838226D01*
X-3197876Y-837682D01*
X-3199950Y-837500D01*
X-3200000Y-837500D01*
X-3212500Y-850000D02*
X-3212457Y-848964D01*
X-3212107Y-846890D01*
X-3211374Y-844816D01*
X-3210177Y-842742D01*
X-3208346Y-840694D01*
X-3206272Y-839187D01*
X-3204198Y-838226D01*
X-3202124Y-837682D01*
X-3200050Y-837500D01*
X-3200000Y-837500D01*
X-3212500Y-850000D02*
X-3212457Y-851036D01*
X-3212107Y-853110D01*
X-3211374Y-855184D01*
X-3210177Y-857258D01*
X-3208346Y-859306D01*
X-3206272Y-860813D01*
X-3204198Y-861774D01*
X-3202124Y-862318D01*
X-3200050Y-862500D01*
X-3200000Y-862500D01*
X-3187500Y-850000D02*
X-3187543Y-851036D01*
X-3187893Y-853110D01*
X-3188626Y-855184D01*
X-3189823Y-857258D01*
X-3191654Y-859306D01*
X-3193728Y-860813D01*
X-3195802Y-861774D01*
X-3197876Y-862318D01*
X-3199950Y-862500D01*
X-3200000Y-862500D01*
X-3272000Y-775000D02*
X-3296000Y-775000D01*
X-3302000Y-768750D01*
X-3302000Y-743750D01*
X-3296000Y-737500D01*
X-3272000Y-737500D01*
X-3266000Y-743750D01*
X-3266000Y-768750D01*
X-3272000Y-775000D01*
X-3266000Y-775000D02*
X-3302000Y-737500D01*
X-3272000Y-706250D02*
X-3272000Y-700000D01*
X-3266000Y-700000D01*
X-3266000Y-706250D01*
X-3272000Y-706250D01*
X-3290000Y-662500D02*
X-3302000Y-650000D01*
X-3266000Y-650000D01*
X-3272000Y-625000D02*
X-3296000Y-625000D01*
X-3302000Y-618750D01*
X-3302000Y-593750D01*
X-3296000Y-587500D01*
X-3272000Y-587500D01*
X-3266000Y-593750D01*
X-3266000Y-618750D01*
X-3272000Y-625000D01*
X-3266000Y-625000D02*
X-3302000Y-587500D01*
X-3272000Y-575000D02*
X-3296000Y-575000D01*
X-3302000Y-568750D01*
X-3302000Y-543750D01*
X-3296000Y-537500D01*
X-3272000Y-537500D01*
X-3266000Y-543750D01*
X-3266000Y-568750D01*
X-3272000Y-575000D01*
X-3266000Y-575000D02*
X-3302000Y-537500D01*
X-1130709Y-1550000D02*
X-160709Y-1550000D01*
X-1130709Y-1550000D02*
X-1080709Y-1600000D01*
X-1130709Y-1550000D02*
X-1080709Y-1500000D01*
X-160709Y-1550000D02*
X-210709Y-1500000D01*
X-160709Y-1550000D02*
X-210709Y-1600000D01*
X-633209Y-1550000D02*
X-633252Y-1548964D01*
X-633602Y-1546890D01*
X-634335Y-1544816D01*
X-635532Y-1542742D01*
X-637363Y-1540694D01*
X-639437Y-1539187D01*
X-641511Y-1538226D01*
X-643585Y-1537682D01*
X-645659Y-1537500D01*
X-645709Y-1537500D01*
X-658209Y-1550000D02*
X-658166Y-1548964D01*
X-657816Y-1546890D01*
X-657083Y-1544816D01*
X-655886Y-1542742D01*
X-654055Y-1540694D01*
X-651981Y-1539187D01*
X-649907Y-1538226D01*
X-647833Y-1537682D01*
X-645759Y-1537500D01*
X-645709Y-1537500D01*
X-658209Y-1550000D02*
X-658166Y-1551036D01*
X-657816Y-1553110D01*
X-657083Y-1555184D01*
X-655886Y-1557258D01*
X-654055Y-1559306D01*
X-651981Y-1560813D01*
X-649907Y-1561774D01*
X-647833Y-1562318D01*
X-645759Y-1562500D01*
X-645709Y-1562500D01*
X-633209Y-1550000D02*
X-633252Y-1551036D01*
X-633602Y-1553110D01*
X-634335Y-1555184D01*
X-635532Y-1557258D01*
X-637363Y-1559306D01*
X-639437Y-1560813D01*
X-641511Y-1561774D01*
X-643585Y-1562318D01*
X-645659Y-1562500D01*
X-645709Y-1562500D01*
X-839459Y-1484000D02*
X-833209Y-1478000D01*
X-814459Y-1478000D01*
X-808209Y-1484000D01*
X-808209Y-1490000D01*
X-814459Y-1496000D01*
X-833209Y-1496000D01*
X-839459Y-1502000D01*
X-839459Y-1514000D01*
X-808209Y-1514000D01*
X-758209Y-1502000D02*
X-795709Y-1502000D01*
X-770709Y-1478000D01*
X-770709Y-1514000D01*
X-726959Y-1508000D02*
X-720709Y-1508000D01*
X-720709Y-1514000D01*
X-726959Y-1514000D01*
X-726959Y-1508000D01*
X-658209Y-1484000D02*
X-664459Y-1478000D01*
X-683209Y-1478000D01*
X-689459Y-1484000D01*
X-689459Y-1508000D01*
X-683209Y-1514000D01*
X-664459Y-1514000D01*
X-658209Y-1508000D01*
X-658209Y-1502000D01*
X-664459Y-1496000D01*
X-689459Y-1496000D01*
X-639459Y-1484000D02*
X-633209Y-1478000D01*
X-614459Y-1478000D01*
X-608209Y-1484000D01*
X-608209Y-1490000D01*
X-614459Y-1496000D01*
X-608209Y-1502000D01*
X-608209Y-1508000D01*
X-614459Y-1514000D01*
X-633209Y-1514000D01*
X-639459Y-1508000D01*
X-626959Y-1496000D02*
X-614459Y-1496000D01*
X-583209Y-1496000D02*
X-589459Y-1490000D01*
X-589459Y-1484000D01*
X-583209Y-1478000D01*
X-564459Y-1478000D01*
X-558209Y-1484000D01*
X-558209Y-1490000D01*
X-564459Y-1496000D01*
X-583209Y-1496000D01*
X-589459Y-1502000D01*
X-589459Y-1508000D01*
X-583209Y-1514000D01*
X-564459Y-1514000D01*
X-558209Y-1508000D01*
X-558209Y-1502000D01*
X-564459Y-1496000D01*
X-545709Y-1514000D02*
X-545709Y-1490000D01*
X-545709Y-1496000D02*
X-539459Y-1490000D01*
X-526959Y-1502000D01*
X-514459Y-1490000D01*
X-508209Y-1496000D01*
X-508209Y-1514000D01*
X-495709Y-1514000D02*
X-495709Y-1490000D01*
X-495709Y-1496000D02*
X-489459Y-1490000D01*
X-476959Y-1502000D01*
X-464459Y-1490000D01*
X-458209Y-1496000D01*
X-458209Y-1514000D01*
M02*
